# MagicaVoxel @ Ephtracy

# group
o 

# material
mtllib ZWorker_1.mtl
usemtl palette

# normals
vn -1 0 0
vn 1 0 0
vn 0 0 1
vn 0 0 -1
vn 0 -1 0
vn 0 1 0

# texcoords
vt 0.287109 0.5
vt 0.478516 0.5
vt 0.583984 0.5
vt 0.712891 0.5
vt 0.767578 0.5
vt 0.966797 0.5
vt 0.990234 0.5
vt 0.994141 0.5

# verts
v -0.6 1.2 0
v -0.6 1.2 -0.1
v -0.6 1.4 0
v -0.6 1.4 -0.1
v -0.5 0.4 0.1
v -0.5 0.4 -0.1
v -0.5 0.5 0.1
v -0.5 0.5 0
v -0.5 0.5 -0.1
v -0.5 0.6 0
v -0.5 0.6 -0.1
v -0.5 0.9 0.4
v -0.5 0.9 0.2
v -0.5 0.9 0.1
v -0.5 0.9 -0.1
v -0.5 0.9 -0.4
v -0.5 1 0.2
v -0.5 1 0.1
v -0.5 1.1 0.4
v -0.5 1.1 0.3
v -0.5 1.1 0.1
v -0.5 1.1 0
v -0.5 1.2 0.3
v -0.5 1.2 0.1
v -0.5 1.2 0
v -0.5 1.2 -0.1
v -0.5 1.3 0.1
v -0.5 1.3 0
v -0.5 1.4 0
v -0.5 1.4 -0.1
v -0.5 1.8 0.4
v -0.5 1.8 -0.4
v -0.4 1.4 0.5
v -0.4 1.4 0.4
v -0.4 1.5 0.5
v -0.4 1.5 0.4
v -0.3 0 0.1
v -0.3 0 -0.1
v -0.3 0.1 0.1
v -0.3 0.1 -0.1
v -0.3 0.4 0.2
v -0.3 0.4 0.1
v -0.3 0.4 -0.1
v -0.3 0.4 -0.2
v -0.3 0.5 0.2
v -0.3 0.5 0.1
v -0.3 0.5 -0.1
v -0.3 0.5 -0.2
v -0.3 0.9 0.2
v -0.3 0.9 0.1
v -0.3 0.9 -0.1
v -0.3 0.9 -0.2
v -0.3 1.5 0.5
v -0.3 1.5 0.4
v -0.3 1.6 0.5
v -0.3 1.6 0.4
v -0.2 0.9 0.5
v -0.2 0.9 0.4
v -0.2 1 0.4
v -0.2 1.1 0.5
v -0.2 1.1 0.4
v -0.1 0.5 0.3
v -0.1 0.5 0.2
v -0.1 0.9 0.3
v -0.1 0.9 0.2
v -0.1 1.1 0.5
v -0.1 1.1 0.4
v -0.1 1.2 0.5
v -0.1 1.2 0.4
v 0.1 0 0.1
v 0.1 0 -0.1
v 0.1 0.1 0.1
v 0.1 0.1 -0.1
v 0.1 0.4 0.1
v 0.1 0.4 -0.1
v 0.1 0.9 0.5
v 0.1 0.9 0.4
v 0.1 1 0.4
v 0.1 1.1 0.5
v 0.1 1.1 0.4
v 0.1 1.5 0.5
v 0.1 1.5 0.4
v 0.1 1.6 0.5
v 0.1 1.6 0.4
v 0.3 0.4 0.1
v 0.3 0.4 -0.1
v 0.3 0.5 0.1
v 0.3 0.5 -0.1
v 0.3 1.4 0.5
v 0.3 1.4 0.4
v 0.3 1.5 0.5
v 0.3 1.5 0.4
v -0.3 1.4 0.5
v -0.3 1.4 0.4
v -0.3 1.5 0.5
v -0.3 1.5 0.4
v -0.1 0 0.1
v -0.1 0 -0.1
v -0.1 0.1 0.1
v -0.1 0.1 -0.1
v -0.1 0.4 0.1
v -0.1 0.4 -0.1
v -0.1 0.9 0.5
v -0.1 0.9 0.4
v -0.1 1 0.4
v -0.1 1.1 0.5
v -0.1 1.1 0.4
v -0.1 1.5 0.5
v -0.1 1.5 0.4
v -0.1 1.6 0.5
v -0.1 1.6 0.4
v 0 0.5 0.3
v 0 0.5 0.2
v 0 0.9 0.3
v 0 0.9 0.2
v 0.1 0.4 0.1
v 0.1 0.4 -0.1
v 0.1 0.5 0.1
v 0.1 0.5 -0.1
v 0.1 1.1 0.5
v 0.1 1.1 0.4
v 0.1 1.2 0.5
v 0.1 1.2 0.4
v 0.2 0.9 0.5
v 0.2 0.9 0.4
v 0.2 1 0.4
v 0.2 1.1 0.5
v 0.2 1.1 0.4
v 0.3 0 0.1
v 0.3 0 -0.1
v 0.3 0.1 0.1
v 0.3 0.1 -0.1
v 0.3 0.4 0.2
v 0.3 0.4 0.1
v 0.3 0.4 -0.1
v 0.3 0.4 -0.2
v 0.3 0.5 0.2
v 0.3 0.5 0.1
v 0.3 0.5 -0.1
v 0.3 0.5 -0.2
v 0.3 0.9 0.2
v 0.3 0.9 0.1
v 0.3 0.9 -0.1
v 0.3 0.9 -0.2
v 0.3 1.5 0.5
v 0.3 1.5 0.4
v 0.3 1.6 0.5
v 0.3 1.6 0.4
v 0.4 1.4 0.5
v 0.4 1.4 0.4
v 0.4 1.5 0.5
v 0.4 1.5 0.4
v 0.5 0.4 0.1
v 0.5 0.4 -0.1
v 0.5 0.5 0.1
v 0.5 0.5 0
v 0.5 0.5 -0.1
v 0.5 0.6 0
v 0.5 0.6 -0.1
v 0.5 0.9 0.4
v 0.5 0.9 0.2
v 0.5 0.9 0.1
v 0.5 0.9 -0.1
v 0.5 0.9 -0.4
v 0.5 1 0.2
v 0.5 1 0.1
v 0.5 1.1 0.4
v 0.5 1.1 0.3
v 0.5 1.1 0.1
v 0.5 1.1 0
v 0.5 1.2 0.3
v 0.5 1.2 0.1
v 0.5 1.2 0
v 0.5 1.2 -0.1
v 0.5 1.3 0.1
v 0.5 1.3 0
v 0.5 1.4 0
v 0.5 1.4 -0.1
v 0.5 1.8 0.4
v 0.5 1.8 -0.4
v 0.6 1.2 0
v 0.6 1.2 -0.1
v 0.6 1.4 0
v 0.6 1.4 -0.1
v -0.4 1.4 0.5
v -0.4 1.5 0.5
v -0.3 1.4 0.5
v -0.3 1.5 0.5
v -0.3 1.6 0.5
v -0.2 0.9 0.5
v -0.2 1.1 0.5
v -0.1 0.9 0.5
v -0.1 1.1 0.5
v -0.1 1.2 0.5
v -0.1 1.5 0.5
v -0.1 1.6 0.5
v 0.1 0.9 0.5
v 0.1 1.1 0.5
v 0.1 1.2 0.5
v 0.1 1.5 0.5
v 0.1 1.6 0.5
v 0.2 0.9 0.5
v 0.2 1.1 0.5
v 0.3 1.4 0.5
v 0.3 1.5 0.5
v 0.3 1.6 0.5
v 0.4 1.4 0.5
v 0.4 1.5 0.5
v -0.5 0.9 0.4
v -0.5 1.1 0.4
v -0.5 1.8 0.4
v -0.4 1 0.4
v -0.4 1.1 0.4
v -0.4 1.4 0.4
v -0.4 1.5 0.4
v -0.3 1.2 0.4
v -0.3 1.4 0.4
v -0.3 1.5 0.4
v -0.3 1.6 0.4
v -0.2 0.9 0.4
v -0.2 1 0.4
v -0.2 1.1 0.4
v -0.2 1.2 0.4
v -0.2 1.4 0.4
v -0.1 0.9 0.4
v -0.1 1 0.4
v -0.1 1.1 0.4
v -0.1 1.2 0.4
v -0.1 1.5 0.4
v -0.1 1.6 0.4
v 0.1 0.9 0.4
v 0.1 1 0.4
v 0.1 1.1 0.4
v 0.1 1.2 0.4
v 0.1 1.5 0.4
v 0.1 1.6 0.4
v 0.2 0.9 0.4
v 0.2 1 0.4
v 0.2 1.1 0.4
v 0.2 1.2 0.4
v 0.2 1.4 0.4
v 0.3 1.2 0.4
v 0.3 1.4 0.4
v 0.3 1.5 0.4
v 0.3 1.6 0.4
v 0.4 1 0.4
v 0.4 1.1 0.4
v 0.4 1.4 0.4
v 0.4 1.5 0.4
v 0.5 0.9 0.4
v 0.5 1.1 0.4
v 0.5 1.8 0.4
v -0.1 0.5 0.3
v -0.1 0.9 0.3
v 0 0.5 0.3
v 0 0.9 0.3
v -0.3 0.4 0.2
v -0.3 0.5 0.2
v -0.3 0.9 0.2
v -0.1 0.4 0.2
v -0.1 0.5 0.2
v -0.1 0.9 0.2
v 0 0.5 0.2
v 0 0.9 0.2
v 0.1 0.4 0.2
v 0.1 0.5 0.2
v 0.3 0.4 0.2
v 0.3 0.5 0.2
v 0.3 0.9 0.2
v -0.5 0.4 0.1
v -0.5 0.5 0.1
v -0.5 0.9 0.1
v -0.3 0 0.1
v -0.3 0.1 0.1
v -0.3 0.4 0.1
v -0.3 0.5 0.1
v -0.3 0.9 0.1
v -0.1 0 0.1
v -0.1 0.1 0.1
v -0.1 0.4 0.1
v 0.1 0 0.1
v 0.1 0.1 0.1
v 0.1 0.4 0.1
v 0.3 0 0.1
v 0.3 0.1 0.1
v 0.3 0.4 0.1
v 0.3 0.5 0.1
v 0.3 0.9 0.1
v 0.5 0.4 0.1
v 0.5 0.5 0.1
v 0.5 0.9 0.1
v -0.6 1.2 0
v -0.6 1.4 0
v -0.5 1.2 0
v -0.5 1.3 0
v -0.5 1.4 0
v 0.5 1.2 0
v 0.5 1.3 0
v 0.5 1.4 0
v 0.6 1.2 0
v 0.6 1.4 0
v 0.1 0.4 -0.1
v 0.1 0.5 -0.1
v 0.3 0.4 -0.1
v 0.3 0.5 -0.1
v 0.1 0.4 0.1
v 0.1 0.5 0.1
v 0.3 0.4 0.1
v 0.3 0.5 0.1
v -0.6 1.2 -0.1
v -0.6 1.4 -0.1
v -0.5 0.4 -0.1
v -0.5 0.5 -0.1
v -0.5 0.6 -0.1
v -0.5 0.9 -0.1
v -0.5 1.2 -0.1
v -0.5 1.4 -0.1
v -0.4 0.5 -0.1
v -0.4 0.6 -0.1
v -0.3 0 -0.1
v -0.3 0.1 -0.1
v -0.3 0.4 -0.1
v -0.3 0.5 -0.1
v -0.3 0.9 -0.1
v -0.1 0 -0.1
v -0.1 0.1 -0.1
v -0.1 0.4 -0.1
v 0.1 0 -0.1
v 0.1 0.1 -0.1
v 0.1 0.4 -0.1
v 0.3 0 -0.1
v 0.3 0.1 -0.1
v 0.3 0.4 -0.1
v 0.3 0.5 -0.1
v 0.3 0.9 -0.1
v 0.4 0.5 -0.1
v 0.4 0.6 -0.1
v 0.5 0.4 -0.1
v 0.5 0.5 -0.1
v 0.5 0.6 -0.1
v 0.5 0.9 -0.1
v 0.5 1.2 -0.1
v 0.5 1.4 -0.1
v 0.6 1.2 -0.1
v 0.6 1.4 -0.1
v -0.3 0.4 -0.2
v -0.3 0.5 -0.2
v -0.3 0.9 -0.2
v 0.3 0.4 -0.2
v 0.3 0.5 -0.2
v 0.3 0.9 -0.2
v -0.5 0.9 -0.4
v -0.5 1.8 -0.4
v 0.5 0.9 -0.4
v 0.5 1.8 -0.4
v -0.3 0 0.1
v -0.1 0 0.1
v 0.1 0 0.1
v 0.3 0 0.1
v -0.3 0 -0.1
v -0.1 0 -0.1
v 0.1 0 -0.1
v 0.3 0 -0.1
v -0.3 0.4 0.2
v -0.1 0.4 0.2
v 0.1 0.4 0.2
v 0.3 0.4 0.2
v -0.5 0.4 0.1
v -0.3 0.4 0.1
v -0.1 0.4 0.1
v 0.1 0.4 0.1
v 0.3 0.4 0.1
v 0.5 0.4 0.1
v -0.5 0.4 -0.1
v -0.3 0.4 -0.1
v -0.1 0.4 -0.1
v 0.1 0.4 -0.1
v 0.3 0.4 -0.1
v 0.5 0.4 -0.1
v -0.3 0.4 -0.2
v 0.3 0.4 -0.2
v -0.1 0.5 0.3
v 0 0.5 0.3
v -0.1 0.5 0.2
v 0 0.5 0.2
v 0.1 0.5 0.1
v 0.3 0.5 0.1
v 0.1 0.5 -0.1
v 0.3 0.5 -0.1
v -0.2 0.9 0.5
v -0.1 0.9 0.5
v 0.1 0.9 0.5
v 0.2 0.9 0.5
v -0.5 0.9 0.4
v -0.2 0.9 0.4
v -0.1 0.9 0.4
v 0.1 0.9 0.4
v 0.2 0.9 0.4
v 0.5 0.9 0.4
v -0.1 0.9 0.3
v 0 0.9 0.3
v -0.5 0.9 0.2
v -0.3 0.9 0.2
v -0.1 0.9 0.2
v 0 0.9 0.2
v 0.3 0.9 0.2
v 0.5 0.9 0.2
v -0.5 0.9 0.1
v -0.3 0.9 0.1
v 0.3 0.9 0.1
v 0.5 0.9 0.1
v -0.5 0.9 -0.1
v -0.3 0.9 -0.1
v 0.3 0.9 -0.1
v 0.5 0.9 -0.1
v -0.3 0.9 -0.2
v 0.3 0.9 -0.2
v -0.5 0.9 -0.4
v 0.5 0.9 -0.4
v -0.1 1.1 0.5
v 0.1 1.1 0.5
v -0.1 1.1 0.4
v 0.1 1.1 0.4
v -0.6 1.2 0
v -0.5 1.2 0
v 0.5 1.2 0
v 0.6 1.2 0
v -0.6 1.2 -0.1
v -0.5 1.2 -0.1
v 0.5 1.2 -0.1
v 0.6 1.2 -0.1
v -0.4 1.4 0.5
v -0.3 1.4 0.5
v 0.3 1.4 0.5
v 0.4 1.4 0.5
v -0.4 1.4 0.4
v -0.3 1.4 0.4
v 0.3 1.4 0.4
v 0.4 1.4 0.4
v -0.3 1.5 0.5
v -0.1 1.5 0.5
v 0.1 1.5 0.5
v 0.3 1.5 0.5
v -0.3 1.5 0.4
v -0.1 1.5 0.4
v 0.1 1.5 0.4
v 0.3 1.5 0.4
v 0.1 0.4 0.1
v 0.3 0.4 0.1
v 0.1 0.4 -0.1
v 0.3 0.4 -0.1
v -0.2 1.1 0.5
v -0.1 1.1 0.5
v 0.1 1.1 0.5
v 0.2 1.1 0.5
v -0.2 1.1 0.4
v -0.1 1.1 0.4
v 0.1 1.1 0.4
v 0.2 1.1 0.4
v -0.1 1.2 0.5
v 0.1 1.2 0.5
v -0.1 1.2 0.4
v 0.1 1.2 0.4
v -0.6 1.4 0
v -0.5 1.4 0
v 0.5 1.4 0
v 0.6 1.4 0
v -0.6 1.4 -0.1
v -0.5 1.4 -0.1
v 0.5 1.4 -0.1
v 0.6 1.4 -0.1
v -0.4 1.5 0.5
v -0.3 1.5 0.5
v 0.3 1.5 0.5
v 0.4 1.5 0.5
v -0.4 1.5 0.4
v -0.3 1.5 0.4
v 0.3 1.5 0.4
v 0.4 1.5 0.4
v -0.3 1.6 0.5
v -0.1 1.6 0.5
v 0.1 1.6 0.5
v 0.3 1.6 0.5
v -0.3 1.6 0.4
v -0.1 1.6 0.4
v 0.1 1.6 0.4
v 0.3 1.6 0.4
v -0.5 1.8 0.4
v 0.5 1.8 0.4
v -0.5 1.8 -0.4
v 0.5 1.8 -0.4

# faces
f 3/1/1 2/1/1 1/1/1
f 4/1/1 2/1/1 3/1/1
f 7/1/1 6/1/1 5/1/1
f 8/1/1 6/1/1 7/1/1
f 9/1/1 6/1/1 8/1/1
f 10/6/1 8/6/1 7/6/1
f 10/5/1 9/5/1 8/5/1
f 11/5/1 9/5/1 10/5/1
f 14/6/1 10/6/1 7/6/1
f 14/6/1 11/6/1 10/6/1
f 15/6/1 11/6/1 14/6/1
f 17/1/1 15/1/1 14/1/1
f 17/1/1 16/1/1 15/1/1
f 17/7/1 13/7/1 12/7/1
f 17/1/1 14/1/1 13/1/1
f 18/1/1 16/1/1 17/1/1
f 19/7/1 17/7/1 12/7/1
f 19/7/1 18/7/1 17/7/1
f 20/7/1 18/7/1 19/7/1
f 21/1/1 16/1/1 18/1/1
f 21/7/1 18/7/1 20/7/1
f 22/1/1 16/1/1 21/1/1
f 23/1/1 20/1/1 19/1/1
f 23/7/1 21/7/1 20/7/1
f 23/7/1 22/7/1 21/7/1
f 24/7/1 22/7/1 23/7/1
f 25/1/1 16/1/1 22/1/1
f 25/7/1 22/7/1 24/7/1
f 26/1/1 16/1/1 25/1/1
f 27/1/1 24/1/1 23/1/1
f 27/7/1 25/7/1 24/7/1
f 28/7/1 25/7/1 27/7/1
f 29/1/1 28/1/1 27/1/1
f 30/1/1 16/1/1 26/1/1
f 31/1/1 29/1/1 27/1/1
f 31/1/1 30/1/1 29/1/1
f 31/1/1 23/1/1 19/1/1
f 31/1/1 27/1/1 23/1/1
f 32/1/1 16/1/1 30/1/1
f 32/1/1 30/1/1 31/1/1
f 35/7/1 34/7/1 33/7/1
f 36/7/1 34/7/1 35/7/1
f 39/8/1 38/8/1 37/8/1
f 40/8/1 38/8/1 39/8/1
f 42/7/1 40/7/1 39/7/1
f 43/7/1 40/7/1 42/7/1
f 45/7/1 42/7/1 41/7/1
f 46/7/1 42/7/1 45/7/1
f 47/7/1 44/7/1 43/7/1
f 48/7/1 44/7/1 47/7/1
f 49/6/1 46/6/1 45/6/1
f 50/6/1 46/6/1 49/6/1
f 51/6/1 48/6/1 47/6/1
f 52/6/1 48/6/1 51/6/1
f 55/7/1 54/7/1 53/7/1
f 56/7/1 54/7/1 55/7/1
f 59/7/1 58/7/1 57/7/1
f 60/7/1 59/7/1 57/7/1
f 61/7/1 59/7/1 60/7/1
f 64/5/1 63/5/1 62/5/1
f 65/5/1 63/5/1 64/5/1
f 68/7/1 67/7/1 66/7/1
f 69/7/1 67/7/1 68/7/1
f 72/8/1 71/8/1 70/8/1
f 73/8/1 71/8/1 72/8/1
f 74/7/1 73/7/1 72/7/1
f 75/7/1 73/7/1 74/7/1
f 78/7/1 77/7/1 76/7/1
f 79/7/1 78/7/1 76/7/1
f 80/7/1 78/7/1 79/7/1
f 83/7/1 82/7/1 81/7/1
f 84/7/1 82/7/1 83/7/1
f 87/1/1 86/1/1 85/1/1
f 88/1/1 86/1/1 87/1/1
f 91/7/1 90/7/1 89/7/1
f 92/7/1 90/7/1 91/7/1
f 93/7/2 94/7/2 95/7/2
f 95/7/2 94/7/2 96/7/2
f 97/8/2 98/8/2 99/8/2
f 99/8/2 98/8/2 100/8/2
f 99/7/2 100/7/2 101/7/2
f 101/7/2 100/7/2 102/7/2
f 103/7/2 104/7/2 105/7/2
f 103/7/2 105/7/2 106/7/2
f 106/7/2 105/7/2 107/7/2
f 108/7/2 109/7/2 110/7/2
f 110/7/2 109/7/2 111/7/2
f 112/5/2 113/5/2 114/5/2
f 114/5/2 113/5/2 115/5/2
f 116/7/2 117/7/2 118/7/2
f 118/7/2 117/7/2 119/7/2
f 120/7/2 121/7/2 122/7/2
f 122/7/2 121/7/2 123/7/2
f 124/7/2 125/7/2 126/7/2
f 124/7/2 126/7/2 127/7/2
f 127/7/2 126/7/2 128/7/2
f 129/8/2 130/8/2 131/8/2
f 131/8/2 130/8/2 132/8/2
f 131/7/2 132/7/2 134/7/2
f 134/7/2 132/7/2 135/7/2
f 133/7/2 134/7/2 137/7/2
f 137/7/2 134/7/2 138/7/2
f 135/7/2 136/7/2 139/7/2
f 139/7/2 136/7/2 140/7/2
f 137/6/2 138/6/2 141/6/2
f 141/6/2 138/6/2 142/6/2
f 139/6/2 140/6/2 143/6/2
f 143/6/2 140/6/2 144/6/2
f 145/7/2 146/7/2 147/7/2
f 147/7/2 146/7/2 148/7/2
f 149/7/2 150/7/2 151/7/2
f 151/7/2 150/7/2 152/7/2
f 153/1/2 154/1/2 155/1/2
f 155/1/2 154/1/2 156/1/2
f 156/1/2 154/1/2 157/1/2
f 155/6/2 156/6/2 158/6/2
f 156/5/2 157/5/2 158/5/2
f 158/5/2 157/5/2 159/5/2
f 155/6/2 158/6/2 162/6/2
f 158/6/2 159/6/2 162/6/2
f 162/6/2 159/6/2 163/6/2
f 162/1/2 163/1/2 165/1/2
f 163/1/2 164/1/2 165/1/2
f 160/7/2 161/7/2 165/7/2
f 161/1/2 162/1/2 165/1/2
f 165/1/2 164/1/2 166/1/2
f 160/7/2 165/7/2 167/7/2
f 165/7/2 166/7/2 167/7/2
f 167/7/2 166/7/2 168/7/2
f 166/1/2 164/1/2 169/1/2
f 168/7/2 166/7/2 169/7/2
f 169/1/2 164/1/2 170/1/2
f 167/1/2 168/1/2 171/1/2
f 168/7/2 169/7/2 171/7/2
f 169/7/2 170/7/2 171/7/2
f 171/7/2 170/7/2 172/7/2
f 170/1/2 164/1/2 173/1/2
f 172/7/2 170/7/2 173/7/2
f 173/1/2 164/1/2 174/1/2
f 171/1/2 172/1/2 175/1/2
f 172/7/2 173/7/2 175/7/2
f 175/7/2 173/7/2 176/7/2
f 175/1/2 176/1/2 177/1/2
f 174/1/2 164/1/2 178/1/2
f 175/1/2 177/1/2 179/1/2
f 177/1/2 178/1/2 179/1/2
f 167/1/2 171/1/2 179/1/2
f 171/1/2 175/1/2 179/1/2
f 178/1/2 164/1/2 180/1/2
f 179/1/2 178/1/2 180/1/2
f 181/1/2 182/1/2 183/1/2
f 183/1/2 182/1/2 184/1/2
f 187/7/3 186/7/3 185/7/3
f 188/7/3 186/7/3 187/7/3
f 192/7/3 191/7/3 190/7/3
f 193/7/3 191/7/3 192/7/3
f 195/7/3 189/7/3 188/7/3
f 196/7/3 189/7/3 195/7/3
f 198/7/3 194/7/3 193/7/3
f 199/7/3 194/7/3 198/7/3
f 202/7/3 198/7/3 197/7/3
f 203/7/3 198/7/3 202/7/3
f 205/7/3 201/7/3 200/7/3
f 206/7/3 201/7/3 205/7/3
f 207/7/3 205/7/3 204/7/3
f 208/7/3 205/7/3 207/7/3
f 212/7/3 210/7/3 209/7/3
f 213/1/3 211/1/3 210/1/3
f 213/7/3 210/7/3 212/7/3
f 214/1/3 211/1/3 213/1/3
f 215/1/3 211/1/3 214/1/3
f 216/1/3 213/1/3 212/1/3
f 216/1/3 214/1/3 213/1/3
f 217/1/3 214/1/3 216/1/3
f 218/1/3 211/1/3 215/1/3
f 219/1/3 211/1/3 218/1/3
f 220/7/3 212/7/3 209/7/3
f 221/1/3 216/1/3 212/1/3
f 221/7/3 212/7/3 220/7/3
f 222/1/3 216/1/3 221/1/3
f 223/3/3 217/3/3 216/3/3
f 223/1/3 216/1/3 222/1/3
f 224/1/3 218/1/3 217/1/3
f 224/3/3 217/3/3 223/3/3
f 227/1/3 223/1/3 222/1/3
f 227/1/3 224/1/3 223/1/3
f 228/1/3 224/1/3 227/1/3
f 229/1/3 218/1/3 224/1/3
f 229/1/3 224/1/3 228/1/3
f 230/1/3 211/1/3 219/1/3
f 231/7/3 226/7/3 225/7/3
f 232/1/3 227/1/3 226/1/3
f 232/7/3 226/7/3 231/7/3
f 233/1/3 227/1/3 232/1/3
f 234/1/3 229/1/3 228/1/3
f 234/1/3 230/1/3 229/1/3
f 235/1/3 230/1/3 234/1/3
f 236/1/3 211/1/3 230/1/3
f 236/1/3 230/1/3 235/1/3
f 239/1/3 234/1/3 233/1/3
f 239/1/3 235/1/3 234/1/3
f 240/1/3 235/1/3 239/1/3
f 241/1/3 235/1/3 240/1/3
f 242/1/3 239/1/3 238/1/3
f 242/1/3 240/1/3 239/1/3
f 242/3/3 241/3/3 240/3/3
f 243/1/3 235/1/3 241/1/3
f 243/3/3 241/3/3 242/3/3
f 244/1/3 235/1/3 243/1/3
f 245/1/3 211/1/3 236/1/3
f 246/7/3 238/7/3 237/7/3
f 246/1/3 242/1/3 238/1/3
f 246/1/3 243/1/3 242/1/3
f 247/1/3 243/1/3 246/1/3
f 248/1/3 243/1/3 247/1/3
f 249/1/3 245/1/3 244/1/3
f 250/7/3 246/7/3 237/7/3
f 250/7/3 247/7/3 246/7/3
f 251/1/3 248/1/3 247/1/3
f 251/7/3 247/7/3 250/7/3
f 251/1/3 249/1/3 248/1/3
f 252/1/3 211/1/3 245/1/3
f 252/1/3 249/1/3 251/1/3
f 252/1/3 245/1/3 249/1/3
f 255/5/3 254/5/3 253/5/3
f 256/5/3 254/5/3 255/5/3
f 260/7/3 258/7/3 257/7/3
f 261/6/3 259/6/3 258/6/3
f 261/7/3 258/7/3 260/7/3
f 262/6/3 259/6/3 261/6/3
f 263/2/3 261/2/3 260/2/3
f 265/2/3 263/2/3 260/2/3
f 266/6/3 264/6/3 263/6/3
f 266/2/3 263/2/3 265/2/3
f 267/7/3 266/7/3 265/7/3
f 268/6/3 264/6/3 266/6/3
f 268/7/3 266/7/3 267/7/3
f 269/6/3 264/6/3 268/6/3
f 275/1/3 271/1/3 270/1/3
f 276/6/3 272/6/3 271/6/3
f 276/1/3 271/1/3 275/1/3
f 277/6/3 272/6/3 276/6/3
f 278/8/3 274/8/3 273/8/3
f 279/7/3 275/7/3 274/7/3
f 279/8/3 274/8/3 278/8/3
f 280/7/3 275/7/3 279/7/3
f 284/8/3 282/8/3 281/8/3
f 285/7/3 283/7/3 282/7/3
f 285/8/3 282/8/3 284/8/3
f 286/7/3 283/7/3 285/7/3
f 289/1/3 287/1/3 286/1/3
f 290/6/3 288/6/3 287/6/3
f 290/1/3 287/1/3 289/1/3
f 291/6/3 288/6/3 290/6/3
f 294/1/3 293/1/3 292/1/3
f 295/1/3 293/1/3 294/1/3
f 296/1/3 293/1/3 295/1/3
f 300/1/3 298/1/3 297/1/3
f 300/1/3 299/1/3 298/1/3
f 301/1/3 299/1/3 300/1/3
f 304/7/3 303/7/3 302/7/3
f 305/7/3 303/7/3 304/7/3
f 306/7/4 307/7/4 308/7/4
f 308/7/4 307/7/4 309/7/4
f 310/1/4 311/1/4 316/1/4
f 316/1/4 311/1/4 317/1/4
f 312/1/4 313/1/4 318/1/4
f 313/5/4 314/5/4 318/5/4
f 314/6/4 315/6/4 319/6/4
f 318/5/4 314/5/4 319/5/4
f 312/1/4 318/1/4 322/1/4
f 318/6/4 319/6/4 323/6/4
f 322/1/4 318/1/4 323/1/4
f 319/6/4 315/6/4 324/6/4
f 323/6/4 319/6/4 324/6/4
f 320/8/4 321/8/4 325/8/4
f 321/7/4 322/7/4 326/7/4
f 325/8/4 321/8/4 326/8/4
f 326/7/4 322/7/4 327/7/4
f 328/8/4 329/8/4 331/8/4
f 329/7/4 330/7/4 332/7/4
f 331/8/4 329/8/4 332/8/4
f 332/7/4 330/7/4 333/7/4
f 334/6/4 335/6/4 336/6/4
f 333/1/4 334/1/4 336/1/4
f 336/6/4 335/6/4 337/6/4
f 333/1/4 336/1/4 338/1/4
f 336/5/4 337/5/4 339/5/4
f 338/1/4 336/1/4 339/1/4
f 337/6/4 335/6/4 340/6/4
f 339/5/4 337/5/4 340/5/4
f 340/6/4 335/6/4 341/6/4
f 342/1/4 343/1/4 344/1/4
f 344/1/4 343/1/4 345/1/4
f 346/7/4 347/7/4 349/7/4
f 347/6/4 348/6/4 350/6/4
f 349/7/4 347/7/4 350/7/4
f 350/6/4 348/6/4 351/6/4
f 352/1/4 353/1/4 354/1/4
f 354/1/4 353/1/4 355/1/4
f 360/8/5 357/8/5 356/8/5
f 361/8/5 357/8/5 360/8/5
f 362/8/5 359/8/5 358/8/5
f 363/8/5 359/8/5 362/8/5
f 369/7/5 365/7/5 364/7/5
f 370/2/5 366/2/5 365/2/5
f 370/7/5 365/7/5 369/7/5
f 371/7/5 367/7/5 366/7/5
f 371/2/5 366/2/5 370/2/5
f 372/7/5 367/7/5 371/7/5
f 374/1/5 369/1/5 368/1/5
f 375/1/5 369/1/5 374/1/5
f 376/7/5 371/7/5 370/7/5
f 377/7/5 371/7/5 376/7/5
f 378/1/5 373/1/5 372/1/5
f 379/1/5 373/1/5 378/1/5
f 380/7/5 377/7/5 376/7/5
f 380/7/5 378/7/5 377/7/5
f 380/7/5 376/7/5 375/7/5
f 381/7/5 378/7/5 380/7/5
f 384/5/5 383/5/5 382/5/5
f 385/5/5 383/5/5 384/5/5
f 388/6/5 387/6/5 386/6/5
f 389/6/5 387/6/5 388/6/5
f 395/7/5 391/7/5 390/7/5
f 396/7/5 391/7/5 395/7/5
f 397/7/5 393/7/5 392/7/5
f 398/7/5 393/7/5 397/7/5
f 400/7/5 396/7/5 395/7/5
f 400/7/5 399/7/5 398/7/5
f 400/7/5 398/7/5 397/7/5
f 400/7/5 397/7/5 396/7/5
f 400/7/5 395/7/5 394/7/5
f 401/7/5 399/7/5 400/7/5
f 402/7/5 400/7/5 394/7/5
f 403/7/5 400/7/5 402/7/5
f 404/7/5 400/7/5 403/7/5
f 405/7/5 399/7/5 401/7/5
f 406/7/5 399/7/5 405/7/5
f 407/7/5 399/7/5 406/7/5
f 408/1/5 403/1/5 402/1/5
f 409/1/5 403/1/5 408/1/5
f 410/1/5 407/1/5 406/1/5
f 411/1/5 407/1/5 410/1/5
f 416/1/5 413/1/5 412/1/5
f 417/1/5 415/1/5 414/1/5
f 418/1/5 416/1/5 412/1/5
f 418/1/5 417/1/5 416/1/5
f 419/1/5 415/1/5 417/1/5
f 419/1/5 417/1/5 418/1/5
f 422/7/5 421/7/5 420/7/5
f 423/7/5 421/7/5 422/7/5
f 428/1/5 425/1/5 424/1/5
f 429/1/5 425/1/5 428/1/5
f 430/1/5 427/1/5 426/1/5
f 431/1/5 427/1/5 430/1/5
f 436/7/5 433/7/5 432/7/5
f 437/7/5 433/7/5 436/7/5
f 438/7/5 435/7/5 434/7/5
f 439/7/5 435/7/5 438/7/5
f 444/7/5 441/7/5 440/7/5
f 445/7/5 441/7/5 444/7/5
f 446/7/5 443/7/5 442/7/5
f 447/7/5 443/7/5 446/7/5
f 448/7/6 449/7/6 450/7/6
f 450/7/6 449/7/6 451/7/6
f 452/7/6 453/7/6 456/7/6
f 456/7/6 453/7/6 457/7/6
f 454/7/6 455/7/6 458/7/6
f 458/7/6 455/7/6 459/7/6
f 460/7/6 461/7/6 462/7/6
f 462/7/6 461/7/6 463/7/6
f 464/1/6 465/1/6 468/1/6
f 468/1/6 465/1/6 469/1/6
f 466/1/6 467/1/6 470/1/6
f 470/1/6 467/1/6 471/1/6
f 472/7/6 473/7/6 476/7/6
f 476/7/6 473/7/6 477/7/6
f 474/7/6 475/7/6 478/7/6
f 478/7/6 475/7/6 479/7/6
f 480/7/6 481/7/6 484/7/6
f 484/7/6 481/7/6 485/7/6
f 482/7/6 483/7/6 486/7/6
f 486/7/6 483/7/6 487/7/6
f 488/1/6 489/1/6 490/1/6
f 490/1/6 489/1/6 491/1/6
