# MagicaVoxel @ Ephtracy

# group
o 

# material
mtllib Cop_1.mtl
usemtl palette

# normals
vn -1 0 0
vn 1 0 0
vn 0 0 1
vn 0 0 -1
vn 0 -1 0
vn 0 1 0

# texcoords
vt 0.150391 0.5
vt 0.287109 0.5
vt 0.310547 0.5
vt 0.431641 0.5
vt 0.712891 0.5
vt 0.775391 0.5
vt 0.962891 0.5
vt 0.990234 0.5
vt 0.994141 0.5

# verts
v -0.6 1.2 0
v -0.6 1.2 -0.1
v -0.6 1.4 0.4
v -0.6 1.4 0
v -0.6 1.4 -0.1
v -0.6 1.5 0.4
v -0.6 1.5 0
v -0.5 0.4 0.1
v -0.5 0.4 -0.1
v -0.5 0.5 0.1
v -0.5 0.5 -0.1
v -0.5 0.7 0.1
v -0.5 0.7 -0.1
v -0.5 0.8 0.1
v -0.5 0.8 -0.1
v -0.5 0.9 0.4
v -0.5 0.9 0.1
v -0.5 0.9 -0.1
v -0.5 0.9 -0.4
v -0.5 1.2 0
v -0.5 1.2 -0.1
v -0.5 1.4 0.5
v -0.5 1.4 0.4
v -0.5 1.4 0
v -0.5 1.4 -0.1
v -0.5 1.5 0.5
v -0.5 1.5 0.4
v -0.5 1.5 0
v -0.5 1.8 0.4
v -0.5 1.8 -0.4
v -0.4 1.2 0.5
v -0.4 1.2 0.4
v -0.4 1.4 0.5
v -0.4 1.4 0.4
v -0.3 0 0.1
v -0.3 0 -0.1
v -0.3 0.3 0.3
v -0.3 0.3 0.2
v -0.3 0.4 0.2
v -0.3 0.4 0.1
v -0.3 0.4 -0.1
v -0.3 0.4 -0.2
v -0.3 0.5 0.2
v -0.3 0.5 0.1
v -0.3 0.5 -0.1
v -0.3 0.5 -0.2
v -0.3 0.6 0.3
v -0.3 0.6 0.2
v -0.3 0.9 0.5
v -0.3 0.9 0.4
v -0.3 0.9 0.2
v -0.3 0.9 0.1
v -0.3 0.9 -0.1
v -0.3 0.9 -0.2
v -0.3 1.1 0.5
v -0.3 1.1 0.4
v -0.2 1.1 0.5
v -0.2 1.1 0.4
v -0.2 1.2 0.5
v -0.2 1.2 0.4
v 0.1 0 0.1
v 0.1 0 -0.1
v 0.1 0.4 0.1
v 0.1 0.4 -0.1
v 0.1 1 0.5
v 0.1 1 0.4
v 0.1 1.1 0.5
v 0.1 1.1 0.4
v 0.1 1.2 0.5
v 0.1 1.2 0.4
v 0.1 1.4 0.5
v 0.1 1.4 0.4
v 0.2 0.9 0.5
v 0.2 0.9 0.4
v 0.2 1 0.5
v 0.2 1 0.4
v 0.3 0.4 0.1
v 0.3 0.4 -0.1
v 0.3 0.5 0.1
v 0.3 0.5 -0.1
v -0.2 0.3 0.3
v -0.2 0.3 0.2
v -0.2 0.4 0.2
v -0.2 0.5 0.2
v -0.2 0.6 0.3
v -0.2 0.6 0.2
v -0.2 0.9 0.5
v -0.2 0.9 0.4
v -0.2 1 0.5
v -0.2 1 0.4
v -0.1 0 0.1
v -0.1 0 -0.1
v -0.1 0.4 0.1
v -0.1 0.4 -0.1
v -0.1 1 0.5
v -0.1 1 0.4
v -0.1 1.1 0.5
v -0.1 1.1 0.4
v -0.1 1.2 0.5
v -0.1 1.2 0.4
v -0.1 1.4 0.5
v -0.1 1.4 0.4
v 0.1 0.4 0.1
v 0.1 0.4 -0.1
v 0.1 0.5 0.1
v 0.1 0.5 -0.1
v 0.2 1.1 0.5
v 0.2 1.1 0.4
v 0.2 1.2 0.5
v 0.2 1.2 0.4
v 0.3 0 0.1
v 0.3 0 -0.1
v 0.3 0.4 0.2
v 0.3 0.4 0.1
v 0.3 0.4 -0.1
v 0.3 0.4 -0.2
v 0.3 0.5 0.2
v 0.3 0.5 0.1
v 0.3 0.5 -0.1
v 0.3 0.5 -0.2
v 0.3 0.9 0.5
v 0.3 0.9 0.4
v 0.3 0.9 0.2
v 0.3 0.9 0.1
v 0.3 0.9 -0.1
v 0.3 0.9 -0.2
v 0.3 1.1 0.5
v 0.3 1.1 0.4
v 0.4 1.2 0.5
v 0.4 1.2 0.4
v 0.4 1.4 0.5
v 0.4 1.4 0.4
v 0.5 0.4 0.1
v 0.5 0.4 -0.1
v 0.5 0.5 0.1
v 0.5 0.5 -0.1
v 0.5 0.9 0.4
v 0.5 0.9 0.1
v 0.5 0.9 -0.1
v 0.5 0.9 -0.4
v 0.5 1.2 0
v 0.5 1.2 -0.1
v 0.5 1.4 0.5
v 0.5 1.4 0.4
v 0.5 1.4 0
v 0.5 1.4 -0.1
v 0.5 1.5 0.5
v 0.5 1.5 0.4
v 0.5 1.5 0
v 0.5 1.8 0.4
v 0.5 1.8 -0.4
v 0.6 1.2 0
v 0.6 1.2 -0.1
v 0.6 1.4 0.4
v 0.6 1.4 0
v 0.6 1.4 -0.1
v 0.6 1.5 0.4
v 0.6 1.5 0
v -0.5 1.4 0.5
v -0.5 1.5 0.5
v -0.4 1.2 0.5
v -0.4 1.4 0.5
v -0.3 0.9 0.5
v -0.3 1.1 0.5
v -0.2 0.9 0.5
v -0.2 1 0.5
v -0.2 1.1 0.5
v -0.2 1.2 0.5
v -0.1 1 0.5
v -0.1 1.1 0.5
v -0.1 1.2 0.5
v -0.1 1.4 0.5
v 0.1 1 0.5
v 0.1 1.1 0.5
v 0.1 1.2 0.5
v 0.1 1.4 0.5
v 0.2 0.9 0.5
v 0.2 1 0.5
v 0.2 1.1 0.5
v 0.2 1.2 0.5
v 0.3 0.9 0.5
v 0.3 1.1 0.5
v 0.4 1.2 0.5
v 0.4 1.4 0.5
v 0.5 1.4 0.5
v 0.5 1.5 0.5
v -0.6 1.4 0.4
v -0.6 1.5 0.4
v -0.5 0.9 0.4
v -0.5 1.4 0.4
v -0.5 1.5 0.4
v -0.5 1.8 0.4
v -0.4 1.2 0.4
v -0.4 1.4 0.4
v -0.3 0.9 0.4
v -0.3 1.1 0.4
v -0.2 0.9 0.4
v -0.2 1 0.4
v -0.2 1.1 0.4
v -0.2 1.2 0.4
v -0.1 1 0.4
v -0.1 1.1 0.4
v -0.1 1.2 0.4
v -0.1 1.4 0.4
v 0.1 1 0.4
v 0.1 1.1 0.4
v 0.1 1.2 0.4
v 0.1 1.4 0.4
v 0.2 0.9 0.4
v 0.2 1 0.4
v 0.2 1.1 0.4
v 0.2 1.2 0.4
v 0.3 0.9 0.4
v 0.3 1.1 0.4
v 0.4 1.2 0.4
v 0.4 1.4 0.4
v 0.5 0.9 0.4
v 0.5 1.4 0.4
v 0.5 1.5 0.4
v 0.5 1.8 0.4
v 0.6 1.4 0.4
v 0.6 1.5 0.4
v -0.3 0.3 0.3
v -0.3 0.6 0.3
v -0.2 0.3 0.3
v -0.2 0.6 0.3
v -0.3 0.6 0.2
v -0.3 0.9 0.2
v -0.2 0.4 0.2
v -0.2 0.5 0.2
v -0.2 0.6 0.2
v -0.2 0.7 0.2
v -0.2 0.8 0.2
v -0.1 0.4 0.2
v -0.1 0.5 0.2
v -0.1 0.7 0.2
v -0.1 0.8 0.2
v -0.1 0.9 0.2
v 0.1 0.4 0.2
v 0.1 0.5 0.2
v 0.1 0.8 0.2
v 0.1 0.9 0.2
v 0.3 0.4 0.2
v 0.3 0.5 0.2
v 0.3 0.9 0.2
v -0.5 0.4 0.1
v -0.5 0.5 0.1
v -0.5 0.7 0.1
v -0.5 0.8 0.1
v -0.5 0.9 0.1
v -0.4 0.7 0.1
v -0.4 0.8 0.1
v -0.3 0 0.1
v -0.3 0.4 0.1
v -0.3 0.5 0.1
v -0.3 0.9 0.1
v -0.1 0 0.1
v -0.1 0.4 0.1
v 0.1 0 0.1
v 0.1 0.4 0.1
v 0.3 0 0.1
v 0.3 0.4 0.1
v 0.3 0.5 0.1
v 0.3 0.9 0.1
v 0.5 0.4 0.1
v 0.5 0.5 0.1
v 0.5 0.9 0.1
v -0.6 1.2 0
v -0.6 1.4 0
v -0.5 1.2 0
v -0.5 1.4 0
v 0.5 1.2 0
v 0.5 1.4 0
v 0.6 1.2 0
v 0.6 1.4 0
v 0.1 0.4 -0.1
v 0.1 0.5 -0.1
v 0.3 0.4 -0.1
v 0.3 0.5 -0.1
v -0.3 0.3 0.2
v -0.3 0.4 0.2
v -0.2 0.3 0.2
v -0.2 0.4 0.2
v 0.1 0.4 0.1
v 0.1 0.5 0.1
v 0.3 0.4 0.1
v 0.3 0.5 0.1
v -0.6 1.4 0
v -0.6 1.5 0
v -0.5 1.4 0
v -0.5 1.5 0
v 0.5 1.4 0
v 0.5 1.5 0
v 0.6 1.4 0
v 0.6 1.5 0
v -0.6 1.2 -0.1
v -0.6 1.4 -0.1
v -0.5 0.4 -0.1
v -0.5 0.5 -0.1
v -0.5 0.7 -0.1
v -0.5 0.8 -0.1
v -0.5 0.9 -0.1
v -0.5 1.2 -0.1
v -0.5 1.4 -0.1
v -0.4 0.7 -0.1
v -0.4 0.8 -0.1
v -0.3 0 -0.1
v -0.3 0.4 -0.1
v -0.3 0.5 -0.1
v -0.3 0.9 -0.1
v -0.1 0 -0.1
v -0.1 0.4 -0.1
v 0.1 0 -0.1
v 0.1 0.4 -0.1
v 0.3 0 -0.1
v 0.3 0.4 -0.1
v 0.3 0.5 -0.1
v 0.3 0.9 -0.1
v 0.5 0.4 -0.1
v 0.5 0.5 -0.1
v 0.5 0.9 -0.1
v 0.5 1.2 -0.1
v 0.5 1.4 -0.1
v 0.6 1.2 -0.1
v 0.6 1.4 -0.1
v -0.3 0.4 -0.2
v -0.3 0.5 -0.2
v -0.3 0.9 -0.2
v -0.2 0.7 -0.2
v -0.2 0.8 -0.2
v 0.2 0.7 -0.2
v 0.2 0.8 -0.2
v 0.3 0.4 -0.2
v 0.3 0.5 -0.2
v 0.3 0.9 -0.2
v -0.5 0.9 -0.4
v -0.5 1.8 -0.4
v 0.5 0.9 -0.4
v 0.5 1.8 -0.4
v -0.3 0 0.1
v -0.1 0 0.1
v 0.1 0 0.1
v 0.3 0 0.1
v -0.3 0 -0.1
v -0.1 0 -0.1
v 0.1 0 -0.1
v 0.3 0 -0.1
v -0.3 0.3 0.3
v -0.2 0.3 0.3
v -0.3 0.3 0.2
v -0.2 0.3 0.2
v -0.3 0.4 0.2
v -0.2 0.4 0.2
v -0.1 0.4 0.2
v 0.1 0.4 0.2
v 0.3 0.4 0.2
v -0.5 0.4 0.1
v -0.3 0.4 0.1
v -0.1 0.4 0.1
v 0.1 0.4 0.1
v 0.3 0.4 0.1
v 0.5 0.4 0.1
v -0.5 0.4 -0.1
v -0.3 0.4 -0.1
v -0.1 0.4 -0.1
v 0.1 0.4 -0.1
v 0.3 0.4 -0.1
v 0.5 0.4 -0.1
v -0.3 0.4 -0.2
v 0.3 0.4 -0.2
v 0.1 0.5 0.1
v 0.3 0.5 0.1
v 0.1 0.5 -0.1
v 0.3 0.5 -0.1
v -0.3 0.9 0.5
v -0.2 0.9 0.5
v 0.2 0.9 0.5
v 0.3 0.9 0.5
v -0.5 0.9 0.4
v -0.3 0.9 0.4
v -0.2 0.9 0.4
v 0.2 0.9 0.4
v 0.3 0.9 0.4
v 0.5 0.9 0.4
v -0.3 0.9 0.2
v -0.1 0.9 0.2
v 0.1 0.9 0.2
v 0.3 0.9 0.2
v -0.5 0.9 0.1
v -0.3 0.9 0.1
v 0.3 0.9 0.1
v 0.5 0.9 0.1
v -0.5 0.9 -0.1
v -0.3 0.9 -0.1
v 0.3 0.9 -0.1
v 0.5 0.9 -0.1
v -0.3 0.9 -0.2
v 0.3 0.9 -0.2
v -0.5 0.9 -0.4
v 0.5 0.9 -0.4
v -0.2 1 0.5
v -0.1 1 0.5
v 0.1 1 0.5
v 0.2 1 0.5
v -0.2 1 0.4
v -0.1 1 0.4
v 0.1 1 0.4
v 0.2 1 0.4
v -0.1 1.1 0.5
v 0.1 1.1 0.5
v -0.1 1.1 0.4
v 0.1 1.1 0.4
v -0.4 1.2 0.5
v -0.2 1.2 0.5
v 0.2 1.2 0.5
v 0.4 1.2 0.5
v -0.4 1.2 0.4
v -0.2 1.2 0.4
v 0.2 1.2 0.4
v 0.4 1.2 0.4
v -0.6 1.2 0
v -0.5 1.2 0
v 0.5 1.2 0
v 0.6 1.2 0
v -0.6 1.2 -0.1
v -0.5 1.2 -0.1
v 0.5 1.2 -0.1
v 0.6 1.2 -0.1
v -0.5 1.4 0.5
v -0.4 1.4 0.5
v -0.1 1.4 0.5
v 0.1 1.4 0.5
v 0.4 1.4 0.5
v 0.5 1.4 0.5
v -0.6 1.4 0.4
v -0.5 1.4 0.4
v -0.4 1.4 0.4
v -0.1 1.4 0.4
v 0.1 1.4 0.4
v 0.4 1.4 0.4
v 0.5 1.4 0.4
v 0.6 1.4 0.4
v -0.6 1.4 0
v -0.5 1.4 0
v 0.5 1.4 0
v 0.6 1.4 0
v 0.1 0.4 0.1
v 0.3 0.4 0.1
v 0.1 0.4 -0.1
v 0.3 0.4 -0.1
v -0.3 0.6 0.3
v -0.2 0.6 0.3
v -0.3 0.6 0.2
v -0.2 0.6 0.2
v -0.3 1.1 0.5
v -0.2 1.1 0.5
v 0.2 1.1 0.5
v 0.3 1.1 0.5
v -0.3 1.1 0.4
v -0.2 1.1 0.4
v 0.2 1.1 0.4
v 0.3 1.1 0.4
v -0.1 1.2 0.5
v 0.1 1.2 0.5
v -0.1 1.2 0.4
v 0.1 1.2 0.4
v -0.6 1.4 0
v -0.5 1.4 0
v 0.5 1.4 0
v 0.6 1.4 0
v -0.6 1.4 -0.1
v -0.5 1.4 -0.1
v 0.5 1.4 -0.1
v 0.6 1.4 -0.1
v -0.5 1.5 0.5
v 0.5 1.5 0.5
v -0.6 1.5 0.4
v -0.5 1.5 0.4
v 0.5 1.5 0.4
v 0.6 1.5 0.4
v -0.6 1.5 0
v -0.5 1.5 0
v 0.5 1.5 0
v 0.6 1.5 0
v -0.5 1.8 0.4
v 0.5 1.8 0.4
v -0.5 1.8 -0.4
v 0.5 1.8 -0.4

# faces
f 4/2/1 2/2/1 1/2/1
f 5/2/1 2/2/1 4/2/1
f 6/9/1 4/9/1 3/9/1
f 7/9/1 4/9/1 6/9/1
f 10/2/1 9/2/1 8/2/1
f 11/2/1 9/2/1 10/2/1
f 12/6/1 11/6/1 10/6/1
f 13/6/1 11/6/1 12/6/1
f 14/7/1 13/7/1 12/7/1
f 15/7/1 13/7/1 14/7/1
f 17/6/1 15/6/1 14/6/1
f 18/6/1 15/6/1 17/6/1
f 20/2/1 18/2/1 17/2/1
f 20/2/1 19/2/1 18/2/1
f 20/2/1 17/2/1 16/2/1
f 21/2/1 19/2/1 20/2/1
f 23/2/1 20/2/1 16/2/1
f 24/2/1 20/2/1 23/2/1
f 25/2/1 19/2/1 21/2/1
f 26/9/1 23/9/1 22/9/1
f 27/9/1 23/9/1 26/9/1
f 28/2/1 25/2/1 24/2/1
f 29/2/1 28/2/1 27/2/1
f 30/2/1 25/2/1 28/2/1
f 30/2/1 28/2/1 29/2/1
f 30/2/1 19/2/1 25/2/1
f 33/9/1 32/9/1 31/9/1
f 34/9/1 32/9/1 33/9/1
f 39/8/1 38/8/1 37/8/1
f 40/9/1 36/9/1 35/9/1
f 41/9/1 36/9/1 40/9/1
f 43/8/1 39/8/1 37/8/1
f 43/9/1 40/9/1 39/9/1
f 44/9/1 40/9/1 43/9/1
f 45/9/1 42/9/1 41/9/1
f 46/9/1 42/9/1 45/9/1
f 47/8/1 43/8/1 37/8/1
f 48/6/1 44/6/1 43/6/1
f 48/8/1 43/8/1 47/8/1
f 51/6/1 44/6/1 48/6/1
f 52/6/1 44/6/1 51/6/1
f 53/6/1 46/6/1 45/6/1
f 54/6/1 46/6/1 53/6/1
f 55/3/1 50/3/1 49/3/1
f 56/3/1 50/3/1 55/3/1
f 59/3/1 58/3/1 57/3/1
f 60/3/1 58/3/1 59/3/1
f 63/9/1 62/9/1 61/9/1
f 64/9/1 62/9/1 63/9/1
f 67/3/1 66/3/1 65/3/1
f 68/3/1 66/3/1 67/3/1
f 71/9/1 70/9/1 69/9/1
f 72/9/1 70/9/1 71/9/1
f 75/3/1 74/3/1 73/3/1
f 76/3/1 74/3/1 75/3/1
f 79/2/1 78/2/1 77/2/1
f 80/2/1 78/2/1 79/2/1
f 81/8/2 82/8/2 83/8/2
f 81/8/2 83/8/2 84/8/2
f 81/8/2 84/8/2 85/8/2
f 85/8/2 84/8/2 86/8/2
f 87/3/2 88/3/2 89/3/2
f 89/3/2 88/3/2 90/3/2
f 91/9/2 92/9/2 93/9/2
f 93/9/2 92/9/2 94/9/2
f 95/3/2 96/3/2 97/3/2
f 97/3/2 96/3/2 98/3/2
f 99/9/2 100/9/2 101/9/2
f 101/9/2 100/9/2 102/9/2
f 103/9/2 104/9/2 105/9/2
f 105/9/2 104/9/2 106/9/2
f 107/3/2 108/3/2 109/3/2
f 109/3/2 108/3/2 110/3/2
f 111/9/2 112/9/2 114/9/2
f 114/9/2 112/9/2 115/9/2
f 113/9/2 114/9/2 117/9/2
f 117/9/2 114/9/2 118/9/2
f 115/9/2 116/9/2 119/9/2
f 119/9/2 116/9/2 120/9/2
f 117/6/2 118/6/2 123/6/2
f 123/6/2 118/6/2 124/6/2
f 119/6/2 120/6/2 125/6/2
f 125/6/2 120/6/2 126/6/2
f 121/3/2 122/3/2 127/3/2
f 127/3/2 122/3/2 128/3/2
f 129/9/2 130/9/2 131/9/2
f 131/9/2 130/9/2 132/9/2
f 133/2/2 134/2/2 135/2/2
f 135/2/2 134/2/2 136/2/2
f 135/6/2 136/6/2 138/6/2
f 138/6/2 136/6/2 139/6/2
f 138/2/2 139/2/2 141/2/2
f 139/2/2 140/2/2 141/2/2
f 137/2/2 138/2/2 141/2/2
f 141/2/2 140/2/2 142/2/2
f 137/2/2 141/2/2 144/2/2
f 144/2/2 141/2/2 145/2/2
f 142/2/2 140/2/2 146/2/2
f 143/9/2 144/9/2 147/9/2
f 147/9/2 144/9/2 148/9/2
f 145/2/2 146/2/2 149/2/2
f 148/2/2 149/2/2 150/2/2
f 149/2/2 146/2/2 151/2/2
f 150/2/2 149/2/2 151/2/2
f 146/2/2 140/2/2 151/2/2
f 152/2/2 153/2/2 155/2/2
f 155/2/2 153/2/2 156/2/2
f 154/9/2 155/9/2 157/9/2
f 157/9/2 155/9/2 158/9/2
f 162/9/3 160/9/3 159/9/3
f 165/3/3 164/3/3 163/3/3
f 166/3/3 164/3/3 165/3/3
f 167/3/3 164/3/3 166/3/3
f 168/9/3 162/9/3 161/9/3
f 169/3/3 167/3/3 166/3/3
f 169/3/3 168/3/3 167/3/3
f 170/3/3 168/3/3 169/3/3
f 171/9/3 162/9/3 168/9/3
f 171/3/3 168/3/3 170/3/3
f 172/9/3 160/9/3 162/9/3
f 172/9/3 162/9/3 171/9/3
f 174/3/3 171/3/3 170/3/3
f 175/3/3 171/3/3 174/3/3
f 176/9/3 160/9/3 172/9/3
f 178/3/3 175/3/3 174/3/3
f 178/3/3 174/3/3 173/3/3
f 179/3/3 175/3/3 178/3/3
f 180/9/3 176/9/3 175/9/3
f 180/3/3 175/3/3 179/3/3
f 181/3/3 179/3/3 178/3/3
f 181/3/3 178/3/3 177/3/3
f 182/3/3 179/3/3 181/3/3
f 183/9/3 176/9/3 180/9/3
f 184/9/3 160/9/3 176/9/3
f 184/9/3 176/9/3 183/9/3
f 185/9/3 160/9/3 184/9/3
f 186/9/3 160/9/3 185/9/3
f 190/9/3 188/9/3 187/9/3
f 191/9/3 188/9/3 190/9/3
f 193/2/3 190/2/3 189/2/3
f 194/2/3 190/2/3 193/2/3
f 195/2/3 193/2/3 189/2/3
f 196/2/3 193/2/3 195/2/3
f 199/2/3 193/2/3 196/2/3
f 200/2/3 193/2/3 199/2/3
f 201/2/3 198/2/3 197/2/3
f 205/2/3 202/2/3 201/2/3
f 205/2/3 201/2/3 197/2/3
f 206/2/3 202/2/3 205/2/3
f 207/2/3 204/2/3 203/2/3
f 208/2/3 204/2/3 207/2/3
f 209/2/3 205/2/3 197/2/3
f 210/2/3 205/2/3 209/2/3
f 214/2/3 212/2/3 211/2/3
f 215/2/3 212/2/3 214/2/3
f 215/2/3 214/2/3 213/2/3
f 217/2/3 215/2/3 213/2/3
f 217/2/3 216/2/3 215/2/3
f 218/2/3 216/2/3 217/2/3
f 219/2/3 192/2/3 191/2/3
f 220/2/3 192/2/3 219/2/3
f 221/9/3 219/9/3 218/9/3
f 222/9/3 219/9/3 221/9/3
f 225/8/3 224/8/3 223/8/3
f 226/8/3 224/8/3 225/8/3
f 231/6/3 228/6/3 227/6/3
f 232/6/3 228/6/3 231/6/3
f 233/6/3 228/6/3 232/6/3
f 234/9/3 230/9/3 229/9/3
f 235/6/3 231/6/3 230/6/3
f 235/9/3 230/9/3 234/9/3
f 235/6/3 232/6/3 231/6/3
f 236/4/3 233/4/3 232/4/3
f 236/6/3 232/6/3 235/6/3
f 237/6/3 228/6/3 233/6/3
f 237/4/3 233/4/3 236/4/3
f 238/6/3 228/6/3 237/6/3
f 239/7/3 235/7/3 234/7/3
f 240/6/3 236/6/3 235/6/3
f 240/7/3 235/7/3 239/7/3
f 240/6/3 237/6/3 236/6/3
f 241/7/3 238/7/3 237/7/3
f 241/6/3 237/6/3 240/6/3
f 242/7/3 238/7/3 241/7/3
f 243/9/3 240/9/3 239/9/3
f 244/6/3 241/6/3 240/6/3
f 244/9/3 240/9/3 243/9/3
f 244/6/3 242/6/3 241/6/3
f 245/6/3 242/6/3 244/6/3
f 251/6/3 248/6/3 247/6/3
f 251/7/3 249/7/3 248/7/3
f 252/6/3 250/6/3 249/6/3
f 252/7/3 249/7/3 251/7/3
f 254/2/3 247/2/3 246/2/3
f 255/6/3 251/6/3 247/6/3
f 255/6/3 252/6/3 251/6/3
f 255/2/3 247/2/3 254/2/3
f 256/6/3 250/6/3 252/6/3
f 256/6/3 252/6/3 255/6/3
f 257/9/3 254/9/3 253/9/3
f 258/9/3 254/9/3 257/9/3
f 261/9/3 260/9/3 259/9/3
f 262/9/3 260/9/3 261/9/3
f 265/2/3 263/2/3 262/2/3
f 266/6/3 264/6/3 263/6/3
f 266/2/3 263/2/3 265/2/3
f 267/6/3 264/6/3 266/6/3
f 270/2/3 269/2/3 268/2/3
f 271/2/3 269/2/3 270/2/3
f 274/2/3 273/2/3 272/2/3
f 275/2/3 273/2/3 274/2/3
f 278/9/3 277/9/3 276/9/3
f 279/9/3 277/9/3 278/9/3
f 280/8/4 281/8/4 282/8/4
f 282/8/4 281/8/4 283/8/4
f 284/9/4 285/9/4 286/9/4
f 286/9/4 285/9/4 287/9/4
f 288/9/4 289/9/4 290/9/4
f 290/9/4 289/9/4 291/9/4
f 292/9/4 293/9/4 294/9/4
f 294/9/4 293/9/4 295/9/4
f 296/2/4 297/2/4 303/2/4
f 303/2/4 297/2/4 304/2/4
f 299/6/4 300/6/4 305/6/4
f 300/7/4 301/7/4 305/7/4
f 301/6/4 302/6/4 306/6/4
f 305/7/4 301/7/4 306/7/4
f 298/2/4 299/2/4 308/2/4
f 299/6/4 305/6/4 309/6/4
f 305/6/4 306/6/4 309/6/4
f 308/2/4 299/2/4 309/2/4
f 306/6/4 302/6/4 310/6/4
f 309/6/4 306/6/4 310/6/4
f 307/9/4 308/9/4 311/9/4
f 311/9/4 308/9/4 312/9/4
f 313/9/4 314/9/4 315/9/4
f 315/9/4 314/9/4 316/9/4
f 316/2/4 317/2/4 319/2/4
f 317/6/4 318/6/4 320/6/4
f 319/2/4 317/2/4 320/2/4
f 320/6/4 318/6/4 321/6/4
f 322/2/4 323/2/4 324/2/4
f 324/2/4 323/2/4 325/2/4
f 327/6/4 328/6/4 329/6/4
f 329/6/4 328/6/4 330/6/4
f 327/6/4 329/6/4 331/6/4
f 329/7/4 330/7/4 331/7/4
f 330/6/4 328/6/4 332/6/4
f 331/7/4 330/7/4 332/7/4
f 326/9/4 327/9/4 333/9/4
f 327/6/4 331/6/4 334/6/4
f 333/9/4 327/9/4 334/9/4
f 331/6/4 332/6/4 334/6/4
f 332/6/4 328/6/4 335/6/4
f 334/6/4 332/6/4 335/6/4
f 336/2/4 337/2/4 338/2/4
f 338/2/4 337/2/4 339/2/4
f 344/9/5 341/9/5 340/9/5
f 345/9/5 341/9/5 344/9/5
f 346/9/5 343/9/5 342/9/5
f 347/9/5 343/9/5 346/9/5
f 350/8/5 349/8/5 348/8/5
f 351/8/5 349/8/5 350/8/5
f 358/9/5 353/9/5 352/9/5
f 358/9/5 354/9/5 353/9/5
f 359/7/5 355/7/5 354/7/5
f 359/9/5 354/9/5 358/9/5
f 360/9/5 356/9/5 355/9/5
f 360/7/5 355/7/5 359/7/5
f 361/9/5 356/9/5 360/9/5
f 363/2/5 358/2/5 357/2/5
f 364/2/5 358/2/5 363/2/5
f 365/9/5 360/9/5 359/9/5
f 366/9/5 360/9/5 365/9/5
f 367/2/5 362/2/5 361/2/5
f 368/2/5 362/2/5 367/2/5
f 369/9/5 366/9/5 365/9/5
f 369/9/5 367/9/5 366/9/5
f 369/9/5 365/9/5 364/9/5
f 370/9/5 367/9/5 369/9/5
f 373/6/5 372/6/5 371/6/5
f 374/6/5 372/6/5 373/6/5
f 380/3/5 376/3/5 375/3/5
f 381/3/5 376/3/5 380/3/5
f 382/3/5 378/3/5 377/3/5
f 383/3/5 378/3/5 382/3/5
f 385/2/5 381/2/5 380/2/5
f 385/2/5 384/2/5 383/2/5
f 385/2/5 383/2/5 382/2/5
f 385/2/5 382/2/5 381/2/5
f 385/2/5 380/2/5 379/2/5
f 386/2/5 384/2/5 385/2/5
f 387/2/5 384/2/5 386/2/5
f 388/2/5 384/2/5 387/2/5
f 389/2/5 385/2/5 379/2/5
f 390/2/5 385/2/5 389/2/5
f 391/2/5 384/2/5 388/2/5
f 392/2/5 384/2/5 391/2/5
f 397/2/5 394/2/5 393/2/5
f 398/2/5 396/2/5 395/2/5
f 399/2/5 397/2/5 393/2/5
f 399/2/5 398/2/5 397/2/5
f 400/2/5 396/2/5 398/2/5
f 400/2/5 398/2/5 399/2/5
f 405/3/5 402/3/5 401/3/5
f 406/3/5 402/3/5 405/3/5
f 407/3/5 404/3/5 403/3/5
f 408/3/5 404/3/5 407/3/5
f 411/3/5 410/3/5 409/3/5
f 412/3/5 410/3/5 411/3/5
f 417/9/5 414/9/5 413/9/5
f 418/9/5 414/9/5 417/9/5
f 419/9/5 416/9/5 415/9/5
f 420/9/5 416/9/5 419/9/5
f 425/2/5 422/2/5 421/2/5
f 426/2/5 422/2/5 425/2/5
f 427/2/5 424/2/5 423/2/5
f 428/2/5 424/2/5 427/2/5
f 436/9/5 430/9/5 429/9/5
f 437/9/5 430/9/5 436/9/5
f 438/9/5 432/9/5 431/9/5
f 439/9/5 432/9/5 438/9/5
f 440/9/5 434/9/5 433/9/5
f 441/9/5 434/9/5 440/9/5
f 443/9/5 436/9/5 435/9/5
f 444/9/5 436/9/5 443/9/5
f 445/9/5 442/9/5 441/9/5
f 446/9/5 442/9/5 445/9/5
f 447/9/6 448/9/6 449/9/6
f 449/9/6 448/9/6 450/9/6
f 451/8/6 452/8/6 453/8/6
f 453/8/6 452/8/6 454/8/6
f 455/3/6 456/3/6 459/3/6
f 459/3/6 456/3/6 460/3/6
f 457/3/6 458/3/6 461/3/6
f 461/3/6 458/3/6 462/3/6
f 463/3/6 464/3/6 465/3/6
f 465/3/6 464/3/6 466/3/6
f 467/2/6 468/2/6 471/2/6
f 471/2/6 468/2/6 472/2/6
f 469/2/6 470/2/6 473/2/6
f 473/2/6 470/2/6 474/2/6
f 475/9/6 476/9/6 478/9/6
f 478/9/6 476/9/6 479/9/6
f 477/9/6 478/9/6 481/9/6
f 481/9/6 478/9/6 482/9/6
f 479/9/6 480/9/6 483/9/6
f 483/9/6 480/9/6 484/9/6
f 485/2/6 486/2/6 487/2/6
f 487/2/6 486/2/6 488/2/6
