# MagicaVoxel @ Ephtracy

# group
o 

# material
mtllib Pumpkin.mtl
usemtl palette

# normals
vn -1 0 0
vn 1 0 0
vn 0 0 1
vn 0 0 -1
vn 0 -1 0
vn 0 1 0

# texcoords
vt 0.302734 0.5
vt 0.306641 0.5
vt 0.431641 0.5
vt 0.955078 0.5

# verts
v -0.5 0 0.5
v -0.5 0 0.4
v -0.5 0 0.2
v -0.5 0 0.1
v -0.5 0 -0.1
v -0.5 0 -0.2
v -0.5 0 -0.4
v -0.5 0 -0.5
v -0.5 1 0.5
v -0.5 1 0.4
v -0.5 1 0.2
v -0.5 1 0.1
v -0.5 1 -0.1
v -0.5 1 -0.2
v -0.5 1 -0.4
v -0.5 1 -0.5
v -0.2 0.3 -0.3
v -0.2 0.3 -0.4
v -0.2 0.4 -0.3
v -0.2 0.4 -0.4
v -0.1 1 0.1
v -0.1 1 -0.1
v -0.1 1.1 0
v -0.1 1.1 -0.1
v -0.1 1.2 0.1
v -0.1 1.2 0
v 0 0.3 -0.3
v 0 0.3 -0.4
v 0 0.4 -0.3
v 0 0.4 -0.4
v 0 1.1 0
v 0 1.1 -0.1
v 0 1.2 0
v 0 1.2 -0.1
v 0.2 0.3 -0.3
v 0.2 0.3 -0.4
v 0.2 0.4 -0.3
v 0.2 0.4 -0.4
v 0.3 0.4 -0.2
v 0.3 0.4 -0.3
v 0.3 0.6 -0.3
v 0.3 0.8 -0.3
v 0.3 0.9 -0.2
v 0.3 0.9 -0.3
v 0.4 0 0.4
v 0.4 0 0.2
v 0.4 0 0.1
v 0.4 0 -0.1
v 0.4 0 -0.2
v 0.4 0 -0.4
v 0.4 0.3 -0.4
v 0.4 0.4 -0.2
v 0.4 0.4 -0.4
v 0.4 0.9 0.4
v 0.4 0.9 0.3
v 0.4 0.9 0.2
v 0.4 0.9 0.1
v 0.4 0.9 0
v 0.4 0.9 -0.1
v 0.4 0.9 -0.2
v -0.4 0 0.4
v -0.4 0 0.2
v -0.4 0 0.1
v -0.4 0 -0.1
v -0.4 0 -0.2
v -0.4 0 -0.4
v -0.4 0.3 -0.4
v -0.4 0.4 -0.3
v -0.4 0.4 -0.4
v -0.4 0.6 -0.3
v -0.4 0.8 -0.3
v -0.4 0.9 0.4
v -0.4 0.9 0.3
v -0.4 0.9 0.2
v -0.4 0.9 0.1
v -0.4 0.9 -0.1
v -0.4 0.9 -0.2
v -0.4 0.9 -0.3
v -0.1 0.3 -0.3
v -0.1 0.3 -0.4
v -0.1 0.4 -0.3
v -0.1 0.4 -0.4
v 0 1.1 0.1
v 0 1.1 0
v 0 1.2 0.1
v 0 1.2 0
v 0.1 0.3 -0.3
v 0.1 0.3 -0.4
v 0.1 0.4 -0.3
v 0.1 0.4 -0.4
v 0.1 1 0.1
v 0.1 1 -0.1
v 0.1 1.1 0.1
v 0.1 1.1 0
v 0.1 1.2 0
v 0.1 1.2 -0.1
v 0.3 0.3 -0.3
v 0.3 0.3 -0.4
v 0.3 0.4 -0.3
v 0.3 0.4 -0.4
v 0.5 0 0.5
v 0.5 0 0.4
v 0.5 0 0.2
v 0.5 0 0.1
v 0.5 0 -0.1
v 0.5 0 -0.2
v 0.5 0 -0.4
v 0.5 0 -0.5
v 0.5 1 0.5
v 0.5 1 0.4
v 0.5 1 0.2
v 0.5 1 0.1
v 0.5 1 -0.1
v 0.5 1 -0.2
v 0.5 1 -0.4
v 0.5 1 -0.5
v -0.5 0 0.5
v -0.5 1 0.5
v -0.4 0 0.5
v -0.4 1 0.5
v -0.2 0 0.5
v -0.2 1 0.5
v -0.1 0 0.5
v -0.1 1 0.5
v 0.1 0 0.5
v 0.1 1 0.5
v 0.2 0 0.5
v 0.2 1 0.5
v 0.4 0 0.5
v 0.4 1 0.5
v 0.5 0 0.5
v 0.5 1 0.5
v -0.1 1 0.1
v -0.1 1.2 0.1
v 0 1.1 0.1
v 0 1.2 0.1
v 0.1 1 0.1
v 0.1 1.1 0.1
v 0 1.1 0
v 0 1.2 0
v 0.1 1.1 0
v 0.1 1.2 0
v 0.3 0.4 -0.2
v 0.3 0.9 -0.2
v 0.4 0.4 -0.2
v 0.4 0.9 -0.2
v -0.4 0.4 -0.3
v -0.4 0.6 -0.3
v -0.4 0.8 -0.3
v -0.4 0.9 -0.3
v -0.3 0.9 -0.3
v -0.2 0.3 -0.3
v -0.2 0.4 -0.3
v -0.2 0.7 -0.3
v -0.2 0.8 -0.3
v -0.1 0.3 -0.3
v -0.1 0.4 -0.3
v -0.1 0.6 -0.3
v -0.1 0.7 -0.3
v 0 0.3 -0.3
v 0 0.4 -0.3
v 0 0.9 -0.3
v 0.1 0.3 -0.3
v 0.1 0.4 -0.3
v 0.1 0.6 -0.3
v 0.1 0.7 -0.3
v 0.1 0.9 -0.3
v 0.2 0.3 -0.3
v 0.2 0.4 -0.3
v 0.2 0.7 -0.3
v 0.2 0.8 -0.3
v 0.3 0.3 -0.3
v 0.3 0.4 -0.3
v 0.3 0.6 -0.3
v 0.3 0.8 -0.3
v 0.3 0.9 -0.3
v -0.4 0 -0.4
v -0.4 0.3 -0.4
v -0.4 0.4 -0.4
v -0.3 0.2 -0.4
v -0.3 0.3 -0.4
v -0.2 0 -0.4
v -0.2 0.2 -0.4
v -0.2 0.3 -0.4
v -0.2 0.4 -0.4
v -0.1 0 -0.4
v -0.1 0.2 -0.4
v -0.1 0.3 -0.4
v -0.1 0.4 -0.4
v 0 0.3 -0.4
v 0 0.4 -0.4
v 0.1 0 -0.4
v 0.1 0.2 -0.4
v 0.1 0.3 -0.4
v 0.1 0.4 -0.4
v 0.2 0 -0.4
v 0.2 0.2 -0.4
v 0.2 0.3 -0.4
v 0.2 0.4 -0.4
v 0.3 0.2 -0.4
v 0.3 0.3 -0.4
v 0.3 0.4 -0.4
v 0.4 0 -0.4
v 0.4 0.3 -0.4
v 0.4 0.4 -0.4
v -0.4 0 0.4
v -0.4 0.9 0.4
v -0.3 0.9 0.4
v -0.2 0 0.4
v -0.2 0.9 0.4
v -0.1 0 0.4
v -0.1 0.9 0.4
v 0.1 0 0.4
v 0.1 0.9 0.4
v 0.2 0 0.4
v 0.2 0.9 0.4
v 0.3 0.9 0.4
v 0.4 0 0.4
v 0.4 0.9 0.4
v -0.1 1.1 0
v -0.1 1.2 0
v 0 1.1 0
v 0 1.2 0
v -0.1 1 -0.1
v -0.1 1.1 -0.1
v 0 1.1 -0.1
v 0 1.2 -0.1
v 0.1 1 -0.1
v 0.1 1.2 -0.1
v -0.5 0 -0.5
v -0.5 1 -0.5
v -0.4 0 -0.5
v -0.4 0.3 -0.5
v -0.4 0.4 -0.5
v -0.4 0.6 -0.5
v -0.4 0.8 -0.5
v -0.4 1 -0.5
v -0.3 0.2 -0.5
v -0.3 0.3 -0.5
v -0.2 0 -0.5
v -0.2 0.2 -0.5
v -0.2 0.3 -0.5
v -0.2 0.4 -0.5
v -0.2 0.6 -0.5
v -0.2 0.7 -0.5
v -0.2 0.8 -0.5
v -0.2 1 -0.5
v -0.1 0 -0.5
v -0.1 0.2 -0.5
v -0.1 0.3 -0.5
v -0.1 0.4 -0.5
v -0.1 0.6 -0.5
v -0.1 0.7 -0.5
v -0.1 1 -0.5
v 0 0.3 -0.5
v 0 0.4 -0.5
v 0.1 0 -0.5
v 0.1 0.2 -0.5
v 0.1 0.3 -0.5
v 0.1 0.4 -0.5
v 0.1 0.6 -0.5
v 0.1 0.7 -0.5
v 0.1 1 -0.5
v 0.2 0 -0.5
v 0.2 0.2 -0.5
v 0.2 0.3 -0.5
v 0.2 0.4 -0.5
v 0.2 0.6 -0.5
v 0.2 0.7 -0.5
v 0.2 0.8 -0.5
v 0.2 1 -0.5
v 0.3 0.2 -0.5
v 0.3 0.3 -0.5
v 0.3 0.4 -0.5
v 0.4 0 -0.5
v 0.4 0.3 -0.5
v 0.4 0.4 -0.5
v 0.4 0.6 -0.5
v 0.4 0.8 -0.5
v 0.4 1 -0.5
v 0.5 0 -0.5
v 0.5 1 -0.5
v -0.5 0 0.5
v -0.4 0 0.5
v -0.2 0 0.5
v -0.1 0 0.5
v 0.1 0 0.5
v 0.2 0 0.5
v 0.4 0 0.5
v 0.5 0 0.5
v -0.5 0 0.4
v -0.4 0 0.4
v -0.2 0 0.4
v -0.1 0 0.4
v 0.1 0 0.4
v 0.2 0 0.4
v 0.4 0 0.4
v 0.5 0 0.4
v -0.5 0 0.2
v -0.4 0 0.2
v 0.4 0 0.2
v 0.5 0 0.2
v -0.5 0 0.1
v -0.4 0 0.1
v 0.4 0 0.1
v 0.5 0 0.1
v -0.5 0 -0.1
v -0.4 0 -0.1
v 0.4 0 -0.1
v 0.5 0 -0.1
v -0.5 0 -0.2
v -0.4 0 -0.2
v 0.4 0 -0.2
v 0.5 0 -0.2
v -0.5 0 -0.4
v -0.4 0 -0.4
v -0.2 0 -0.4
v -0.1 0 -0.4
v 0.1 0 -0.4
v 0.2 0 -0.4
v 0.4 0 -0.4
v 0.5 0 -0.4
v -0.5 0 -0.5
v -0.4 0 -0.5
v -0.2 0 -0.5
v -0.1 0 -0.5
v 0.1 0 -0.5
v 0.2 0 -0.5
v 0.4 0 -0.5
v 0.5 0 -0.5
v -0.2 0.3 -0.3
v -0.1 0.3 -0.3
v 0 0.3 -0.3
v 0.1 0.3 -0.3
v 0.2 0.3 -0.3
v 0.3 0.3 -0.3
v -0.2 0.3 -0.4
v -0.1 0.3 -0.4
v 0 0.3 -0.4
v 0.1 0.3 -0.4
v 0.2 0.3 -0.4
v 0.3 0.3 -0.4
v 0.3 0.4 -0.2
v 0.4 0.4 -0.2
v -0.4 0.4 -0.3
v -0.2 0.4 -0.3
v -0.1 0.4 -0.3
v 0 0.4 -0.3
v 0.1 0.4 -0.3
v 0.2 0.4 -0.3
v 0.3 0.4 -0.3
v -0.4 0.4 -0.4
v -0.2 0.4 -0.4
v -0.1 0.4 -0.4
v 0 0.4 -0.4
v 0.1 0.4 -0.4
v 0.2 0.4 -0.4
v 0.3 0.4 -0.4
v 0.4 0.4 -0.4
v -0.4 0.9 0.4
v -0.3 0.9 0.4
v -0.2 0.9 0.4
v -0.1 0.9 0.4
v 0.1 0.9 0.4
v 0.2 0.9 0.4
v 0.3 0.9 0.4
v 0.4 0.9 0.4
v -0.4 0.9 0.3
v -0.3 0.9 0.3
v -0.2 0.9 0.3
v 0 0.9 0.3
v 0.1 0.9 0.3
v 0.2 0.9 0.3
v 0.3 0.9 0.3
v 0.4 0.9 0.3
v -0.4 0.9 0.2
v -0.3 0.9 0.2
v -0.2 0.9 0.2
v -0.1 0.9 0.2
v 0 0.9 0.2
v 0.1 0.9 0.2
v 0.2 0.9 0.2
v 0.3 0.9 0.2
v 0.4 0.9 0.2
v -0.4 0.9 0.1
v -0.2 0.9 0.1
v -0.1 0.9 0.1
v 0 0.9 0.1
v 0.1 0.9 0.1
v 0.2 0.9 0.1
v 0.3 0.9 0.1
v 0.4 0.9 0.1
v -0.3 0.9 0
v -0.2 0.9 0
v -0.1 0.9 0
v 0 0.9 0
v 0.2 0.9 0
v 0.3 0.9 0
v 0.4 0.9 0
v -0.4 0.9 -0.1
v -0.3 0.9 -0.1
v -0.2 0.9 -0.1
v -0.1 0.9 -0.1
v 0.1 0.9 -0.1
v 0.2 0.9 -0.1
v 0.3 0.9 -0.1
v 0.4 0.9 -0.1
v -0.4 0.9 -0.2
v -0.3 0.9 -0.2
v -0.2 0.9 -0.2
v -0.1 0.9 -0.2
v 0 0.9 -0.2
v 0.1 0.9 -0.2
v 0.2 0.9 -0.2
v 0.3 0.9 -0.2
v 0.4 0.9 -0.2
v -0.4 0.9 -0.3
v -0.3 0.9 -0.3
v 0 0.9 -0.3
v 0.1 0.9 -0.3
v 0.3 0.9 -0.3
v -0.5 1 0.5
v -0.4 1 0.5
v -0.2 1 0.5
v -0.1 1 0.5
v 0.1 1 0.5
v 0.2 1 0.5
v 0.4 1 0.5
v 0.5 1 0.5
v -0.5 1 0.4
v -0.4 1 0.4
v -0.3 1 0.4
v 0.3 1 0.4
v 0.4 1 0.4
v 0.5 1 0.4
v -0.4 1 0.3
v -0.3 1 0.3
v -0.2 1 0.3
v 0 1 0.3
v 0.1 1 0.3
v 0.2 1 0.3
v 0.3 1 0.3
v 0.4 1 0.3
v -0.5 1 0.2
v -0.3 1 0.2
v -0.2 1 0.2
v -0.1 1 0.2
v 0 1 0.2
v 0.1 1 0.2
v 0.2 1 0.2
v 0.3 1 0.2
v 0.5 1 0.2
v -0.5 1 0.1
v -0.2 1 0.1
v -0.1 1 0.1
v 0.1 1 0.1
v 0.2 1 0.1
v 0.3 1 0.1
v 0.5 1 0.1
v -0.3 1 0
v -0.2 1 0
v 0.2 1 0
v 0.3 1 0
v 0.4 1 0
v -0.5 1 -0.1
v -0.3 1 -0.1
v -0.2 1 -0.1
v -0.1 1 -0.1
v 0.1 1 -0.1
v 0.2 1 -0.1
v 0.3 1 -0.1
v 0.4 1 -0.1
v 0.5 1 -0.1
v -0.5 1 -0.2
v -0.3 1 -0.2
v -0.2 1 -0.2
v -0.1 1 -0.2
v 0 1 -0.2
v 0.1 1 -0.2
v 0.2 1 -0.2
v 0.3 1 -0.2
v 0.5 1 -0.2
v -0.4 1 -0.3
v -0.3 1 -0.3
v -0.2 1 -0.3
v -0.1 1 -0.3
v 0 1 -0.3
v 0.1 1 -0.3
v 0.2 1 -0.3
v 0.3 1 -0.3
v 0.4 1 -0.3
v -0.5 1 -0.4
v -0.4 1 -0.4
v -0.3 1 -0.4
v 0 1 -0.4
v 0.1 1 -0.4
v 0.3 1 -0.4
v 0.4 1 -0.4
v 0.5 1 -0.4
v -0.5 1 -0.5
v -0.4 1 -0.5
v -0.2 1 -0.5
v -0.1 1 -0.5
v 0.1 1 -0.5
v 0.2 1 -0.5
v 0.4 1 -0.5
v 0.5 1 -0.5
v 0 1.1 0.1
v 0.1 1.1 0.1
v -0.1 1.1 0
v 0 1.1 0
v 0.1 1.1 0
v -0.1 1.1 -0.1
v 0 1.1 -0.1
v -0.1 1.2 0.1
v 0 1.2 0.1
v -0.1 1.2 0
v 0 1.2 0
v 0.1 1.2 0
v 0 1.2 -0.1
v 0.1 1.2 -0.1

# faces
f 9/2/1 2/2/1 1/2/1
f 10/1/1 3/1/1 2/1/1
f 10/2/1 2/2/1 9/2/1
f 11/2/1 4/2/1 3/2/1
f 11/1/1 3/1/1 10/1/1
f 12/1/1 5/1/1 4/1/1
f 12/2/1 4/2/1 11/2/1
f 13/2/1 6/2/1 5/2/1
f 13/1/1 5/1/1 12/1/1
f 14/1/1 7/1/1 6/1/1
f 14/2/1 6/2/1 13/2/1
f 15/2/1 8/2/1 7/2/1
f 15/1/1 7/1/1 14/1/1
f 16/2/1 8/2/1 15/2/1
f 19/1/1 18/1/1 17/1/1
f 20/1/1 18/1/1 19/1/1
f 23/4/1 22/4/1 21/4/1
f 24/4/1 22/4/1 23/4/1
f 25/4/1 23/4/1 21/4/1
f 26/4/1 23/4/1 25/4/1
f 29/1/1 28/1/1 27/1/1
f 30/1/1 28/1/1 29/1/1
f 33/4/1 32/4/1 31/4/1
f 34/4/1 32/4/1 33/4/1
f 37/1/1 36/1/1 35/1/1
f 38/1/1 36/1/1 37/1/1
f 41/1/1 40/1/1 39/1/1
f 42/1/1 41/1/1 39/1/1
f 43/1/1 42/1/1 39/1/1
f 44/1/1 42/1/1 43/1/1
f 51/1/1 50/1/1 49/1/1
f 52/2/1 49/2/1 48/2/1
f 52/1/1 51/1/1 49/1/1
f 53/1/1 51/1/1 52/1/1
f 54/1/1 46/1/1 45/1/1
f 55/1/1 46/1/1 54/1/1
f 56/2/1 47/2/1 46/2/1
f 56/1/1 46/1/1 55/1/1
f 57/1/1 48/1/1 47/1/1
f 57/2/1 47/2/1 56/2/1
f 58/1/1 48/1/1 57/1/1
f 59/2/1 52/2/1 48/2/1
f 59/1/1 48/1/1 58/1/1
f 60/2/1 52/2/1 59/2/1
f 65/1/2 66/1/2 67/1/2
f 65/1/2 67/1/2 68/1/2
f 68/1/2 67/1/2 69/1/2
f 65/1/2 68/1/2 70/1/2
f 65/1/2 70/1/2 71/1/2
f 61/1/2 62/1/2 72/1/2
f 72/1/2 62/1/2 73/1/2
f 62/2/2 63/2/2 74/2/2
f 73/1/2 62/1/2 74/1/2
f 63/1/2 64/1/2 75/1/2
f 74/2/2 63/2/2 75/2/2
f 64/2/2 65/2/2 76/2/2
f 75/1/2 64/1/2 76/1/2
f 65/1/2 71/1/2 77/1/2
f 76/2/2 65/2/2 77/2/2
f 77/1/2 71/1/2 78/1/2
f 79/1/2 80/1/2 81/1/2
f 81/1/2 80/1/2 82/1/2
f 83/4/2 84/4/2 85/4/2
f 85/4/2 84/4/2 86/4/2
f 87/1/2 88/1/2 89/1/2
f 89/1/2 88/1/2 90/1/2
f 91/4/2 92/4/2 93/4/2
f 93/4/2 92/4/2 94/4/2
f 94/4/2 92/4/2 95/4/2
f 95/4/2 92/4/2 96/4/2
f 97/1/2 98/1/2 99/1/2
f 99/1/2 98/1/2 100/1/2
f 101/2/2 102/2/2 109/2/2
f 102/1/2 103/1/2 110/1/2
f 109/2/2 102/2/2 110/2/2
f 103/2/2 104/2/2 111/2/2
f 110/1/2 103/1/2 111/1/2
f 104/1/2 105/1/2 112/1/2
f 111/2/2 104/2/2 112/2/2
f 105/2/2 106/2/2 113/2/2
f 112/1/2 105/1/2 113/1/2
f 106/1/2 107/1/2 114/1/2
f 113/2/2 106/2/2 114/2/2
f 107/2/2 108/2/2 115/2/2
f 114/1/2 107/1/2 115/1/2
f 115/2/2 108/2/2 116/2/2
f 119/2/3 118/2/3 117/2/3
f 120/2/3 118/2/3 119/2/3
f 121/1/3 120/1/3 119/1/3
f 122/1/3 120/1/3 121/1/3
f 123/2/3 122/2/3 121/2/3
f 124/2/3 122/2/3 123/2/3
f 125/1/3 124/1/3 123/1/3
f 126/1/3 124/1/3 125/1/3
f 127/2/3 126/2/3 125/2/3
f 128/2/3 126/2/3 127/2/3
f 129/1/3 128/1/3 127/1/3
f 130/1/3 128/1/3 129/1/3
f 131/2/3 130/2/3 129/2/3
f 132/2/3 130/2/3 131/2/3
f 135/4/3 134/4/3 133/4/3
f 136/4/3 134/4/3 135/4/3
f 137/4/3 135/4/3 133/4/3
f 138/4/3 135/4/3 137/4/3
f 141/4/3 140/4/3 139/4/3
f 142/4/3 140/4/3 141/4/3
f 145/1/3 144/1/3 143/1/3
f 146/1/3 144/1/3 145/1/3
f 151/1/3 150/1/3 149/1/3
f 153/1/3 148/1/3 147/1/3
f 154/3/3 149/3/3 148/3/3
f 155/1/3 151/1/3 149/1/3
f 155/3/3 149/3/3 154/3/3
f 156/1/3 153/1/3 152/1/3
f 157/1/3 148/1/3 153/1/3
f 157/1/3 153/1/3 156/1/3
f 158/3/3 154/3/3 148/3/3
f 158/1/3 148/1/3 157/1/3
f 159/1/3 155/1/3 154/1/3
f 159/3/3 154/3/3 158/3/3
f 161/1/3 158/1/3 157/1/3
f 161/1/3 159/1/3 158/1/3
f 162/1/3 151/1/3 155/1/3
f 162/1/3 155/1/3 159/1/3
f 162/1/3 159/1/3 161/1/3
f 163/1/3 161/1/3 160/1/3
f 163/1/3 162/1/3 161/1/3
f 164/1/3 162/1/3 163/1/3
f 165/1/3 162/1/3 164/1/3
f 166/1/3 162/1/3 165/1/3
f 167/1/3 162/1/3 166/1/3
f 169/1/3 165/1/3 164/1/3
f 170/1/3 167/1/3 166/1/3
f 170/3/3 166/3/3 165/3/3
f 171/1/3 167/1/3 170/1/3
f 172/1/3 169/1/3 168/1/3
f 173/1/3 165/1/3 169/1/3
f 173/1/3 169/1/3 172/1/3
f 174/3/3 170/3/3 165/3/3
f 174/1/3 165/1/3 173/1/3
f 174/3/3 171/3/3 170/3/3
f 175/1/3 167/1/3 171/1/3
f 175/3/3 171/3/3 174/3/3
f 176/1/3 167/1/3 175/1/3
f 180/1/3 178/1/3 177/1/3
f 181/3/3 179/3/3 178/3/3
f 181/1/3 178/1/3 180/1/3
f 182/1/3 180/1/3 177/1/3
f 183/3/3 181/3/3 180/3/3
f 183/1/3 180/1/3 182/1/3
f 184/3/3 179/3/3 181/3/3
f 184/3/3 181/3/3 183/3/3
f 185/3/3 179/3/3 184/3/3
f 186/2/3 183/2/3 182/2/3
f 187/3/3 184/3/3 183/3/3
f 187/2/3 183/2/3 186/2/3
f 188/3/3 184/3/3 187/3/3
f 190/3/3 188/3/3 187/3/3
f 190/3/3 189/3/3 188/3/3
f 191/3/3 189/3/3 190/3/3
f 192/1/3 187/1/3 186/1/3
f 193/3/3 190/3/3 187/3/3
f 193/1/3 187/1/3 192/1/3
f 194/3/3 190/3/3 193/3/3
f 196/2/3 193/2/3 192/2/3
f 197/3/3 195/3/3 194/3/3
f 197/2/3 193/2/3 196/2/3
f 197/3/3 194/3/3 193/3/3
f 198/3/3 195/3/3 197/3/3
f 199/3/3 195/3/3 198/3/3
f 200/1/3 197/1/3 196/1/3
f 200/3/3 198/3/3 197/3/3
f 201/3/3 198/3/3 200/3/3
f 203/1/3 200/1/3 196/1/3
f 203/1/3 201/1/3 200/1/3
f 204/3/3 202/3/3 201/3/3
f 204/1/3 201/1/3 203/1/3
f 205/3/3 202/3/3 204/3/3
f 206/1/4 207/1/4 208/1/4
f 206/1/4 208/1/4 209/1/4
f 209/1/4 208/1/4 210/1/4
f 209/2/4 210/2/4 211/2/4
f 211/2/4 210/2/4 212/2/4
f 211/1/4 212/1/4 213/1/4
f 213/1/4 212/1/4 214/1/4
f 213/2/4 214/2/4 215/2/4
f 215/2/4 214/2/4 216/2/4
f 215/1/4 216/1/4 217/1/4
f 215/1/4 217/1/4 218/1/4
f 218/1/4 217/1/4 219/1/4
f 220/4/4 221/4/4 222/4/4
f 222/4/4 221/4/4 223/4/4
f 224/4/4 225/4/4 226/4/4
f 224/4/4 226/4/4 228/4/4
f 226/4/4 227/4/4 228/4/4
f 228/4/4 227/4/4 229/4/4
f 230/2/4 231/2/4 232/2/4
f 232/2/4 231/2/4 233/2/4
f 233/2/4 231/2/4 234/2/4
f 234/2/4 231/2/4 235/2/4
f 235/2/4 231/2/4 236/2/4
f 236/2/4 231/2/4 237/2/4
f 232/1/4 233/1/4 238/1/4
f 233/3/4 234/3/4 239/3/4
f 238/1/4 233/1/4 239/1/4
f 232/1/4 238/1/4 240/1/4
f 238/3/4 239/3/4 241/3/4
f 240/1/4 238/1/4 241/1/4
f 239/3/4 234/3/4 242/3/4
f 241/3/4 239/3/4 242/3/4
f 234/1/4 235/1/4 243/1/4
f 242/3/4 234/3/4 243/3/4
f 235/3/4 236/3/4 244/3/4
f 243/1/4 235/1/4 244/1/4
f 244/3/4 236/3/4 245/3/4
f 236/1/4 237/1/4 246/1/4
f 245/3/4 236/3/4 246/3/4
f 246/1/4 237/1/4 247/1/4
f 240/2/4 241/2/4 248/2/4
f 241/3/4 242/3/4 249/3/4
f 248/2/4 241/2/4 249/2/4
f 242/2/4 243/2/4 250/2/4
f 249/3/4 242/3/4 250/3/4
f 243/2/4 244/2/4 250/2/4
f 250/2/4 244/2/4 251/2/4
f 244/3/4 245/3/4 252/3/4
f 251/2/4 244/2/4 252/2/4
f 246/2/4 247/2/4 253/2/4
f 252/3/4 245/3/4 253/3/4
f 245/2/4 246/2/4 253/2/4
f 253/2/4 247/2/4 254/2/4
f 250/3/4 251/3/4 255/3/4
f 249/3/4 250/3/4 255/3/4
f 251/1/4 252/1/4 256/1/4
f 255/3/4 251/3/4 256/3/4
f 253/1/4 254/1/4 256/1/4
f 252/1/4 253/1/4 256/1/4
f 248/1/4 249/1/4 257/1/4
f 249/3/4 255/3/4 258/3/4
f 257/1/4 249/1/4 258/1/4
f 255/1/4 256/1/4 259/1/4
f 258/3/4 255/3/4 259/3/4
f 256/1/4 254/1/4 260/1/4
f 259/1/4 256/1/4 260/1/4
f 260/1/4 254/1/4 261/1/4
f 261/1/4 254/1/4 262/1/4
f 262/1/4 254/1/4 263/1/4
f 257/2/4 258/2/4 264/2/4
f 258/3/4 259/3/4 265/3/4
f 264/2/4 258/2/4 265/2/4
f 259/3/4 260/3/4 265/3/4
f 265/3/4 260/3/4 266/3/4
f 260/2/4 261/2/4 267/2/4
f 266/3/4 260/3/4 267/3/4
f 261/3/4 262/3/4 268/3/4
f 267/2/4 261/2/4 268/2/4
f 262/2/4 263/2/4 269/2/4
f 268/3/4 262/3/4 269/3/4
f 269/2/4 263/2/4 270/2/4
f 270/2/4 263/2/4 271/2/4
f 265/3/4 266/3/4 272/3/4
f 264/1/4 265/1/4 272/1/4
f 267/1/4 268/1/4 273/1/4
f 272/3/4 266/3/4 273/3/4
f 266/1/4 267/1/4 273/1/4
f 273/1/4 268/1/4 274/1/4
f 264/1/4 272/1/4 275/1/4
f 272/1/4 273/1/4 275/1/4
f 273/3/4 274/3/4 276/3/4
f 275/1/4 273/1/4 276/1/4
f 274/1/4 268/1/4 277/1/4
f 276/3/4 274/3/4 277/3/4
f 269/3/4 270/3/4 278/3/4
f 277/1/4 268/1/4 278/1/4
f 268/3/4 269/3/4 278/3/4
f 270/1/4 271/1/4 279/1/4
f 278/3/4 270/3/4 279/3/4
f 279/1/4 271/1/4 280/1/4
f 275/2/4 276/2/4 281/2/4
f 276/2/4 277/2/4 281/2/4
f 279/2/4 280/2/4 281/2/4
f 278/2/4 279/2/4 281/2/4
f 277/2/4 278/2/4 281/2/4
f 281/2/4 280/2/4 282/2/4
f 291/2/5 284/2/5 283/2/5
f 292/1/5 285/1/5 284/1/5
f 292/2/5 284/2/5 291/2/5
f 293/2/5 286/2/5 285/2/5
f 293/1/5 285/1/5 292/1/5
f 294/1/5 287/1/5 286/1/5
f 294/2/5 286/2/5 293/2/5
f 295/2/5 288/2/5 287/2/5
f 295/1/5 287/1/5 294/1/5
f 296/1/5 289/1/5 288/1/5
f 296/2/5 288/2/5 295/2/5
f 297/2/5 290/2/5 289/2/5
f 297/1/5 289/1/5 296/1/5
f 298/2/5 290/2/5 297/2/5
f 299/1/5 292/1/5 291/1/5
f 300/1/5 292/1/5 299/1/5
f 301/1/5 298/1/5 297/1/5
f 302/1/5 298/1/5 301/1/5
f 303/2/5 300/2/5 299/2/5
f 304/2/5 300/2/5 303/2/5
f 305/2/5 302/2/5 301/2/5
f 306/2/5 302/2/5 305/2/5
f 307/1/5 304/1/5 303/1/5
f 308/1/5 304/1/5 307/1/5
f 309/1/5 306/1/5 305/1/5
f 310/1/5 306/1/5 309/1/5
f 311/2/5 308/2/5 307/2/5
f 312/2/5 308/2/5 311/2/5
f 313/2/5 310/2/5 309/2/5
f 314/2/5 310/2/5 313/2/5
f 315/1/5 312/1/5 311/1/5
f 316/1/5 312/1/5 315/1/5
f 321/1/5 314/1/5 313/1/5
f 322/1/5 314/1/5 321/1/5
f 323/2/5 316/2/5 315/2/5
f 324/1/5 317/1/5 316/1/5
f 324/2/5 316/2/5 323/2/5
f 325/2/5 318/2/5 317/2/5
f 325/1/5 317/1/5 324/1/5
f 326/1/5 319/1/5 318/1/5
f 326/2/5 318/2/5 325/2/5
f 327/2/5 320/2/5 319/2/5
f 327/1/5 319/1/5 326/1/5
f 328/1/5 321/1/5 320/1/5
f 328/2/5 320/2/5 327/2/5
f 329/2/5 322/2/5 321/2/5
f 329/1/5 321/1/5 328/1/5
f 330/2/5 322/2/5 329/2/5
f 337/1/5 332/1/5 331/1/5
f 338/1/5 332/1/5 337/1/5
f 339/1/5 334/1/5 333/1/5
f 340/1/5 334/1/5 339/1/5
f 341/1/5 336/1/5 335/1/5
f 342/1/5 336/1/5 341/1/5
f 351/1/5 344/1/5 343/1/5
f 352/1/5 346/1/5 345/1/5
f 353/1/5 346/1/5 352/1/5
f 354/1/5 348/1/5 347/1/5
f 355/1/5 348/1/5 354/1/5
f 356/1/5 350/1/5 349/1/5
f 357/1/5 350/1/5 356/1/5
f 358/1/5 344/1/5 351/1/5
f 359/1/5 344/1/5 358/1/5
f 368/2/5 361/2/5 360/2/5
f 369/1/5 362/1/5 361/1/5
f 369/2/5 361/2/5 368/2/5
f 370/2/5 363/2/5 362/2/5
f 370/1/5 362/1/5 369/1/5
f 371/1/5 364/1/5 363/1/5
f 372/2/5 365/2/5 364/2/5
f 372/1/5 364/1/5 371/1/5
f 373/1/5 366/1/5 365/1/5
f 373/2/5 365/2/5 372/2/5
f 374/2/5 367/2/5 366/2/5
f 374/1/5 366/1/5 373/1/5
f 375/2/5 367/2/5 374/2/5
f 376/1/5 369/1/5 368/1/5
f 377/2/5 370/2/5 369/2/5
f 377/1/5 369/1/5 376/1/5
f 378/2/5 363/2/5 370/2/5
f 378/2/5 370/2/5 377/2/5
f 379/1/5 371/1/5 363/1/5
f 379/2/5 363/2/5 378/2/5
f 380/2/5 373/2/5 372/2/5
f 380/1/5 371/1/5 379/1/5
f 380/2/5 372/2/5 371/2/5
f 380/2/5 374/2/5 373/2/5
f 381/2/5 374/2/5 380/2/5
f 382/2/5 374/2/5 381/2/5
f 383/1/5 375/1/5 374/1/5
f 383/2/5 374/2/5 382/2/5
f 384/1/5 375/1/5 383/1/5
f 385/2/5 377/2/5 376/2/5
f 385/2/5 378/2/5 377/2/5
f 386/1/5 379/1/5 378/1/5
f 386/2/5 378/2/5 385/2/5
f 387/2/5 380/2/5 379/2/5
f 387/1/5 379/1/5 386/1/5
f 387/2/5 381/2/5 380/2/5
f 388/2/5 381/2/5 387/2/5
f 389/1/5 382/1/5 381/1/5
f 389/2/5 381/2/5 388/2/5
f 390/2/5 384/2/5 383/2/5
f 390/1/5 382/1/5 389/1/5
f 390/2/5 383/2/5 382/2/5
f 391/2/5 384/2/5 390/2/5
f 392/2/5 384/2/5 391/2/5
f 393/1/5 386/1/5 385/1/5
f 394/2/5 387/2/5 386/2/5
f 394/1/5 386/1/5 393/1/5
f 395/4/5 388/4/5 387/4/5
f 395/2/5 387/2/5 394/2/5
f 396/1/5 389/1/5 388/1/5
f 396/4/5 388/4/5 395/4/5
f 397/2/5 390/2/5 389/2/5
f 397/2/5 391/2/5 390/2/5
f 398/1/5 392/1/5 391/1/5
f 398/2/5 391/2/5 397/2/5
f 399/1/5 392/1/5 398/1/5
f 400/1/5 393/1/5 385/1/5
f 401/2/5 395/2/5 394/2/5
f 401/1/5 393/1/5 400/1/5
f 401/2/5 394/2/5 393/2/5
f 402/2/5 395/2/5 401/2/5
f 403/1/5 396/1/5 395/1/5
f 403/2/5 395/2/5 402/2/5
f 404/1/5 389/1/5 396/1/5
f 404/1/5 396/1/5 403/1/5
f 404/2/5 397/2/5 389/2/5
f 405/1/5 398/1/5 397/1/5
f 405/2/5 397/2/5 404/2/5
f 406/2/5 399/2/5 398/2/5
f 406/1/5 398/1/5 405/1/5
f 407/2/5 399/2/5 406/2/5
f 408/2/5 402/2/5 401/2/5
f 408/2/5 401/2/5 400/2/5
f 409/2/5 402/2/5 408/2/5
f 410/1/5 403/1/5 402/1/5
f 410/2/5 402/2/5 409/2/5
f 411/2/5 404/2/5 403/2/5
f 411/1/5 403/1/5 410/1/5
f 412/2/5 404/2/5 411/2/5
f 413/1/5 405/1/5 404/1/5
f 413/2/5 404/2/5 412/2/5
f 414/2/5 407/2/5 406/2/5
f 414/1/5 405/1/5 413/1/5
f 414/2/5 406/2/5 405/2/5
f 415/2/5 407/2/5 414/2/5
f 416/2/5 407/2/5 415/2/5
f 417/1/5 409/1/5 408/1/5
f 418/2/5 412/2/5 411/2/5
f 418/1/5 409/1/5 417/1/5
f 418/2/5 410/2/5 409/2/5
f 418/2/5 411/2/5 410/2/5
f 419/1/5 413/1/5 412/1/5
f 419/2/5 412/2/5 418/2/5
f 420/2/5 415/2/5 414/2/5
f 420/1/5 413/1/5 419/1/5
f 420/2/5 414/2/5 413/2/5
f 421/2/5 415/2/5 420/2/5
f 422/2/6 423/2/6 430/2/6
f 423/1/6 424/1/6 431/1/6
f 430/2/6 423/2/6 431/2/6
f 431/1/6 424/1/6 432/1/6
f 427/1/6 428/1/6 433/1/6
f 428/2/6 429/2/6 434/2/6
f 433/1/6 428/1/6 434/1/6
f 434/2/6 429/2/6 435/2/6
f 430/1/6 431/1/6 436/1/6
f 431/2/6 432/2/6 436/2/6
f 432/1/6 424/1/6 437/1/6
f 436/2/6 432/2/6 437/2/6
f 424/2/6 425/2/6 438/2/6
f 437/1/6 424/1/6 438/1/6
f 425/1/6 426/1/6 439/1/6
f 426/2/6 427/2/6 440/2/6
f 439/1/6 426/1/6 440/1/6
f 427/1/6 433/1/6 441/1/6
f 440/2/6 427/2/6 441/2/6
f 433/2/6 434/2/6 442/2/6
f 441/1/6 433/1/6 442/1/6
f 434/1/6 435/1/6 443/1/6
f 442/2/6 434/2/6 443/2/6
f 436/1/6 437/1/6 444/1/6
f 430/1/6 436/1/6 444/1/6
f 437/2/6 438/2/6 445/2/6
f 444/1/6 437/1/6 445/1/6
f 438/2/6 425/2/6 446/2/6
f 445/2/6 438/2/6 446/2/6
f 425/1/6 439/1/6 447/1/6
f 446/2/6 425/2/6 447/2/6
f 439/2/6 440/2/6 448/2/6
f 447/1/6 439/1/6 448/1/6
f 441/2/6 442/2/6 448/2/6
f 440/2/6 441/2/6 448/2/6
f 448/2/6 442/2/6 449/2/6
f 449/2/6 442/2/6 450/2/6
f 442/1/6 443/1/6 451/1/6
f 450/2/6 442/2/6 451/2/6
f 443/1/6 435/1/6 452/1/6
f 451/1/6 443/1/6 452/1/6
f 444/2/6 445/2/6 453/2/6
f 445/2/6 446/2/6 453/2/6
f 446/1/6 447/1/6 454/1/6
f 453/2/6 446/2/6 454/2/6
f 447/2/6 448/2/6 455/2/6
f 454/1/6 447/1/6 455/1/6
f 448/2/6 449/2/6 455/2/6
f 449/1/6 450/1/6 456/1/6
f 455/2/6 449/2/6 456/2/6
f 450/2/6 451/2/6 457/2/6
f 456/1/6 450/1/6 457/1/6
f 451/2/6 452/2/6 457/2/6
f 457/2/6 452/2/6 458/2/6
f 458/2/6 452/2/6 459/2/6
f 453/1/6 454/1/6 460/1/6
f 454/2/6 455/2/6 461/2/6
f 460/1/6 454/1/6 461/1/6
f 456/2/6 457/2/6 462/2/6
f 457/2/6 458/2/6 462/2/6
f 458/1/6 459/1/6 463/1/6
f 462/2/6 458/2/6 463/2/6
f 463/1/6 459/1/6 464/1/6
f 453/1/6 460/1/6 465/1/6
f 460/2/6 461/2/6 466/2/6
f 465/1/6 460/1/6 466/1/6
f 461/2/6 455/2/6 467/2/6
f 466/2/6 461/2/6 467/2/6
f 467/2/6 455/2/6 468/2/6
f 456/2/6 462/2/6 469/2/6
f 462/1/6 463/1/6 470/1/6
f 469/2/6 462/2/6 470/2/6
f 463/2/6 464/2/6 471/2/6
f 470/1/6 463/1/6 471/1/6
f 464/1/6 459/1/6 472/1/6
f 471/2/6 464/2/6 472/2/6
f 472/1/6 459/1/6 473/1/6
f 465/2/6 466/2/6 474/2/6
f 466/2/6 467/2/6 474/2/6
f 474/2/6 467/2/6 475/2/6
f 467/1/6 468/1/6 476/1/6
f 475/2/6 467/2/6 476/2/6
f 468/2/6 469/2/6 477/2/6
f 476/1/6 468/1/6 477/1/6
f 477/2/6 469/2/6 478/2/6
f 469/1/6 470/1/6 479/1/6
f 478/2/6 469/2/6 479/2/6
f 470/2/6 471/2/6 480/2/6
f 479/1/6 470/1/6 480/1/6
f 472/2/6 473/2/6 480/2/6
f 471/2/6 472/2/6 480/2/6
f 480/2/6 473/2/6 481/2/6
f 481/2/6 473/2/6 482/2/6
f 474/1/6 475/1/6 483/1/6
f 475/2/6 476/2/6 484/2/6
f 483/1/6 475/1/6 484/1/6
f 477/2/6 478/2/6 484/2/6
f 476/2/6 477/2/6 484/2/6
f 484/2/6 478/2/6 485/2/6
f 485/2/6 478/2/6 486/2/6
f 478/1/6 479/1/6 487/1/6
f 486/2/6 478/2/6 487/2/6
f 480/2/6 481/2/6 488/2/6
f 487/1/6 479/1/6 488/1/6
f 479/2/6 480/2/6 488/2/6
f 488/2/6 481/2/6 489/2/6
f 481/1/6 482/1/6 490/1/6
f 489/2/6 481/2/6 490/2/6
f 490/1/6 482/1/6 491/1/6
f 474/1/6 483/1/6 492/1/6
f 483/2/6 484/2/6 493/2/6
f 492/1/6 483/1/6 493/1/6
f 484/1/6 485/1/6 494/1/6
f 493/2/6 484/2/6 494/2/6
f 488/2/6 489/2/6 495/2/6
f 486/1/6 487/1/6 495/1/6
f 487/2/6 488/2/6 495/2/6
f 495/2/6 489/2/6 496/2/6
f 490/2/6 491/2/6 497/2/6
f 489/1/6 490/1/6 497/1/6
f 491/1/6 482/1/6 498/1/6
f 497/2/6 491/2/6 498/2/6
f 498/1/6 482/1/6 499/1/6
f 492/2/6 493/2/6 500/2/6
f 493/1/6 494/1/6 501/1/6
f 500/2/6 493/2/6 501/2/6
f 485/2/6 486/2/6 502/2/6
f 501/1/6 494/1/6 502/1/6
f 494/1/6 485/1/6 502/1/6
f 495/1/6 496/1/6 503/1/6
f 502/2/6 486/2/6 503/2/6
f 486/1/6 495/1/6 503/1/6
f 496/2/6 489/2/6 504/2/6
f 503/1/6 496/1/6 504/1/6
f 489/1/6 497/1/6 505/1/6
f 504/2/6 489/2/6 505/2/6
f 497/1/6 498/1/6 505/1/6
f 498/2/6 499/2/6 506/2/6
f 505/1/6 498/1/6 506/1/6
f 506/2/6 499/2/6 507/2/6
f 508/4/6 509/4/6 511/4/6
f 511/4/6 509/4/6 512/4/6
f 510/4/6 511/4/6 513/4/6
f 513/4/6 511/4/6 514/4/6
f 515/4/6 516/4/6 517/4/6
f 517/4/6 516/4/6 518/4/6
f 518/4/6 519/4/6 520/4/6
f 520/4/6 519/4/6 521/4/6
