# MagicaVoxel @ Ephtracy

# group
o 

# material
mtllib Window_1.mtl
usemtl palette

# normals
vn -1 0 0
vn 1 0 0
vn 0 0 1
vn 0 0 -1
vn 0 -1 0
vn 0 1 0

# texcoords
vt 0.0527344 0.5
vt 0.689453 0.5
vt 0.919922 0.5
vt 0.935547 0.5
vt 0.962891 0.5
vt 0.966797 0.5

# verts
v -1.6 0 -0.1
v -1.6 0 -0.2
v -1.6 0 -0.3
v -1.6 2 -0.1
v -1.6 2 -0.2
v -1.6 2.4 0.1
v -1.6 2.4 -0.1
v -1.6 2.4 -0.2
v -1.6 2.5 0.2
v -1.6 2.5 0.1
v -1.6 2.6 0.2
v -1.6 2.6 -0.2
v -1.6 2.6 -0.3
v -1.5 0 0
v -1.5 0 -0.1
v -1.5 0.2 0
v -1.5 0.2 -0.1
v -0.1 0.2 -0.1
v -0.1 0.2 -0.2
v -0.1 0.9 0
v -0.1 0.9 -0.1
v -0.1 1.3 0
v -0.1 1.3 -0.1
v -0.1 2 -0.1
v -0.1 2 -0.2
v 1.6 0.2 -0.1
v 1.6 0.2 -0.2
v 1.6 2 -0.1
v 1.6 2 -0.2
v -1.5 0.2 -0.1
v -1.5 0.2 -0.2
v -1.5 2 -0.1
v -1.5 2 -0.2
v 0.1 0.2 -0.1
v 0.1 0.2 -0.2
v 0.1 0.9 0
v 0.1 0.9 -0.1
v 0.1 1.3 0
v 0.1 1.3 -0.1
v 0.1 2 -0.1
v 0.1 2 -0.2
v 1.6 0 0
v 1.6 0 -0.1
v 1.6 0.2 0
v 1.6 0.2 -0.1
v 1.7 0 -0.1
v 1.7 0 -0.2
v 1.7 0 -0.3
v 1.7 2 -0.1
v 1.7 2 -0.2
v 1.7 2.4 0.1
v 1.7 2.4 -0.1
v 1.7 2.4 -0.2
v 1.7 2.5 0.2
v 1.7 2.5 0.1
v 1.7 2.6 0.2
v 1.7 2.6 -0.2
v 1.7 2.6 -0.3
v -1.6 2.5 0.2
v -1.6 2.6 0.2
v 1.7 2.5 0.2
v 1.7 2.6 0.2
v -1.6 2.4 0.1
v -1.6 2.5 0.1
v 1.7 2.4 0.1
v 1.7 2.5 0.1
v -1.5 0 0
v -1.5 0.2 0
v -0.1 0.9 0
v -0.1 1.3 0
v 0.1 0.9 0
v 0.1 1.3 0
v 1.6 0 0
v 1.6 0.2 0
v -1.6 0 -0.1
v -1.6 2 -0.1
v -1.6 2.4 -0.1
v -1.5 0 -0.1
v -1.5 0.2 -0.1
v -1.5 2 -0.1
v -1.5 2.4 -0.1
v -0.1 0.2 -0.1
v -0.1 0.9 -0.1
v -0.1 1.3 -0.1
v -0.1 2 -0.1
v 0.1 0.2 -0.1
v 0.1 0.9 -0.1
v 0.1 1.3 -0.1
v 0.1 2 -0.1
v 1.6 0 -0.1
v 1.6 0.2 -0.1
v 1.6 2 -0.1
v 1.6 2.4 -0.1
v 1.7 0 -0.1
v 1.7 2 -0.1
v 1.7 2.4 -0.1
v -1.5 0.2 -0.2
v -1.5 2 -0.2
v -0.1 0.2 -0.2
v -0.1 2 -0.2
v 0.1 0.2 -0.2
v 0.1 2 -0.2
v 1.6 0.2 -0.2
v 1.6 2 -0.2
v -1.6 0 -0.3
v -1.6 2.6 -0.3
v -1.5 0.2 -0.3
v -1.5 2 -0.3
v 1.6 0.2 -0.3
v 1.6 2 -0.3
v 1.7 0 -0.3
v 1.7 2.6 -0.3
v -1.5 0 0
v 1.6 0 0
v -1.6 0 -0.1
v -1.5 0 -0.1
v 1.6 0 -0.1
v 1.7 0 -0.1
v -1.6 0 -0.2
v 1.7 0 -0.2
v -1.6 0 -0.3
v 1.7 0 -0.3
v -0.1 0.9 0
v 0.1 0.9 0
v -0.1 0.9 -0.1
v 0.1 0.9 -0.1
v -1.5 2 -0.1
v -0.1 2 -0.1
v 0.1 2 -0.1
v 1.6 2 -0.1
v -1.5 2 -0.2
v -0.1 2 -0.2
v 0.1 2 -0.2
v 1.6 2 -0.2
v -1.6 2.4 0.1
v 1.7 2.4 0.1
v -1.6 2.4 -0.1
v -1.5 2.4 -0.1
v 1.6 2.4 -0.1
v 1.7 2.4 -0.1
v -1.6 2.5 0.2
v 1.7 2.5 0.2
v -1.6 2.5 0.1
v 1.7 2.5 0.1
v -1.5 0.2 0
v 1.6 0.2 0
v -1.5 0.2 -0.1
v -0.1 0.2 -0.1
v 0.1 0.2 -0.1
v 1.6 0.2 -0.1
v -1.5 0.2 -0.2
v -0.1 0.2 -0.2
v 0.1 0.2 -0.2
v 1.6 0.2 -0.2
v -0.1 1.3 0
v 0.1 1.3 0
v -0.1 1.3 -0.1
v 0.1 1.3 -0.1
v -1.6 2.6 0.2
v 1.7 2.6 0.2
v -1.6 2.6 -0.2
v 1.7 2.6 -0.2
v -1.6 2.6 -0.3
v 1.7 2.6 -0.3

# faces
f 4/4/1 2/4/1 1/4/1
f 5/1/1 3/1/1 2/1/1
f 5/4/1 2/4/1 4/4/1
f 7/3/1 5/3/1 4/3/1
f 8/1/1 3/1/1 5/1/1
f 8/3/1 5/3/1 7/3/1
f 10/5/1 7/5/1 6/5/1
f 10/5/1 8/5/1 7/5/1
f 11/5/1 10/5/1 9/5/1
f 12/1/1 3/1/1 8/1/1
f 12/5/1 10/5/1 11/5/1
f 12/5/1 8/5/1 10/5/1
f 13/1/1 3/1/1 12/1/1
f 16/6/1 15/6/1 14/6/1
f 17/6/1 15/6/1 16/6/1
f 21/4/1 19/4/1 18/4/1
f 22/6/1 21/6/1 20/6/1
f 23/4/1 19/4/1 21/4/1
f 23/6/1 21/6/1 22/6/1
f 24/4/1 19/4/1 23/4/1
f 25/4/1 19/4/1 24/4/1
f 28/4/1 27/4/1 26/4/1
f 29/4/1 27/4/1 28/4/1
f 30/4/2 31/4/2 32/4/2
f 32/4/2 31/4/2 33/4/2
f 34/4/2 35/4/2 37/4/2
f 36/6/2 37/6/2 38/6/2
f 37/4/2 35/4/2 39/4/2
f 38/6/2 37/6/2 39/6/2
f 39/4/2 35/4/2 40/4/2
f 40/4/2 35/4/2 41/4/2
f 42/6/2 43/6/2 44/6/2
f 44/6/2 43/6/2 45/6/2
f 46/4/2 47/4/2 49/4/2
f 47/1/2 48/1/2 50/1/2
f 49/4/2 47/4/2 50/4/2
f 49/3/2 50/3/2 52/3/2
f 50/1/2 48/1/2 53/1/2
f 52/3/2 50/3/2 53/3/2
f 51/5/2 52/5/2 55/5/2
f 52/5/2 53/5/2 55/5/2
f 54/5/2 55/5/2 56/5/2
f 53/1/2 48/1/2 57/1/2
f 56/5/2 55/5/2 57/5/2
f 55/5/2 53/5/2 57/5/2
f 57/1/2 48/1/2 58/1/2
f 61/5/3 60/5/3 59/5/3
f 62/5/3 60/5/3 61/5/3
f 65/5/3 64/5/3 63/5/3
f 66/5/3 64/5/3 65/5/3
f 71/6/3 70/6/3 69/6/3
f 72/6/3 70/6/3 71/6/3
f 73/6/3 68/6/3 67/6/3
f 74/6/3 68/6/3 73/6/3
f 78/4/3 76/4/3 75/4/3
f 79/4/3 76/4/3 78/4/3
f 80/3/3 77/3/3 76/3/3
f 80/4/3 76/4/3 79/4/3
f 81/3/3 77/3/3 80/3/3
f 85/1/3 81/1/3 80/1/3
f 86/4/3 83/4/3 82/4/3
f 87/4/3 83/4/3 86/4/3
f 88/4/3 85/4/3 84/4/3
f 89/1/3 81/1/3 85/1/3
f 89/4/3 85/4/3 88/4/3
f 92/1/3 81/1/3 89/1/3
f 93/1/3 81/1/3 92/1/3
f 94/4/3 91/4/3 90/4/3
f 94/4/3 92/4/3 91/4/3
f 95/3/3 93/3/3 92/3/3
f 95/4/3 92/4/3 94/4/3
f 96/3/3 93/3/3 95/3/3
f 99/2/3 98/2/3 97/2/3
f 100/2/3 98/2/3 99/2/3
f 103/2/3 102/2/3 101/2/3
f 104/2/3 102/2/3 103/2/3
f 105/1/4 106/1/4 107/1/4
f 107/1/4 106/1/4 108/1/4
f 105/1/4 107/1/4 109/1/4
f 107/2/4 108/2/4 109/2/4
f 108/1/4 106/1/4 110/1/4
f 109/2/4 108/2/4 110/2/4
f 105/1/4 109/1/4 111/1/4
f 109/1/4 110/1/4 111/1/4
f 110/1/4 106/1/4 112/1/4
f 111/1/4 110/1/4 112/1/4
f 116/6/5 114/6/5 113/6/5
f 117/6/5 114/6/5 116/6/5
f 119/4/5 116/4/5 115/4/5
f 119/4/5 118/4/5 117/4/5
f 119/4/5 117/4/5 116/4/5
f 120/4/5 118/4/5 119/4/5
f 121/1/5 120/1/5 119/1/5
f 122/1/5 120/1/5 121/1/5
f 125/6/5 124/6/5 123/6/5
f 126/6/5 124/6/5 125/6/5
f 131/1/5 128/1/5 127/1/5
f 132/1/5 128/1/5 131/1/5
f 133/1/5 130/1/5 129/1/5
f 134/1/5 130/1/5 133/1/5
f 137/5/5 136/5/5 135/5/5
f 138/5/5 136/5/5 137/5/5
f 139/5/5 136/5/5 138/5/5
f 140/5/5 136/5/5 139/5/5
f 143/5/5 142/5/5 141/5/5
f 144/5/5 142/5/5 143/5/5
f 145/6/6 146/6/6 147/6/6
f 147/6/6 146/6/6 148/6/6
f 148/6/6 146/6/6 149/6/6
f 149/6/6 146/6/6 150/6/6
f 147/4/6 148/4/6 151/4/6
f 151/4/6 148/4/6 152/4/6
f 149/4/6 150/4/6 153/4/6
f 153/4/6 150/4/6 154/4/6
f 155/6/6 156/6/6 157/6/6
f 157/6/6 156/6/6 158/6/6
f 159/5/6 160/5/6 161/5/6
f 161/5/6 160/5/6 162/5/6
f 161/1/6 162/1/6 163/1/6
f 163/1/6 162/1/6 164/1/6
