# MagicaVoxel @ Ephtracy

# group
o 

# material
mtllib Window_2.mtl
usemtl palette

# normals
vn -1 0 0
vn 1 0 0
vn 0 0 1
vn 0 0 -1
vn 0 -1 0
vn 0 1 0

# texcoords
vt 0.0527344 0.5
vt 0.689453 0.5
vt 0.919922 0.5
vt 0.935547 0.5
vt 0.958984 0.5
vt 0.962891 0.5
vt 0.966797 0.5

# verts
v -1.6 0 -0.1
v -1.6 0 -0.2
v -1.6 0 -0.3
v -1.6 0.7 0.2
v -1.6 0.7 0.1
v -1.6 2 -0.1
v -1.6 2 -0.2
v -1.6 2.4 0.1
v -1.6 2.4 -0.1
v -1.6 2.4 -0.2
v -1.6 2.5 0.2
v -1.6 2.5 0.1
v -1.6 2.6 0.2
v -1.6 2.6 -0.2
v -1.6 2.6 -0.3
v -1.5 0 0
v -1.5 0 -0.1
v -1.5 0.2 0
v -1.5 0.2 -0.1
v -1.4 0.3 0.2
v -1.4 0.3 0.1
v -1.4 2.4 0.1
v -1.4 2.5 0.2
v -1.4 2.5 0.1
v -1.3 0.3 0.1
v -1.3 0.3 0
v -1.3 2.4 0.1
v -1.3 2.4 0
v -1.2 0.3 0.2
v -1.2 0.3 0.1
v -1.2 2.4 0.1
v -1.2 2.5 0.2
v -1.2 2.5 0.1
v -1.1 0.3 0.1
v -1.1 0.3 0
v -1.1 2.4 0.1
v -1.1 2.4 0
v -0.1 0.2 -0.1
v -0.1 0.2 -0.2
v -0.1 0.9 0
v -0.1 0.9 -0.1
v -0.1 1.3 0
v -0.1 1.3 -0.1
v -0.1 2 -0.1
v -0.1 2 -0.2
v 1.1 0.3 0.1
v 1.1 0.3 0
v 1.1 2.4 0.1
v 1.1 2.4 0
v 1.2 0.3 0.2
v 1.2 0.3 0.1
v 1.2 2.4 0.1
v 1.2 2.5 0.2
v 1.2 2.5 0.1
v 1.3 0.3 0.1
v 1.3 0.3 0
v 1.3 2.4 0.1
v 1.3 2.4 0
v 1.4 0.3 0.2
v 1.4 0.3 0.1
v 1.4 2.4 0.1
v 1.4 2.5 0.2
v 1.4 2.5 0.1
v 1.6 0.2 0.2
v 1.6 0.2 0.1
v 1.6 0.2 -0.1
v 1.6 0.2 -0.2
v 1.6 2 -0.1
v 1.6 2 -0.2
v 1.6 2.4 0.1
v 1.6 2.5 0.2
v 1.6 2.5 0.1
v -1.5 0.2 -0.1
v -1.5 0.2 -0.2
v -1.5 0.7 0.2
v -1.5 0.7 0.1
v -1.5 2 -0.1
v -1.5 2 -0.2
v -1.5 2.4 0.1
v -1.5 2.5 0.2
v -1.5 2.5 0.1
v -1.3 0.3 0.2
v -1.3 0.3 0.1
v -1.3 2.4 0.1
v -1.3 2.5 0.2
v -1.3 2.5 0.1
v -1.2 0.3 0.1
v -1.2 0.3 0
v -1.2 2.4 0.1
v -1.2 2.4 0
v -1.1 0.3 0.2
v -1.1 0.3 0.1
v -1.1 2.4 0.1
v -1.1 2.5 0.2
v -1.1 2.5 0.1
v -1 0.3 0.1
v -1 0.3 0
v -1 2.4 0.1
v -1 2.4 0
v 0.1 0.2 -0.1
v 0.1 0.2 -0.2
v 0.1 0.9 0
v 0.1 0.9 -0.1
v 0.1 1.3 0
v 0.1 1.3 -0.1
v 0.1 2 -0.1
v 0.1 2 -0.2
v 1.2 0.3 0.1
v 1.2 0.3 0
v 1.2 2.4 0.1
v 1.2 2.4 0
v 1.3 0.3 0.2
v 1.3 0.3 0.1
v 1.3 2.4 0.1
v 1.3 2.5 0.2
v 1.3 2.5 0.1
v 1.4 0.3 0.1
v 1.4 0.3 0
v 1.4 2.4 0.1
v 1.4 2.4 0
v 1.5 0.3 0.2
v 1.5 0.3 0.1
v 1.5 2.4 0.1
v 1.5 2.5 0.2
v 1.5 2.5 0.1
v 1.6 0 0
v 1.6 0 -0.1
v 1.6 0.2 0
v 1.6 0.2 -0.1
v 1.7 0 -0.1
v 1.7 0 -0.2
v 1.7 0 -0.3
v 1.7 0.2 0.2
v 1.7 0.2 0.1
v 1.7 2 -0.1
v 1.7 2 -0.2
v 1.7 2.4 0.1
v 1.7 2.4 -0.1
v 1.7 2.4 -0.2
v 1.7 2.5 0.2
v 1.7 2.5 0.1
v 1.7 2.6 0.2
v 1.7 2.6 -0.2
v 1.7 2.6 -0.3
v -1.6 0.7 0.2
v -1.6 2.5 0.2
v -1.6 2.6 0.2
v -1.5 0.7 0.2
v -1.5 2.5 0.2
v -1.4 0.3 0.2
v -1.4 2.5 0.2
v -1.3 0.3 0.2
v -1.3 2.5 0.2
v -1.2 0.3 0.2
v -1.2 2.5 0.2
v -1.1 0.3 0.2
v -1.1 2.5 0.2
v 1.2 0.3 0.2
v 1.2 2.5 0.2
v 1.3 0.3 0.2
v 1.3 2.5 0.2
v 1.4 0.3 0.2
v 1.4 2.5 0.2
v 1.5 0.3 0.2
v 1.5 2.5 0.2
v 1.6 0.2 0.2
v 1.6 2.5 0.2
v 1.7 0.2 0.2
v 1.7 2.5 0.2
v 1.7 2.6 0.2
v -1.5 2.4 0.1
v -1.5 2.5 0.1
v -1.4 2.4 0.1
v -1.4 2.5 0.1
v -1.3 0.3 0.1
v -1.3 2.4 0.1
v -1.3 2.5 0.1
v -1.2 0.3 0.1
v -1.2 2.4 0.1
v -1.2 2.5 0.1
v -1.1 0.3 0.1
v -1.1 2.4 0.1
v -1.1 2.5 0.1
v -1 0.3 0.1
v -1 2.4 0.1
v 1.1 0.3 0.1
v 1.1 2.4 0.1
v 1.2 0.3 0.1
v 1.2 2.4 0.1
v 1.2 2.5 0.1
v 1.3 0.3 0.1
v 1.3 2.4 0.1
v 1.3 2.5 0.1
v 1.4 0.3 0.1
v 1.4 2.4 0.1
v 1.4 2.5 0.1
v 1.5 2.4 0.1
v 1.5 2.5 0.1
v 1.6 2.4 0.1
v 1.6 2.5 0.1
v -1.5 0 0
v -1.5 0.2 0
v -0.1 0.9 0
v -0.1 1.3 0
v 0.1 0.9 0
v 0.1 1.3 0
v 1.6 0 0
v 1.6 0.2 0
v -1.6 0 -0.1
v -1.6 2 -0.1
v -1.6 2.4 -0.1
v -1.5 0 -0.1
v -1.5 0.2 -0.1
v -1.5 2 -0.1
v -1.5 2.4 -0.1
v -0.1 0.2 -0.1
v -0.1 0.9 -0.1
v -0.1 1.3 -0.1
v -0.1 2 -0.1
v 0.1 0.2 -0.1
v 0.1 0.9 -0.1
v 0.1 1.3 -0.1
v 0.1 2 -0.1
v 1.6 0 -0.1
v 1.6 0.2 -0.1
v 1.6 2 -0.1
v 1.6 2.4 -0.1
v 1.7 0 -0.1
v 1.7 2 -0.1
v 1.7 2.4 -0.1
v -1.5 0.2 -0.2
v -1.5 2 -0.2
v -0.1 0.2 -0.2
v -0.1 2 -0.2
v 0.1 0.2 -0.2
v 0.1 2 -0.2
v 1.6 0.2 -0.2
v 1.6 2 -0.2
v -1.6 0.7 0.1
v -1.6 2.4 0.1
v -1.5 0.7 0.1
v -1.5 2.4 0.1
v -1.4 0.3 0.1
v -1.4 2.4 0.1
v -1.3 0.3 0.1
v -1.3 2.4 0.1
v -1.2 0.3 0.1
v -1.2 2.4 0.1
v -1.1 0.3 0.1
v -1.1 2.4 0.1
v 1.2 0.3 0.1
v 1.2 2.4 0.1
v 1.3 0.3 0.1
v 1.3 2.4 0.1
v 1.4 0.3 0.1
v 1.4 2.4 0.1
v 1.5 0.3 0.1
v 1.5 2.4 0.1
v 1.6 0.2 0.1
v 1.6 2.4 0.1
v 1.7 0.2 0.1
v 1.7 2.4 0.1
v -1.3 0.3 0
v -1.3 2.4 0
v -1.2 0.3 0
v -1.2 2.4 0
v -1.1 0.3 0
v -1.1 2.4 0
v -1 0.3 0
v -1 2.4 0
v 1.1 0.3 0
v 1.1 2.4 0
v 1.2 0.3 0
v 1.2 2.4 0
v 1.3 0.3 0
v 1.3 2.4 0
v 1.4 0.3 0
v 1.4 2.4 0
v -1.6 0 -0.3
v -1.6 2.6 -0.3
v -1.5 0.2 -0.3
v -1.5 2 -0.3
v 1.6 0.2 -0.3
v 1.6 2 -0.3
v 1.7 0 -0.3
v 1.7 2.6 -0.3
v -1.5 0 0
v 1.6 0 0
v -1.6 0 -0.1
v -1.5 0 -0.1
v 1.6 0 -0.1
v 1.7 0 -0.1
v -1.6 0 -0.2
v 1.7 0 -0.2
v -1.6 0 -0.3
v 1.7 0 -0.3
v 1.6 0.2 0.2
v 1.7 0.2 0.2
v 1.6 0.2 0.1
v 1.7 0.2 0.1
v -1.4 0.3 0.2
v -1.3 0.3 0.2
v -1.2 0.3 0.2
v -1.1 0.3 0.2
v 1.2 0.3 0.2
v 1.3 0.3 0.2
v 1.4 0.3 0.2
v 1.5 0.3 0.2
v -1.4 0.3 0.1
v -1.3 0.3 0.1
v -1.2 0.3 0.1
v -1.1 0.3 0.1
v -1 0.3 0.1
v 1.1 0.3 0.1
v 1.2 0.3 0.1
v 1.3 0.3 0.1
v 1.4 0.3 0.1
v 1.5 0.3 0.1
v -1.3 0.3 0
v -1.2 0.3 0
v -1.1 0.3 0
v -1 0.3 0
v 1.1 0.3 0
v 1.2 0.3 0
v 1.3 0.3 0
v 1.4 0.3 0
v -1.6 0.7 0.2
v -1.5 0.7 0.2
v -1.6 0.7 0.1
v -1.5 0.7 0.1
v -0.1 0.9 0
v 0.1 0.9 0
v -0.1 0.9 -0.1
v 0.1 0.9 -0.1
v -1.5 2 -0.1
v -0.1 2 -0.1
v 0.1 2 -0.1
v 1.6 2 -0.1
v -1.5 2 -0.2
v -0.1 2 -0.2
v 0.1 2 -0.2
v 1.6 2 -0.2
v -1.6 2.4 0.1
v -1.5 2.4 0.1
v -1.4 2.4 0.1
v -1.3 2.4 0.1
v -1.2 2.4 0.1
v -1.1 2.4 0.1
v -1 2.4 0.1
v 1.1 2.4 0.1
v 1.2 2.4 0.1
v 1.3 2.4 0.1
v 1.4 2.4 0.1
v 1.5 2.4 0.1
v 1.6 2.4 0.1
v 1.7 2.4 0.1
v -1.3 2.4 0
v -1.2 2.4 0
v -1.1 2.4 0
v -1 2.4 0
v 1.1 2.4 0
v 1.2 2.4 0
v 1.3 2.4 0
v 1.4 2.4 0
v -1.6 2.4 -0.1
v -1.5 2.4 -0.1
v 1.6 2.4 -0.1
v 1.7 2.4 -0.1
v -1.5 2.5 0.2
v -1.4 2.5 0.2
v -1.3 2.5 0.2
v -1.2 2.5 0.2
v -1.1 2.5 0.2
v 1.2 2.5 0.2
v 1.3 2.5 0.2
v 1.4 2.5 0.2
v 1.5 2.5 0.2
v 1.6 2.5 0.2
v -1.5 2.5 0.1
v -1.4 2.5 0.1
v -1.3 2.5 0.1
v -1.2 2.5 0.1
v -1.1 2.5 0.1
v 1.2 2.5 0.1
v 1.3 2.5 0.1
v 1.4 2.5 0.1
v 1.5 2.5 0.1
v 1.6 2.5 0.1
v -1.5 0.2 0
v 1.6 0.2 0
v -1.5 0.2 -0.1
v -0.1 0.2 -0.1
v 0.1 0.2 -0.1
v 1.6 0.2 -0.1
v -1.5 0.2 -0.2
v -0.1 0.2 -0.2
v 0.1 0.2 -0.2
v 1.6 0.2 -0.2
v -0.1 1.3 0
v 0.1 1.3 0
v -0.1 1.3 -0.1
v 0.1 1.3 -0.1
v -1.6 2.6 0.2
v 1.7 2.6 0.2
v -1.6 2.6 -0.2
v 1.7 2.6 -0.2
v -1.6 2.6 -0.3
v 1.7 2.6 -0.3

# faces
f 6/4/1 2/4/1 1/4/1
f 7/1/1 3/1/1 2/1/1
f 7/4/1 2/4/1 6/4/1
f 8/5/1 5/5/1 4/5/1
f 9/3/1 7/3/1 6/3/1
f 10/1/1 3/1/1 7/1/1
f 10/3/1 7/3/1 9/3/1
f 11/5/1 8/5/1 4/5/1
f 12/6/1 9/6/1 8/6/1
f 12/5/1 8/5/1 11/5/1
f 12/6/1 10/6/1 9/6/1
f 13/6/1 12/6/1 11/6/1
f 14/1/1 3/1/1 10/1/1
f 14/6/1 12/6/1 13/6/1
f 14/6/1 10/6/1 12/6/1
f 15/1/1 3/1/1 14/1/1
f 18/7/1 17/7/1 16/7/1
f 19/7/1 17/7/1 18/7/1
f 22/5/1 21/5/1 20/5/1
f 23/5/1 22/5/1 20/5/1
f 24/5/1 22/5/1 23/5/1
f 27/5/1 26/5/1 25/5/1
f 28/5/1 26/5/1 27/5/1
f 31/5/1 30/5/1 29/5/1
f 32/5/1 31/5/1 29/5/1
f 33/5/1 31/5/1 32/5/1
f 36/5/1 35/5/1 34/5/1
f 37/5/1 35/5/1 36/5/1
f 41/4/1 39/4/1 38/4/1
f 42/7/1 41/7/1 40/7/1
f 43/4/1 39/4/1 41/4/1
f 43/7/1 41/7/1 42/7/1
f 44/4/1 39/4/1 43/4/1
f 45/4/1 39/4/1 44/4/1
f 48/5/1 47/5/1 46/5/1
f 49/5/1 47/5/1 48/5/1
f 52/5/1 51/5/1 50/5/1
f 53/5/1 52/5/1 50/5/1
f 54/5/1 52/5/1 53/5/1
f 57/5/1 56/5/1 55/5/1
f 58/5/1 56/5/1 57/5/1
f 61/5/1 60/5/1 59/5/1
f 62/5/1 61/5/1 59/5/1
f 63/5/1 61/5/1 62/5/1
f 68/4/1 67/4/1 66/4/1
f 69/4/1 67/4/1 68/4/1
f 70/5/1 65/5/1 64/5/1
f 71/5/1 70/5/1 64/5/1
f 72/5/1 70/5/1 71/5/1
f 73/4/2 74/4/2 77/4/2
f 77/4/2 74/4/2 78/4/2
f 75/5/2 76/5/2 79/5/2
f 75/5/2 79/5/2 80/5/2
f 80/5/2 79/5/2 81/5/2
f 82/5/2 83/5/2 84/5/2
f 82/5/2 84/5/2 85/5/2
f 85/5/2 84/5/2 86/5/2
f 87/5/2 88/5/2 89/5/2
f 89/5/2 88/5/2 90/5/2
f 91/5/2 92/5/2 93/5/2
f 91/5/2 93/5/2 94/5/2
f 94/5/2 93/5/2 95/5/2
f 96/5/2 97/5/2 98/5/2
f 98/5/2 97/5/2 99/5/2
f 100/4/2 101/4/2 103/4/2
f 102/7/2 103/7/2 104/7/2
f 103/4/2 101/4/2 105/4/2
f 104/7/2 103/7/2 105/7/2
f 105/4/2 101/4/2 106/4/2
f 106/4/2 101/4/2 107/4/2
f 108/5/2 109/5/2 110/5/2
f 110/5/2 109/5/2 111/5/2
f 112/5/2 113/5/2 114/5/2
f 112/5/2 114/5/2 115/5/2
f 115/5/2 114/5/2 116/5/2
f 117/5/2 118/5/2 119/5/2
f 119/5/2 118/5/2 120/5/2
f 121/5/2 122/5/2 123/5/2
f 121/5/2 123/5/2 124/5/2
f 124/5/2 123/5/2 125/5/2
f 126/7/2 127/7/2 128/7/2
f 128/7/2 127/7/2 129/7/2
f 130/4/2 131/4/2 135/4/2
f 131/1/2 132/1/2 136/1/2
f 135/4/2 131/4/2 136/4/2
f 133/5/2 134/5/2 137/5/2
f 135/3/2 136/3/2 138/3/2
f 136/1/2 132/1/2 139/1/2
f 138/3/2 136/3/2 139/3/2
f 133/5/2 137/5/2 140/5/2
f 137/6/2 138/6/2 141/6/2
f 140/5/2 137/5/2 141/5/2
f 138/6/2 139/6/2 141/6/2
f 140/6/2 141/6/2 142/6/2
f 139/1/2 132/1/2 143/1/2
f 142/6/2 141/6/2 143/6/2
f 141/6/2 139/6/2 143/6/2
f 143/1/2 132/1/2 144/1/2
f 148/5/3 146/5/3 145/5/3
f 149/6/3 147/6/3 146/6/3
f 149/5/3 146/5/3 148/5/3
f 151/6/3 147/6/3 149/6/3
f 152/5/3 151/5/3 150/5/3
f 153/6/3 147/6/3 151/6/3
f 153/5/3 151/5/3 152/5/3
f 155/6/3 147/6/3 153/6/3
f 156/5/3 155/5/3 154/5/3
f 157/6/3 147/6/3 155/6/3
f 157/5/3 155/5/3 156/5/3
f 159/6/3 147/6/3 157/6/3
f 160/5/3 159/5/3 158/5/3
f 161/6/3 147/6/3 159/6/3
f 161/5/3 159/5/3 160/5/3
f 163/6/3 147/6/3 161/6/3
f 164/5/3 163/5/3 162/5/3
f 165/6/3 147/6/3 163/6/3
f 165/5/3 163/5/3 164/5/3
f 167/6/3 147/6/3 165/6/3
f 168/5/3 167/5/3 166/5/3
f 169/6/3 147/6/3 167/6/3
f 169/5/3 167/5/3 168/5/3
f 170/6/3 147/6/3 169/6/3
f 173/6/3 172/6/3 171/6/3
f 174/6/3 172/6/3 173/6/3
f 178/5/3 176/5/3 175/5/3
f 179/6/3 177/6/3 176/6/3
f 179/5/3 176/5/3 178/5/3
f 180/6/3 177/6/3 179/6/3
f 184/5/3 182/5/3 181/5/3
f 185/6/3 183/6/3 182/6/3
f 185/5/3 182/5/3 184/5/3
f 187/6/3 183/6/3 185/6/3
f 188/5/3 187/5/3 186/5/3
f 189/6/3 183/6/3 187/6/3
f 189/5/3 187/5/3 188/5/3
f 190/6/3 183/6/3 189/6/3
f 194/5/3 192/5/3 191/5/3
f 195/6/3 193/6/3 192/6/3
f 195/5/3 192/5/3 194/5/3
f 196/6/3 193/6/3 195/6/3
f 199/6/3 198/6/3 197/6/3
f 200/6/3 198/6/3 199/6/3
f 205/7/3 204/7/3 203/7/3
f 206/7/3 204/7/3 205/7/3
f 207/7/3 202/7/3 201/7/3
f 208/7/3 202/7/3 207/7/3
f 212/4/3 210/4/3 209/4/3
f 213/4/3 210/4/3 212/4/3
f 214/3/3 211/3/3 210/3/3
f 214/4/3 210/4/3 213/4/3
f 215/3/3 211/3/3 214/3/3
f 219/1/3 215/1/3 214/1/3
f 220/4/3 217/4/3 216/4/3
f 221/4/3 217/4/3 220/4/3
f 222/4/3 219/4/3 218/4/3
f 223/1/3 215/1/3 219/1/3
f 223/4/3 219/4/3 222/4/3
f 226/1/3 215/1/3 223/1/3
f 227/1/3 215/1/3 226/1/3
f 228/4/3 225/4/3 224/4/3
f 228/4/3 226/4/3 225/4/3
f 229/3/3 227/3/3 226/3/3
f 229/4/3 226/4/3 228/4/3
f 230/3/3 227/3/3 229/3/3
f 233/2/3 232/2/3 231/2/3
f 234/2/3 232/2/3 233/2/3
f 237/2/3 236/2/3 235/2/3
f 238/2/3 236/2/3 237/2/3
f 239/5/4 240/5/4 241/5/4
f 241/5/4 240/5/4 242/5/4
f 243/5/4 244/5/4 245/5/4
f 245/5/4 244/5/4 246/5/4
f 247/5/4 248/5/4 249/5/4
f 249/5/4 248/5/4 250/5/4
f 251/5/4 252/5/4 253/5/4
f 253/5/4 252/5/4 254/5/4
f 255/5/4 256/5/4 257/5/4
f 257/5/4 256/5/4 258/5/4
f 259/5/4 260/5/4 261/5/4
f 261/5/4 260/5/4 262/5/4
f 263/5/4 264/5/4 265/5/4
f 265/5/4 264/5/4 266/5/4
f 267/5/4 268/5/4 269/5/4
f 269/5/4 268/5/4 270/5/4
f 271/5/4 272/5/4 273/5/4
f 273/5/4 272/5/4 274/5/4
f 275/5/4 276/5/4 277/5/4
f 277/5/4 276/5/4 278/5/4
f 279/1/4 280/1/4 281/1/4
f 281/1/4 280/1/4 282/1/4
f 279/1/4 281/1/4 283/1/4
f 281/2/4 282/2/4 283/2/4
f 282/1/4 280/1/4 284/1/4
f 283/2/4 282/2/4 284/2/4
f 279/1/4 283/1/4 285/1/4
f 283/1/4 284/1/4 285/1/4
f 284/1/4 280/1/4 286/1/4
f 285/1/4 284/1/4 286/1/4
f 290/7/5 288/7/5 287/7/5
f 291/7/5 288/7/5 290/7/5
f 293/4/5 290/4/5 289/4/5
f 293/4/5 292/4/5 291/4/5
f 293/4/5 291/4/5 290/4/5
f 294/4/5 292/4/5 293/4/5
f 295/1/5 294/1/5 293/1/5
f 296/1/5 294/1/5 295/1/5
f 299/5/5 298/5/5 297/5/5
f 300/5/5 298/5/5 299/5/5
f 309/5/5 302/5/5 301/5/5
f 310/5/5 302/5/5 309/5/5
f 311/5/5 304/5/5 303/5/5
f 312/5/5 304/5/5 311/5/5
f 315/5/5 306/5/5 305/5/5
f 316/5/5 306/5/5 315/5/5
f 317/5/5 308/5/5 307/5/5
f 318/5/5 308/5/5 317/5/5
f 319/5/5 311/5/5 310/5/5
f 320/5/5 311/5/5 319/5/5
f 321/5/5 313/5/5 312/5/5
f 322/5/5 313/5/5 321/5/5
f 323/5/5 315/5/5 314/5/5
f 324/5/5 315/5/5 323/5/5
f 325/5/5 317/5/5 316/5/5
f 326/5/5 317/5/5 325/5/5
f 329/5/5 328/5/5 327/5/5
f 330/5/5 328/5/5 329/5/5
f 333/7/5 332/7/5 331/7/5
f 334/7/5 332/7/5 333/7/5
f 339/1/5 336/1/5 335/1/5
f 340/1/5 336/1/5 339/1/5
f 341/1/5 338/1/5 337/1/5
f 342/1/5 338/1/5 341/1/5
f 357/6/5 344/6/5 343/6/5
f 357/6/5 345/6/5 344/6/5
f 357/6/5 346/6/5 345/6/5
f 358/6/5 348/6/5 347/6/5
f 359/6/5 348/6/5 358/6/5
f 360/6/5 350/6/5 349/6/5
f 361/6/5 350/6/5 360/6/5
f 362/6/5 352/6/5 351/6/5
f 363/6/5 352/6/5 362/6/5
f 364/6/5 356/6/5 355/6/5
f 364/6/5 355/6/5 354/6/5
f 364/6/5 354/6/5 353/6/5
f 365/6/5 363/6/5 362/6/5
f 365/6/5 364/6/5 363/6/5
f 365/6/5 362/6/5 361/6/5
f 365/6/5 357/6/5 343/6/5
f 365/6/5 360/6/5 359/6/5
f 365/6/5 359/6/5 358/6/5
f 365/6/5 358/6/5 357/6/5
f 365/6/5 361/6/5 360/6/5
f 366/6/5 364/6/5 365/6/5
f 367/6/5 356/6/5 364/6/5
f 367/6/5 364/6/5 366/6/5
f 368/6/5 356/6/5 367/6/5
f 379/6/5 370/6/5 369/6/5
f 380/6/5 370/6/5 379/6/5
f 381/6/5 372/6/5 371/6/5
f 382/6/5 372/6/5 381/6/5
f 383/6/5 374/6/5 373/6/5
f 384/6/5 374/6/5 383/6/5
f 385/6/5 376/6/5 375/6/5
f 386/6/5 376/6/5 385/6/5
f 387/6/5 378/6/5 377/6/5
f 388/6/5 378/6/5 387/6/5
f 389/7/6 390/7/6 391/7/6
f 391/7/6 390/7/6 392/7/6
f 392/7/6 390/7/6 393/7/6
f 393/7/6 390/7/6 394/7/6
f 391/4/6 392/4/6 395/4/6
f 395/4/6 392/4/6 396/4/6
f 393/4/6 394/4/6 397/4/6
f 397/4/6 394/4/6 398/4/6
f 399/7/6 400/7/6 401/7/6
f 401/7/6 400/7/6 402/7/6
f 403/6/6 404/6/6 405/6/6
f 405/6/6 404/6/6 406/6/6
f 405/1/6 406/1/6 407/1/6
f 407/1/6 406/1/6 408/1/6
