# MagicaVoxel @ Ephtracy

# group
o 

# material
mtllib worker_12.mtl
usemtl palette

# normals
vn -1 0 0
vn 1 0 0
vn 0 0 1
vn 0 0 -1
vn 0 -1 0
vn 0 1 0

# texcoords
vt 0.150391 0.5
vt 0.287109 0.5
vt 0.357422 0.5
vt 0.712891 0.5
vt 0.927734 0.5
vt 0.958984 0.5
vt 0.990234 0.5
vt 0.994141 0.5

# verts
v -0.7 1.5 0.3
v -0.7 1.5 0.2
v -0.7 1.6 0.3
v -0.7 1.6 0.2
v -0.6 1 -0.3
v -0.6 1 -0.4
v -0.6 1.1 -0.2
v -0.6 1.1 -0.3
v -0.6 1.2 0.1
v -0.6 1.2 0
v -0.6 1.2 -0.1
v -0.6 1.2 -0.2
v -0.6 1.4 0.4
v -0.6 1.4 0.1
v -0.6 1.4 0
v -0.6 1.4 -0.1
v -0.6 1.5 0.3
v -0.6 1.5 0.2
v -0.6 1.6 0.3
v -0.6 1.6 0.2
v -0.6 1.8 0.4
v -0.6 1.8 -0.4
v -0.5 0.4 0.1
v -0.5 0.4 -0.1
v -0.5 0.5 0.1
v -0.5 0.5 -0.1
v -0.5 0.6 0.1
v -0.5 0.6 -0.1
v -0.5 0.9 0.4
v -0.5 0.9 0.1
v -0.5 0.9 -0.1
v -0.5 0.9 -0.4
v -0.5 0.9 -0.5
v -0.5 1 -0.3
v -0.5 1 -0.4
v -0.5 1.1 -0.2
v -0.5 1.1 -0.3
v -0.5 1.2 0.1
v -0.5 1.2 0
v -0.5 1.2 -0.1
v -0.5 1.2 -0.2
v -0.5 1.4 0.5
v -0.5 1.4 0.4
v -0.5 1.4 0.1
v -0.5 1.8 0.5
v -0.5 1.8 0.4
v -0.5 1.8 -0.4
v -0.5 1.8 -0.5
v -0.5 1.9 0.4
v -0.5 1.9 -0.4
v -0.3 0 0.1
v -0.3 0 -0.1
v -0.3 0.1 0.1
v -0.3 0.1 -0.1
v -0.3 0.4 0.2
v -0.3 0.4 0.1
v -0.3 0.4 -0.1
v -0.3 0.4 -0.2
v -0.3 0.5 0.2
v -0.3 0.5 0.1
v -0.3 0.5 -0.1
v -0.3 0.5 -0.2
v -0.3 0.6 0.1
v -0.3 0.6 -0.1
v -0.3 0.6 -0.2
v -0.3 0.9 0.2
v -0.3 0.9 0.1
v -0.3 0.9 -0.1
v -0.3 0.9 -0.2
v -0.1 1.5 0.5
v -0.1 1.5 0.4
v -0.1 1.6 0.5
v -0.1 1.6 0.4
v 0.1 0 0.1
v 0.1 0 -0.1
v 0.1 0.1 0.1
v 0.1 0.1 -0.1
v 0.1 0.4 0.1
v 0.1 0.4 -0.1
v 0.3 0.4 0.1
v 0.3 0.4 -0.1
v 0.3 0.5 0.1
v 0.3 0.5 -0.1
v -0.3 1.4 0.5
v -0.3 1.4 0.4
v -0.3 1.5 0.5
v -0.3 1.5 0.4
v -0.2 1.5 0.5
v -0.2 1.5 0.4
v -0.2 1.6 0.5
v -0.2 1.6 0.4
v -0.1 0 0.1
v -0.1 0 -0.1
v -0.1 0.1 0.1
v -0.1 0.1 -0.1
v -0.1 0.4 0.1
v -0.1 0.4 -0.1
v 0.1 0.4 0.1
v 0.1 0.4 -0.1
v 0.1 0.5 0.1
v 0.1 0.5 -0.1
v 0.3 0 0.1
v 0.3 0 -0.1
v 0.3 0.1 0.1
v 0.3 0.1 -0.1
v 0.3 0.4 0.2
v 0.3 0.4 0.1
v 0.3 0.4 -0.1
v 0.3 0.4 -0.2
v 0.3 0.5 0.2
v 0.3 0.5 0.1
v 0.3 0.5 -0.1
v 0.3 0.5 -0.2
v 0.3 0.6 0.1
v 0.3 0.6 -0.1
v 0.3 0.6 -0.2
v 0.3 0.9 0.2
v 0.3 0.9 0.1
v 0.3 0.9 -0.1
v 0.3 0.9 -0.2
v 0.4 1.5 0.5
v 0.4 1.5 0.4
v 0.4 1.7 0.5
v 0.4 1.7 0.4
v 0.5 0.4 0.1
v 0.5 0.4 -0.1
v 0.5 0.5 0.1
v 0.5 0.5 -0.1
v 0.5 0.6 0.1
v 0.5 0.6 -0.1
v 0.5 0.9 0.4
v 0.5 0.9 0.1
v 0.5 0.9 -0.1
v 0.5 0.9 -0.4
v 0.5 0.9 -0.5
v 0.5 1.1 -0.3
v 0.5 1.1 -0.4
v 0.5 1.2 0.1
v 0.5 1.2 0
v 0.5 1.2 -0.1
v 0.5 1.2 -0.2
v 0.5 1.2 -0.3
v 0.5 1.3 0.2
v 0.5 1.3 0.1
v 0.5 1.3 -0.1
v 0.5 1.3 -0.2
v 0.5 1.4 0.4
v 0.5 1.4 0.2
v 0.5 1.7 0.5
v 0.5 1.7 0.4
v 0.5 1.8 0.5
v 0.5 1.8 0.4
v 0.5 1.8 -0.4
v 0.5 1.8 -0.5
v 0.5 1.9 0.4
v 0.5 1.9 -0.4
v 0.6 1.1 -0.3
v 0.6 1.1 -0.4
v 0.6 1.2 0.1
v 0.6 1.2 0
v 0.6 1.2 -0.1
v 0.6 1.2 -0.2
v 0.6 1.2 -0.3
v 0.6 1.3 0.2
v 0.6 1.3 0.1
v 0.6 1.3 -0.1
v 0.6 1.3 -0.2
v 0.6 1.4 0.4
v 0.6 1.4 0.2
v 0.6 1.4 0
v 0.6 1.4 -0.1
v 0.6 1.8 0.4
v 0.6 1.8 -0.4
v -0.5 1.4 0.5
v -0.5 1.8 0.5
v -0.3 1.4 0.5
v -0.3 1.5 0.5
v -0.2 1.5 0.5
v -0.2 1.6 0.5
v -0.1 1.5 0.5
v -0.1 1.6 0.5
v 0.4 1.5 0.5
v 0.4 1.7 0.5
v 0.5 1.7 0.5
v 0.5 1.8 0.5
v -0.6 1.4 0.4
v -0.6 1.8 0.4
v -0.5 0.9 0.4
v -0.5 1.4 0.4
v -0.5 1.8 0.4
v -0.5 1.9 0.4
v -0.3 1.2 0.4
v -0.3 1.4 0.4
v -0.3 1.5 0.4
v -0.2 1.2 0.4
v -0.2 1.4 0.4
v -0.2 1.5 0.4
v -0.2 1.6 0.4
v -0.1 1.5 0.4
v -0.1 1.6 0.4
v 0.2 1.2 0.4
v 0.2 1.4 0.4
v 0.3 1.2 0.4
v 0.3 1.4 0.4
v 0.4 1.5 0.4
v 0.4 1.7 0.4
v 0.5 0.9 0.4
v 0.5 1.4 0.4
v 0.5 1.7 0.4
v 0.5 1.8 0.4
v 0.5 1.9 0.4
v 0.6 1.4 0.4
v 0.6 1.8 0.4
v -0.7 1.5 0.3
v -0.7 1.6 0.3
v -0.6 1.5 0.3
v -0.6 1.6 0.3
v -0.3 0.4 0.2
v -0.3 0.5 0.2
v -0.3 0.9 0.2
v -0.1 0.5 0.2
v -0.1 0.9 0.2
v 0.1 0.5 0.2
v 0.1 0.9 0.2
v 0.3 0.4 0.2
v 0.3 0.5 0.2
v 0.3 0.9 0.2
v 0.5 1.3 0.2
v 0.5 1.4 0.2
v 0.6 1.3 0.2
v 0.6 1.4 0.2
v -0.6 1.2 0.1
v -0.6 1.4 0.1
v -0.5 0.4 0.1
v -0.5 0.5 0.1
v -0.5 0.6 0.1
v -0.5 0.9 0.1
v -0.5 1.2 0.1
v -0.5 1.4 0.1
v -0.3 0 0.1
v -0.3 0.1 0.1
v -0.3 0.4 0.1
v -0.3 0.5 0.1
v -0.3 0.6 0.1
v -0.3 0.9 0.1
v -0.1 0 0.1
v -0.1 0.1 0.1
v -0.1 0.4 0.1
v 0.1 0 0.1
v 0.1 0.1 0.1
v 0.1 0.4 0.1
v 0.3 0 0.1
v 0.3 0.1 0.1
v 0.3 0.4 0.1
v 0.3 0.5 0.1
v 0.3 0.6 0.1
v 0.3 0.9 0.1
v 0.5 0.4 0.1
v 0.5 0.5 0.1
v 0.5 0.6 0.1
v 0.5 0.9 0.1
v 0.5 1.2 0.1
v 0.5 1.3 0.1
v 0.6 1.2 0.1
v 0.6 1.3 0.1
v 0.1 0.4 -0.1
v 0.1 0.5 -0.1
v 0.3 0.4 -0.1
v 0.3 0.5 -0.1
v -0.6 1.1 -0.2
v -0.6 1.2 -0.2
v -0.5 1.1 -0.2
v -0.5 1.2 -0.2
v 0.5 1.2 -0.2
v 0.5 1.3 -0.2
v 0.6 1.2 -0.2
v 0.6 1.3 -0.2
v -0.6 1 -0.3
v -0.6 1.1 -0.3
v -0.5 1 -0.3
v -0.5 1.1 -0.3
v 0.5 1.1 -0.3
v 0.5 1.2 -0.3
v 0.6 1.1 -0.3
v 0.6 1.2 -0.3
v -0.7 1.5 0.2
v -0.7 1.6 0.2
v -0.6 1.5 0.2
v -0.6 1.6 0.2
v 0.1 0.4 0.1
v 0.1 0.5 0.1
v 0.3 0.4 0.1
v 0.3 0.5 0.1
v -0.5 0.4 -0.1
v -0.5 0.5 -0.1
v -0.5 0.6 -0.1
v -0.5 0.9 -0.1
v -0.3 0 -0.1
v -0.3 0.1 -0.1
v -0.3 0.4 -0.1
v -0.3 0.5 -0.1
v -0.3 0.6 -0.1
v -0.3 0.9 -0.1
v -0.1 0 -0.1
v -0.1 0.1 -0.1
v -0.1 0.4 -0.1
v 0.1 0 -0.1
v 0.1 0.1 -0.1
v 0.1 0.4 -0.1
v 0.3 0 -0.1
v 0.3 0.1 -0.1
v 0.3 0.4 -0.1
v 0.3 0.5 -0.1
v 0.3 0.6 -0.1
v 0.3 0.9 -0.1
v 0.5 0.4 -0.1
v 0.5 0.5 -0.1
v 0.5 0.6 -0.1
v 0.5 0.9 -0.1
v 0.5 1.2 -0.1
v 0.5 1.3 -0.1
v 0.6 1.2 -0.1
v 0.6 1.3 -0.1
v -0.3 0.4 -0.2
v -0.3 0.5 -0.2
v -0.3 0.6 -0.2
v -0.3 0.9 -0.2
v 0.3 0.4 -0.2
v 0.3 0.5 -0.2
v 0.3 0.6 -0.2
v 0.3 0.9 -0.2
v -0.6 1 -0.4
v -0.6 1.8 -0.4
v -0.5 1 -0.4
v -0.5 1.8 -0.4
v -0.5 1.9 -0.4
v 0.5 1.1 -0.4
v 0.5 1.8 -0.4
v 0.5 1.9 -0.4
v 0.6 1.1 -0.4
v 0.6 1.8 -0.4
v -0.5 0.9 -0.5
v -0.5 1.8 -0.5
v 0.5 0.9 -0.5
v 0.5 1.8 -0.5
v -0.3 0 0.1
v -0.1 0 0.1
v 0.1 0 0.1
v 0.3 0 0.1
v -0.3 0 -0.1
v -0.1 0 -0.1
v 0.1 0 -0.1
v 0.3 0 -0.1
v -0.3 0.4 0.2
v 0.3 0.4 0.2
v -0.5 0.4 0.1
v -0.3 0.4 0.1
v -0.1 0.4 0.1
v 0.1 0.4 0.1
v 0.3 0.4 0.1
v 0.5 0.4 0.1
v -0.5 0.4 -0.1
v -0.3 0.4 -0.1
v -0.1 0.4 -0.1
v 0.1 0.4 -0.1
v 0.3 0.4 -0.1
v 0.5 0.4 -0.1
v -0.3 0.4 -0.2
v 0.3 0.4 -0.2
v 0.1 0.5 0.1
v 0.3 0.5 0.1
v 0.1 0.5 -0.1
v 0.3 0.5 -0.1
v -0.5 0.9 0.4
v 0.5 0.9 0.4
v -0.3 0.9 0.2
v -0.1 0.9 0.2
v 0.1 0.9 0.2
v 0.3 0.9 0.2
v -0.5 0.9 0.1
v -0.3 0.9 0.1
v 0.3 0.9 0.1
v 0.5 0.9 0.1
v -0.5 0.9 -0.1
v -0.3 0.9 -0.1
v 0.3 0.9 -0.1
v 0.5 0.9 -0.1
v -0.3 0.9 -0.2
v 0.3 0.9 -0.2
v -0.5 0.9 -0.4
v 0.5 0.9 -0.4
v -0.5 0.9 -0.5
v 0.5 0.9 -0.5
v -0.6 1 -0.3
v -0.5 1 -0.3
v -0.6 1 -0.4
v -0.5 1 -0.4
v -0.6 1.1 -0.2
v -0.5 1.1 -0.2
v -0.6 1.1 -0.3
v -0.5 1.1 -0.3
v 0.5 1.1 -0.3
v 0.6 1.1 -0.3
v 0.5 1.1 -0.4
v 0.6 1.1 -0.4
v -0.6 1.2 0.1
v -0.5 1.2 0.1
v 0.5 1.2 0.1
v 0.6 1.2 0.1
v -0.6 1.2 0
v -0.5 1.2 0
v 0.5 1.2 0
v 0.6 1.2 0
v -0.6 1.2 -0.1
v -0.5 1.2 -0.1
v 0.5 1.2 -0.1
v 0.6 1.2 -0.1
v -0.6 1.2 -0.2
v -0.5 1.2 -0.2
v 0.5 1.2 -0.2
v 0.6 1.2 -0.2
v 0.5 1.2 -0.3
v 0.6 1.2 -0.3
v 0.5 1.3 0.2
v 0.6 1.3 0.2
v 0.5 1.3 0.1
v 0.6 1.3 0.1
v 0.5 1.3 -0.1
v 0.6 1.3 -0.1
v 0.5 1.3 -0.2
v 0.6 1.3 -0.2
v -0.5 1.4 0.5
v -0.3 1.4 0.5
v -0.6 1.4 0.4
v -0.5 1.4 0.4
v -0.3 1.4 0.4
v 0.5 1.4 0.4
v 0.6 1.4 0.4
v 0.5 1.4 0.2
v 0.6 1.4 0.2
v -0.6 1.4 0.1
v -0.5 1.4 0.1
v -0.3 1.5 0.5
v -0.2 1.5 0.5
v -0.1 1.5 0.5
v 0.4 1.5 0.5
v -0.3 1.5 0.4
v -0.2 1.5 0.4
v -0.1 1.5 0.4
v 0.4 1.5 0.4
v -0.7 1.5 0.3
v -0.6 1.5 0.3
v -0.7 1.5 0.2
v -0.6 1.5 0.2
v -0.2 1.6 0.5
v -0.1 1.6 0.5
v -0.2 1.6 0.4
v -0.1 1.6 0.4
v 0.4 1.7 0.5
v 0.5 1.7 0.5
v 0.4 1.7 0.4
v 0.5 1.7 0.4
v 0.1 0.4 0.1
v 0.3 0.4 0.1
v 0.1 0.4 -0.1
v 0.3 0.4 -0.1
v -0.7 1.6 0.3
v -0.6 1.6 0.3
v -0.7 1.6 0.2
v -0.6 1.6 0.2
v -0.5 1.8 0.5
v 0.5 1.8 0.5
v -0.6 1.8 0.4
v -0.5 1.8 0.4
v 0.5 1.8 0.4
v 0.6 1.8 0.4
v -0.6 1.8 -0.4
v -0.5 1.8 -0.4
v 0.5 1.8 -0.4
v 0.6 1.8 -0.4
v -0.5 1.8 -0.5
v 0.5 1.8 -0.5
v -0.5 1.9 0.4
v 0.5 1.9 0.4
v -0.5 1.9 -0.4
v 0.5 1.9 -0.4

# faces
f 3/3/1 2/3/1 1/3/1
f 4/3/1 2/3/1 3/3/1
f 8/3/1 6/3/1 5/3/1
f 12/3/1 8/3/1 7/3/1
f 14/3/1 10/3/1 9/3/1
f 15/2/1 11/2/1 10/2/1
f 15/3/1 10/3/1 14/3/1
f 16/3/1 12/3/1 11/3/1
f 16/2/1 11/2/1 15/2/1
f 17/3/1 14/3/1 13/3/1
f 17/3/1 15/3/1 14/3/1
f 17/3/1 16/3/1 15/3/1
f 18/3/1 16/3/1 17/3/1
f 19/3/1 17/3/1 13/3/1
f 20/3/1 16/3/1 18/3/1
f 21/3/1 19/3/1 13/3/1
f 21/3/1 20/3/1 19/3/1
f 22/3/1 6/3/1 8/3/1
f 22/3/1 20/3/1 21/3/1
f 22/3/1 12/3/1 16/3/1
f 22/3/1 8/3/1 12/3/1
f 22/3/1 16/3/1 20/3/1
f 25/2/1 24/2/1 23/2/1
f 26/2/1 24/2/1 25/2/1
f 27/6/1 26/6/1 25/6/1
f 28/6/1 26/6/1 27/6/1
f 30/5/1 28/5/1 27/5/1
f 31/5/1 28/5/1 30/5/1
f 34/2/1 31/2/1 30/2/1
f 34/2/1 30/2/1 29/2/1
f 34/2/1 32/2/1 31/2/1
f 35/3/1 33/3/1 32/3/1
f 35/2/1 32/2/1 34/2/1
f 36/2/1 34/2/1 29/2/1
f 37/2/1 34/2/1 36/2/1
f 38/2/1 36/2/1 29/2/1
f 39/2/1 36/2/1 38/2/1
f 40/2/1 36/2/1 39/2/1
f 41/2/1 36/2/1 40/2/1
f 43/2/1 38/2/1 29/2/1
f 44/2/1 38/2/1 43/2/1
f 45/3/1 43/3/1 42/3/1
f 46/3/1 43/3/1 45/3/1
f 47/3/1 33/3/1 35/3/1
f 48/3/1 33/3/1 47/3/1
f 49/3/1 47/3/1 46/3/1
f 50/3/1 47/3/1 49/3/1
f 53/8/1 52/8/1 51/8/1
f 54/8/1 52/8/1 53/8/1
f 56/7/1 54/7/1 53/7/1
f 57/7/1 54/7/1 56/7/1
f 59/6/1 56/6/1 55/6/1
f 60/6/1 56/6/1 59/6/1
f 61/7/1 58/7/1 57/7/1
f 62/7/1 58/7/1 61/7/1
f 63/5/1 60/5/1 59/5/1
f 64/6/1 62/6/1 61/6/1
f 65/6/1 62/6/1 64/6/1
f 66/5/1 63/5/1 59/5/1
f 67/5/1 63/5/1 66/5/1
f 68/5/1 65/5/1 64/5/1
f 69/5/1 65/5/1 68/5/1
f 72/3/1 71/3/1 70/3/1
f 73/3/1 71/3/1 72/3/1
f 76/8/1 75/8/1 74/8/1
f 77/8/1 75/8/1 76/8/1
f 78/7/1 77/7/1 76/7/1
f 79/7/1 77/7/1 78/7/1
f 82/2/1 81/2/1 80/2/1
f 83/2/1 81/2/1 82/2/1
f 84/3/2 85/3/2 86/3/2
f 86/3/2 85/3/2 87/3/2
f 88/3/2 89/3/2 90/3/2
f 90/3/2 89/3/2 91/3/2
f 92/8/2 93/8/2 94/8/2
f 94/8/2 93/8/2 95/8/2
f 94/7/2 95/7/2 96/7/2
f 96/7/2 95/7/2 97/7/2
f 98/7/2 99/7/2 100/7/2
f 100/7/2 99/7/2 101/7/2
f 102/8/2 103/8/2 104/8/2
f 104/8/2 103/8/2 105/8/2
f 104/7/2 105/7/2 107/7/2
f 107/7/2 105/7/2 108/7/2
f 106/6/2 107/6/2 110/6/2
f 110/6/2 107/6/2 111/6/2
f 108/7/2 109/7/2 112/7/2
f 112/7/2 109/7/2 113/7/2
f 110/5/2 111/5/2 114/5/2
f 112/6/2 113/6/2 115/6/2
f 115/6/2 113/6/2 116/6/2
f 110/5/2 114/5/2 117/5/2
f 117/5/2 114/5/2 118/5/2
f 115/5/2 116/5/2 119/5/2
f 119/5/2 116/5/2 120/5/2
f 121/3/2 122/3/2 123/3/2
f 123/3/2 122/3/2 124/3/2
f 125/2/2 126/2/2 127/2/2
f 127/2/2 126/2/2 128/2/2
f 127/6/2 128/6/2 129/6/2
f 129/6/2 128/6/2 130/6/2
f 129/5/2 130/5/2 132/5/2
f 132/5/2 130/5/2 133/5/2
f 132/2/2 133/2/2 136/2/2
f 131/2/2 132/2/2 136/2/2
f 133/2/2 134/2/2 136/2/2
f 134/3/2 135/3/2 137/3/2
f 136/2/2 134/2/2 137/2/2
f 131/2/2 136/2/2 138/2/2
f 138/2/2 136/2/2 139/2/2
f 139/2/2 136/2/2 140/2/2
f 140/2/2 136/2/2 141/2/2
f 141/2/2 136/2/2 142/2/2
f 131/2/2 138/2/2 143/2/2
f 143/2/2 138/2/2 144/2/2
f 140/2/2 141/2/2 145/2/2
f 145/2/2 141/2/2 146/2/2
f 131/2/2 143/2/2 147/2/2
f 147/2/2 143/2/2 148/2/2
f 149/3/2 150/3/2 151/3/2
f 151/3/2 150/3/2 152/3/2
f 137/3/2 135/3/2 153/3/2
f 153/3/2 135/3/2 154/3/2
f 152/3/2 153/3/2 155/3/2
f 155/3/2 153/3/2 156/3/2
f 157/3/2 158/3/2 163/3/2
f 159/3/2 160/3/2 165/3/2
f 160/2/2 161/2/2 166/2/2
f 162/3/2 163/3/2 167/3/2
f 164/3/2 165/3/2 169/3/2
f 160/2/2 166/2/2 170/2/2
f 165/3/2 160/3/2 170/3/2
f 169/3/2 165/3/2 170/3/2
f 166/3/2 167/3/2 171/3/2
f 170/2/2 166/2/2 171/2/2
f 169/3/2 170/3/2 172/3/2
f 168/3/2 169/3/2 172/3/2
f 170/3/2 171/3/2 172/3/2
f 171/3/2 167/3/2 173/3/2
f 172/3/2 171/3/2 173/3/2
f 167/3/2 163/3/2 173/3/2
f 163/3/2 158/3/2 173/3/2
f 176/3/3 175/3/3 174/3/3
f 177/3/3 175/3/3 176/3/3
f 178/3/3 175/3/3 177/3/3
f 179/3/3 175/3/3 178/3/3
f 181/3/3 175/3/3 179/3/3
f 182/3/3 181/3/3 180/3/3
f 183/3/3 175/3/3 181/3/3
f 183/3/3 181/3/3 182/3/3
f 184/3/3 175/3/3 183/3/3
f 185/3/3 175/3/3 184/3/3
f 189/3/3 187/3/3 186/3/3
f 190/3/3 187/3/3 189/3/3
f 192/2/3 189/2/3 188/2/3
f 193/2/3 189/2/3 192/2/3
f 195/2/3 192/2/3 188/2/3
f 195/1/3 193/1/3 192/1/3
f 196/2/3 194/2/3 193/2/3
f 196/1/3 193/1/3 195/1/3
f 197/2/3 194/2/3 196/2/3
f 199/2/3 196/2/3 195/2/3
f 199/2/3 198/2/3 197/2/3
f 199/2/3 197/2/3 196/2/3
f 200/2/3 198/2/3 199/2/3
f 201/2/3 195/2/3 188/2/3
f 201/2/3 199/2/3 195/2/3
f 202/2/3 199/2/3 201/2/3
f 203/2/3 201/2/3 188/2/3
f 203/1/3 202/1/3 201/1/3
f 204/2/3 199/2/3 202/2/3
f 204/1/3 202/1/3 203/1/3
f 205/2/3 204/2/3 203/2/3
f 205/2/3 199/2/3 204/2/3
f 207/2/3 205/2/3 203/2/3
f 207/2/3 206/2/3 205/2/3
f 207/2/3 203/2/3 188/2/3
f 208/2/3 206/2/3 207/2/3
f 209/2/3 206/2/3 208/2/3
f 210/3/3 191/3/3 190/3/3
f 211/3/3 191/3/3 210/3/3
f 212/3/3 209/3/3 208/3/3
f 212/3/3 210/3/3 209/3/3
f 213/3/3 210/3/3 212/3/3
f 216/3/3 215/3/3 214/3/3
f 217/3/3 215/3/3 216/3/3
f 221/6/3 219/6/3 218/6/3
f 221/5/3 220/5/3 219/5/3
f 222/5/3 220/5/3 221/5/3
f 223/6/3 221/6/3 218/6/3
f 223/6/3 222/6/3 221/6/3
f 224/6/3 222/6/3 223/6/3
f 225/6/3 223/6/3 218/6/3
f 226/5/3 224/5/3 223/5/3
f 226/6/3 223/6/3 225/6/3
f 227/5/3 224/5/3 226/5/3
f 230/3/3 229/3/3 228/3/3
f 231/3/3 229/3/3 230/3/3
f 238/3/3 233/3/3 232/3/3
f 239/3/3 233/3/3 238/3/3
f 242/2/3 235/2/3 234/2/3
f 243/6/3 236/6/3 235/6/3
f 243/2/3 235/2/3 242/2/3
f 244/5/3 237/5/3 236/5/3
f 244/6/3 236/6/3 243/6/3
f 245/5/3 237/5/3 244/5/3
f 246/8/3 241/8/3 240/8/3
f 247/7/3 242/7/3 241/7/3
f 247/8/3 241/8/3 246/8/3
f 248/7/3 242/7/3 247/7/3
f 252/8/3 250/8/3 249/8/3
f 253/7/3 251/7/3 250/7/3
f 253/8/3 250/8/3 252/8/3
f 254/7/3 251/7/3 253/7/3
f 258/2/3 255/2/3 254/2/3
f 259/6/3 256/6/3 255/6/3
f 259/2/3 255/2/3 258/2/3
f 260/5/3 257/5/3 256/5/3
f 260/6/3 256/6/3 259/6/3
f 261/5/3 257/5/3 260/5/3
f 264/3/3 263/3/3 262/3/3
f 265/3/3 263/3/3 264/3/3
f 268/7/3 267/7/3 266/7/3
f 269/7/3 267/7/3 268/7/3
f 272/3/3 271/3/3 270/3/3
f 273/3/3 271/3/3 272/3/3
f 276/3/3 275/3/3 274/3/3
f 277/3/3 275/3/3 276/3/3
f 280/3/3 279/3/3 278/3/3
f 281/3/3 279/3/3 280/3/3
f 284/3/3 283/3/3 282/3/3
f 285/3/3 283/3/3 284/3/3
f 286/3/4 287/3/4 288/3/4
f 288/3/4 287/3/4 289/3/4
f 290/6/4 291/6/4 292/6/4
f 292/6/4 291/6/4 293/6/4
f 294/2/4 295/2/4 300/2/4
f 295/6/4 296/6/4 301/6/4
f 300/2/4 295/2/4 301/2/4
f 296/5/4 297/5/4 302/5/4
f 301/6/4 296/6/4 302/6/4
f 302/5/4 297/5/4 303/5/4
f 298/8/4 299/8/4 304/8/4
f 299/7/4 300/7/4 305/7/4
f 304/8/4 299/8/4 305/8/4
f 305/7/4 300/7/4 306/7/4
f 307/8/4 308/8/4 310/8/4
f 308/7/4 309/7/4 311/7/4
f 310/8/4 308/8/4 311/8/4
f 311/7/4 309/7/4 312/7/4
f 312/2/4 313/2/4 316/2/4
f 313/6/4 314/6/4 317/6/4
f 316/2/4 313/2/4 317/2/4
f 314/5/4 315/5/4 318/5/4
f 317/6/4 314/6/4 318/6/4
f 318/5/4 315/5/4 319/5/4
f 320/2/4 321/2/4 322/2/4
f 322/2/4 321/2/4 323/2/4
f 324/7/4 325/7/4 328/7/4
f 325/6/4 326/6/4 329/6/4
f 328/7/4 325/7/4 329/7/4
f 326/5/4 327/5/4 330/5/4
f 329/6/4 326/6/4 330/6/4
f 330/5/4 327/5/4 331/5/4
f 332/3/4 333/3/4 334/3/4
f 334/3/4 333/3/4 335/3/4
f 335/3/4 336/3/4 338/3/4
f 338/3/4 336/3/4 339/3/4
f 337/3/4 338/3/4 340/3/4
f 340/3/4 338/3/4 341/3/4
f 342/3/4 343/3/4 344/3/4
f 344/3/4 343/3/4 345/3/4
f 350/8/5 347/8/5 346/8/5
f 351/8/5 347/8/5 350/8/5
f 352/8/5 349/8/5 348/8/5
f 353/8/5 349/8/5 352/8/5
f 357/6/5 355/6/5 354/6/5
f 358/6/5 355/6/5 357/6/5
f 359/6/5 355/6/5 358/6/5
f 360/6/5 355/6/5 359/6/5
f 362/2/5 357/2/5 356/2/5
f 363/2/5 357/2/5 362/2/5
f 364/7/5 359/7/5 358/7/5
f 365/7/5 359/7/5 364/7/5
f 366/2/5 361/2/5 360/2/5
f 367/2/5 361/2/5 366/2/5
f 368/7/5 365/7/5 364/7/5
f 368/7/5 366/7/5 365/7/5
f 368/7/5 364/7/5 363/7/5
f 369/7/5 366/7/5 368/7/5
f 372/5/5 371/5/5 370/5/5
f 373/5/5 371/5/5 372/5/5
f 376/2/5 375/2/5 374/2/5
f 377/2/5 375/2/5 376/2/5
f 378/2/5 375/2/5 377/2/5
f 379/2/5 375/2/5 378/2/5
f 380/2/5 376/2/5 374/2/5
f 381/2/5 376/2/5 380/2/5
f 382/2/5 375/2/5 379/2/5
f 383/2/5 375/2/5 382/2/5
f 388/2/5 385/2/5 384/2/5
f 389/2/5 387/2/5 386/2/5
f 390/2/5 388/2/5 384/2/5
f 390/2/5 389/2/5 388/2/5
f 391/2/5 387/2/5 389/2/5
f 391/2/5 389/2/5 390/2/5
f 392/3/5 391/3/5 390/3/5
f 393/3/5 391/3/5 392/3/5
f 396/3/5 395/3/5 394/3/5
f 397/3/5 395/3/5 396/3/5
f 400/3/5 399/3/5 398/3/5
f 401/3/5 399/3/5 400/3/5
f 404/3/5 403/3/5 402/3/5
f 405/3/5 403/3/5 404/3/5
f 410/3/5 407/3/5 406/3/5
f 411/3/5 407/3/5 410/3/5
f 412/3/5 409/3/5 408/3/5
f 413/3/5 409/3/5 412/3/5
f 414/2/5 411/2/5 410/2/5
f 415/2/5 411/2/5 414/2/5
f 416/2/5 413/2/5 412/2/5
f 417/2/5 413/2/5 416/2/5
f 418/3/5 415/3/5 414/3/5
f 419/3/5 415/3/5 418/3/5
f 422/3/5 421/3/5 420/3/5
f 423/3/5 421/3/5 422/3/5
f 426/3/5 425/3/5 424/3/5
f 427/3/5 425/3/5 426/3/5
f 430/3/5 429/3/5 428/3/5
f 431/3/5 429/3/5 430/3/5
f 435/3/5 433/3/5 432/3/5
f 436/3/5 433/3/5 435/3/5
f 439/3/5 438/3/5 437/3/5
f 440/3/5 438/3/5 439/3/5
f 441/3/5 435/3/5 434/3/5
f 442/3/5 435/3/5 441/3/5
f 447/3/5 444/3/5 443/3/5
f 448/3/5 444/3/5 447/3/5
f 449/3/5 446/3/5 445/3/5
f 450/3/5 446/3/5 449/3/5
f 453/3/5 452/3/5 451/3/5
f 454/3/5 452/3/5 453/3/5
f 457/3/5 456/3/5 455/3/5
f 458/3/5 456/3/5 457/3/5
f 461/3/5 460/3/5 459/3/5
f 462/3/5 460/3/5 461/3/5
f 463/7/6 464/7/6 465/7/6
f 465/7/6 464/7/6 466/7/6
f 467/3/6 468/3/6 469/3/6
f 469/3/6 468/3/6 470/3/6
f 471/3/6 472/3/6 474/3/6
f 474/3/6 472/3/6 475/3/6
f 473/3/6 474/3/6 477/3/6
f 477/3/6 474/3/6 478/3/6
f 475/3/6 476/3/6 479/3/6
f 479/3/6 476/3/6 480/3/6
f 478/3/6 479/3/6 481/3/6
f 481/3/6 479/3/6 482/3/6
f 483/3/6 484/3/6 485/3/6
f 485/3/6 484/3/6 486/3/6
