# MagicaVoxel @ Ephtracy

# group
o 

# material
mtllib Worker9.mtl
usemtl palette

# normals
vn -1 0 0
vn 1 0 0
vn 0 0 1
vn 0 0 -1
vn 0 -1 0
vn 0 1 0

# texcoords
vt 0.150391 0.5
vt 0.287109 0.5
vt 0.712891 0.5
vt 0.958984 0.5
vt 0.990234 0.5
vt 0.994141 0.5

# verts
v -0.6 1.2 0
v -0.6 1.2 -0.1
v -0.6 1.3 -0.2
v -0.6 1.3 -0.4
v -0.6 1.4 0.2
v -0.6 1.4 0
v -0.6 1.4 -0.1
v -0.6 1.4 -0.2
v -0.6 1.5 0.3
v -0.6 1.5 0.2
v -0.6 1.6 0.4
v -0.6 1.6 0.3
v -0.6 1.8 0.4
v -0.6 1.8 -0.4
v -0.5 0.4 0.1
v -0.5 0.4 -0.1
v -0.5 0.5 0.1
v -0.5 0.5 -0.1
v -0.5 0.9 0.4
v -0.5 0.9 0.1
v -0.5 0.9 -0.1
v -0.5 0.9 -0.4
v -0.5 1.2 0
v -0.5 1.2 -0.1
v -0.5 1.3 -0.2
v -0.5 1.3 -0.4
v -0.5 1.3 -0.5
v -0.5 1.4 0.2
v -0.5 1.4 0
v -0.5 1.4 -0.1
v -0.5 1.4 -0.2
v -0.5 1.5 0.4
v -0.5 1.5 0.3
v -0.5 1.5 0.2
v -0.5 1.6 0.5
v -0.5 1.6 0.4
v -0.5 1.6 0.3
v -0.5 1.8 0.5
v -0.5 1.8 0.4
v -0.5 1.8 -0.4
v -0.5 1.8 -0.5
v -0.5 1.9 0.4
v -0.5 1.9 -0.4
v -0.4 1.2 -0.4
v -0.4 1.2 -0.5
v -0.4 1.3 -0.4
v -0.4 1.3 -0.5
v -0.3 0 0.1
v -0.3 0 -0.1
v -0.3 0.1 0.1
v -0.3 0.1 -0.1
v -0.3 0.4 0.2
v -0.3 0.4 0.1
v -0.3 0.4 -0.1
v -0.3 0.5 0.1
v -0.3 0.5 -0.1
v -0.3 0.5 -0.2
v -0.3 0.8 0.2
v -0.3 0.8 0.1
v -0.3 0.9 0.2
v -0.3 0.9 0.1
v -0.3 0.9 -0.1
v -0.3 0.9 -0.2
v -0.3 1.1 -0.4
v -0.3 1.1 -0.5
v -0.3 1.2 -0.4
v -0.3 1.2 -0.5
v -0.2 0.4 -0.1
v -0.2 0.4 -0.2
v -0.2 0.5 -0.1
v -0.2 0.5 -0.2
v -0.1 0.8 0.3
v -0.1 0.8 0.2
v -0.1 0.9 0.3
v -0.1 0.9 0.2
v 0.1 0 0.1
v 0.1 0 -0.1
v 0.1 0.1 0.1
v 0.1 0.1 -0.1
v 0.1 0.4 0.2
v 0.1 0.4 0.1
v 0.1 0.4 -0.1
v 0.1 0.5 0.2
v 0.1 0.5 0.1
v -0.1 0 0.1
v -0.1 0 -0.1
v -0.1 0.1 0.1
v -0.1 0.1 -0.1
v -0.1 0.4 0.2
v -0.1 0.4 0.1
v -0.1 0.4 -0.1
v -0.1 0.5 0.2
v -0.1 0.5 0.1
v 0.1 0.8 0.3
v 0.1 0.8 0.2
v 0.1 0.9 0.3
v 0.1 0.9 0.2
v 0.1 1.6 0.5
v 0.1 1.6 0.4
v 0.1 1.7 0.5
v 0.1 1.7 0.4
v 0.2 0.4 -0.1
v 0.2 0.4 -0.2
v 0.2 0.5 -0.1
v 0.2 0.5 -0.2
v 0.2 1.7 0.5
v 0.2 1.7 0.4
v 0.2 1.8 0.5
v 0.2 1.8 0.4
v 0.3 0 0.1
v 0.3 0 -0.1
v 0.3 0.1 0.1
v 0.3 0.1 -0.1
v 0.3 0.4 0.2
v 0.3 0.4 0.1
v 0.3 0.4 -0.1
v 0.3 0.5 0.1
v 0.3 0.5 -0.1
v 0.3 0.5 -0.2
v 0.3 0.8 0.2
v 0.3 0.8 0.1
v 0.3 0.9 0.2
v 0.3 0.9 0.1
v 0.3 0.9 -0.1
v 0.3 0.9 -0.2
v 0.3 1.1 -0.4
v 0.3 1.1 -0.5
v 0.3 1.2 -0.4
v 0.3 1.2 -0.5
v 0.3 1.8 0.4
v 0.3 1.8 -0.4
v 0.3 1.9 0.4
v 0.3 1.9 -0.4
v 0.4 1.2 -0.4
v 0.4 1.2 -0.5
v 0.4 1.3 -0.4
v 0.4 1.3 -0.5
v 0.4 1.7 0.4
v 0.4 1.7 0.3
v 0.4 1.8 0.4
v 0.4 1.8 0.3
v 0.5 0.4 0.1
v 0.5 0.4 -0.1
v 0.5 0.5 0.1
v 0.5 0.5 -0.1
v 0.5 0.9 0.4
v 0.5 0.9 0.1
v 0.5 0.9 -0.1
v 0.5 0.9 -0.4
v 0.5 1.2 0
v 0.5 1.2 -0.1
v 0.5 1.3 -0.2
v 0.5 1.3 -0.4
v 0.5 1.3 -0.5
v 0.5 1.4 0.1
v 0.5 1.4 0
v 0.5 1.4 -0.1
v 0.5 1.4 -0.2
v 0.5 1.5 0.2
v 0.5 1.5 0.1
v 0.5 1.6 0.4
v 0.5 1.6 0.3
v 0.5 1.6 0.2
v 0.5 1.7 0.4
v 0.5 1.7 0.3
v 0.5 1.7 -0.4
v 0.5 1.8 0.3
v 0.5 1.8 -0.5
v 0.6 1.2 0
v 0.6 1.2 -0.1
v 0.6 1.3 -0.2
v 0.6 1.3 -0.4
v 0.6 1.4 0.1
v 0.6 1.4 0
v 0.6 1.4 -0.1
v 0.6 1.4 -0.2
v 0.6 1.5 0.2
v 0.6 1.5 0.1
v 0.6 1.6 0.3
v 0.6 1.6 0.2
v 0.6 1.7 0.3
v 0.6 1.7 -0.4
v -0.5 1.6 0.5
v -0.5 1.8 0.5
v 0.1 1.6 0.5
v 0.1 1.7 0.5
v 0.2 1.7 0.5
v 0.2 1.8 0.5
v -0.6 1.6 0.4
v -0.6 1.8 0.4
v -0.5 0.9 0.4
v -0.5 1.5 0.4
v -0.5 1.6 0.4
v -0.5 1.8 0.4
v -0.5 1.9 0.4
v -0.3 1.2 0.4
v -0.3 1.4 0.4
v -0.2 1.2 0.4
v -0.2 1.4 0.4
v 0.1 1.5 0.4
v 0.1 1.6 0.4
v 0.1 1.7 0.4
v 0.2 1.2 0.4
v 0.2 1.4 0.4
v 0.2 1.6 0.4
v 0.2 1.7 0.4
v 0.2 1.8 0.4
v 0.3 1.2 0.4
v 0.3 1.4 0.4
v 0.3 1.8 0.4
v 0.3 1.9 0.4
v 0.4 1.6 0.4
v 0.4 1.7 0.4
v 0.4 1.8 0.4
v 0.5 0.9 0.4
v 0.5 1.6 0.4
v 0.5 1.7 0.4
v -0.6 1.5 0.3
v -0.6 1.6 0.3
v -0.5 1.5 0.3
v -0.5 1.6 0.3
v -0.1 0.8 0.3
v -0.1 0.9 0.3
v 0.1 0.8 0.3
v 0.1 0.9 0.3
v 0.4 1.7 0.3
v 0.4 1.8 0.3
v 0.5 1.6 0.3
v 0.5 1.7 0.3
v 0.5 1.8 0.3
v 0.6 1.6 0.3
v 0.6 1.7 0.3
v -0.6 1.4 0.2
v -0.6 1.5 0.2
v -0.5 1.4 0.2
v -0.5 1.5 0.2
v -0.3 0.4 0.2
v -0.3 0.8 0.2
v -0.3 0.9 0.2
v -0.2 0.7 0.2
v -0.2 0.8 0.2
v -0.2 0.9 0.2
v -0.1 0.4 0.2
v -0.1 0.5 0.2
v -0.1 0.6 0.2
v -0.1 0.7 0.2
v -0.1 0.8 0.2
v -0.1 0.9 0.2
v 0.1 0.4 0.2
v 0.1 0.5 0.2
v 0.1 0.6 0.2
v 0.1 0.7 0.2
v 0.1 0.8 0.2
v 0.1 0.9 0.2
v 0.2 0.7 0.2
v 0.2 0.8 0.2
v 0.2 0.9 0.2
v 0.3 0.4 0.2
v 0.3 0.8 0.2
v 0.3 0.9 0.2
v 0.5 1.5 0.2
v 0.5 1.6 0.2
v 0.6 1.5 0.2
v 0.6 1.6 0.2
v -0.5 0.4 0.1
v -0.5 0.5 0.1
v -0.5 0.9 0.1
v -0.3 0 0.1
v -0.3 0.1 0.1
v -0.3 0.4 0.1
v -0.3 0.5 0.1
v -0.3 0.8 0.1
v -0.3 0.9 0.1
v -0.1 0 0.1
v -0.1 0.1 0.1
v -0.1 0.4 0.1
v -0.1 0.5 0.1
v 0.1 0 0.1
v 0.1 0.1 0.1
v 0.1 0.4 0.1
v 0.1 0.5 0.1
v 0.3 0 0.1
v 0.3 0.1 0.1
v 0.3 0.4 0.1
v 0.3 0.5 0.1
v 0.3 0.8 0.1
v 0.3 0.9 0.1
v 0.5 0.4 0.1
v 0.5 0.5 0.1
v 0.5 0.9 0.1
v 0.5 1.4 0.1
v 0.5 1.5 0.1
v 0.6 1.4 0.1
v 0.6 1.5 0.1
v -0.6 1.2 0
v -0.6 1.4 0
v -0.5 1.2 0
v -0.5 1.4 0
v 0.5 1.2 0
v 0.5 1.4 0
v 0.6 1.2 0
v 0.6 1.4 0
v -0.6 1.3 -0.2
v -0.6 1.4 -0.2
v -0.5 1.3 -0.2
v -0.5 1.4 -0.2
v 0.5 1.3 -0.2
v 0.5 1.4 -0.2
v 0.6 1.3 -0.2
v 0.6 1.4 -0.2
v -0.6 1.2 -0.1
v -0.6 1.4 -0.1
v -0.5 0.4 -0.1
v -0.5 0.5 -0.1
v -0.5 0.9 -0.1
v -0.5 1.2 -0.1
v -0.5 1.4 -0.1
v -0.3 0 -0.1
v -0.3 0.1 -0.1
v -0.3 0.4 -0.1
v -0.3 0.5 -0.1
v -0.3 0.9 -0.1
v -0.2 0.4 -0.1
v -0.2 0.5 -0.1
v -0.1 0 -0.1
v -0.1 0.1 -0.1
v -0.1 0.4 -0.1
v 0.1 0 -0.1
v 0.1 0.1 -0.1
v 0.1 0.4 -0.1
v 0.2 0.4 -0.1
v 0.2 0.5 -0.1
v 0.3 0 -0.1
v 0.3 0.1 -0.1
v 0.3 0.4 -0.1
v 0.3 0.5 -0.1
v 0.3 0.9 -0.1
v 0.5 0.4 -0.1
v 0.5 0.5 -0.1
v 0.5 0.9 -0.1
v 0.5 1.2 -0.1
v 0.5 1.4 -0.1
v 0.6 1.2 -0.1
v 0.6 1.4 -0.1
v -0.3 0.5 -0.2
v -0.3 0.9 -0.2
v -0.2 0.4 -0.2
v -0.2 0.5 -0.2
v 0.2 0.4 -0.2
v 0.2 0.5 -0.2
v 0.3 0.5 -0.2
v 0.3 0.9 -0.2
v -0.6 1.3 -0.4
v -0.6 1.8 -0.4
v -0.5 0.9 -0.4
v -0.5 1.3 -0.4
v -0.5 1.8 -0.4
v -0.5 1.9 -0.4
v -0.4 1.2 -0.4
v -0.4 1.3 -0.4
v -0.3 1.1 -0.4
v -0.3 1.2 -0.4
v 0.3 1.1 -0.4
v 0.3 1.2 -0.4
v 0.3 1.8 -0.4
v 0.3 1.9 -0.4
v 0.4 1.2 -0.4
v 0.4 1.3 -0.4
v 0.5 0.9 -0.4
v 0.5 1.3 -0.4
v 0.5 1.7 -0.4
v 0.6 1.3 -0.4
v 0.6 1.7 -0.4
v -0.5 1.3 -0.5
v -0.5 1.8 -0.5
v -0.4 1.2 -0.5
v -0.4 1.3 -0.5
v -0.3 1.1 -0.5
v -0.3 1.2 -0.5
v 0.3 1.1 -0.5
v 0.3 1.2 -0.5
v 0.4 1.2 -0.5
v 0.4 1.3 -0.5
v 0.5 1.3 -0.5
v 0.5 1.8 -0.5
v -0.3 0 0.1
v -0.1 0 0.1
v 0.1 0 0.1
v 0.3 0 0.1
v -0.3 0 -0.1
v -0.1 0 -0.1
v 0.1 0 -0.1
v 0.3 0 -0.1
v -0.3 0.4 0.2
v -0.1 0.4 0.2
v 0.1 0.4 0.2
v 0.3 0.4 0.2
v -0.5 0.4 0.1
v -0.3 0.4 0.1
v -0.1 0.4 0.1
v 0.1 0.4 0.1
v 0.3 0.4 0.1
v 0.5 0.4 0.1
v -0.5 0.4 -0.1
v -0.3 0.4 -0.1
v -0.2 0.4 -0.1
v -0.1 0.4 -0.1
v 0.1 0.4 -0.1
v 0.2 0.4 -0.1
v 0.3 0.4 -0.1
v 0.5 0.4 -0.1
v -0.2 0.4 -0.2
v 0.2 0.4 -0.2
v -0.1 0.5 0.2
v 0.1 0.5 0.2
v -0.1 0.5 0.1
v 0.1 0.5 0.1
v -0.3 0.5 -0.1
v -0.2 0.5 -0.1
v 0.2 0.5 -0.1
v 0.3 0.5 -0.1
v -0.3 0.5 -0.2
v -0.2 0.5 -0.2
v 0.2 0.5 -0.2
v 0.3 0.5 -0.2
v -0.1 0.8 0.3
v 0.1 0.8 0.3
v -0.1 0.8 0.2
v 0.1 0.8 0.2
v -0.5 0.9 0.4
v 0.5 0.9 0.4
v -0.1 0.9 0.3
v 0.1 0.9 0.3
v -0.3 0.9 0.2
v -0.2 0.9 0.2
v -0.1 0.9 0.2
v 0.1 0.9 0.2
v 0.2 0.9 0.2
v 0.3 0.9 0.2
v -0.5 0.9 0.1
v -0.3 0.9 0.1
v 0.3 0.9 0.1
v 0.5 0.9 0.1
v -0.5 0.9 -0.1
v -0.3 0.9 -0.1
v 0.3 0.9 -0.1
v 0.5 0.9 -0.1
v -0.3 0.9 -0.2
v 0.3 0.9 -0.2
v -0.5 0.9 -0.4
v 0.5 0.9 -0.4
v -0.3 1.1 -0.4
v 0.3 1.1 -0.4
v -0.3 1.1 -0.5
v 0.3 1.1 -0.5
v -0.6 1.2 0
v -0.5 1.2 0
v 0.5 1.2 0
v 0.6 1.2 0
v -0.6 1.2 -0.1
v -0.5 1.2 -0.1
v 0.5 1.2 -0.1
v 0.6 1.2 -0.1
v -0.4 1.2 -0.4
v -0.3 1.2 -0.4
v 0.3 1.2 -0.4
v 0.4 1.2 -0.4
v -0.4 1.2 -0.5
v -0.3 1.2 -0.5
v 0.3 1.2 -0.5
v 0.4 1.2 -0.5
v -0.6 1.3 -0.2
v -0.5 1.3 -0.2
v 0.5 1.3 -0.2
v 0.6 1.3 -0.2
v -0.6 1.3 -0.4
v -0.5 1.3 -0.4
v -0.4 1.3 -0.4
v 0.4 1.3 -0.4
v 0.5 1.3 -0.4
v 0.6 1.3 -0.4
v -0.5 1.3 -0.5
v -0.4 1.3 -0.5
v 0.4 1.3 -0.5
v 0.5 1.3 -0.5
v -0.6 1.4 0.2
v -0.5 1.4 0.2
v 0.5 1.4 0.1
v 0.6 1.4 0.1
v -0.6 1.4 0
v -0.5 1.4 0
v 0.5 1.4 0
v 0.6 1.4 0
v -0.6 1.4 -0.1
v -0.5 1.4 -0.1
v 0.5 1.4 -0.1
v 0.6 1.4 -0.1
v -0.6 1.4 -0.2
v -0.5 1.4 -0.2
v 0.5 1.4 -0.2
v 0.6 1.4 -0.2
v -0.6 1.5 0.3
v -0.5 1.5 0.3
v -0.6 1.5 0.2
v -0.5 1.5 0.2
v 0.5 1.5 0.2
v 0.6 1.5 0.2
v 0.5 1.5 0.1
v 0.6 1.5 0.1
v -0.5 1.6 0.5
v 0.1 1.6 0.5
v -0.6 1.6 0.4
v -0.5 1.6 0.4
v 0.1 1.6 0.4
v -0.6 1.6 0.3
v -0.5 1.6 0.3
v 0.5 1.6 0.3
v 0.6 1.6 0.3
v 0.5 1.6 0.2
v 0.6 1.6 0.2
v 0.1 1.7 0.5
v 0.2 1.7 0.5
v 0.1 1.7 0.4
v 0.2 1.7 0.4
v 0.4 1.7 0.4
v 0.5 1.7 0.4
v 0.4 1.7 0.3
v 0.5 1.7 0.3
v 0.6 1.7 0.3
v 0.5 1.7 -0.4
v 0.6 1.7 -0.4
v -0.5 1.8 0.5
v 0.2 1.8 0.5
v -0.6 1.8 0.4
v -0.5 1.8 0.4
v 0.2 1.8 0.4
v 0.3 1.8 0.4
v 0.4 1.8 0.4
v 0.4 1.8 0.3
v 0.5 1.8 0.3
v -0.6 1.8 -0.4
v -0.5 1.8 -0.4
v 0.3 1.8 -0.4
v -0.5 1.8 -0.5
v 0.5 1.8 -0.5
v -0.5 1.9 0.4
v 0.3 1.9 0.4
v -0.5 1.9 -0.4
v 0.3 1.9 -0.4

# faces
f 6/2/1 2/2/1 1/2/1
f 7/2/1 2/2/1 6/2/1
f 8/6/1 4/6/1 3/6/1
f 10/6/1 7/6/1 6/6/1
f 10/6/1 8/6/1 7/6/1
f 10/6/1 6/6/1 5/6/1
f 12/6/1 10/6/1 9/6/1
f 13/6/1 12/6/1 11/6/1
f 14/6/1 4/6/1 8/6/1
f 14/6/1 12/6/1 13/6/1
f 14/6/1 8/6/1 10/6/1
f 14/6/1 10/6/1 12/6/1
f 17/2/1 16/2/1 15/2/1
f 18/2/1 16/2/1 17/2/1
f 20/6/1 18/6/1 17/6/1
f 21/6/1 18/6/1 20/6/1
f 23/2/1 21/2/1 20/2/1
f 23/2/1 22/2/1 21/2/1
f 23/2/1 20/2/1 19/2/1
f 24/2/1 22/2/1 23/2/1
f 25/2/1 22/2/1 24/2/1
f 26/2/1 22/2/1 25/2/1
f 28/2/1 23/2/1 19/2/1
f 29/2/1 23/2/1 28/2/1
f 30/2/1 25/2/1 24/2/1
f 31/2/1 25/2/1 30/2/1
f 32/2/1 28/2/1 19/2/1
f 33/2/1 28/2/1 32/2/1
f 34/2/1 28/2/1 33/2/1
f 36/6/1 33/6/1 32/6/1
f 37/6/1 33/6/1 36/6/1
f 38/6/1 36/6/1 35/6/1
f 39/6/1 36/6/1 38/6/1
f 40/6/1 27/6/1 26/6/1
f 41/6/1 27/6/1 40/6/1
f 42/6/1 40/6/1 39/6/1
f 43/6/1 40/6/1 42/6/1
f 46/6/1 45/6/1 44/6/1
f 47/6/1 45/6/1 46/6/1
f 50/6/1 49/6/1 48/6/1
f 51/6/1 49/6/1 50/6/1
f 53/5/1 51/5/1 50/5/1
f 54/5/1 51/5/1 53/5/1
f 55/6/1 53/6/1 52/6/1
f 58/6/1 55/6/1 52/6/1
f 59/6/1 55/6/1 58/6/1
f 60/5/1 59/5/1 58/5/1
f 61/5/1 59/5/1 60/5/1
f 62/6/1 57/6/1 56/6/1
f 63/6/1 57/6/1 62/6/1
f 66/6/1 65/6/1 64/6/1
f 67/6/1 65/6/1 66/6/1
f 70/6/1 69/6/1 68/6/1
f 71/6/1 69/6/1 70/6/1
f 74/6/1 73/6/1 72/6/1
f 75/6/1 73/6/1 74/6/1
f 78/6/1 77/6/1 76/6/1
f 79/6/1 77/6/1 78/6/1
f 81/5/1 79/5/1 78/5/1
f 82/5/1 79/5/1 81/5/1
f 83/6/1 81/6/1 80/6/1
f 84/6/1 81/6/1 83/6/1
f 85/6/2 86/6/2 87/6/2
f 87/6/2 86/6/2 88/6/2
f 87/5/2 88/5/2 90/5/2
f 90/5/2 88/5/2 91/5/2
f 89/6/2 90/6/2 92/6/2
f 92/6/2 90/6/2 93/6/2
f 94/6/2 95/6/2 96/6/2
f 96/6/2 95/6/2 97/6/2
f 98/6/2 99/6/2 100/6/2
f 100/6/2 99/6/2 101/6/2
f 102/6/2 103/6/2 104/6/2
f 104/6/2 103/6/2 105/6/2
f 106/6/2 107/6/2 108/6/2
f 108/6/2 107/6/2 109/6/2
f 110/6/2 111/6/2 112/6/2
f 112/6/2 111/6/2 113/6/2
f 112/5/2 113/5/2 115/5/2
f 115/5/2 113/5/2 116/5/2
f 114/6/2 115/6/2 117/6/2
f 114/6/2 117/6/2 120/6/2
f 120/6/2 117/6/2 121/6/2
f 120/5/2 121/5/2 122/5/2
f 122/5/2 121/5/2 123/5/2
f 118/6/2 119/6/2 124/6/2
f 124/6/2 119/6/2 125/6/2
f 126/6/2 127/6/2 128/6/2
f 128/6/2 127/6/2 129/6/2
f 130/6/2 131/6/2 132/6/2
f 132/6/2 131/6/2 133/6/2
f 134/6/2 135/6/2 136/6/2
f 136/6/2 135/6/2 137/6/2
f 138/6/2 139/6/2 140/6/2
f 140/6/2 139/6/2 141/6/2
f 142/2/2 143/2/2 144/2/2
f 144/2/2 143/2/2 145/2/2
f 144/6/2 145/6/2 147/6/2
f 147/6/2 145/6/2 148/6/2
f 147/2/2 148/2/2 150/2/2
f 148/2/2 149/2/2 150/2/2
f 146/2/2 147/2/2 150/2/2
f 150/2/2 149/2/2 151/2/2
f 151/2/2 149/2/2 152/2/2
f 152/2/2 149/2/2 153/2/2
f 146/2/2 150/2/2 155/2/2
f 155/2/2 150/2/2 156/2/2
f 151/2/2 152/2/2 157/2/2
f 157/2/2 152/2/2 158/2/2
f 146/2/2 155/2/2 159/2/2
f 159/2/2 155/2/2 160/2/2
f 146/2/2 159/2/2 161/2/2
f 161/2/2 159/2/2 162/2/2
f 162/2/2 159/2/2 163/2/2
f 161/6/2 162/6/2 164/6/2
f 164/6/2 162/6/2 165/6/2
f 153/6/2 154/6/2 166/6/2
f 165/6/2 166/6/2 167/6/2
f 166/6/2 154/6/2 168/6/2
f 167/6/2 166/6/2 168/6/2
f 169/2/2 170/2/2 174/2/2
f 174/2/2 170/2/2 175/2/2
f 171/6/2 172/6/2 176/6/2
f 174/6/2 175/6/2 178/6/2
f 175/6/2 176/6/2 178/6/2
f 173/6/2 174/6/2 178/6/2
f 177/6/2 178/6/2 180/6/2
f 179/6/2 180/6/2 181/6/2
f 176/6/2 172/6/2 182/6/2
f 181/6/2 180/6/2 182/6/2
f 178/6/2 176/6/2 182/6/2
f 180/6/2 178/6/2 182/6/2
f 185/6/3 184/6/3 183/6/3
f 186/6/3 184/6/3 185/6/3
f 187/6/3 184/6/3 186/6/3
f 188/6/3 184/6/3 187/6/3
f 193/6/3 190/6/3 189/6/3
f 194/6/3 190/6/3 193/6/3
f 196/2/3 192/2/3 191/2/3
f 197/2/3 192/2/3 196/2/3
f 198/2/3 196/2/3 191/2/3
f 198/1/3 197/1/3 196/1/3
f 199/2/3 192/2/3 197/2/3
f 199/1/3 197/1/3 198/1/3
f 200/6/3 193/6/3 192/6/3
f 200/2/3 192/2/3 199/2/3
f 200/2/3 199/2/3 198/2/3
f 201/6/3 193/6/3 200/6/3
f 203/2/3 198/2/3 191/2/3
f 203/2/3 200/2/3 198/2/3
f 203/2/3 201/2/3 200/2/3
f 204/2/3 201/2/3 203/2/3
f 205/6/3 202/6/3 201/6/3
f 205/2/3 201/2/3 204/2/3
f 206/6/3 202/6/3 205/6/3
f 207/6/3 195/6/3 194/6/3
f 208/1/3 204/1/3 203/1/3
f 208/2/3 203/2/3 191/2/3
f 209/2/3 206/2/3 205/2/3
f 209/1/3 204/1/3 208/1/3
f 209/2/3 205/2/3 204/2/3
f 210/6/3 207/6/3 206/6/3
f 210/6/3 195/6/3 207/6/3
f 211/6/3 195/6/3 210/6/3
f 212/2/3 206/2/3 209/2/3
f 212/2/3 209/2/3 208/2/3
f 213/6/3 210/6/3 206/6/3
f 213/2/3 206/2/3 212/2/3
f 214/6/3 210/6/3 213/6/3
f 215/2/3 208/2/3 191/2/3
f 215/2/3 212/2/3 208/2/3
f 216/6/3 213/6/3 212/6/3
f 216/2/3 212/2/3 215/2/3
f 217/6/3 213/6/3 216/6/3
f 220/6/3 219/6/3 218/6/3
f 221/6/3 219/6/3 220/6/3
f 224/6/3 223/6/3 222/6/3
f 225/6/3 223/6/3 224/6/3
f 229/6/3 227/6/3 226/6/3
f 230/6/3 227/6/3 229/6/3
f 231/6/3 229/6/3 228/6/3
f 232/6/3 229/6/3 231/6/3
f 235/6/3 234/6/3 233/6/3
f 236/6/3 234/6/3 235/6/3
f 240/6/3 238/6/3 237/6/3
f 241/5/3 239/5/3 238/5/3
f 241/6/3 238/6/3 240/6/3
f 242/5/3 239/5/3 241/5/3
f 243/6/3 240/6/3 237/6/3
f 244/6/3 240/6/3 243/6/3
f 245/6/3 240/6/3 244/6/3
f 246/5/3 241/5/3 240/5/3
f 246/6/3 240/6/3 245/6/3
f 247/4/3 242/4/3 241/4/3
f 247/5/3 241/5/3 246/5/3
f 248/4/3 242/4/3 247/4/3
f 250/6/3 245/6/3 244/6/3
f 251/5/3 246/5/3 245/5/3
f 251/6/3 245/6/3 250/6/3
f 252/4/3 247/4/3 246/4/3
f 252/5/3 246/5/3 251/5/3
f 253/4/3 247/4/3 252/4/3
f 255/6/3 251/6/3 250/6/3
f 255/6/3 250/6/3 249/6/3
f 255/5/3 253/5/3 252/5/3
f 255/6/3 252/6/3 251/6/3
f 256/4/3 254/4/3 253/4/3
f 256/5/3 253/5/3 255/5/3
f 257/4/3 254/4/3 256/4/3
f 258/6/3 255/6/3 249/6/3
f 258/6/3 256/6/3 255/6/3
f 259/5/3 257/5/3 256/5/3
f 259/6/3 256/6/3 258/6/3
f 260/5/3 257/5/3 259/5/3
f 263/6/3 262/6/3 261/6/3
f 264/6/3 262/6/3 263/6/3
f 270/2/3 266/2/3 265/2/3
f 271/6/3 267/6/3 266/6/3
f 271/2/3 266/2/3 270/2/3
f 272/6/3 267/6/3 271/6/3
f 273/6/3 267/6/3 272/6/3
f 274/6/3 269/6/3 268/6/3
f 275/5/3 270/5/3 269/5/3
f 275/6/3 269/6/3 274/6/3
f 276/5/3 270/5/3 275/5/3
f 280/5/3 277/5/3 276/5/3
f 281/5/3 277/5/3 280/5/3
f 282/6/3 279/6/3 278/6/3
f 283/5/3 280/5/3 279/5/3
f 283/6/3 279/6/3 282/6/3
f 284/5/3 280/5/3 283/5/3
f 288/2/3 285/2/3 284/2/3
f 289/6/3 287/6/3 286/6/3
f 289/2/3 285/2/3 288/2/3
f 289/6/3 286/6/3 285/6/3
f 290/6/3 287/6/3 289/6/3
f 293/6/3 292/6/3 291/6/3
f 294/6/3 292/6/3 293/6/3
f 297/2/3 296/2/3 295/2/3
f 298/2/3 296/2/3 297/2/3
f 301/2/3 300/2/3 299/2/3
f 302/2/3 300/2/3 301/2/3
f 305/6/3 304/6/3 303/6/3
f 306/6/3 304/6/3 305/6/3
f 309/6/3 308/6/3 307/6/3
f 310/6/3 308/6/3 309/6/3
f 311/2/4 312/2/4 316/2/4
f 316/2/4 312/2/4 317/2/4
f 313/2/4 314/2/4 320/2/4
f 314/6/4 315/6/4 321/6/4
f 320/2/4 314/2/4 321/2/4
f 321/6/4 315/6/4 322/6/4
f 319/5/4 320/5/4 323/5/4
f 320/5/4 321/5/4 323/5/4
f 323/5/4 321/5/4 324/5/4
f 318/6/4 319/6/4 325/6/4
f 319/5/4 323/5/4 326/5/4
f 325/6/4 319/6/4 326/6/4
f 326/5/4 323/5/4 327/5/4
f 329/5/4 330/5/4 331/5/4
f 328/6/4 329/6/4 333/6/4
f 329/5/4 331/5/4 334/5/4
f 333/6/4 329/6/4 334/6/4
f 331/5/4 332/5/4 334/5/4
f 334/5/4 332/5/4 335/5/4
f 335/5/4 332/5/4 336/5/4
f 335/2/4 336/2/4 338/2/4
f 336/6/4 337/6/4 339/6/4
f 338/2/4 336/2/4 339/2/4
f 339/6/4 337/6/4 340/6/4
f 341/2/4 342/2/4 343/2/4
f 343/2/4 342/2/4 344/2/4
f 345/6/4 346/6/4 348/6/4
f 347/6/4 348/6/4 349/6/4
f 348/6/4 346/6/4 350/6/4
f 349/6/4 348/6/4 350/6/4
f 350/6/4 346/6/4 351/6/4
f 351/6/4 346/6/4 352/6/4
f 353/6/4 354/6/4 356/6/4
f 356/6/4 354/6/4 357/6/4
f 355/2/4 356/2/4 359/2/4
f 359/2/4 356/2/4 360/2/4
f 355/2/4 359/2/4 361/2/4
f 361/2/4 359/2/4 362/2/4
f 355/2/4 361/2/4 363/2/4
f 357/6/4 358/6/4 365/6/4
f 365/6/4 358/6/4 366/6/4
f 363/2/4 364/2/4 367/2/4
f 355/2/4 363/2/4 369/2/4
f 367/2/4 368/2/4 369/2/4
f 363/2/4 367/2/4 369/2/4
f 369/2/4 368/2/4 370/2/4
f 370/6/4 371/6/4 372/6/4
f 372/6/4 371/6/4 373/6/4
f 374/6/4 375/6/4 377/6/4
f 376/6/4 377/6/4 379/6/4
f 378/6/4 379/6/4 380/6/4
f 379/6/4 377/6/4 381/6/4
f 380/6/4 379/6/4 381/6/4
f 381/6/4 377/6/4 382/6/4
f 377/6/4 375/6/4 383/6/4
f 382/6/4 377/6/4 383/6/4
f 383/6/4 375/6/4 384/6/4
f 384/6/4 375/6/4 385/6/4
f 390/6/5 387/6/5 386/6/5
f 391/6/5 387/6/5 390/6/5
f 392/6/5 389/6/5 388/6/5
f 393/6/5 389/6/5 392/6/5
f 399/6/5 395/6/5 394/6/5
f 400/6/5 395/6/5 399/6/5
f 401/6/5 397/6/5 396/6/5
f 402/6/5 397/6/5 401/6/5
f 404/2/5 399/2/5 398/2/5
f 405/2/5 399/2/5 404/2/5
f 407/5/5 401/5/5 400/5/5
f 408/5/5 401/5/5 407/5/5
f 410/2/5 403/2/5 402/2/5
f 411/2/5 403/2/5 410/2/5
f 412/6/5 409/6/5 408/6/5
f 412/6/5 407/6/5 406/6/5
f 412/6/5 408/6/5 407/6/5
f 413/6/5 409/6/5 412/6/5
f 416/6/5 415/6/5 414/6/5
f 417/6/5 415/6/5 416/6/5
f 422/6/5 419/6/5 418/6/5
f 423/6/5 419/6/5 422/6/5
f 424/6/5 421/6/5 420/6/5
f 425/6/5 421/6/5 424/6/5
f 428/6/5 427/6/5 426/6/5
f 429/6/5 427/6/5 428/6/5
f 432/2/5 431/2/5 430/2/5
f 433/2/5 431/2/5 432/2/5
f 434/2/5 432/2/5 430/2/5
f 435/2/5 432/2/5 434/2/5
f 436/2/5 432/2/5 435/2/5
f 437/2/5 431/2/5 433/2/5
f 438/2/5 431/2/5 437/2/5
f 439/2/5 431/2/5 438/2/5
f 440/2/5 434/2/5 430/2/5
f 441/2/5 434/2/5 440/2/5
f 442/2/5 431/2/5 439/2/5
f 443/2/5 431/2/5 442/2/5
f 448/2/5 445/2/5 444/2/5
f 449/2/5 447/2/5 446/2/5
f 450/2/5 448/2/5 444/2/5
f 450/2/5 449/2/5 448/2/5
f 451/2/5 447/2/5 449/2/5
f 451/2/5 449/2/5 450/2/5
f 454/6/5 453/6/5 452/6/5
f 455/6/5 453/6/5 454/6/5
f 460/2/5 457/2/5 456/2/5
f 461/2/5 457/2/5 460/2/5
f 462/2/5 459/2/5 458/2/5
f 463/2/5 459/2/5 462/2/5
f 468/6/5 465/6/5 464/6/5
f 469/6/5 465/6/5 468/6/5
f 470/6/5 467/6/5 466/6/5
f 471/6/5 467/6/5 470/6/5
f 476/6/5 473/6/5 472/6/5
f 477/6/5 473/6/5 476/6/5
f 480/6/5 475/6/5 474/6/5
f 481/6/5 475/6/5 480/6/5
f 482/6/5 478/6/5 477/6/5
f 483/6/5 478/6/5 482/6/5
f 484/6/5 480/6/5 479/6/5
f 485/6/5 480/6/5 484/6/5
f 490/6/5 487/6/5 486/6/5
f 491/6/5 487/6/5 490/6/5
f 492/6/5 489/6/5 488/6/5
f 493/6/5 489/6/5 492/6/5
f 498/6/5 495/6/5 494/6/5
f 499/6/5 495/6/5 498/6/5
f 500/6/5 497/6/5 496/6/5
f 501/6/5 497/6/5 500/6/5
f 504/6/5 503/6/5 502/6/5
f 505/6/5 503/6/5 504/6/5
f 508/6/5 507/6/5 506/6/5
f 509/6/5 507/6/5 508/6/5
f 513/6/5 511/6/5 510/6/5
f 514/6/5 511/6/5 513/6/5
f 515/6/5 513/6/5 512/6/5
f 516/6/5 513/6/5 515/6/5
f 519/6/5 518/6/5 517/6/5
f 520/6/5 518/6/5 519/6/5
f 523/6/5 522/6/5 521/6/5
f 524/6/5 522/6/5 523/6/5
f 525/6/6 526/6/6 527/6/6
f 527/6/6 526/6/6 528/6/6
f 528/6/6 529/6/6 530/6/6
f 530/6/6 529/6/6 531/6/6
f 532/6/6 533/6/6 535/6/6
f 535/6/6 533/6/6 536/6/6
f 537/6/6 538/6/6 539/6/6
f 534/6/6 535/6/6 541/6/6
f 541/6/6 535/6/6 542/6/6
f 539/6/6 540/6/6 543/6/6
f 537/6/6 539/6/6 543/6/6
f 542/6/6 543/6/6 544/6/6
f 543/6/6 540/6/6 545/6/6
f 544/6/6 543/6/6 545/6/6
f 546/6/6 547/6/6 548/6/6
f 548/6/6 547/6/6 549/6/6
