# MagicaVoxel @ Ephtracy

# group
o 

# material
mtllib worker_18.mtl
usemtl palette

# normals
vn -1 0 0
vn 1 0 0
vn 0 0 1
vn 0 0 -1
vn 0 -1 0
vn 0 1 0

# texcoords
vt 0.150391 0.5
vt 0.189453 0.5
vt 0.287109 0.5
vt 0.318359 0.5
vt 0.712891 0.5
vt 0.958984 0.5
vt 0.982422 0.5
vt 0.990234 0.5
vt 0.994141 0.5

# verts
v -0.7 1.5 0.3
v -0.7 1.5 0.2
v -0.7 1.6 0.3
v -0.7 1.6 0.2
v -0.6 1 -0.3
v -0.6 1 -0.4
v -0.6 1.1 -0.2
v -0.6 1.1 -0.3
v -0.6 1.2 0.1
v -0.6 1.2 0
v -0.6 1.2 -0.1
v -0.6 1.2 -0.2
v -0.6 1.4 0.4
v -0.6 1.4 0.1
v -0.6 1.4 0
v -0.6 1.4 -0.1
v -0.6 1.5 0.3
v -0.6 1.5 0.2
v -0.6 1.6 0.3
v -0.6 1.6 0.2
v -0.6 1.8 0.4
v -0.6 1.8 -0.4
v -0.5 0.4 0.1
v -0.5 0.4 -0.1
v -0.5 0.5 0.1
v -0.5 0.5 -0.1
v -0.5 0.6 0.1
v -0.5 0.6 -0.1
v -0.5 0.9 0.4
v -0.5 0.9 0.1
v -0.5 0.9 -0.1
v -0.5 0.9 -0.4
v -0.5 0.9 -0.5
v -0.5 1 -0.3
v -0.5 1 -0.4
v -0.5 1.1 -0.2
v -0.5 1.1 -0.3
v -0.5 1.2 0.1
v -0.5 1.2 0
v -0.5 1.2 -0.1
v -0.5 1.2 -0.2
v -0.5 1.4 0.5
v -0.5 1.4 0.4
v -0.5 1.4 0.1
v -0.5 1.8 0.5
v -0.5 1.8 0.4
v -0.5 1.8 -0.4
v -0.5 1.8 -0.5
v -0.5 1.9 0.4
v -0.5 1.9 -0.4
v -0.3 0 0.1
v -0.3 0 -0.1
v -0.3 0.1 0.1
v -0.3 0.1 -0.1
v -0.3 0.4 0.2
v -0.3 0.4 0.1
v -0.3 0.4 -0.1
v -0.3 0.4 -0.2
v -0.3 0.5 0.2
v -0.3 0.5 0.1
v -0.3 0.5 -0.1
v -0.3 0.5 -0.2
v -0.3 0.6 0.1
v -0.3 0.6 -0.1
v -0.3 0.6 -0.2
v -0.3 0.9 0.2
v -0.3 0.9 0.1
v -0.3 0.9 -0.1
v -0.3 0.9 -0.2
v -0.3 1.9 0.2
v -0.3 1.9 -0.2
v -0.3 2 0.2
v -0.3 2 -0.2
v -0.3 2.1 0.2
v -0.3 2.1 -0.2
v -0.1 1.5 0.5
v -0.1 1.5 0.4
v -0.1 1.6 0.5
v -0.1 1.6 0.4
v 0.1 0 0.1
v 0.1 0 -0.1
v 0.1 0.1 0.1
v 0.1 0.1 -0.1
v 0.1 0.4 0.1
v 0.1 0.4 -0.1
v 0.3 0.4 0.1
v 0.3 0.4 -0.1
v 0.3 0.5 0.1
v 0.3 0.5 -0.1
v -0.3 1.4 0.5
v -0.3 1.4 0.4
v -0.3 1.5 0.5
v -0.3 1.5 0.4
v -0.2 1.5 0.5
v -0.2 1.5 0.4
v -0.2 1.6 0.5
v -0.2 1.6 0.4
v -0.1 0 0.1
v -0.1 0 -0.1
v -0.1 0.1 0.1
v -0.1 0.1 -0.1
v -0.1 0.4 0.1
v -0.1 0.4 -0.1
v 0.1 0.4 0.1
v 0.1 0.4 -0.1
v 0.1 0.5 0.1
v 0.1 0.5 -0.1
v 0.3 0 0.1
v 0.3 0 -0.1
v 0.3 0.1 0.1
v 0.3 0.1 -0.1
v 0.3 0.4 0.2
v 0.3 0.4 0.1
v 0.3 0.4 -0.1
v 0.3 0.4 -0.2
v 0.3 0.5 0.2
v 0.3 0.5 0.1
v 0.3 0.5 -0.1
v 0.3 0.5 -0.2
v 0.3 0.6 0.1
v 0.3 0.6 -0.1
v 0.3 0.6 -0.2
v 0.3 0.9 0.2
v 0.3 0.9 0.1
v 0.3 0.9 -0.1
v 0.3 0.9 -0.2
v 0.3 1.9 0.2
v 0.3 1.9 -0.2
v 0.3 2 0.2
v 0.3 2 -0.2
v 0.3 2.1 0.2
v 0.3 2.1 -0.2
v 0.4 1.5 0.5
v 0.4 1.5 0.4
v 0.4 1.7 0.5
v 0.4 1.7 0.4
v 0.5 0.4 0.1
v 0.5 0.4 -0.1
v 0.5 0.5 0.1
v 0.5 0.5 -0.1
v 0.5 0.6 0.1
v 0.5 0.6 -0.1
v 0.5 0.9 0.4
v 0.5 0.9 0.1
v 0.5 0.9 -0.1
v 0.5 0.9 -0.4
v 0.5 0.9 -0.5
v 0.5 1.1 -0.3
v 0.5 1.1 -0.4
v 0.5 1.2 0.1
v 0.5 1.2 0
v 0.5 1.2 -0.1
v 0.5 1.2 -0.2
v 0.5 1.2 -0.3
v 0.5 1.3 0.2
v 0.5 1.3 0.1
v 0.5 1.3 -0.1
v 0.5 1.3 -0.2
v 0.5 1.4 0.4
v 0.5 1.4 0.2
v 0.5 1.7 0.5
v 0.5 1.7 0.4
v 0.5 1.8 0.5
v 0.5 1.8 0.4
v 0.5 1.8 -0.4
v 0.5 1.8 -0.5
v 0.5 1.9 0.4
v 0.5 1.9 -0.4
v 0.6 1.1 -0.3
v 0.6 1.1 -0.4
v 0.6 1.2 0.1
v 0.6 1.2 0
v 0.6 1.2 -0.1
v 0.6 1.2 -0.2
v 0.6 1.2 -0.3
v 0.6 1.3 0.2
v 0.6 1.3 0.1
v 0.6 1.3 -0.1
v 0.6 1.3 -0.2
v 0.6 1.4 0.4
v 0.6 1.4 0.2
v 0.6 1.4 0
v 0.6 1.4 -0.1
v 0.6 1.8 0.4
v 0.6 1.8 -0.4
v -0.5 1.4 0.5
v -0.5 1.8 0.5
v -0.3 1.4 0.5
v -0.3 1.5 0.5
v -0.2 1.5 0.5
v -0.2 1.6 0.5
v -0.1 1.5 0.5
v -0.1 1.6 0.5
v 0.4 1.5 0.5
v 0.4 1.7 0.5
v 0.5 1.7 0.5
v 0.5 1.8 0.5
v -0.6 1.4 0.4
v -0.6 1.8 0.4
v -0.5 0.9 0.4
v -0.5 1.4 0.4
v -0.5 1.8 0.4
v -0.5 1.9 0.4
v -0.3 1.2 0.4
v -0.3 1.4 0.4
v -0.3 1.5 0.4
v -0.2 1.2 0.4
v -0.2 1.4 0.4
v -0.2 1.5 0.4
v -0.2 1.6 0.4
v -0.1 1 0.4
v -0.1 1.1 0.4
v -0.1 1.5 0.4
v -0.1 1.6 0.4
v 0.1 1 0.4
v 0.1 1.1 0.4
v 0.2 1.2 0.4
v 0.2 1.4 0.4
v 0.3 1.2 0.4
v 0.3 1.4 0.4
v 0.4 1.5 0.4
v 0.4 1.7 0.4
v 0.5 0.9 0.4
v 0.5 1.4 0.4
v 0.5 1.7 0.4
v 0.5 1.8 0.4
v 0.5 1.9 0.4
v 0.6 1.4 0.4
v 0.6 1.8 0.4
v -0.7 1.5 0.3
v -0.7 1.6 0.3
v -0.6 1.5 0.3
v -0.6 1.6 0.3
v -0.3 0.4 0.2
v -0.3 0.5 0.2
v -0.3 0.9 0.2
v -0.3 1.9 0.2
v -0.3 2 0.2
v -0.3 2.1 0.2
v -0.1 0.5 0.2
v -0.1 0.9 0.2
v 0.1 0.5 0.2
v 0.1 0.9 0.2
v 0.3 0.4 0.2
v 0.3 0.5 0.2
v 0.3 0.9 0.2
v 0.3 1.9 0.2
v 0.3 2 0.2
v 0.3 2.1 0.2
v 0.5 1.3 0.2
v 0.5 1.4 0.2
v 0.6 1.3 0.2
v 0.6 1.4 0.2
v -0.6 1.2 0.1
v -0.6 1.4 0.1
v -0.5 0.4 0.1
v -0.5 0.5 0.1
v -0.5 0.6 0.1
v -0.5 0.9 0.1
v -0.5 1.2 0.1
v -0.5 1.4 0.1
v -0.3 0 0.1
v -0.3 0.1 0.1
v -0.3 0.4 0.1
v -0.3 0.5 0.1
v -0.3 0.6 0.1
v -0.3 0.9 0.1
v -0.1 0 0.1
v -0.1 0.1 0.1
v -0.1 0.4 0.1
v 0.1 0 0.1
v 0.1 0.1 0.1
v 0.1 0.4 0.1
v 0.3 0 0.1
v 0.3 0.1 0.1
v 0.3 0.4 0.1
v 0.3 0.5 0.1
v 0.3 0.6 0.1
v 0.3 0.9 0.1
v 0.5 0.4 0.1
v 0.5 0.5 0.1
v 0.5 0.6 0.1
v 0.5 0.9 0.1
v 0.5 1.2 0.1
v 0.5 1.3 0.1
v 0.6 1.2 0.1
v 0.6 1.3 0.1
v 0.1 0.4 -0.1
v 0.1 0.5 -0.1
v 0.3 0.4 -0.1
v 0.3 0.5 -0.1
v -0.6 1.1 -0.2
v -0.6 1.2 -0.2
v -0.5 1.1 -0.2
v -0.5 1.2 -0.2
v 0.5 1.2 -0.2
v 0.5 1.3 -0.2
v 0.6 1.2 -0.2
v 0.6 1.3 -0.2
v -0.6 1 -0.3
v -0.6 1.1 -0.3
v -0.5 1 -0.3
v -0.5 1.1 -0.3
v 0.5 1.1 -0.3
v 0.5 1.2 -0.3
v 0.6 1.1 -0.3
v 0.6 1.2 -0.3
v -0.7 1.5 0.2
v -0.7 1.6 0.2
v -0.6 1.5 0.2
v -0.6 1.6 0.2
v 0.1 0.4 0.1
v 0.1 0.5 0.1
v 0.3 0.4 0.1
v 0.3 0.5 0.1
v -0.5 0.4 -0.1
v -0.5 0.5 -0.1
v -0.5 0.6 -0.1
v -0.5 0.9 -0.1
v -0.3 0 -0.1
v -0.3 0.1 -0.1
v -0.3 0.4 -0.1
v -0.3 0.5 -0.1
v -0.3 0.6 -0.1
v -0.3 0.9 -0.1
v -0.1 0 -0.1
v -0.1 0.1 -0.1
v -0.1 0.4 -0.1
v 0.1 0 -0.1
v 0.1 0.1 -0.1
v 0.1 0.4 -0.1
v 0.3 0 -0.1
v 0.3 0.1 -0.1
v 0.3 0.4 -0.1
v 0.3 0.5 -0.1
v 0.3 0.6 -0.1
v 0.3 0.9 -0.1
v 0.5 0.4 -0.1
v 0.5 0.5 -0.1
v 0.5 0.6 -0.1
v 0.5 0.9 -0.1
v 0.5 1.2 -0.1
v 0.5 1.3 -0.1
v 0.6 1.2 -0.1
v 0.6 1.3 -0.1
v -0.3 0.4 -0.2
v -0.3 0.5 -0.2
v -0.3 0.6 -0.2
v -0.3 0.9 -0.2
v -0.3 1.9 -0.2
v -0.3 2 -0.2
v -0.3 2.1 -0.2
v 0.3 0.4 -0.2
v 0.3 0.5 -0.2
v 0.3 0.6 -0.2
v 0.3 0.9 -0.2
v 0.3 1.9 -0.2
v 0.3 2 -0.2
v 0.3 2.1 -0.2
v -0.6 1 -0.4
v -0.6 1.8 -0.4
v -0.5 1 -0.4
v -0.5 1.8 -0.4
v -0.5 1.9 -0.4
v 0.5 1.1 -0.4
v 0.5 1.8 -0.4
v 0.5 1.9 -0.4
v 0.6 1.1 -0.4
v 0.6 1.8 -0.4
v -0.5 0.9 -0.5
v -0.5 1.8 -0.5
v 0.5 0.9 -0.5
v 0.5 1.8 -0.5
v -0.3 0 0.1
v -0.1 0 0.1
v 0.1 0 0.1
v 0.3 0 0.1
v -0.3 0 -0.1
v -0.1 0 -0.1
v 0.1 0 -0.1
v 0.3 0 -0.1
v -0.3 0.4 0.2
v 0.3 0.4 0.2
v -0.5 0.4 0.1
v -0.3 0.4 0.1
v -0.1 0.4 0.1
v 0.1 0.4 0.1
v 0.3 0.4 0.1
v 0.5 0.4 0.1
v -0.5 0.4 -0.1
v -0.3 0.4 -0.1
v -0.1 0.4 -0.1
v 0.1 0.4 -0.1
v 0.3 0.4 -0.1
v 0.5 0.4 -0.1
v -0.3 0.4 -0.2
v 0.3 0.4 -0.2
v 0.1 0.5 0.1
v 0.3 0.5 0.1
v 0.1 0.5 -0.1
v 0.3 0.5 -0.1
v -0.5 0.9 0.4
v 0.5 0.9 0.4
v -0.3 0.9 0.2
v -0.1 0.9 0.2
v 0.1 0.9 0.2
v 0.3 0.9 0.2
v -0.5 0.9 0.1
v -0.3 0.9 0.1
v 0.3 0.9 0.1
v 0.5 0.9 0.1
v -0.5 0.9 -0.1
v -0.3 0.9 -0.1
v 0.3 0.9 -0.1
v 0.5 0.9 -0.1
v -0.3 0.9 -0.2
v 0.3 0.9 -0.2
v -0.5 0.9 -0.4
v 0.5 0.9 -0.4
v -0.5 0.9 -0.5
v 0.5 0.9 -0.5
v -0.6 1 -0.3
v -0.5 1 -0.3
v -0.6 1 -0.4
v -0.5 1 -0.4
v -0.6 1.1 -0.2
v -0.5 1.1 -0.2
v -0.6 1.1 -0.3
v -0.5 1.1 -0.3
v 0.5 1.1 -0.3
v 0.6 1.1 -0.3
v 0.5 1.1 -0.4
v 0.6 1.1 -0.4
v -0.6 1.2 0.1
v -0.5 1.2 0.1
v 0.5 1.2 0.1
v 0.6 1.2 0.1
v -0.6 1.2 0
v -0.5 1.2 0
v 0.5 1.2 0
v 0.6 1.2 0
v -0.6 1.2 -0.1
v -0.5 1.2 -0.1
v 0.5 1.2 -0.1
v 0.6 1.2 -0.1
v -0.6 1.2 -0.2
v -0.5 1.2 -0.2
v 0.5 1.2 -0.2
v 0.6 1.2 -0.2
v 0.5 1.2 -0.3
v 0.6 1.2 -0.3
v 0.5 1.3 0.2
v 0.6 1.3 0.2
v 0.5 1.3 0.1
v 0.6 1.3 0.1
v 0.5 1.3 -0.1
v 0.6 1.3 -0.1
v 0.5 1.3 -0.2
v 0.6 1.3 -0.2
v -0.5 1.4 0.5
v -0.3 1.4 0.5
v -0.6 1.4 0.4
v -0.5 1.4 0.4
v -0.3 1.4 0.4
v 0.5 1.4 0.4
v 0.6 1.4 0.4
v 0.5 1.4 0.2
v 0.6 1.4 0.2
v -0.6 1.4 0.1
v -0.5 1.4 0.1
v -0.3 1.5 0.5
v -0.2 1.5 0.5
v -0.1 1.5 0.5
v 0.4 1.5 0.5
v -0.3 1.5 0.4
v -0.2 1.5 0.4
v -0.1 1.5 0.4
v 0.4 1.5 0.4
v -0.7 1.5 0.3
v -0.6 1.5 0.3
v -0.7 1.5 0.2
v -0.6 1.5 0.2
v -0.2 1.6 0.5
v -0.1 1.6 0.5
v -0.2 1.6 0.4
v -0.1 1.6 0.4
v 0.4 1.7 0.5
v 0.5 1.7 0.5
v 0.4 1.7 0.4
v 0.5 1.7 0.4
v 0.1 0.4 0.1
v 0.3 0.4 0.1
v 0.1 0.4 -0.1
v 0.3 0.4 -0.1
v -0.7 1.6 0.3
v -0.6 1.6 0.3
v -0.7 1.6 0.2
v -0.6 1.6 0.2
v -0.5 1.8 0.5
v 0.5 1.8 0.5
v -0.6 1.8 0.4
v -0.5 1.8 0.4
v 0.5 1.8 0.4
v 0.6 1.8 0.4
v -0.6 1.8 -0.4
v -0.5 1.8 -0.4
v 0.5 1.8 -0.4
v 0.6 1.8 -0.4
v -0.5 1.8 -0.5
v 0.5 1.8 -0.5
v -0.5 1.9 0.4
v 0.5 1.9 0.4
v -0.3 1.9 0.2
v 0.3 1.9 0.2
v -0.3 1.9 -0.2
v 0.3 1.9 -0.2
v -0.5 1.9 -0.4
v 0.5 1.9 -0.4
v -0.3 2.1 0.2
v 0.3 2.1 0.2
v -0.3 2.1 -0.2
v 0.3 2.1 -0.2

# faces
f 3/4/1 2/4/1 1/4/1
f 4/4/1 2/4/1 3/4/1
f 8/4/1 6/4/1 5/4/1
f 12/4/1 8/4/1 7/4/1
f 14/4/1 10/4/1 9/4/1
f 15/3/1 11/3/1 10/3/1
f 15/4/1 10/4/1 14/4/1
f 16/4/1 12/4/1 11/4/1
f 16/3/1 11/3/1 15/3/1
f 17/4/1 14/4/1 13/4/1
f 17/4/1 15/4/1 14/4/1
f 17/4/1 16/4/1 15/4/1
f 18/4/1 16/4/1 17/4/1
f 19/4/1 17/4/1 13/4/1
f 20/4/1 16/4/1 18/4/1
f 21/4/1 19/4/1 13/4/1
f 21/4/1 20/4/1 19/4/1
f 22/4/1 6/4/1 8/4/1
f 22/4/1 20/4/1 21/4/1
f 22/4/1 12/4/1 16/4/1
f 22/4/1 8/4/1 12/4/1
f 22/4/1 16/4/1 20/4/1
f 25/3/1 24/3/1 23/3/1
f 26/3/1 24/3/1 25/3/1
f 27/6/1 26/6/1 25/6/1
f 28/6/1 26/6/1 27/6/1
f 30/1/1 28/1/1 27/1/1
f 31/1/1 28/1/1 30/1/1
f 34/3/1 31/3/1 30/3/1
f 34/3/1 30/3/1 29/3/1
f 34/3/1 32/3/1 31/3/1
f 35/4/1 33/4/1 32/4/1
f 35/3/1 32/3/1 34/3/1
f 36/3/1 34/3/1 29/3/1
f 37/3/1 34/3/1 36/3/1
f 38/3/1 36/3/1 29/3/1
f 39/3/1 36/3/1 38/3/1
f 40/3/1 36/3/1 39/3/1
f 41/3/1 36/3/1 40/3/1
f 43/3/1 38/3/1 29/3/1
f 44/3/1 38/3/1 43/3/1
f 45/4/1 43/4/1 42/4/1
f 46/4/1 43/4/1 45/4/1
f 47/4/1 33/4/1 35/4/1
f 48/4/1 33/4/1 47/4/1
f 49/9/1 47/9/1 46/9/1
f 50/9/1 47/9/1 49/9/1
f 53/9/1 52/9/1 51/9/1
f 54/9/1 52/9/1 53/9/1
f 56/8/1 54/8/1 53/8/1
f 57/8/1 54/8/1 56/8/1
f 59/6/1 56/6/1 55/6/1
f 60/6/1 56/6/1 59/6/1
f 61/8/1 58/8/1 57/8/1
f 62/8/1 58/8/1 61/8/1
f 63/1/1 60/1/1 59/1/1
f 64/6/1 62/6/1 61/6/1
f 65/6/1 62/6/1 64/6/1
f 66/1/1 63/1/1 59/1/1
f 67/1/1 63/1/1 66/1/1
f 68/1/1 65/1/1 64/1/1
f 69/1/1 65/1/1 68/1/1
f 72/7/1 71/7/1 70/7/1
f 73/7/1 71/7/1 72/7/1
f 74/9/1 73/9/1 72/9/1
f 75/9/1 73/9/1 74/9/1
f 78/4/1 77/4/1 76/4/1
f 79/4/1 77/4/1 78/4/1
f 82/9/1 81/9/1 80/9/1
f 83/9/1 81/9/1 82/9/1
f 84/8/1 83/8/1 82/8/1
f 85/8/1 83/8/1 84/8/1
f 88/3/1 87/3/1 86/3/1
f 89/3/1 87/3/1 88/3/1
f 90/4/2 91/4/2 92/4/2
f 92/4/2 91/4/2 93/4/2
f 94/4/2 95/4/2 96/4/2
f 96/4/2 95/4/2 97/4/2
f 98/9/2 99/9/2 100/9/2
f 100/9/2 99/9/2 101/9/2
f 100/8/2 101/8/2 102/8/2
f 102/8/2 101/8/2 103/8/2
f 104/8/2 105/8/2 106/8/2
f 106/8/2 105/8/2 107/8/2
f 108/9/2 109/9/2 110/9/2
f 110/9/2 109/9/2 111/9/2
f 110/8/2 111/8/2 113/8/2
f 113/8/2 111/8/2 114/8/2
f 112/6/2 113/6/2 116/6/2
f 116/6/2 113/6/2 117/6/2
f 114/8/2 115/8/2 118/8/2
f 118/8/2 115/8/2 119/8/2
f 116/1/2 117/1/2 120/1/2
f 118/6/2 119/6/2 121/6/2
f 121/6/2 119/6/2 122/6/2
f 116/1/2 120/1/2 123/1/2
f 123/1/2 120/1/2 124/1/2
f 121/1/2 122/1/2 125/1/2
f 125/1/2 122/1/2 126/1/2
f 127/7/2 128/7/2 129/7/2
f 129/7/2 128/7/2 130/7/2
f 129/9/2 130/9/2 131/9/2
f 131/9/2 130/9/2 132/9/2
f 133/4/2 134/4/2 135/4/2
f 135/4/2 134/4/2 136/4/2
f 137/3/2 138/3/2 139/3/2
f 139/3/2 138/3/2 140/3/2
f 139/6/2 140/6/2 141/6/2
f 141/6/2 140/6/2 142/6/2
f 141/1/2 142/1/2 144/1/2
f 144/1/2 142/1/2 145/1/2
f 144/3/2 145/3/2 148/3/2
f 143/3/2 144/3/2 148/3/2
f 145/3/2 146/3/2 148/3/2
f 146/4/2 147/4/2 149/4/2
f 148/3/2 146/3/2 149/3/2
f 143/3/2 148/3/2 150/3/2
f 150/3/2 148/3/2 151/3/2
f 151/3/2 148/3/2 152/3/2
f 152/3/2 148/3/2 153/3/2
f 153/3/2 148/3/2 154/3/2
f 143/3/2 150/3/2 155/3/2
f 155/3/2 150/3/2 156/3/2
f 152/3/2 153/3/2 157/3/2
f 157/3/2 153/3/2 158/3/2
f 143/3/2 155/3/2 159/3/2
f 159/3/2 155/3/2 160/3/2
f 161/4/2 162/4/2 163/4/2
f 163/4/2 162/4/2 164/4/2
f 149/4/2 147/4/2 165/4/2
f 165/4/2 147/4/2 166/4/2
f 164/9/2 165/9/2 167/9/2
f 167/9/2 165/9/2 168/9/2
f 169/4/2 170/4/2 175/4/2
f 171/4/2 172/4/2 177/4/2
f 172/3/2 173/3/2 178/3/2
f 174/4/2 175/4/2 179/4/2
f 176/4/2 177/4/2 181/4/2
f 172/3/2 178/3/2 182/3/2
f 177/4/2 172/4/2 182/4/2
f 181/4/2 177/4/2 182/4/2
f 178/4/2 179/4/2 183/4/2
f 182/3/2 178/3/2 183/3/2
f 181/4/2 182/4/2 184/4/2
f 180/4/2 181/4/2 184/4/2
f 182/4/2 183/4/2 184/4/2
f 183/4/2 179/4/2 185/4/2
f 184/4/2 183/4/2 185/4/2
f 179/4/2 175/4/2 185/4/2
f 175/4/2 170/4/2 185/4/2
f 188/4/3 187/4/3 186/4/3
f 189/4/3 187/4/3 188/4/3
f 190/4/3 187/4/3 189/4/3
f 191/4/3 187/4/3 190/4/3
f 193/4/3 187/4/3 191/4/3
f 194/4/3 193/4/3 192/4/3
f 195/4/3 187/4/3 193/4/3
f 195/4/3 193/4/3 194/4/3
f 196/4/3 187/4/3 195/4/3
f 197/4/3 187/4/3 196/4/3
f 201/4/3 199/4/3 198/4/3
f 202/4/3 199/4/3 201/4/3
f 204/3/3 201/3/3 200/3/3
f 205/3/3 201/3/3 204/3/3
f 207/3/3 204/3/3 200/3/3
f 207/1/3 205/1/3 204/1/3
f 208/3/3 206/3/3 205/3/3
f 208/1/3 205/1/3 207/1/3
f 209/3/3 206/3/3 208/3/3
f 211/3/3 207/3/3 200/3/3
f 211/3/3 210/3/3 209/3/3
f 211/3/3 209/3/3 208/3/3
f 211/3/3 208/3/3 207/3/3
f 212/3/3 210/3/3 211/3/3
f 213/3/3 210/3/3 212/3/3
f 214/3/3 210/3/3 213/3/3
f 215/3/3 211/3/3 200/3/3
f 215/2/3 212/2/3 211/2/3
f 216/3/3 213/3/3 212/3/3
f 216/2/3 212/2/3 215/2/3
f 217/3/3 216/3/3 215/3/3
f 217/3/3 213/3/3 216/3/3
f 218/3/3 213/3/3 217/3/3
f 219/3/3 217/3/3 215/3/3
f 219/1/3 218/1/3 217/1/3
f 220/3/3 213/3/3 218/3/3
f 220/1/3 218/1/3 219/1/3
f 221/3/3 220/3/3 219/3/3
f 221/3/3 213/3/3 220/3/3
f 223/3/3 221/3/3 219/3/3
f 223/3/3 222/3/3 221/3/3
f 223/3/3 219/3/3 215/3/3
f 223/3/3 215/3/3 200/3/3
f 224/3/3 222/3/3 223/3/3
f 225/3/3 222/3/3 224/3/3
f 226/9/3 203/9/3 202/9/3
f 227/9/3 203/9/3 226/9/3
f 228/4/3 225/4/3 224/4/3
f 228/4/3 226/4/3 225/4/3
f 229/4/3 226/4/3 228/4/3
f 232/4/3 231/4/3 230/4/3
f 233/4/3 231/4/3 232/4/3
f 240/6/3 235/6/3 234/6/3
f 240/1/3 236/1/3 235/1/3
f 241/1/3 236/1/3 240/1/3
f 242/6/3 240/6/3 234/6/3
f 242/6/3 241/6/3 240/6/3
f 243/6/3 241/6/3 242/6/3
f 244/6/3 242/6/3 234/6/3
f 245/1/3 243/1/3 242/1/3
f 245/6/3 242/6/3 244/6/3
f 246/1/3 243/1/3 245/1/3
f 247/7/3 238/7/3 237/7/3
f 248/9/3 239/9/3 238/9/3
f 248/7/3 238/7/3 247/7/3
f 249/9/3 239/9/3 248/9/3
f 252/4/3 251/4/3 250/4/3
f 253/4/3 251/4/3 252/4/3
f 260/4/3 255/4/3 254/4/3
f 261/4/3 255/4/3 260/4/3
f 264/3/3 257/3/3 256/3/3
f 265/6/3 258/6/3 257/6/3
f 265/3/3 257/3/3 264/3/3
f 266/1/3 259/1/3 258/1/3
f 266/6/3 258/6/3 265/6/3
f 267/1/3 259/1/3 266/1/3
f 268/9/3 263/9/3 262/9/3
f 269/8/3 264/8/3 263/8/3
f 269/9/3 263/9/3 268/9/3
f 270/8/3 264/8/3 269/8/3
f 274/9/3 272/9/3 271/9/3
f 275/8/3 273/8/3 272/8/3
f 275/9/3 272/9/3 274/9/3
f 276/8/3 273/8/3 275/8/3
f 280/3/3 277/3/3 276/3/3
f 281/6/3 278/6/3 277/6/3
f 281/3/3 277/3/3 280/3/3
f 282/1/3 279/1/3 278/1/3
f 282/6/3 278/6/3 281/6/3
f 283/1/3 279/1/3 282/1/3
f 286/4/3 285/4/3 284/4/3
f 287/4/3 285/4/3 286/4/3
f 290/8/3 289/8/3 288/8/3
f 291/8/3 289/8/3 290/8/3
f 294/4/3 293/4/3 292/4/3
f 295/4/3 293/4/3 294/4/3
f 298/4/3 297/4/3 296/4/3
f 299/4/3 297/4/3 298/4/3
f 302/4/3 301/4/3 300/4/3
f 303/4/3 301/4/3 302/4/3
f 306/4/3 305/4/3 304/4/3
f 307/4/3 305/4/3 306/4/3
f 308/4/4 309/4/4 310/4/4
f 310/4/4 309/4/4 311/4/4
f 312/6/4 313/6/4 314/6/4
f 314/6/4 313/6/4 315/6/4
f 316/3/4 317/3/4 322/3/4
f 317/6/4 318/6/4 323/6/4
f 322/3/4 317/3/4 323/3/4
f 318/1/4 319/1/4 324/1/4
f 323/6/4 318/6/4 324/6/4
f 324/1/4 319/1/4 325/1/4
f 320/9/4 321/9/4 326/9/4
f 321/8/4 322/8/4 327/8/4
f 326/9/4 321/9/4 327/9/4
f 327/8/4 322/8/4 328/8/4
f 329/9/4 330/9/4 332/9/4
f 330/8/4 331/8/4 333/8/4
f 332/9/4 330/9/4 333/9/4
f 333/8/4 331/8/4 334/8/4
f 334/3/4 335/3/4 338/3/4
f 335/6/4 336/6/4 339/6/4
f 338/3/4 335/3/4 339/3/4
f 336/1/4 337/1/4 340/1/4
f 339/6/4 336/6/4 340/6/4
f 340/1/4 337/1/4 341/1/4
f 342/3/4 343/3/4 344/3/4
f 344/3/4 343/3/4 345/3/4
f 346/8/4 347/8/4 353/8/4
f 347/6/4 348/6/4 354/6/4
f 353/8/4 347/8/4 354/8/4
f 348/1/4 349/1/4 355/1/4
f 354/6/4 348/6/4 355/6/4
f 355/1/4 349/1/4 356/1/4
f 350/7/4 351/7/4 357/7/4
f 351/9/4 352/9/4 358/9/4
f 357/7/4 351/7/4 358/7/4
f 358/9/4 352/9/4 359/9/4
f 360/4/4 361/4/4 362/4/4
f 362/4/4 361/4/4 363/4/4
f 363/9/4 364/9/4 366/9/4
f 366/9/4 364/9/4 367/9/4
f 365/4/4 366/4/4 368/4/4
f 368/4/4 366/4/4 369/4/4
f 370/4/4 371/4/4 372/4/4
f 372/4/4 371/4/4 373/4/4
f 378/9/5 375/9/5 374/9/5
f 379/9/5 375/9/5 378/9/5
f 380/9/5 377/9/5 376/9/5
f 381/9/5 377/9/5 380/9/5
f 385/6/5 383/6/5 382/6/5
f 386/6/5 383/6/5 385/6/5
f 387/6/5 383/6/5 386/6/5
f 388/6/5 383/6/5 387/6/5
f 390/3/5 385/3/5 384/3/5
f 391/3/5 385/3/5 390/3/5
f 392/8/5 387/8/5 386/8/5
f 393/8/5 387/8/5 392/8/5
f 394/3/5 389/3/5 388/3/5
f 395/3/5 389/3/5 394/3/5
f 396/8/5 393/8/5 392/8/5
f 396/8/5 394/8/5 393/8/5
f 396/8/5 392/8/5 391/8/5
f 397/8/5 394/8/5 396/8/5
f 400/1/5 399/1/5 398/1/5
f 401/1/5 399/1/5 400/1/5
f 404/3/5 403/3/5 402/3/5
f 405/3/5 403/3/5 404/3/5
f 406/3/5 403/3/5 405/3/5
f 407/3/5 403/3/5 406/3/5
f 408/3/5 404/3/5 402/3/5
f 409/3/5 404/3/5 408/3/5
f 410/3/5 403/3/5 407/3/5
f 411/3/5 403/3/5 410/3/5
f 416/3/5 413/3/5 412/3/5
f 417/3/5 415/3/5 414/3/5
f 418/3/5 416/3/5 412/3/5
f 418/3/5 417/3/5 416/3/5
f 419/3/5 415/3/5 417/3/5
f 419/3/5 417/3/5 418/3/5
f 420/4/5 419/4/5 418/4/5
f 421/4/5 419/4/5 420/4/5
f 424/4/5 423/4/5 422/4/5
f 425/4/5 423/4/5 424/4/5
f 428/4/5 427/4/5 426/4/5
f 429/4/5 427/4/5 428/4/5
f 432/4/5 431/4/5 430/4/5
f 433/4/5 431/4/5 432/4/5
f 438/4/5 435/4/5 434/4/5
f 439/4/5 435/4/5 438/4/5
f 440/4/5 437/4/5 436/4/5
f 441/4/5 437/4/5 440/4/5
f 442/3/5 439/3/5 438/3/5
f 443/3/5 439/3/5 442/3/5
f 444/3/5 441/3/5 440/3/5
f 445/3/5 441/3/5 444/3/5
f 446/4/5 443/4/5 442/4/5
f 447/4/5 443/4/5 446/4/5
f 450/4/5 449/4/5 448/4/5
f 451/4/5 449/4/5 450/4/5
f 454/4/5 453/4/5 452/4/5
f 455/4/5 453/4/5 454/4/5
f 458/4/5 457/4/5 456/4/5
f 459/4/5 457/4/5 458/4/5
f 463/4/5 461/4/5 460/4/5
f 464/4/5 461/4/5 463/4/5
f 467/4/5 466/4/5 465/4/5
f 468/4/5 466/4/5 467/4/5
f 469/4/5 463/4/5 462/4/5
f 470/4/5 463/4/5 469/4/5
f 475/4/5 472/4/5 471/4/5
f 476/4/5 472/4/5 475/4/5
f 477/4/5 474/4/5 473/4/5
f 478/4/5 474/4/5 477/4/5
f 481/4/5 480/4/5 479/4/5
f 482/4/5 480/4/5 481/4/5
f 485/4/5 484/4/5 483/4/5
f 486/4/5 484/4/5 485/4/5
f 489/4/5 488/4/5 487/4/5
f 490/4/5 488/4/5 489/4/5
f 491/8/6 492/8/6 493/8/6
f 493/8/6 492/8/6 494/8/6
f 495/4/6 496/4/6 497/4/6
f 497/4/6 496/4/6 498/4/6
f 499/4/6 500/4/6 502/4/6
f 502/4/6 500/4/6 503/4/6
f 501/4/6 502/4/6 505/4/6
f 505/4/6 502/4/6 506/4/6
f 503/4/6 504/4/6 507/4/6
f 507/4/6 504/4/6 508/4/6
f 506/4/6 507/4/6 509/4/6
f 509/4/6 507/4/6 510/4/6
f 511/9/6 512/9/6 513/9/6
f 513/9/6 512/9/6 514/9/6
f 511/9/6 513/9/6 515/9/6
f 514/9/6 512/9/6 516/9/6
f 511/9/6 515/9/6 517/9/6
f 515/9/6 516/9/6 517/9/6
f 516/9/6 512/9/6 518/9/6
f 517/9/6 516/9/6 518/9/6
f 519/9/6 520/9/6 521/9/6
f 521/9/6 520/9/6 522/9/6
