# MagicaVoxel @ Ephtracy

# group
o 

# material
mtllib worker_16.mtl
usemtl palette

# normals
vn -1 0 0
vn 1 0 0
vn 0 0 1
vn 0 0 -1
vn 0 -1 0
vn 0 1 0

# texcoords
vt 0.287109 0.5
vt 0.712891 0.5
vt 0.841797 0.5
vt 0.955078 0.5
vt 0.958984 0.5
vt 0.990234 0.5
vt 0.994141 0.5

# verts
v -0.6 1.2 0
v -0.6 1.2 -0.1
v -0.6 1.3 0.5
v -0.6 1.3 0
v -0.6 1.4 0.5
v -0.6 1.4 0
v -0.6 1.4 -0.1
v -0.5 0.4 0.8
v -0.5 0.4 0.5
v -0.5 0.5 0.5
v -0.5 0.5 0.3
v -0.5 0.5 -0.1
v -0.5 0.6 0.3
v -0.5 0.6 0.2
v -0.5 0.7 0.8
v -0.5 0.7 0.5
v -0.5 0.7 0.3
v -0.5 0.7 0.2
v -0.5 0.7 0.1
v -0.5 0.9 0.4
v -0.5 0.9 0.1
v -0.5 0.9 -0.1
v -0.5 0.9 -0.4
v -0.5 1.1 0.6
v -0.5 1.1 0.5
v -0.5 1.2 0
v -0.5 1.2 -0.1
v -0.5 1.3 0.5
v -0.5 1.3 0.4
v -0.5 1.3 0
v -0.5 1.4 0.5
v -0.5 1.4 0.4
v -0.5 1.4 0
v -0.5 1.4 -0.1
v -0.5 1.5 0.6
v -0.5 1.5 0.5
v -0.5 1.8 0.4
v -0.5 1.8 -0.4
v -0.3 0 0.1
v -0.3 0 -0.1
v -0.3 0.1 0.1
v -0.3 0.1 -0.1
v -0.3 0.4 0.2
v -0.3 0.4 0.1
v -0.3 0.4 -0.1
v -0.3 0.4 -0.2
v -0.3 0.5 0.2
v -0.3 0.5 -0.1
v -0.3 0.5 -0.2
v -0.3 0.7 0.3
v -0.3 0.7 0.1
v -0.3 0.9 0.3
v -0.3 0.9 0.1
v -0.3 0.9 -0.1
v -0.3 0.9 -0.2
v -0.1 0.5 0.4
v -0.1 0.5 0.3
v -0.1 0.9 0.4
v -0.1 0.9 0.3
v -0.1 1.2 0.6
v -0.1 1.2 0.5
v -0.1 1.4 0.6
v -0.1 1.4 0.5
v 0.1 0 0.1
v 0.1 0 -0.1
v 0.1 0.1 0.1
v 0.1 0.1 -0.1
v 0.1 0.4 0.1
v 0.1 0.4 -0.1
v 0.1 1.1 0.6
v 0.1 1.1 0.5
v 0.1 1.2 0.6
v 0.1 1.2 0.5
v 0.1 1.4 0.6
v 0.1 1.4 0.5
v 0.1 1.5 0.6
v 0.1 1.5 0.5
v 0.3 0.4 0.1
v 0.3 0.4 -0.1
v 0.3 0.5 0.1
v 0.3 0.5 -0.1
v 0.4 0.2 0.4
v 0.4 0.2 -0.1
v 0.4 0.4 0.1
v 0.4 0.4 -0.1
v 0.4 0.5 0.4
v 0.4 0.5 0.1
v 0.4 1.2 0.6
v 0.4 1.2 0.5
v 0.4 1.4 0.6
v 0.4 1.4 0.5
v 0.5 1.3 0.5
v 0.5 1.3 0.4
v 0.5 1.4 0.5
v 0.5 1.4 0.4
v -0.5 1.3 0.5
v -0.5 1.3 0.4
v -0.5 1.4 0.5
v -0.5 1.4 0.4
v -0.4 1.2 0.6
v -0.4 1.2 0.5
v -0.4 1.4 0.6
v -0.4 1.4 0.5
v -0.3 0.5 0.5
v -0.3 0.5 0.4
v -0.3 0.5 0.3
v -0.3 0.7 0.5
v -0.3 0.7 0.4
v -0.3 0.7 0.3
v -0.2 0.4 0.8
v -0.2 0.4 0.5
v -0.2 0.7 0.8
v -0.2 0.7 0.5
v -0.1 0 0.1
v -0.1 0 -0.1
v -0.1 0.1 0.1
v -0.1 0.1 -0.1
v -0.1 0.4 0.1
v -0.1 0.4 -0.1
v -0.1 1.1 0.6
v -0.1 1.1 0.5
v -0.1 1.2 0.6
v -0.1 1.2 0.5
v -0.1 1.4 0.6
v -0.1 1.4 0.5
v -0.1 1.5 0.6
v -0.1 1.5 0.5
v 0 0.5 0.4
v 0 0.5 0.3
v 0 0.9 0.4
v 0 0.9 0.3
v 0.1 0.4 0.1
v 0.1 0.4 -0.1
v 0.1 0.5 0.1
v 0.1 0.5 -0.1
v 0.1 1.2 0.6
v 0.1 1.2 0.5
v 0.1 1.4 0.6
v 0.1 1.4 0.5
v 0.3 0 0.1
v 0.3 0 -0.1
v 0.3 0.1 0.1
v 0.3 0.1 -0.1
v 0.3 0.4 0.2
v 0.3 0.4 0.1
v 0.3 0.4 -0.1
v 0.3 0.4 -0.2
v 0.3 0.5 0.3
v 0.3 0.5 0.2
v 0.3 0.5 0.1
v 0.3 0.5 -0.1
v 0.3 0.5 -0.2
v 0.3 0.9 0.3
v 0.3 0.9 0.1
v 0.3 0.9 -0.1
v 0.3 0.9 -0.2
v 0.5 0.2 0.4
v 0.5 0.2 -0.1
v 0.5 0.4 0.1
v 0.5 0.4 -0.1
v 0.5 0.5 0.4
v 0.5 0.5 0.1
v 0.5 0.5 0
v 0.5 0.5 -0.1
v 0.5 0.6 0
v 0.5 0.6 -0.1
v 0.5 0.9 0.4
v 0.5 0.9 0.1
v 0.5 0.9 -0.1
v 0.5 0.9 -0.4
v 0.5 1.1 0.6
v 0.5 1.1 0.5
v 0.5 1.2 0
v 0.5 1.2 -0.1
v 0.5 1.3 0.5
v 0.5 1.3 0.4
v 0.5 1.3 0
v 0.5 1.4 0.5
v 0.5 1.4 0.4
v 0.5 1.4 0
v 0.5 1.4 -0.1
v 0.5 1.5 0.6
v 0.5 1.5 0.5
v 0.5 1.8 0.4
v 0.5 1.8 -0.4
v 0.6 1.2 0
v 0.6 1.2 -0.1
v 0.6 1.3 0.5
v 0.6 1.3 0
v 0.6 1.4 0.5
v 0.6 1.4 0
v 0.6 1.4 -0.1
v -0.5 0.4 0.8
v -0.5 0.7 0.8
v -0.2 0.4 0.8
v -0.2 0.7 0.8
v -0.5 1.1 0.6
v -0.5 1.5 0.6
v -0.4 1.2 0.6
v -0.4 1.4 0.6
v -0.1 1.1 0.6
v -0.1 1.2 0.6
v -0.1 1.4 0.6
v -0.1 1.5 0.6
v 0.1 1.1 0.6
v 0.1 1.2 0.6
v 0.1 1.4 0.6
v 0.1 1.5 0.6
v 0.4 1.2 0.6
v 0.4 1.4 0.6
v 0.5 1.1 0.6
v 0.5 1.5 0.6
v -0.6 1.3 0.5
v -0.6 1.4 0.5
v -0.5 1.3 0.5
v -0.5 1.4 0.5
v 0.5 1.3 0.5
v 0.5 1.4 0.5
v 0.6 1.3 0.5
v 0.6 1.4 0.5
v -0.5 0.9 0.4
v -0.5 1.3 0.4
v -0.5 1.4 0.4
v -0.5 1.8 0.4
v -0.3 1.2 0.4
v -0.3 1.4 0.4
v -0.2 0.9 0.4
v -0.2 1.1 0.4
v -0.2 1.2 0.4
v -0.2 1.4 0.4
v -0.1 0.5 0.4
v -0.1 0.9 0.4
v -0.1 1 0.4
v -0.1 1.1 0.4
v -0.1 1.2 0.4
v 0 0.5 0.4
v 0 0.9 0.4
v 0.1 1 0.4
v 0.1 1.1 0.4
v 0.1 1.2 0.4
v 0.2 0.9 0.4
v 0.2 1.1 0.4
v 0.2 1.2 0.4
v 0.2 1.4 0.4
v 0.3 1.2 0.4
v 0.3 1.4 0.4
v 0.4 0.2 0.4
v 0.4 0.5 0.4
v 0.5 0.2 0.4
v 0.5 0.5 0.4
v 0.5 0.9 0.4
v 0.5 1.3 0.4
v 0.5 1.4 0.4
v 0.5 1.8 0.4
v -0.3 0.5 0.3
v -0.3 0.7 0.3
v -0.3 0.9 0.3
v -0.2 0.9 0.3
v -0.1 0.5 0.3
v -0.1 0.9 0.3
v 0 0.5 0.3
v 0 0.9 0.3
v 0.2 0.9 0.3
v 0.3 0.5 0.3
v 0.3 0.9 0.3
v -0.3 0.4 0.2
v -0.3 0.5 0.2
v 0.3 0.4 0.2
v 0.3 0.5 0.2
v -0.5 0.7 0.1
v -0.5 0.9 0.1
v -0.3 0 0.1
v -0.3 0.1 0.1
v -0.3 0.4 0.1
v -0.3 0.7 0.1
v -0.3 0.9 0.1
v -0.1 0 0.1
v -0.1 0.1 0.1
v -0.1 0.4 0.1
v 0.1 0 0.1
v 0.1 0.1 0.1
v 0.1 0.4 0.1
v 0.3 0 0.1
v 0.3 0.1 0.1
v 0.3 0.4 0.1
v 0.3 0.5 0.1
v 0.3 0.9 0.1
v 0.4 0.4 0.1
v 0.4 0.5 0.1
v 0.5 0.5 0.1
v 0.5 0.9 0.1
v -0.6 1.2 0
v -0.6 1.3 0
v -0.5 1.2 0
v -0.5 1.3 0
v 0.5 1.2 0
v 0.5 1.3 0
v 0.6 1.2 0
v 0.6 1.3 0
v 0.1 0.4 -0.1
v 0.1 0.5 -0.1
v 0.3 0.4 -0.1
v 0.3 0.5 -0.1
v -0.5 0.4 0.5
v -0.5 0.5 0.5
v -0.5 1.1 0.5
v -0.5 1.3 0.5
v -0.5 1.4 0.5
v -0.5 1.5 0.5
v -0.4 0.5 0.5
v -0.4 1.2 0.5
v -0.4 1.4 0.5
v -0.3 0.5 0.5
v -0.3 0.7 0.5
v -0.2 0.4 0.5
v -0.2 0.7 0.5
v -0.1 1.1 0.5
v -0.1 1.2 0.5
v -0.1 1.4 0.5
v -0.1 1.5 0.5
v 0.1 1.1 0.5
v 0.1 1.2 0.5
v 0.1 1.4 0.5
v 0.1 1.5 0.5
v 0.4 1.2 0.5
v 0.4 1.4 0.5
v 0.5 1.1 0.5
v 0.5 1.3 0.5
v 0.5 1.4 0.5
v 0.5 1.5 0.5
v 0.1 0.4 0.1
v 0.1 0.5 0.1
v 0.3 0.4 0.1
v 0.3 0.5 0.1
v -0.6 1.2 -0.1
v -0.6 1.4 -0.1
v -0.5 0.5 -0.1
v -0.5 0.9 -0.1
v -0.5 1.2 -0.1
v -0.5 1.4 -0.1
v -0.3 0 -0.1
v -0.3 0.1 -0.1
v -0.3 0.4 -0.1
v -0.3 0.5 -0.1
v -0.3 0.9 -0.1
v -0.1 0 -0.1
v -0.1 0.1 -0.1
v -0.1 0.4 -0.1
v 0.1 0 -0.1
v 0.1 0.1 -0.1
v 0.1 0.4 -0.1
v 0.3 0 -0.1
v 0.3 0.1 -0.1
v 0.3 0.4 -0.1
v 0.3 0.5 -0.1
v 0.3 0.9 -0.1
v 0.4 0.2 -0.1
v 0.4 0.4 -0.1
v 0.4 0.5 -0.1
v 0.4 0.6 -0.1
v 0.5 0.2 -0.1
v 0.5 0.4 -0.1
v 0.5 0.5 -0.1
v 0.5 0.6 -0.1
v 0.5 0.9 -0.1
v 0.5 1.2 -0.1
v 0.5 1.4 -0.1
v 0.6 1.2 -0.1
v 0.6 1.4 -0.1
v -0.3 0.4 -0.2
v -0.3 0.5 -0.2
v -0.3 0.9 -0.2
v 0.3 0.4 -0.2
v 0.3 0.5 -0.2
v 0.3 0.9 -0.2
v -0.5 0.9 -0.4
v -0.5 1.8 -0.4
v 0.5 0.9 -0.4
v 0.5 1.8 -0.4
v -0.3 0 0.1
v -0.1 0 0.1
v 0.1 0 0.1
v 0.3 0 0.1
v -0.3 0 -0.1
v -0.1 0 -0.1
v 0.1 0 -0.1
v 0.3 0 -0.1
v 0.4 0.2 0.4
v 0.5 0.2 0.4
v 0.4 0.2 -0.1
v 0.5 0.2 -0.1
v -0.5 0.4 0.8
v -0.2 0.4 0.8
v -0.5 0.4 0.5
v -0.2 0.4 0.5
v -0.3 0.4 0.2
v 0.3 0.4 0.2
v -0.3 0.4 0.1
v -0.1 0.4 0.1
v 0.1 0.4 0.1
v 0.3 0.4 0.1
v 0.4 0.4 0.1
v -0.3 0.4 -0.1
v -0.1 0.4 -0.1
v 0.1 0.4 -0.1
v 0.3 0.4 -0.1
v 0.4 0.4 -0.1
v -0.3 0.4 -0.2
v 0.3 0.4 -0.2
v -0.5 0.5 0.5
v -0.4 0.5 0.5
v -0.3 0.5 0.5
v -0.4 0.5 0.4
v -0.3 0.5 0.4
v -0.1 0.5 0.4
v 0 0.5 0.4
v -0.5 0.5 0.3
v -0.3 0.5 0.3
v -0.1 0.5 0.3
v 0 0.5 0.3
v 0.3 0.5 0.3
v -0.3 0.5 0.2
v 0.3 0.5 0.2
v 0.1 0.5 0.1
v 0.3 0.5 0.1
v -0.5 0.5 -0.1
v -0.3 0.5 -0.1
v 0.1 0.5 -0.1
v 0.3 0.5 -0.1
v -0.5 0.9 0.4
v -0.2 0.9 0.4
v -0.1 0.9 0.4
v 0 0.9 0.4
v 0.2 0.9 0.4
v 0.5 0.9 0.4
v -0.3 0.9 0.3
v -0.2 0.9 0.3
v -0.1 0.9 0.3
v 0 0.9 0.3
v 0.2 0.9 0.3
v 0.3 0.9 0.3
v -0.5 0.9 0.1
v -0.3 0.9 0.1
v 0.3 0.9 0.1
v 0.5 0.9 0.1
v -0.5 0.9 -0.1
v -0.3 0.9 -0.1
v 0.3 0.9 -0.1
v 0.5 0.9 -0.1
v -0.3 0.9 -0.2
v 0.3 0.9 -0.2
v -0.5 0.9 -0.4
v 0.5 0.9 -0.4
v -0.5 1.1 0.6
v -0.1 1.1 0.6
v 0.1 1.1 0.6
v 0.5 1.1 0.6
v -0.5 1.1 0.5
v -0.1 1.1 0.5
v 0.1 1.1 0.5
v 0.5 1.1 0.5
v -0.1 1.2 0.6
v 0.1 1.2 0.6
v -0.1 1.2 0.5
v 0.1 1.2 0.5
v -0.6 1.2 0
v -0.5 1.2 0
v 0.5 1.2 0
v 0.6 1.2 0
v -0.6 1.2 -0.1
v -0.5 1.2 -0.1
v 0.5 1.2 -0.1
v 0.6 1.2 -0.1
v -0.6 1.3 0.5
v -0.5 1.3 0.5
v 0.5 1.3 0.5
v 0.6 1.3 0.5
v -0.5 1.3 0.4
v 0.5 1.3 0.4
v -0.6 1.3 0
v -0.5 1.3 0
v 0.5 1.3 0
v 0.6 1.3 0
v -0.4 1.4 0.6
v -0.1 1.4 0.6
v 0.1 1.4 0.6
v 0.4 1.4 0.6
v -0.4 1.4 0.5
v -0.1 1.4 0.5
v 0.1 1.4 0.5
v 0.4 1.4 0.5
v 0.1 0.4 0.1
v 0.3 0.4 0.1
v 0.1 0.4 -0.1
v 0.3 0.4 -0.1
v 0.4 0.5 0.4
v 0.5 0.5 0.4
v 0.4 0.5 0.1
v 0.5 0.5 0.1
v -0.5 0.7 0.8
v -0.2 0.7 0.8
v -0.4 0.7 0.7
v -0.3 0.7 0.7
v -0.4 0.7 0.6
v -0.3 0.7 0.6
v -0.5 0.7 0.5
v -0.4 0.7 0.5
v -0.3 0.7 0.5
v -0.2 0.7 0.5
v -0.4 0.7 0.4
v -0.3 0.7 0.4
v -0.5 0.7 0.3
v -0.4 0.7 0.3
v -0.3 0.7 0.3
v -0.5 0.7 0.2
v -0.4 0.7 0.2
v -0.5 0.7 0.1
v -0.3 0.7 0.1
v -0.4 1.2 0.6
v -0.1 1.2 0.6
v 0.1 1.2 0.6
v 0.4 1.2 0.6
v -0.4 1.2 0.5
v -0.1 1.2 0.5
v 0.1 1.2 0.5
v 0.4 1.2 0.5
v -0.1 1.4 0.6
v 0.1 1.4 0.6
v -0.6 1.4 0.5
v -0.5 1.4 0.5
v -0.1 1.4 0.5
v 0.1 1.4 0.5
v 0.5 1.4 0.5
v 0.6 1.4 0.5
v -0.5 1.4 0.4
v 0.5 1.4 0.4
v -0.6 1.4 0
v -0.5 1.4 0
v 0.5 1.4 0
v 0.6 1.4 0
v -0.6 1.4 -0.1
v -0.5 1.4 -0.1
v 0.5 1.4 -0.1
v 0.6 1.4 -0.1
v -0.5 1.5 0.6
v -0.1 1.5 0.6
v 0.1 1.5 0.6
v 0.5 1.5 0.6
v -0.5 1.5 0.5
v -0.1 1.5 0.5
v 0.1 1.5 0.5
v 0.5 1.5 0.5
v -0.5 1.8 0.4
v 0.5 1.8 0.4
v -0.5 1.8 -0.4
v 0.5 1.8 -0.4

# faces
f 4/1/1 2/1/1 1/1/1
f 5/7/1 4/7/1 3/7/1
f 6/1/1 2/1/1 4/1/1
f 6/7/1 4/7/1 5/7/1
f 7/1/1 2/1/1 6/1/1
f 10/7/1 9/7/1 8/7/1
f 13/1/1 11/1/1 10/1/1
f 13/5/1 12/5/1 11/5/1
f 14/5/1 12/5/1 13/5/1
f 15/7/1 10/7/1 8/7/1
f 16/1/1 13/1/1 10/1/1
f 16/7/1 10/7/1 15/7/1
f 17/7/1 14/7/1 13/7/1
f 17/1/1 13/1/1 16/1/1
f 18/5/1 12/5/1 14/5/1
f 18/7/1 14/7/1 17/7/1
f 19/5/1 12/5/1 18/5/1
f 21/5/1 12/5/1 19/5/1
f 22/5/1 12/5/1 21/5/1
f 26/1/1 21/1/1 20/1/1
f 26/1/1 22/1/1 21/1/1
f 26/1/1 23/1/1 22/1/1
f 27/1/1 23/1/1 26/1/1
f 28/7/1 25/7/1 24/7/1
f 29/1/1 26/1/1 20/1/1
f 30/1/1 26/1/1 29/1/1
f 31/7/1 28/7/1 24/7/1
f 34/1/1 23/1/1 27/1/1
f 35/7/1 31/7/1 24/7/1
f 36/7/1 31/7/1 35/7/1
f 37/1/1 33/1/1 32/1/1
f 37/1/1 34/1/1 33/1/1
f 38/1/1 23/1/1 34/1/1
f 38/1/1 34/1/1 37/1/1
f 41/7/1 40/7/1 39/7/1
f 42/7/1 40/7/1 41/7/1
f 44/6/1 42/6/1 41/6/1
f 45/6/1 42/6/1 44/6/1
f 47/6/1 45/6/1 44/6/1
f 47/6/1 46/6/1 45/6/1
f 47/6/1 44/6/1 43/6/1
f 48/6/1 46/6/1 47/6/1
f 49/6/1 46/6/1 48/6/1
f 52/5/1 51/5/1 50/5/1
f 53/5/1 51/5/1 52/5/1
f 54/5/1 49/5/1 48/5/1
f 55/5/1 49/5/1 54/5/1
f 58/7/1 57/7/1 56/7/1
f 59/7/1 57/7/1 58/7/1
f 62/7/1 61/7/1 60/7/1
f 63/7/1 61/7/1 62/7/1
f 66/7/1 65/7/1 64/7/1
f 67/7/1 65/7/1 66/7/1
f 68/6/1 67/6/1 66/6/1
f 69/6/1 67/6/1 68/6/1
f 72/7/1 71/7/1 70/7/1
f 73/7/1 71/7/1 72/7/1
f 76/7/1 75/7/1 74/7/1
f 77/7/1 75/7/1 76/7/1
f 80/1/1 79/1/1 78/1/1
f 81/1/1 79/1/1 80/1/1
f 84/5/1 83/5/1 82/5/1
f 85/5/1 83/5/1 84/5/1
f 86/5/1 84/5/1 82/5/1
f 87/5/1 84/5/1 86/5/1
f 90/7/1 89/7/1 88/7/1
f 91/7/1 89/7/1 90/7/1
f 94/7/1 93/7/1 92/7/1
f 95/7/1 93/7/1 94/7/1
f 96/7/2 97/7/2 98/7/2
f 98/7/2 97/7/2 99/7/2
f 100/7/2 101/7/2 102/7/2
f 102/7/2 101/7/2 103/7/2
f 104/7/2 105/7/2 107/7/2
f 105/1/2 106/1/2 108/1/2
f 107/7/2 105/7/2 108/7/2
f 108/1/2 106/1/2 109/1/2
f 110/7/2 111/7/2 112/7/2
f 112/7/2 111/7/2 113/7/2
f 114/7/2 115/7/2 116/7/2
f 116/7/2 115/7/2 117/7/2
f 116/6/2 117/6/2 118/6/2
f 118/6/2 117/6/2 119/6/2
f 120/7/2 121/7/2 122/7/2
f 122/7/2 121/7/2 123/7/2
f 124/7/2 125/7/2 126/7/2
f 126/7/2 125/7/2 127/7/2
f 128/7/2 129/7/2 130/7/2
f 130/7/2 129/7/2 131/7/2
f 132/6/2 133/6/2 134/6/2
f 134/6/2 133/6/2 135/6/2
f 136/7/2 137/7/2 138/7/2
f 138/7/2 137/7/2 139/7/2
f 140/7/2 141/7/2 142/7/2
f 142/7/2 141/7/2 143/7/2
f 142/6/2 143/6/2 145/6/2
f 145/6/2 143/6/2 146/6/2
f 144/6/2 145/6/2 149/6/2
f 149/6/2 145/6/2 150/6/2
f 146/6/2 147/6/2 151/6/2
f 151/6/2 147/6/2 152/6/2
f 149/5/2 150/5/2 153/5/2
f 148/5/2 149/5/2 153/5/2
f 153/5/2 150/5/2 154/5/2
f 151/5/2 152/5/2 155/5/2
f 155/5/2 152/5/2 156/5/2
f 157/5/2 158/5/2 159/5/2
f 159/5/2 158/5/2 160/5/2
f 157/5/2 159/5/2 161/5/2
f 159/1/2 160/1/2 162/1/2
f 161/5/2 159/5/2 162/5/2
f 162/1/2 160/1/2 163/1/2
f 163/1/2 160/1/2 164/1/2
f 162/5/2 163/5/2 165/5/2
f 163/7/2 164/7/2 165/7/2
f 165/7/2 164/7/2 166/7/2
f 162/5/2 165/5/2 168/5/2
f 165/5/2 166/5/2 168/5/2
f 168/5/2 166/5/2 169/5/2
f 168/1/2 169/1/2 173/1/2
f 167/1/2 168/1/2 173/1/2
f 169/1/2 170/1/2 173/1/2
f 173/1/2 170/1/2 174/1/2
f 171/7/2 172/7/2 175/7/2
f 167/1/2 173/1/2 176/1/2
f 176/1/2 173/1/2 177/1/2
f 171/7/2 175/7/2 178/7/2
f 174/1/2 170/1/2 181/1/2
f 171/7/2 178/7/2 182/7/2
f 182/7/2 178/7/2 183/7/2
f 179/1/2 180/1/2 184/1/2
f 180/1/2 181/1/2 184/1/2
f 181/1/2 170/1/2 185/1/2
f 184/1/2 181/1/2 185/1/2
f 186/1/2 187/1/2 189/1/2
f 188/7/2 189/7/2 190/7/2
f 189/1/2 187/1/2 191/1/2
f 190/7/2 189/7/2 191/7/2
f 191/1/2 187/1/2 192/1/2
f 195/7/3 194/7/3 193/7/3
f 196/7/3 194/7/3 195/7/3
f 199/7/3 198/7/3 197/7/3
f 200/7/3 198/7/3 199/7/3
f 201/7/3 199/7/3 197/7/3
f 202/7/3 199/7/3 201/7/3
f 203/7/3 198/7/3 200/7/3
f 204/7/3 198/7/3 203/7/3
f 206/7/3 203/7/3 202/7/3
f 207/7/3 203/7/3 206/7/3
f 209/7/3 206/7/3 205/7/3
f 210/7/3 208/7/3 207/7/3
f 211/7/3 209/7/3 205/7/3
f 211/7/3 210/7/3 209/7/3
f 212/7/3 208/7/3 210/7/3
f 212/7/3 210/7/3 211/7/3
f 215/7/3 214/7/3 213/7/3
f 216/7/3 214/7/3 215/7/3
f 219/7/3 218/7/3 217/7/3
f 220/7/3 218/7/3 219/7/3
f 225/1/3 222/1/3 221/1/3
f 225/1/3 224/1/3 223/1/3
f 225/1/3 223/1/3 222/1/3
f 226/1/3 224/1/3 225/1/3
f 227/1/3 225/1/3 221/1/3
f 228/1/3 225/1/3 227/1/3
f 229/3/3 226/3/3 225/3/3
f 229/1/3 225/1/3 228/1/3
f 230/1/3 224/1/3 226/1/3
f 230/3/3 226/3/3 229/3/3
f 232/4/3 228/4/3 227/4/3
f 233/4/3 228/4/3 232/4/3
f 234/1/3 229/1/3 228/1/3
f 234/4/3 228/4/3 233/4/3
f 234/1/3 230/1/3 229/1/3
f 235/1/3 230/1/3 234/1/3
f 236/7/3 232/7/3 231/7/3
f 237/4/3 233/4/3 232/4/3
f 237/7/3 232/7/3 236/7/3
f 238/1/3 234/1/3 233/1/3
f 238/4/3 233/4/3 237/4/3
f 239/4/3 235/4/3 234/4/3
f 239/1/3 234/1/3 238/1/3
f 240/1/3 230/1/3 235/1/3
f 240/4/3 235/4/3 239/4/3
f 241/4/3 239/4/3 238/4/3
f 241/4/3 238/4/3 237/4/3
f 242/1/3 240/1/3 239/1/3
f 242/4/3 239/4/3 241/4/3
f 243/1/3 230/1/3 240/1/3
f 243/1/3 240/1/3 242/1/3
f 244/1/3 224/1/3 230/1/3
f 244/1/3 230/1/3 243/1/3
f 245/1/3 243/1/3 242/1/3
f 245/1/3 242/1/3 241/1/3
f 245/3/3 244/3/3 243/3/3
f 246/1/3 224/1/3 244/1/3
f 246/3/3 244/3/3 245/3/3
f 249/5/3 248/5/3 247/5/3
f 250/5/3 248/5/3 249/5/3
f 251/1/3 245/1/3 241/1/3
f 251/1/3 246/1/3 245/1/3
f 252/1/3 246/1/3 251/1/3
f 253/1/3 224/1/3 246/1/3
f 253/1/3 246/1/3 252/1/3
f 254/1/3 224/1/3 253/1/3
f 258/5/3 256/5/3 255/5/3
f 258/5/3 257/5/3 256/5/3
f 259/5/3 258/5/3 255/5/3
f 260/5/3 258/5/3 259/5/3
f 263/5/3 262/5/3 261/5/3
f 264/5/3 263/5/3 261/5/3
f 265/5/3 263/5/3 264/5/3
f 268/6/3 267/6/3 266/6/3
f 269/6/3 267/6/3 268/6/3
f 275/5/3 271/5/3 270/5/3
f 276/5/3 271/5/3 275/5/3
f 277/7/3 273/7/3 272/7/3
f 278/6/3 274/6/3 273/6/3
f 278/7/3 273/7/3 277/7/3
f 279/6/3 274/6/3 278/6/3
f 283/7/3 281/7/3 280/7/3
f 284/6/3 282/6/3 281/6/3
f 284/7/3 281/7/3 283/7/3
f 285/6/3 282/6/3 284/6/3
f 288/1/3 286/1/3 285/1/3
f 289/5/3 287/5/3 286/5/3
f 289/1/3 286/1/3 288/1/3
f 290/5/3 287/5/3 289/5/3
f 291/5/3 287/5/3 290/5/3
f 294/1/3 293/1/3 292/1/3
f 295/1/3 293/1/3 294/1/3
f 298/1/3 297/1/3 296/1/3
f 299/1/3 297/1/3 298/1/3
f 302/6/3 301/6/3 300/6/3
f 303/6/3 301/6/3 302/6/3
f 304/7/4 305/7/4 310/7/4
f 308/7/4 309/7/4 311/7/4
f 306/7/4 307/7/4 311/7/4
f 307/7/4 308/7/4 311/7/4
f 311/7/4 309/7/4 312/7/4
f 304/7/4 310/7/4 313/7/4
f 304/7/4 313/7/4 315/7/4
f 313/7/4 314/7/4 315/7/4
f 315/7/4 314/7/4 316/7/4
f 306/7/4 311/7/4 317/7/4
f 317/7/4 311/7/4 318/7/4
f 312/7/4 309/7/4 319/7/4
f 319/7/4 309/7/4 320/7/4
f 318/7/4 319/7/4 322/7/4
f 322/7/4 319/7/4 323/7/4
f 321/7/4 322/7/4 325/7/4
f 323/7/4 324/7/4 326/7/4
f 321/7/4 325/7/4 327/7/4
f 325/7/4 326/7/4 327/7/4
f 327/7/4 326/7/4 328/7/4
f 326/7/4 324/7/4 329/7/4
f 328/7/4 326/7/4 329/7/4
f 329/7/4 324/7/4 330/7/4
f 331/6/4 332/6/4 333/6/4
f 333/6/4 332/6/4 334/6/4
f 335/1/4 336/1/4 339/1/4
f 339/1/4 336/1/4 340/1/4
f 337/5/4 338/5/4 344/5/4
f 344/5/4 338/5/4 345/5/4
f 341/7/4 342/7/4 346/7/4
f 342/6/4 343/6/4 347/6/4
f 346/7/4 342/7/4 347/7/4
f 347/6/4 343/6/4 348/6/4
f 349/7/4 350/7/4 352/7/4
f 350/6/4 351/6/4 353/6/4
f 352/7/4 350/7/4 353/7/4
f 353/6/4 351/6/4 354/6/4
f 354/1/4 355/1/4 358/1/4
f 355/5/4 356/5/4 359/5/4
f 358/1/4 355/1/4 359/1/4
f 359/5/4 356/5/4 360/5/4
f 357/5/4 358/5/4 361/5/4
f 358/1/4 359/1/4 362/1/4
f 361/5/4 358/5/4 362/5/4
f 359/7/4 360/7/4 363/7/4
f 362/1/4 359/1/4 363/1/4
f 360/5/4 356/5/4 364/5/4
f 363/7/4 360/7/4 364/7/4
f 364/5/4 356/5/4 365/5/4
f 366/1/4 367/1/4 368/1/4
f 368/1/4 367/1/4 369/1/4
f 370/6/4 371/6/4 373/6/4
f 371/5/4 372/5/4 374/5/4
f 373/6/4 371/6/4 374/6/4
f 374/5/4 372/5/4 375/5/4
f 376/1/4 377/1/4 378/1/4
f 378/1/4 377/1/4 379/1/4
f 384/7/5 381/7/5 380/7/5
f 385/7/5 381/7/5 384/7/5
f 386/7/5 383/7/5 382/7/5
f 387/7/5 383/7/5 386/7/5
f 390/5/5 389/5/5 388/5/5
f 391/5/5 389/5/5 390/5/5
f 394/7/5 393/7/5 392/7/5
f 395/7/5 393/7/5 394/7/5
f 398/6/5 397/6/5 396/6/5
f 399/6/5 397/6/5 398/6/5
f 400/6/5 397/6/5 399/6/5
f 401/6/5 397/6/5 400/6/5
f 404/6/5 400/6/5 399/6/5
f 405/6/5 400/6/5 404/6/5
f 406/1/5 402/1/5 401/1/5
f 407/1/5 402/1/5 406/1/5
f 408/6/5 405/6/5 404/6/5
f 408/6/5 404/6/5 403/6/5
f 408/6/5 406/6/5 405/6/5
f 409/6/5 406/6/5 408/6/5
f 413/1/5 411/1/5 410/1/5
f 413/7/5 412/7/5 411/7/5
f 414/7/5 412/7/5 413/7/5
f 417/1/5 413/1/5 410/1/5
f 417/1/5 414/1/5 413/1/5
f 418/1/5 414/1/5 417/1/5
f 419/7/5 416/7/5 415/7/5
f 420/7/5 416/7/5 419/7/5
f 422/5/5 418/5/5 417/5/5
f 422/5/5 421/5/5 420/5/5
f 422/5/5 420/5/5 419/5/5
f 422/5/5 419/5/5 418/5/5
f 423/5/5 421/5/5 422/5/5
f 426/5/5 422/5/5 417/5/5
f 427/5/5 422/5/5 426/5/5
f 428/5/5 425/5/5 424/5/5
f 429/5/5 425/5/5 428/5/5
f 436/1/5 431/1/5 430/1/5
f 437/4/5 432/4/5 431/4/5
f 437/1/5 431/1/5 436/1/5
f 438/4/5 432/4/5 437/4/5
f 439/4/5 434/4/5 433/4/5
f 440/1/5 435/1/5 434/1/5
f 440/4/5 434/4/5 439/4/5
f 441/1/5 435/1/5 440/1/5
f 442/1/5 436/1/5 430/1/5
f 443/1/5 436/1/5 442/1/5
f 444/1/5 435/1/5 441/1/5
f 445/1/5 435/1/5 444/1/5
f 450/1/5 447/1/5 446/1/5
f 451/1/5 449/1/5 448/1/5
f 452/1/5 450/1/5 446/1/5
f 452/1/5 451/1/5 450/1/5
f 453/1/5 449/1/5 451/1/5
f 453/1/5 451/1/5 452/1/5
f 458/7/5 455/7/5 454/7/5
f 459/7/5 455/7/5 458/7/5
f 460/7/5 457/7/5 456/7/5
f 461/7/5 457/7/5 460/7/5
f 464/7/5 463/7/5 462/7/5
f 465/7/5 463/7/5 464/7/5
f 470/1/5 467/1/5 466/1/5
f 471/1/5 467/1/5 470/1/5
f 472/1/5 469/1/5 468/1/5
f 473/1/5 469/1/5 472/1/5
f 478/7/5 475/7/5 474/7/5
f 479/7/5 477/7/5 476/7/5
f 480/7/5 478/7/5 474/7/5
f 481/7/5 478/7/5 480/7/5
f 482/7/5 477/7/5 479/7/5
f 483/7/5 477/7/5 482/7/5
f 488/7/5 485/7/5 484/7/5
f 489/7/5 485/7/5 488/7/5
f 490/7/5 487/7/5 486/7/5
f 491/7/5 487/7/5 490/7/5
f 492/6/6 493/6/6 494/6/6
f 494/6/6 493/6/6 495/6/6
f 496/5/6 497/5/6 498/5/6
f 498/5/6 497/5/6 499/5/6
f 500/7/6 501/7/6 502/7/6
f 502/7/6 501/7/6 503/7/6
f 500/7/6 502/7/6 504/7/6
f 502/4/6 503/4/6 504/4/6
f 503/7/6 501/7/6 505/7/6
f 504/4/6 503/4/6 505/4/6
f 500/7/6 504/7/6 506/7/6
f 504/7/6 505/7/6 506/7/6
f 506/7/6 505/7/6 507/7/6
f 505/7/6 501/7/6 508/7/6
f 507/7/6 505/7/6 508/7/6
f 508/7/6 501/7/6 509/7/6
f 506/1/6 507/1/6 510/1/6
f 507/7/6 508/7/6 510/7/6
f 510/7/6 508/7/6 511/7/6
f 506/1/6 510/1/6 512/1/6
f 510/1/6 511/1/6 512/1/6
f 512/1/6 511/1/6 513/1/6
f 513/1/6 511/1/6 514/1/6
f 512/7/6 513/7/6 515/7/6
f 513/5/6 514/5/6 516/5/6
f 515/7/6 513/7/6 516/7/6
f 515/5/6 516/5/6 517/5/6
f 516/5/6 514/5/6 518/5/6
f 517/5/6 516/5/6 518/5/6
f 519/7/6 520/7/6 523/7/6
f 523/7/6 520/7/6 524/7/6
f 521/7/6 522/7/6 525/7/6
f 525/7/6 522/7/6 526/7/6
f 527/7/6 528/7/6 531/7/6
f 531/7/6 528/7/6 532/7/6
f 529/7/6 530/7/6 535/7/6
f 533/7/6 534/7/6 536/7/6
f 529/7/6 535/7/6 537/7/6
f 537/7/6 535/7/6 538/7/6
f 536/7/6 534/7/6 539/7/6
f 539/7/6 534/7/6 540/7/6
f 537/1/6 538/1/6 541/1/6
f 541/1/6 538/1/6 542/1/6
f 539/1/6 540/1/6 543/1/6
f 543/1/6 540/1/6 544/1/6
f 545/7/6 546/7/6 549/7/6
f 549/7/6 546/7/6 550/7/6
f 547/7/6 548/7/6 551/7/6
f 551/7/6 548/7/6 552/7/6
f 553/1/6 554/1/6 555/1/6
f 555/1/6 554/1/6 556/1/6
