# MagicaVoxel @ Ephtracy

# group
o 

# material
mtllib Chair.mtl
usemtl palette

# normals
vn -1 0 0
vn 1 0 0
vn 0 0 1
vn 0 0 -1
vn 0 -1 0
vn 0 1 0

# texcoords
vt 0.916016 0.5
vt 0.951172 0.5
vt 0.955078 0.5
vt 0.962891 0.5

# verts
v -0.4 1.6 0.4
v -0.4 1.6 0.3
v -0.4 1.8 0.4
v -0.4 1.8 0.3
v -0.3 0 0.3
v -0.3 0 0.2
v -0.3 0 -0.3
v -0.3 0 -0.4
v -0.3 0.7 0.2
v -0.3 0.7 -0.3
v -0.3 0.8 0.4
v -0.3 0.8 0.3
v -0.3 0.8 -0.4
v -0.3 0.9 0.3
v -0.3 0.9 -0.4
v -0.3 1.6 0.4
v -0.3 1.6 0.3
v 0.3 0 0.3
v 0.3 0 0.2
v 0.3 0 -0.3
v 0.3 0 -0.4
v 0.3 0.7 0.3
v 0.3 0.7 0.2
v 0.3 0.7 -0.3
v 0.3 0.7 -0.4
v 0.3 0.8 0.4
v 0.3 0.8 0.3
v 0.3 0.9 0.3
v 0.3 1.1 0.4
v 0.3 1.1 0.3
v 0.3 1.2 0.4
v 0.3 1.2 0.3
v 0.3 1.5 0.4
v 0.3 1.5 0.3
v -0.2 0 0.3
v -0.2 0 0.2
v -0.2 0 -0.3
v -0.2 0 -0.4
v -0.2 0.7 0.3
v -0.2 0.7 0.2
v -0.2 0.7 -0.3
v -0.2 0.7 -0.4
v -0.2 0.8 0.4
v -0.2 0.8 0.3
v -0.2 0.9 0.3
v -0.2 1.1 0.4
v -0.2 1.1 0.3
v -0.2 1.2 0.4
v -0.2 1.2 0.3
v -0.2 1.5 0.4
v -0.2 1.5 0.3
v 0.4 0 0.3
v 0.4 0 0.2
v 0.4 0 -0.3
v 0.4 0 -0.4
v 0.4 0.7 0.2
v 0.4 0.7 -0.3
v 0.4 0.8 0.4
v 0.4 0.8 0.3
v 0.4 0.8 -0.4
v 0.4 0.9 0.3
v 0.4 0.9 -0.4
v 0.4 1.6 0.4
v 0.4 1.6 0.3
v 0.5 1.6 0.4
v 0.5 1.6 0.3
v 0.5 1.8 0.4
v 0.5 1.8 0.3
v -0.4 1.6 0.4
v -0.4 1.8 0.4
v -0.3 0.8 0.4
v -0.3 1.6 0.4
v -0.2 0.8 0.4
v -0.2 1.1 0.4
v -0.2 1.2 0.4
v -0.2 1.5 0.4
v 0.3 0.8 0.4
v 0.3 1.1 0.4
v 0.3 1.2 0.4
v 0.3 1.5 0.4
v 0.4 0.8 0.4
v 0.4 1.6 0.4
v 0.5 1.6 0.4
v 0.5 1.8 0.4
v -0.3 0 0.3
v -0.3 0.8 0.3
v -0.2 0 0.3
v -0.2 0.7 0.3
v -0.2 0.8 0.3
v -0.2 0.9 0.3
v 0.3 0 0.3
v 0.3 0.7 0.3
v 0.3 0.8 0.3
v 0.3 0.9 0.3
v 0.4 0 0.3
v 0.4 0.8 0.3
v -0.3 0 -0.3
v -0.3 0.7 -0.3
v -0.2 0 -0.3
v -0.2 0.7 -0.3
v 0.3 0 -0.3
v 0.3 0.7 -0.3
v 0.4 0 -0.3
v 0.4 0.7 -0.3
v -0.4 1.6 0.3
v -0.4 1.8 0.3
v -0.3 0.9 0.3
v -0.3 1.6 0.3
v -0.2 0.9 0.3
v -0.2 1.1 0.3
v -0.2 1.2 0.3
v -0.2 1.5 0.3
v 0.3 0.9 0.3
v 0.3 1.1 0.3
v 0.3 1.2 0.3
v 0.3 1.5 0.3
v 0.4 0.9 0.3
v 0.4 1.6 0.3
v 0.5 1.6 0.3
v 0.5 1.8 0.3
v -0.3 0 0.2
v -0.3 0.7 0.2
v -0.2 0 0.2
v -0.2 0.7 0.2
v 0.3 0 0.2
v 0.3 0.7 0.2
v 0.4 0 0.2
v 0.4 0.7 0.2
v -0.3 0 -0.4
v -0.3 0.8 -0.4
v -0.3 0.9 -0.4
v -0.2 0 -0.4
v -0.2 0.7 -0.4
v 0.3 0 -0.4
v 0.3 0.7 -0.4
v 0.4 0 -0.4
v 0.4 0.8 -0.4
v 0.4 0.9 -0.4
v -0.3 0 0.3
v -0.2 0 0.3
v 0.3 0 0.3
v 0.4 0 0.3
v -0.3 0 0.2
v -0.2 0 0.2
v 0.3 0 0.2
v 0.4 0 0.2
v -0.3 0 -0.3
v -0.2 0 -0.3
v 0.3 0 -0.3
v 0.4 0 -0.3
v -0.3 0 -0.4
v -0.2 0 -0.4
v 0.3 0 -0.4
v 0.4 0 -0.4
v -0.2 0.7 0.3
v 0.3 0.7 0.3
v -0.3 0.7 0.2
v -0.2 0.7 0.2
v -0.1 0.7 0.2
v 0 0.7 0.2
v 0.3 0.7 0.2
v 0.4 0.7 0.2
v -0.1 0.7 0.1
v 0 0.7 0.1
v -0.3 0.7 -0.3
v -0.2 0.7 -0.3
v 0.3 0.7 -0.3
v 0.4 0.7 -0.3
v -0.2 0.7 -0.4
v 0.3 0.7 -0.4
v -0.3 0.8 0.4
v -0.2 0.8 0.4
v 0.3 0.8 0.4
v 0.4 0.8 0.4
v -0.3 0.8 0.3
v -0.2 0.8 0.3
v 0.3 0.8 0.3
v 0.4 0.8 0.3
v -0.2 1.1 0.4
v 0.3 1.1 0.4
v -0.2 1.1 0.3
v 0.3 1.1 0.3
v -0.2 1.5 0.4
v 0.3 1.5 0.4
v -0.2 1.5 0.3
v 0.3 1.5 0.3
v -0.4 1.6 0.4
v -0.3 1.6 0.4
v 0.4 1.6 0.4
v 0.5 1.6 0.4
v -0.4 1.6 0.3
v -0.3 1.6 0.3
v 0.4 1.6 0.3
v 0.5 1.6 0.3
v -0.3 0.9 0.3
v -0.2 0.9 0.3
v 0.3 0.9 0.3
v 0.4 0.9 0.3
v -0.3 0.9 -0.4
v 0.4 0.9 -0.4
v -0.2 1.2 0.4
v 0.3 1.2 0.4
v -0.2 1.2 0.3
v 0.3 1.2 0.3
v -0.4 1.8 0.4
v 0.5 1.8 0.4
v -0.4 1.8 0.3
v 0.5 1.8 0.3

# faces
f 3/3/1 2/3/1 1/3/1
f 4/3/1 2/3/1 3/3/1
f 9/3/1 6/3/1 5/3/1
f 10/3/1 8/3/1 7/3/1
f 12/3/1 9/3/1 5/3/1
f 12/3/1 10/3/1 9/3/1
f 13/3/1 8/3/1 10/3/1
f 13/3/1 10/3/1 12/3/1
f 14/3/1 12/3/1 11/3/1
f 14/4/1 13/4/1 12/4/1
f 15/4/1 13/4/1 14/4/1
f 16/3/1 14/3/1 11/3/1
f 17/3/1 14/3/1 16/3/1
f 22/3/1 19/3/1 18/3/1
f 23/3/1 19/3/1 22/3/1
f 24/3/1 21/3/1 20/3/1
f 25/3/1 21/3/1 24/3/1
f 28/3/1 27/3/1 26/3/1
f 29/3/1 28/3/1 26/3/1
f 30/3/1 28/3/1 29/3/1
f 33/3/1 32/3/1 31/3/1
f 34/3/1 32/3/1 33/3/1
f 35/3/2 36/3/2 39/3/2
f 39/3/2 36/3/2 40/3/2
f 37/3/2 38/3/2 41/3/2
f 41/3/2 38/3/2 42/3/2
f 43/3/2 44/3/2 45/3/2
f 43/3/2 45/3/2 46/3/2
f 46/3/2 45/3/2 47/3/2
f 48/3/2 49/3/2 50/3/2
f 50/3/2 49/3/2 51/3/2
f 52/3/2 53/3/2 56/3/2
f 54/3/2 55/3/2 57/3/2
f 52/3/2 56/3/2 59/3/2
f 56/3/2 57/3/2 59/3/2
f 57/3/2 55/3/2 60/3/2
f 59/3/2 57/3/2 60/3/2
f 58/3/2 59/3/2 61/3/2
f 59/4/2 60/4/2 61/4/2
f 61/4/2 60/4/2 62/4/2
f 58/3/2 61/3/2 63/3/2
f 63/3/2 61/3/2 64/3/2
f 65/3/2 66/3/2 67/3/2
f 67/3/2 66/3/2 68/3/2
f 72/3/3 70/3/3 69/3/3
f 73/3/3 72/3/3 71/3/3
f 74/3/3 72/3/3 73/3/3
f 75/3/3 72/3/3 74/3/3
f 76/3/3 72/3/3 75/3/3
f 78/3/3 75/3/3 74/3/3
f 79/3/3 75/3/3 78/3/3
f 80/3/3 72/3/3 76/3/3
f 81/3/3 79/3/3 78/3/3
f 81/3/3 80/3/3 79/3/3
f 81/3/3 78/3/3 77/3/3
f 82/3/3 70/3/3 72/3/3
f 82/3/3 80/3/3 81/3/3
f 82/3/3 72/3/3 80/3/3
f 83/3/3 70/3/3 82/3/3
f 84/3/3 70/3/3 83/3/3
f 87/3/3 86/3/3 85/3/3
f 88/3/3 86/3/3 87/3/3
f 89/3/3 86/3/3 88/3/3
f 92/3/3 89/3/3 88/3/3
f 93/4/3 90/4/3 89/4/3
f 93/3/3 89/3/3 92/3/3
f 94/4/3 90/4/3 93/4/3
f 95/3/3 92/3/3 91/3/3
f 95/3/3 93/3/3 92/3/3
f 96/3/3 93/3/3 95/3/3
f 99/3/3 98/3/3 97/3/3
f 100/3/3 98/3/3 99/3/3
f 103/3/3 102/3/3 101/3/3
f 104/3/3 102/3/3 103/3/3
f 105/3/4 106/3/4 108/3/4
f 107/3/4 108/3/4 109/3/4
f 109/3/4 108/3/4 110/3/4
f 110/3/4 108/3/4 111/3/4
f 111/3/4 108/3/4 112/3/4
f 110/3/4 111/3/4 114/3/4
f 114/3/4 111/3/4 115/3/4
f 112/3/4 108/3/4 116/3/4
f 114/3/4 115/3/4 117/3/4
f 115/3/4 116/3/4 117/3/4
f 113/3/4 114/3/4 117/3/4
f 108/3/4 106/3/4 118/3/4
f 117/3/4 116/3/4 118/3/4
f 116/3/4 108/3/4 118/3/4
f 118/3/4 106/3/4 119/3/4
f 119/3/4 106/3/4 120/3/4
f 121/3/4 122/3/4 123/3/4
f 123/3/4 122/3/4 124/3/4
f 125/3/4 126/3/4 127/3/4
f 127/3/4 126/3/4 128/3/4
f 129/3/4 130/3/4 132/3/4
f 132/3/4 130/3/4 133/3/4
f 133/3/4 130/3/4 135/3/4
f 134/3/4 135/3/4 136/3/4
f 130/4/4 131/4/4 137/4/4
f 136/3/4 135/3/4 137/3/4
f 135/3/4 130/3/4 137/3/4
f 137/4/4 131/4/4 138/4/4
f 143/3/5 140/3/5 139/3/5
f 144/3/5 140/3/5 143/3/5
f 145/3/5 142/3/5 141/3/5
f 146/3/5 142/3/5 145/3/5
f 151/3/5 148/3/5 147/3/5
f 152/3/5 148/3/5 151/3/5
f 153/3/5 150/3/5 149/3/5
f 154/3/5 150/3/5 153/3/5
f 158/3/5 156/3/5 155/3/5
f 159/3/5 156/3/5 158/3/5
f 160/3/5 156/3/5 159/3/5
f 161/3/5 156/3/5 160/3/5
f 163/2/5 159/2/5 158/2/5
f 163/1/5 160/1/5 159/1/5
f 164/2/5 161/2/5 160/2/5
f 164/1/5 160/1/5 163/1/5
f 165/3/5 158/3/5 157/3/5
f 166/2/5 163/2/5 158/2/5
f 166/3/5 158/3/5 165/3/5
f 166/2/5 164/2/5 163/2/5
f 167/2/5 161/2/5 164/2/5
f 167/2/5 164/2/5 166/2/5
f 167/3/5 162/3/5 161/3/5
f 168/3/5 162/3/5 167/3/5
f 169/3/5 167/3/5 166/3/5
f 170/3/5 167/3/5 169/3/5
f 175/3/5 172/3/5 171/3/5
f 176/3/5 172/3/5 175/3/5
f 177/3/5 174/3/5 173/3/5
f 178/3/5 174/3/5 177/3/5
f 181/3/5 180/3/5 179/3/5
f 182/3/5 180/3/5 181/3/5
f 185/3/5 184/3/5 183/3/5
f 186/3/5 184/3/5 185/3/5
f 191/3/5 188/3/5 187/3/5
f 192/3/5 188/3/5 191/3/5
f 193/3/5 190/3/5 189/3/5
f 194/3/5 190/3/5 193/3/5
f 195/4/6 196/4/6 199/4/6
f 197/4/6 198/4/6 199/4/6
f 196/4/6 197/4/6 199/4/6
f 199/4/6 198/4/6 200/4/6
f 201/3/6 202/3/6 203/3/6
f 203/3/6 202/3/6 204/3/6
f 205/3/6 206/3/6 207/3/6
f 207/3/6 206/3/6 208/3/6
