# MagicaVoxel @ Ephtracy

# group
o 

# material
mtllib DoubleTable.mtl
usemtl palette

# normals
vn -1 0 0
vn 1 0 0
vn 0 0 1
vn 0 0 -1
vn 0 -1 0
vn 0 1 0

# texcoords
vt 0.919922 0.5
vt 0.966797 0.5
vt 0.990234 0.5
vt 0.994141 0.5

# verts
v -4 0 1.6
v -4 0 1.4
v -4 0 0.2
v -4 0 0
v -4 0 -0.1
v -4 0 -0.3
v -4 0 -1.5
v -4 0 -1.7
v -4 0.1 1.6
v -4 0.1 1.4
v -4 0.1 0.2
v -4 0.1 0
v -4 0.1 -0.1
v -4 0.1 -0.3
v -4 0.1 -1.5
v -4 0.1 -1.7
v -4 1.1 1.4
v -4 1.1 0.2
v -4 1.1 -0.3
v -4 1.1 -1.5
v -4 1.2 0
v -4 1.2 -0.1
v -4 1.3 1.6
v -4 1.3 -1.7
v -4 1.4 1.6
v -4 1.4 -1.7
v -4 1.6 1.6
v -4 1.6 -1.7
v -3.9 1.3 1.5
v -3.9 1.3 1.3
v -3.9 1.3 0.4
v -3.9 1.3 0.1
v -3.9 1.3 -0.2
v -3.9 1.3 -0.5
v -3.9 1.3 -1.4
v -3.9 1.3 -1.6
v -3.9 1.4 1.5
v -3.9 1.4 1.3
v -3.9 1.4 0.4
v -3.9 1.4 0.1
v -3.9 1.4 -0.2
v -3.9 1.4 -0.5
v -3.9 1.4 -1.4
v -3.9 1.4 -1.6
v -3.9 1.6 0
v -3.9 1.6 -0.1
v -3.9 2.1 0
v -3.9 2.1 -0.1
v 0 0 1.6
v 0 0 1.4
v 0 0 0.2
v 0 0 0
v 0 0 -0.1
v 0 0 -0.3
v 0 0 -1.5
v 0 0 -1.7
v 0 0.1 1.6
v 0 0.1 1.4
v 0 0.1 0.2
v 0 0.1 0
v 0 0.1 -0.1
v 0 0.1 -0.3
v 0 0.1 -1.5
v 0 0.1 -1.7
v 0 1.1 1.4
v 0 1.1 0.2
v 0 1.1 -0.3
v 0 1.1 -1.5
v 0 1.2 0
v 0 1.2 -0.1
v 0 1.3 1.6
v 0 1.3 1.5
v 0 1.3 1.3
v 0 1.3 0.4
v 0 1.3 0.1
v 0 1.3 -0.2
v 0 1.3 -0.5
v 0 1.3 -1.4
v 0 1.3 -1.6
v 0 1.3 -1.7
v 0 1.4 1.5
v 0 1.4 1.3
v 0 1.4 0.4
v 0 1.4 0.1
v 0 1.4 -0.2
v 0 1.4 -0.5
v 0 1.4 -1.4
v 0 1.4 -1.6
v 3.9 0 1.6
v 3.9 0 1.4
v 3.9 0 0.2
v 3.9 0 0
v 3.9 0 -0.1
v 3.9 0 -0.3
v 3.9 0 -1.5
v 3.9 0 -1.7
v 3.9 0.1 1.6
v 3.9 0.1 1.4
v 3.9 0.1 0.2
v 3.9 0.1 0
v 3.9 0.1 -0.1
v 3.9 0.1 -0.3
v 3.9 0.1 -1.5
v 3.9 0.1 -1.7
v 3.9 1.1 1.4
v 3.9 1.1 0.2
v 3.9 1.1 -0.3
v 3.9 1.1 -1.5
v 3.9 1.2 0
v 3.9 1.2 -0.1
v 3.9 1.3 1.6
v 3.9 1.3 1.5
v 3.9 1.3 1.3
v 3.9 1.3 0.4
v 3.9 1.3 0.1
v 3.9 1.3 -0.2
v 3.9 1.3 -0.5
v 3.9 1.3 -1.4
v 3.9 1.3 -1.6
v 3.9 1.3 -1.7
v 3.9 1.4 1.5
v 3.9 1.4 1.3
v 3.9 1.4 0.4
v 3.9 1.4 0.1
v 3.9 1.4 -0.2
v 3.9 1.4 -0.5
v 3.9 1.4 -1.4
v 3.9 1.4 -1.6
v -3.8 0 1.6
v -3.8 0 1.4
v -3.8 0 0.2
v -3.8 0 0
v -3.8 0 -0.1
v -3.8 0 -0.3
v -3.8 0 -1.5
v -3.8 0 -1.7
v -3.8 0.1 1.6
v -3.8 0.1 1.4
v -3.8 0.1 0.2
v -3.8 0.1 0
v -3.8 0.1 -0.1
v -3.8 0.1 -0.3
v -3.8 0.1 -1.5
v -3.8 0.1 -1.7
v -3.8 1.1 1.4
v -3.8 1.1 0.2
v -3.8 1.1 -0.3
v -3.8 1.1 -1.5
v -3.8 1.2 0
v -3.8 1.2 -0.1
v -3.8 1.3 1.6
v -3.8 1.3 1.5
v -3.8 1.3 1.3
v -3.8 1.3 0.4
v -3.8 1.3 0.1
v -3.8 1.3 -0.2
v -3.8 1.3 -0.5
v -3.8 1.3 -1.4
v -3.8 1.3 -1.6
v -3.8 1.3 -1.7
v -3.8 1.4 1.5
v -3.8 1.4 1.3
v -3.8 1.4 0.4
v -3.8 1.4 0.1
v -3.8 1.4 -0.2
v -3.8 1.4 -0.5
v -3.8 1.4 -1.4
v -3.8 1.4 -1.6
v 0.2 0 1.6
v 0.2 0 1.4
v 0.2 0 0.2
v 0.2 0 0
v 0.2 0 -0.1
v 0.2 0 -0.3
v 0.2 0 -1.5
v 0.2 0 -1.7
v 0.2 0.1 1.6
v 0.2 0.1 1.4
v 0.2 0.1 0.2
v 0.2 0.1 0
v 0.2 0.1 -0.1
v 0.2 0.1 -0.3
v 0.2 0.1 -1.5
v 0.2 0.1 -1.7
v 0.2 1.1 1.4
v 0.2 1.1 0.2
v 0.2 1.1 -0.3
v 0.2 1.1 -1.5
v 0.2 1.2 0
v 0.2 1.2 -0.1
v 0.2 1.3 1.6
v 0.2 1.3 1.5
v 0.2 1.3 1.3
v 0.2 1.3 0.4
v 0.2 1.3 0.1
v 0.2 1.3 -0.2
v 0.2 1.3 -0.5
v 0.2 1.3 -1.4
v 0.2 1.3 -1.6
v 0.2 1.3 -1.7
v 0.2 1.4 1.5
v 0.2 1.4 1.3
v 0.2 1.4 0.4
v 0.2 1.4 0.1
v 0.2 1.4 -0.2
v 0.2 1.4 -0.5
v 0.2 1.4 -1.4
v 0.2 1.4 -1.6
v 4 1.3 1.5
v 4 1.3 1.3
v 4 1.3 0.4
v 4 1.3 0.1
v 4 1.3 -0.2
v 4 1.3 -0.5
v 4 1.3 -1.4
v 4 1.3 -1.6
v 4 1.4 1.5
v 4 1.4 1.3
v 4 1.4 0.4
v 4 1.4 0.1
v 4 1.4 -0.2
v 4 1.4 -0.5
v 4 1.4 -1.4
v 4 1.4 -1.6
v 4 1.6 0
v 4 1.6 -0.1
v 4 2.1 0
v 4 2.1 -0.1
v 4.1 0 1.6
v 4.1 0 1.4
v 4.1 0 0.2
v 4.1 0 0
v 4.1 0 -0.1
v 4.1 0 -0.3
v 4.1 0 -1.5
v 4.1 0 -1.7
v 4.1 0.1 1.6
v 4.1 0.1 1.4
v 4.1 0.1 0.2
v 4.1 0.1 0
v 4.1 0.1 -0.1
v 4.1 0.1 -0.3
v 4.1 0.1 -1.5
v 4.1 0.1 -1.7
v 4.1 1.1 1.4
v 4.1 1.1 0.2
v 4.1 1.1 -0.3
v 4.1 1.1 -1.5
v 4.1 1.2 0
v 4.1 1.2 -0.1
v 4.1 1.3 1.6
v 4.1 1.3 -1.7
v 4.1 1.4 1.6
v 4.1 1.4 -1.7
v 4.1 1.6 1.6
v 4.1 1.6 -1.7
v -4 0 1.6
v -4 0.1 1.6
v -4 1.3 1.6
v -4 1.4 1.6
v -4 1.6 1.6
v -3.8 0 1.6
v -3.8 0.1 1.6
v -3.8 1.3 1.6
v 0 0 1.6
v 0 0.1 1.6
v 0 1.3 1.6
v 0.2 0 1.6
v 0.2 0.1 1.6
v 0.2 1.3 1.6
v 3.9 0 1.6
v 3.9 0.1 1.6
v 3.9 1.3 1.6
v 4.1 0 1.6
v 4.1 0.1 1.6
v 4.1 1.3 1.6
v 4.1 1.4 1.6
v 4.1 1.6 1.6
v -3.9 1.3 1.5
v -3.9 1.4 1.5
v -3.8 1.3 1.5
v -3.8 1.4 1.5
v 0 1.3 1.5
v 0 1.4 1.5
v 0.2 1.3 1.5
v 0.2 1.4 1.5
v 3.9 1.3 1.5
v 3.9 1.4 1.5
v 4 1.3 1.5
v 4 1.4 1.5
v -3.9 1.3 0.4
v -3.9 1.4 0.4
v -3.8 1.3 0.4
v -3.8 1.4 0.4
v 0 1.3 0.4
v 0 1.4 0.4
v 0.2 1.3 0.4
v 0.2 1.4 0.4
v 3.9 1.3 0.4
v 3.9 1.4 0.4
v 4 1.3 0.4
v 4 1.4 0.4
v -4 0 0.2
v -4 0.1 0.2
v -4 1.1 0.2
v -3.8 0 0.2
v -3.8 0.1 0.2
v -3.8 1.1 0.2
v 0 0 0.2
v 0 0.1 0.2
v 0 1.1 0.2
v 0.2 0 0.2
v 0.2 0.1 0.2
v 0.2 1.1 0.2
v 3.9 0 0.2
v 3.9 0.1 0.2
v 3.9 1.1 0.2
v 4.1 0 0.2
v 4.1 0.1 0.2
v 4.1 1.1 0.2
v -3.9 1.6 0
v -3.9 2.1 0
v 4 1.6 0
v 4 2.1 0
v -4 0 -0.1
v -4 0.1 -0.1
v -4 1.2 -0.1
v -3.8 0 -0.1
v -3.8 0.1 -0.1
v -3.8 1.2 -0.1
v 0 0 -0.1
v 0 0.1 -0.1
v 0 1.2 -0.1
v 0.2 0 -0.1
v 0.2 0.1 -0.1
v 0.2 1.2 -0.1
v 3.9 0 -0.1
v 3.9 0.1 -0.1
v 3.9 1.2 -0.1
v 4.1 0 -0.1
v 4.1 0.1 -0.1
v 4.1 1.2 -0.1
v -3.9 1.3 -0.2
v -3.9 1.4 -0.2
v -3.8 1.3 -0.2
v -3.8 1.4 -0.2
v 0 1.3 -0.2
v 0 1.4 -0.2
v 0.2 1.3 -0.2
v 0.2 1.4 -0.2
v 3.9 1.3 -0.2
v 3.9 1.4 -0.2
v 4 1.3 -0.2
v 4 1.4 -0.2
v -3.9 1.3 -1.4
v -3.9 1.4 -1.4
v -3.8 1.3 -1.4
v -3.8 1.4 -1.4
v 0 1.3 -1.4
v 0 1.4 -1.4
v 0.2 1.3 -1.4
v 0.2 1.4 -1.4
v 3.9 1.3 -1.4
v 3.9 1.4 -1.4
v 4 1.3 -1.4
v 4 1.4 -1.4
v -4 0 -1.5
v -4 0.1 -1.5
v -4 1.1 -1.5
v -3.8 0 -1.5
v -3.8 0.1 -1.5
v -3.8 1.1 -1.5
v 0 0 -1.5
v 0 0.1 -1.5
v 0 1.1 -1.5
v 0.2 0 -1.5
v 0.2 0.1 -1.5
v 0.2 1.1 -1.5
v 3.9 0 -1.5
v 3.9 0.1 -1.5
v 3.9 1.1 -1.5
v 4.1 0 -1.5
v 4.1 0.1 -1.5
v 4.1 1.1 -1.5
v -4 0 1.4
v -4 0.1 1.4
v -4 1.1 1.4
v -3.8 0 1.4
v -3.8 0.1 1.4
v -3.8 1.1 1.4
v 0 0 1.4
v 0 0.1 1.4
v 0 1.1 1.4
v 0.2 0 1.4
v 0.2 0.1 1.4
v 0.2 1.1 1.4
v 3.9 0 1.4
v 3.9 0.1 1.4
v 3.9 1.1 1.4
v 4.1 0 1.4
v 4.1 0.1 1.4
v 4.1 1.1 1.4
v -3.9 1.3 1.3
v -3.9 1.4 1.3
v -3.8 1.3 1.3
v -3.8 1.4 1.3
v 0 1.3 1.3
v 0 1.4 1.3
v 0.2 1.3 1.3
v 0.2 1.4 1.3
v 3.9 1.3 1.3
v 3.9 1.4 1.3
v 4 1.3 1.3
v 4 1.4 1.3
v -3.9 1.3 0.1
v -3.9 1.4 0.1
v -3.8 1.3 0.1
v -3.8 1.4 0.1
v 0 1.3 0.1
v 0 1.4 0.1
v 0.2 1.3 0.1
v 0.2 1.4 0.1
v 3.9 1.3 0.1
v 3.9 1.4 0.1
v 4 1.3 0.1
v 4 1.4 0.1
v -4 0 0
v -4 0.1 0
v -4 1.2 0
v -3.8 0 0
v -3.8 0.1 0
v -3.8 1.2 0
v 0 0 0
v 0 0.1 0
v 0 1.2 0
v 0.2 0 0
v 0.2 0.1 0
v 0.2 1.2 0
v 3.9 0 0
v 3.9 0.1 0
v 3.9 1.2 0
v 4.1 0 0
v 4.1 0.1 0
v 4.1 1.2 0
v -3.9 1.6 -0.1
v -3.9 2.1 -0.1
v 4 1.6 -0.1
v 4 2.1 -0.1
v -4 0 -0.3
v -4 0.1 -0.3
v -4 1.1 -0.3
v -3.8 0 -0.3
v -3.8 0.1 -0.3
v -3.8 1.1 -0.3
v 0 0 -0.3
v 0 0.1 -0.3
v 0 1.1 -0.3
v 0.2 0 -0.3
v 0.2 0.1 -0.3
v 0.2 1.1 -0.3
v 3.9 0 -0.3
v 3.9 0.1 -0.3
v 3.9 1.1 -0.3
v 4.1 0 -0.3
v 4.1 0.1 -0.3
v 4.1 1.1 -0.3
v -3.9 1.3 -0.5
v -3.9 1.4 -0.5
v -3.8 1.3 -0.5
v -3.8 1.4 -0.5
v 0 1.3 -0.5
v 0 1.4 -0.5
v 0.2 1.3 -0.5
v 0.2 1.4 -0.5
v 3.9 1.3 -0.5
v 3.9 1.4 -0.5
v 4 1.3 -0.5
v 4 1.4 -0.5
v -3.9 1.3 -1.6
v -3.9 1.4 -1.6
v -3.8 1.3 -1.6
v -3.8 1.4 -1.6
v 0 1.3 -1.6
v 0 1.4 -1.6
v 0.2 1.3 -1.6
v 0.2 1.4 -1.6
v 3.9 1.3 -1.6
v 3.9 1.4 -1.6
v 4 1.3 -1.6
v 4 1.4 -1.6
v -4 0 -1.7
v -4 0.1 -1.7
v -4 1.3 -1.7
v -4 1.4 -1.7
v -4 1.6 -1.7
v -3.8 0 -1.7
v -3.8 0.1 -1.7
v -3.8 1.3 -1.7
v 0 0 -1.7
v 0 0.1 -1.7
v 0 1.3 -1.7
v 0.2 0 -1.7
v 0.2 0.1 -1.7
v 0.2 1.3 -1.7
v 3.9 0 -1.7
v 3.9 0.1 -1.7
v 3.9 1.3 -1.7
v 4.1 0 -1.7
v 4.1 0.1 -1.7
v 4.1 1.3 -1.7
v 4.1 1.4 -1.7
v 4.1 1.6 -1.7
v -4 0 1.6
v -3.8 0 1.6
v 0 0 1.6
v 0.2 0 1.6
v 3.9 0 1.6
v 4.1 0 1.6
v -4 0 1.4
v -3.8 0 1.4
v 0 0 1.4
v 0.2 0 1.4
v 3.9 0 1.4
v 4.1 0 1.4
v -4 0 0.2
v -3.8 0 0.2
v 0 0 0.2
v 0.2 0 0.2
v 3.9 0 0.2
v 4.1 0 0.2
v -4 0 0
v -3.8 0 0
v 0 0 0
v 0.2 0 0
v 3.9 0 0
v 4.1 0 0
v -4 0 -0.1
v -3.8 0 -0.1
v 0 0 -0.1
v 0.2 0 -0.1
v 3.9 0 -0.1
v 4.1 0 -0.1
v -4 0 -0.3
v -3.8 0 -0.3
v 0 0 -0.3
v 0.2 0 -0.3
v 3.9 0 -0.3
v 4.1 0 -0.3
v -4 0 -1.5
v -3.8 0 -1.5
v 0 0 -1.5
v 0.2 0 -1.5
v 3.9 0 -1.5
v 4.1 0 -1.5
v -4 0 -1.7
v -3.8 0 -1.7
v 0 0 -1.7
v 0.2 0 -1.7
v 3.9 0 -1.7
v 4.1 0 -1.7
v -4 1.1 1.4
v -3.8 1.1 1.4
v 0 1.1 1.4
v 0.2 1.1 1.4
v 3.9 1.1 1.4
v 4.1 1.1 1.4
v -4 1.1 0.2
v -3.8 1.1 0.2
v 0 1.1 0.2
v 0.2 1.1 0.2
v 3.9 1.1 0.2
v 4.1 1.1 0.2
v -4 1.1 -0.3
v -3.8 1.1 -0.3
v 0 1.1 -0.3
v 0.2 1.1 -0.3
v 3.9 1.1 -0.3
v 4.1 1.1 -0.3
v -4 1.1 -1.5
v -3.8 1.1 -1.5
v 0 1.1 -1.5
v 0.2 1.1 -1.5
v 3.9 1.1 -1.5
v 4.1 1.1 -1.5
v -4 1.2 0
v -3.8 1.2 0
v 0 1.2 0
v 0.2 1.2 0
v 3.9 1.2 0
v 4.1 1.2 0
v -4 1.2 -0.1
v -3.8 1.2 -0.1
v 0 1.2 -0.1
v 0.2 1.2 -0.1
v 3.9 1.2 -0.1
v 4.1 1.2 -0.1
v -4 1.4 1.6
v 4.1 1.4 1.6
v -3.9 1.4 1.5
v -3.8 1.4 1.5
v 0 1.4 1.5
v 0.2 1.4 1.5
v 3.9 1.4 1.5
v 4 1.4 1.5
v -3.9 1.4 1.3
v -3.8 1.4 1.3
v 0 1.4 1.3
v 0.2 1.4 1.3
v 3.9 1.4 1.3
v 4 1.4 1.3
v -3.9 1.4 0.4
v -3.8 1.4 0.4
v 0 1.4 0.4
v 0.2 1.4 0.4
v 3.9 1.4 0.4
v 4 1.4 0.4
v -3.9 1.4 0.1
v -3.8 1.4 0.1
v 0 1.4 0.1
v 0.2 1.4 0.1
v 3.9 1.4 0.1
v 4 1.4 0.1
v -3.9 1.4 -0.2
v -3.8 1.4 -0.2
v 0 1.4 -0.2
v 0.2 1.4 -0.2
v 3.9 1.4 -0.2
v 4 1.4 -0.2
v -3.9 1.4 -0.5
v -3.8 1.4 -0.5
v 0 1.4 -0.5
v 0.2 1.4 -0.5
v 3.9 1.4 -0.5
v 4 1.4 -0.5
v -3.9 1.4 -1.4
v -3.8 1.4 -1.4
v 0 1.4 -1.4
v 0.2 1.4 -1.4
v 3.9 1.4 -1.4
v 4 1.4 -1.4
v -3.9 1.4 -1.6
v -3.8 1.4 -1.6
v 0 1.4 -1.6
v 0.2 1.4 -1.6
v 3.9 1.4 -1.6
v 4 1.4 -1.6
v -4 1.4 -1.7
v 4.1 1.4 -1.7
v -4 1.3 1.6
v -3.8 1.3 1.6
v 0 1.3 1.6
v 0.2 1.3 1.6
v 3.9 1.3 1.6
v 4.1 1.3 1.6
v -3.9 1.3 1.5
v -3.8 1.3 1.5
v 0 1.3 1.5
v 0.2 1.3 1.5
v 3.9 1.3 1.5
v 4 1.3 1.5
v -3.9 1.3 1.3
v -3.8 1.3 1.3
v 0 1.3 1.3
v 0.2 1.3 1.3
v 3.9 1.3 1.3
v 4 1.3 1.3
v -3.9 1.3 0.4
v -3.8 1.3 0.4
v 0 1.3 0.4
v 0.2 1.3 0.4
v 3.9 1.3 0.4
v 4 1.3 0.4
v -3.9 1.3 0.1
v -3.8 1.3 0.1
v 0 1.3 0.1
v 0.2 1.3 0.1
v 3.9 1.3 0.1
v 4 1.3 0.1
v -3.9 1.3 -0.2
v -3.8 1.3 -0.2
v 0 1.3 -0.2
v 0.2 1.3 -0.2
v 3.9 1.3 -0.2
v 4 1.3 -0.2
v -3.9 1.3 -0.5
v -3.8 1.3 -0.5
v 0 1.3 -0.5
v 0.2 1.3 -0.5
v 3.9 1.3 -0.5
v 4 1.3 -0.5
v -3.9 1.3 -1.4
v -3.8 1.3 -1.4
v 0 1.3 -1.4
v 0.2 1.3 -1.4
v 3.9 1.3 -1.4
v 4 1.3 -1.4
v -3.9 1.3 -1.6
v -3.8 1.3 -1.6
v 0 1.3 -1.6
v 0.2 1.3 -1.6
v 3.9 1.3 -1.6
v 4 1.3 -1.6
v -4 1.3 -1.7
v -3.8 1.3 -1.7
v 0 1.3 -1.7
v 0.2 1.3 -1.7
v 3.9 1.3 -1.7
v 4.1 1.3 -1.7
v -4 1.6 1.6
v 4.1 1.6 1.6
v -3.9 1.6 0
v 4 1.6 0
v -3.9 1.6 -0.1
v 4 1.6 -0.1
v -4 1.6 -1.7
v 4.1 1.6 -1.7
v -3.9 2.1 0
v 4 2.1 0
v -3.9 2.1 -0.1
v 4 2.1 -0.1

# faces
f 9/3/1 2/3/1 1/3/1
f 10/3/1 2/3/1 9/3/1
f 11/3/1 4/3/1 3/3/1
f 12/3/1 4/3/1 11/3/1
f 13/3/1 6/3/1 5/3/1
f 14/3/1 6/3/1 13/3/1
f 15/3/1 8/3/1 7/3/1
f 16/3/1 8/3/1 15/3/1
f 17/2/1 10/2/1 9/2/1
f 18/2/1 12/2/1 11/2/1
f 19/2/1 14/2/1 13/2/1
f 20/2/1 16/2/1 15/2/1
f 21/2/1 18/2/1 17/2/1
f 21/2/1 12/2/1 18/2/1
f 22/2/1 20/2/1 19/2/1
f 22/2/1 19/2/1 13/2/1
f 23/2/1 21/2/1 17/2/1
f 23/2/1 22/2/1 21/2/1
f 23/2/1 17/2/1 9/2/1
f 24/2/1 20/2/1 22/2/1
f 24/2/1 22/2/1 23/2/1
f 24/2/1 16/2/1 20/2/1
f 27/2/1 26/2/1 25/2/1
f 28/2/1 26/2/1 27/2/1
f 37/4/1 30/4/1 29/4/1
f 38/4/1 30/4/1 37/4/1
f 39/4/1 32/4/1 31/4/1
f 40/4/1 32/4/1 39/4/1
f 41/4/1 34/4/1 33/4/1
f 42/4/1 34/4/1 41/4/1
f 43/4/1 36/4/1 35/4/1
f 44/4/1 36/4/1 43/4/1
f 47/1/1 46/1/1 45/1/1
f 48/1/1 46/1/1 47/1/1
f 57/3/1 50/3/1 49/3/1
f 58/3/1 50/3/1 57/3/1
f 59/3/1 52/3/1 51/3/1
f 60/3/1 52/3/1 59/3/1
f 61/3/1 54/3/1 53/3/1
f 62/3/1 54/3/1 61/3/1
f 63/3/1 56/3/1 55/3/1
f 64/3/1 56/3/1 63/3/1
f 65/2/1 58/2/1 57/2/1
f 66/2/1 60/2/1 59/2/1
f 67/2/1 62/2/1 61/2/1
f 68/2/1 64/2/1 63/2/1
f 69/2/1 66/2/1 65/2/1
f 69/2/1 60/2/1 66/2/1
f 70/2/1 68/2/1 67/2/1
f 70/2/1 67/2/1 61/2/1
f 71/2/1 69/2/1 65/2/1
f 71/2/1 70/2/1 69/2/1
f 71/2/1 65/2/1 57/2/1
f 72/2/1 70/2/1 71/2/1
f 73/2/1 70/2/1 72/2/1
f 74/2/1 70/2/1 73/2/1
f 75/2/1 70/2/1 74/2/1
f 76/2/1 68/2/1 70/2/1
f 76/2/1 70/2/1 75/2/1
f 77/2/1 68/2/1 76/2/1
f 78/2/1 68/2/1 77/2/1
f 79/2/1 64/2/1 68/2/1
f 79/2/1 68/2/1 78/2/1
f 80/2/1 64/2/1 79/2/1
f 81/4/1 73/4/1 72/4/1
f 82/4/1 73/4/1 81/4/1
f 83/4/1 75/4/1 74/4/1
f 84/4/1 75/4/1 83/4/1
f 85/4/1 77/4/1 76/4/1
f 86/4/1 77/4/1 85/4/1
f 87/4/1 79/4/1 78/4/1
f 88/4/1 79/4/1 87/4/1
f 97/3/1 90/3/1 89/3/1
f 98/3/1 90/3/1 97/3/1
f 99/3/1 92/3/1 91/3/1
f 100/3/1 92/3/1 99/3/1
f 101/3/1 94/3/1 93/3/1
f 102/3/1 94/3/1 101/3/1
f 103/3/1 96/3/1 95/3/1
f 104/3/1 96/3/1 103/3/1
f 105/2/1 98/2/1 97/2/1
f 106/2/1 100/2/1 99/2/1
f 107/2/1 102/2/1 101/2/1
f 108/2/1 104/2/1 103/2/1
f 109/2/1 106/2/1 105/2/1
f 109/2/1 100/2/1 106/2/1
f 110/2/1 108/2/1 107/2/1
f 110/2/1 107/2/1 101/2/1
f 111/2/1 109/2/1 105/2/1
f 111/2/1 110/2/1 109/2/1
f 111/2/1 105/2/1 97/2/1
f 112/2/1 110/2/1 111/2/1
f 113/2/1 110/2/1 112/2/1
f 114/2/1 110/2/1 113/2/1
f 115/2/1 110/2/1 114/2/1
f 116/2/1 108/2/1 110/2/1
f 116/2/1 110/2/1 115/2/1
f 117/2/1 108/2/1 116/2/1
f 118/2/1 108/2/1 117/2/1
f 119/2/1 104/2/1 108/2/1
f 119/2/1 108/2/1 118/2/1
f 120/2/1 104/2/1 119/2/1
f 121/4/1 113/4/1 112/4/1
f 122/4/1 113/4/1 121/4/1
f 123/4/1 115/4/1 114/4/1
f 124/4/1 115/4/1 123/4/1
f 125/4/1 117/4/1 116/4/1
f 126/4/1 117/4/1 125/4/1
f 127/4/1 119/4/1 118/4/1
f 128/4/1 119/4/1 127/4/1
f 129/3/2 130/3/2 137/3/2
f 137/3/2 130/3/2 138/3/2
f 131/3/2 132/3/2 139/3/2
f 139/3/2 132/3/2 140/3/2
f 133/3/2 134/3/2 141/3/2
f 141/3/2 134/3/2 142/3/2
f 135/3/2 136/3/2 143/3/2
f 143/3/2 136/3/2 144/3/2
f 137/2/2 138/2/2 145/2/2
f 139/2/2 140/2/2 146/2/2
f 141/2/2 142/2/2 147/2/2
f 143/2/2 144/2/2 148/2/2
f 145/2/2 146/2/2 149/2/2
f 146/2/2 140/2/2 149/2/2
f 147/2/2 148/2/2 150/2/2
f 141/2/2 147/2/2 150/2/2
f 145/2/2 149/2/2 151/2/2
f 149/2/2 150/2/2 151/2/2
f 137/2/2 145/2/2 151/2/2
f 151/2/2 150/2/2 152/2/2
f 152/2/2 150/2/2 153/2/2
f 153/2/2 150/2/2 154/2/2
f 154/2/2 150/2/2 155/2/2
f 150/2/2 148/2/2 156/2/2
f 155/2/2 150/2/2 156/2/2
f 156/2/2 148/2/2 157/2/2
f 157/2/2 148/2/2 158/2/2
f 148/2/2 144/2/2 159/2/2
f 158/2/2 148/2/2 159/2/2
f 159/2/2 144/2/2 160/2/2
f 152/4/2 153/4/2 161/4/2
f 161/4/2 153/4/2 162/4/2
f 154/4/2 155/4/2 163/4/2
f 163/4/2 155/4/2 164/4/2
f 156/4/2 157/4/2 165/4/2
f 165/4/2 157/4/2 166/4/2
f 158/4/2 159/4/2 167/4/2
f 167/4/2 159/4/2 168/4/2
f 169/3/2 170/3/2 177/3/2
f 177/3/2 170/3/2 178/3/2
f 171/3/2 172/3/2 179/3/2
f 179/3/2 172/3/2 180/3/2
f 173/3/2 174/3/2 181/3/2
f 181/3/2 174/3/2 182/3/2
f 175/3/2 176/3/2 183/3/2
f 183/3/2 176/3/2 184/3/2
f 177/2/2 178/2/2 185/2/2
f 179/2/2 180/2/2 186/2/2
f 181/2/2 182/2/2 187/2/2
f 183/2/2 184/2/2 188/2/2
f 185/2/2 186/2/2 189/2/2
f 186/2/2 180/2/2 189/2/2
f 187/2/2 188/2/2 190/2/2
f 181/2/2 187/2/2 190/2/2
f 185/2/2 189/2/2 191/2/2
f 189/2/2 190/2/2 191/2/2
f 177/2/2 185/2/2 191/2/2
f 191/2/2 190/2/2 192/2/2
f 192/2/2 190/2/2 193/2/2
f 193/2/2 190/2/2 194/2/2
f 194/2/2 190/2/2 195/2/2
f 190/2/2 188/2/2 196/2/2
f 195/2/2 190/2/2 196/2/2
f 196/2/2 188/2/2 197/2/2
f 197/2/2 188/2/2 198/2/2
f 188/2/2 184/2/2 199/2/2
f 198/2/2 188/2/2 199/2/2
f 199/2/2 184/2/2 200/2/2
f 192/4/2 193/4/2 201/4/2
f 201/4/2 193/4/2 202/4/2
f 194/4/2 195/4/2 203/4/2
f 203/4/2 195/4/2 204/4/2
f 196/4/2 197/4/2 205/4/2
f 205/4/2 197/4/2 206/4/2
f 198/4/2 199/4/2 207/4/2
f 207/4/2 199/4/2 208/4/2
f 209/4/2 210/4/2 217/4/2
f 217/4/2 210/4/2 218/4/2
f 211/4/2 212/4/2 219/4/2
f 219/4/2 212/4/2 220/4/2
f 213/4/2 214/4/2 221/4/2
f 221/4/2 214/4/2 222/4/2
f 215/4/2 216/4/2 223/4/2
f 223/4/2 216/4/2 224/4/2
f 225/1/2 226/1/2 227/1/2
f 227/1/2 226/1/2 228/1/2
f 229/3/2 230/3/2 237/3/2
f 237/3/2 230/3/2 238/3/2
f 231/3/2 232/3/2 239/3/2
f 239/3/2 232/3/2 240/3/2
f 233/3/2 234/3/2 241/3/2
f 241/3/2 234/3/2 242/3/2
f 235/3/2 236/3/2 243/3/2
f 243/3/2 236/3/2 244/3/2
f 237/2/2 238/2/2 245/2/2
f 239/2/2 240/2/2 246/2/2
f 241/2/2 242/2/2 247/2/2
f 243/2/2 244/2/2 248/2/2
f 245/2/2 246/2/2 249/2/2
f 246/2/2 240/2/2 249/2/2
f 247/2/2 248/2/2 250/2/2
f 241/2/2 247/2/2 250/2/2
f 245/2/2 249/2/2 251/2/2
f 249/2/2 250/2/2 251/2/2
f 237/2/2 245/2/2 251/2/2
f 250/2/2 248/2/2 252/2/2
f 251/2/2 250/2/2 252/2/2
f 248/2/2 244/2/2 252/2/2
f 253/2/2 254/2/2 255/2/2
f 255/2/2 254/2/2 256/2/2
f 262/3/3 258/3/3 257/3/3
f 263/2/3 259/2/3 258/2/3
f 263/3/3 258/3/3 262/3/3
f 264/2/3 259/2/3 263/2/3
f 268/3/3 266/3/3 265/3/3
f 269/2/3 267/2/3 266/2/3
f 269/3/3 266/3/3 268/3/3
f 270/2/3 267/2/3 269/2/3
f 274/3/3 272/3/3 271/3/3
f 275/2/3 273/2/3 272/2/3
f 275/3/3 272/3/3 274/3/3
f 276/2/3 273/2/3 275/2/3
f 277/2/3 261/2/3 260/2/3
f 278/2/3 261/2/3 277/2/3
f 281/4/3 280/4/3 279/4/3
f 282/4/3 280/4/3 281/4/3
f 285/4/3 284/4/3 283/4/3
f 286/4/3 284/4/3 285/4/3
f 289/4/3 288/4/3 287/4/3
f 290/4/3 288/4/3 289/4/3
f 293/4/3 292/4/3 291/4/3
f 294/4/3 292/4/3 293/4/3
f 297/4/3 296/4/3 295/4/3
f 298/4/3 296/4/3 297/4/3
f 301/4/3 300/4/3 299/4/3
f 302/4/3 300/4/3 301/4/3
f 306/3/3 304/3/3 303/3/3
f 307/2/3 305/2/3 304/2/3
f 307/3/3 304/3/3 306/3/3
f 308/2/3 305/2/3 307/2/3
f 312/3/3 310/3/3 309/3/3
f 313/2/3 311/2/3 310/2/3
f 313/3/3 310/3/3 312/3/3
f 314/2/3 311/2/3 313/2/3
f 318/3/3 316/3/3 315/3/3
f 319/2/3 317/2/3 316/2/3
f 319/3/3 316/3/3 318/3/3
f 320/2/3 317/2/3 319/2/3
f 323/1/3 322/1/3 321/1/3
f 324/1/3 322/1/3 323/1/3
f 328/3/3 326/3/3 325/3/3
f 329/2/3 327/2/3 326/2/3
f 329/3/3 326/3/3 328/3/3
f 330/2/3 327/2/3 329/2/3
f 334/3/3 332/3/3 331/3/3
f 335/2/3 333/2/3 332/2/3
f 335/3/3 332/3/3 334/3/3
f 336/2/3 333/2/3 335/2/3
f 340/3/3 338/3/3 337/3/3
f 341/2/3 339/2/3 338/2/3
f 341/3/3 338/3/3 340/3/3
f 342/2/3 339/2/3 341/2/3
f 345/4/3 344/4/3 343/4/3
f 346/4/3 344/4/3 345/4/3
f 349/4/3 348/4/3 347/4/3
f 350/4/3 348/4/3 349/4/3
f 353/4/3 352/4/3 351/4/3
f 354/4/3 352/4/3 353/4/3
f 357/4/3 356/4/3 355/4/3
f 358/4/3 356/4/3 357/4/3
f 361/4/3 360/4/3 359/4/3
f 362/4/3 360/4/3 361/4/3
f 365/4/3 364/4/3 363/4/3
f 366/4/3 364/4/3 365/4/3
f 370/3/3 368/3/3 367/3/3
f 371/2/3 369/2/3 368/2/3
f 371/3/3 368/3/3 370/3/3
f 372/2/3 369/2/3 371/2/3
f 376/3/3 374/3/3 373/3/3
f 377/2/3 375/2/3 374/2/3
f 377/3/3 374/3/3 376/3/3
f 378/2/3 375/2/3 377/2/3
f 382/3/3 380/3/3 379/3/3
f 383/2/3 381/2/3 380/2/3
f 383/3/3 380/3/3 382/3/3
f 384/2/3 381/2/3 383/2/3
f 385/3/4 386/3/4 388/3/4
f 386/2/4 387/2/4 389/2/4
f 388/3/4 386/3/4 389/3/4
f 389/2/4 387/2/4 390/2/4
f 391/3/4 392/3/4 394/3/4
f 392/2/4 393/2/4 395/2/4
f 394/3/4 392/3/4 395/3/4
f 395/2/4 393/2/4 396/2/4
f 397/3/4 398/3/4 400/3/4
f 398/2/4 399/2/4 401/2/4
f 400/3/4 398/3/4 401/3/4
f 401/2/4 399/2/4 402/2/4
f 403/4/4 404/4/4 405/4/4
f 405/4/4 404/4/4 406/4/4
f 407/4/4 408/4/4 409/4/4
f 409/4/4 408/4/4 410/4/4
f 411/4/4 412/4/4 413/4/4
f 413/4/4 412/4/4 414/4/4
f 415/4/4 416/4/4 417/4/4
f 417/4/4 416/4/4 418/4/4
f 419/4/4 420/4/4 421/4/4
f 421/4/4 420/4/4 422/4/4
f 423/4/4 424/4/4 425/4/4
f 425/4/4 424/4/4 426/4/4
f 427/3/4 428/3/4 430/3/4
f 428/2/4 429/2/4 431/2/4
f 430/3/4 428/3/4 431/3/4
f 431/2/4 429/2/4 432/2/4
f 433/3/4 434/3/4 436/3/4
f 434/2/4 435/2/4 437/2/4
f 436/3/4 434/3/4 437/3/4
f 437/2/4 435/2/4 438/2/4
f 439/3/4 440/3/4 442/3/4
f 440/2/4 441/2/4 443/2/4
f 442/3/4 440/3/4 443/3/4
f 443/2/4 441/2/4 444/2/4
f 445/1/4 446/1/4 447/1/4
f 447/1/4 446/1/4 448/1/4
f 449/3/4 450/3/4 452/3/4
f 450/2/4 451/2/4 453/2/4
f 452/3/4 450/3/4 453/3/4
f 453/2/4 451/2/4 454/2/4
f 455/3/4 456/3/4 458/3/4
f 456/2/4 457/2/4 459/2/4
f 458/3/4 456/3/4 459/3/4
f 459/2/4 457/2/4 460/2/4
f 461/3/4 462/3/4 464/3/4
f 462/2/4 463/2/4 465/2/4
f 464/3/4 462/3/4 465/3/4
f 465/2/4 463/2/4 466/2/4
f 467/4/4 468/4/4 469/4/4
f 469/4/4 468/4/4 470/4/4
f 471/4/4 472/4/4 473/4/4
f 473/4/4 472/4/4 474/4/4
f 475/4/4 476/4/4 477/4/4
f 477/4/4 476/4/4 478/4/4
f 479/4/4 480/4/4 481/4/4
f 481/4/4 480/4/4 482/4/4
f 483/4/4 484/4/4 485/4/4
f 485/4/4 484/4/4 486/4/4
f 487/4/4 488/4/4 489/4/4
f 489/4/4 488/4/4 490/4/4
f 491/3/4 492/3/4 496/3/4
f 492/2/4 493/2/4 497/2/4
f 496/3/4 492/3/4 497/3/4
f 497/2/4 493/2/4 498/2/4
f 499/3/4 500/3/4 502/3/4
f 500/2/4 501/2/4 503/2/4
f 502/3/4 500/3/4 503/3/4
f 503/2/4 501/2/4 504/2/4
f 505/3/4 506/3/4 508/3/4
f 506/2/4 507/2/4 509/2/4
f 508/3/4 506/3/4 509/3/4
f 509/2/4 507/2/4 510/2/4
f 494/2/4 495/2/4 511/2/4
f 511/2/4 495/2/4 512/2/4
f 519/3/5 514/3/5 513/3/5
f 520/3/5 514/3/5 519/3/5
f 521/3/5 516/3/5 515/3/5
f 522/3/5 516/3/5 521/3/5
f 523/3/5 518/3/5 517/3/5
f 524/3/5 518/3/5 523/3/5
f 531/3/5 526/3/5 525/3/5
f 532/3/5 526/3/5 531/3/5
f 533/3/5 528/3/5 527/3/5
f 534/3/5 528/3/5 533/3/5
f 535/3/5 530/3/5 529/3/5
f 536/3/5 530/3/5 535/3/5
f 543/3/5 538/3/5 537/3/5
f 544/3/5 538/3/5 543/3/5
f 545/3/5 540/3/5 539/3/5
f 546/3/5 540/3/5 545/3/5
f 547/3/5 542/3/5 541/3/5
f 548/3/5 542/3/5 547/3/5
f 555/3/5 550/3/5 549/3/5
f 556/3/5 550/3/5 555/3/5
f 557/3/5 552/3/5 551/3/5
f 558/3/5 552/3/5 557/3/5
f 559/3/5 554/3/5 553/3/5
f 560/3/5 554/3/5 559/3/5
f 567/2/5 562/2/5 561/2/5
f 568/2/5 562/2/5 567/2/5
f 569/2/5 564/2/5 563/2/5
f 570/2/5 564/2/5 569/2/5
f 571/2/5 566/2/5 565/2/5
f 572/2/5 566/2/5 571/2/5
f 579/2/5 574/2/5 573/2/5
f 580/2/5 574/2/5 579/2/5
f 581/2/5 576/2/5 575/2/5
f 582/2/5 576/2/5 581/2/5
f 583/2/5 578/2/5 577/2/5
f 584/2/5 578/2/5 583/2/5
f 591/2/5 586/2/5 585/2/5
f 592/2/5 586/2/5 591/2/5
f 593/2/5 588/2/5 587/2/5
f 594/2/5 588/2/5 593/2/5
f 595/2/5 590/2/5 589/2/5
f 596/2/5 590/2/5 595/2/5
f 599/2/5 598/2/5 597/2/5
f 600/2/5 598/2/5 599/2/5
f 601/2/5 598/2/5 600/2/5
f 602/2/5 598/2/5 601/2/5
f 603/2/5 598/2/5 602/2/5
f 604/2/5 598/2/5 603/2/5
f 605/2/5 599/2/5 597/2/5
f 606/2/5 601/2/5 600/2/5
f 607/2/5 601/2/5 606/2/5
f 608/2/5 603/2/5 602/2/5
f 609/2/5 603/2/5 608/2/5
f 610/2/5 598/2/5 604/2/5
f 611/2/5 609/2/5 608/2/5
f 611/2/5 610/2/5 609/2/5
f 611/2/5 607/2/5 606/2/5
f 611/2/5 605/2/5 597/2/5
f 611/2/5 608/2/5 607/2/5
f 611/2/5 606/2/5 605/2/5
f 612/2/5 610/2/5 611/2/5
f 613/2/5 610/2/5 612/2/5
f 614/2/5 610/2/5 613/2/5
f 615/2/5 610/2/5 614/2/5
f 616/2/5 598/2/5 610/2/5
f 616/2/5 610/2/5 615/2/5
f 617/2/5 611/2/5 597/2/5
f 618/2/5 613/2/5 612/2/5
f 619/2/5 613/2/5 618/2/5
f 620/2/5 615/2/5 614/2/5
f 621/2/5 615/2/5 620/2/5
f 622/2/5 598/2/5 616/2/5
f 623/2/5 619/2/5 618/2/5
f 623/2/5 622/2/5 621/2/5
f 623/2/5 621/2/5 620/2/5
f 623/2/5 617/2/5 597/2/5
f 623/2/5 620/2/5 619/2/5
f 623/2/5 618/2/5 617/2/5
f 624/2/5 622/2/5 623/2/5
f 625/2/5 622/2/5 624/2/5
f 626/2/5 622/2/5 625/2/5
f 627/2/5 622/2/5 626/2/5
f 628/2/5 598/2/5 622/2/5
f 628/2/5 622/2/5 627/2/5
f 629/2/5 623/2/5 597/2/5
f 630/2/5 625/2/5 624/2/5
f 631/2/5 625/2/5 630/2/5
f 632/2/5 627/2/5 626/2/5
f 633/2/5 627/2/5 632/2/5
f 634/2/5 598/2/5 628/2/5
f 635/2/5 631/2/5 630/2/5
f 635/2/5 634/2/5 633/2/5
f 635/2/5 633/2/5 632/2/5
f 635/2/5 629/2/5 597/2/5
f 635/2/5 632/2/5 631/2/5
f 635/2/5 630/2/5 629/2/5
f 636/2/5 634/2/5 635/2/5
f 637/2/5 634/2/5 636/2/5
f 638/2/5 634/2/5 637/2/5
f 639/2/5 634/2/5 638/2/5
f 640/2/5 598/2/5 634/2/5
f 640/2/5 634/2/5 639/2/5
f 641/2/5 635/2/5 597/2/5
f 642/2/5 637/2/5 636/2/5
f 643/2/5 637/2/5 642/2/5
f 644/2/5 639/2/5 638/2/5
f 645/2/5 639/2/5 644/2/5
f 646/2/5 598/2/5 640/2/5
f 647/2/5 643/2/5 642/2/5
f 647/2/5 646/2/5 645/2/5
f 647/2/5 645/2/5 644/2/5
f 647/2/5 641/2/5 597/2/5
f 647/2/5 644/2/5 643/2/5
f 647/2/5 642/2/5 641/2/5
f 648/2/5 598/2/5 646/2/5
f 648/2/5 646/2/5 647/2/5
f 649/2/6 650/2/6 655/2/6
f 655/2/6 650/2/6 656/2/6
f 651/2/6 652/2/6 657/2/6
f 657/2/6 652/2/6 658/2/6
f 653/2/6 654/2/6 659/2/6
f 659/2/6 654/2/6 660/2/6
f 649/2/6 655/2/6 661/2/6
f 660/2/6 654/2/6 666/2/6
f 649/2/6 661/2/6 667/2/6
f 661/2/6 662/2/6 667/2/6
f 667/2/6 662/2/6 668/2/6
f 663/2/6 664/2/6 669/2/6
f 669/2/6 664/2/6 670/2/6
f 665/2/6 666/2/6 671/2/6
f 666/2/6 654/2/6 672/2/6
f 671/2/6 666/2/6 672/2/6
f 649/2/6 667/2/6 673/2/6
f 672/2/6 654/2/6 678/2/6
f 649/2/6 673/2/6 679/2/6
f 673/2/6 674/2/6 679/2/6
f 679/2/6 674/2/6 680/2/6
f 675/2/6 676/2/6 681/2/6
f 681/2/6 676/2/6 682/2/6
f 677/2/6 678/2/6 683/2/6
f 678/2/6 654/2/6 684/2/6
f 683/2/6 678/2/6 684/2/6
f 649/2/6 679/2/6 685/2/6
f 684/2/6 654/2/6 690/2/6
f 649/2/6 685/2/6 691/2/6
f 685/2/6 686/2/6 691/2/6
f 691/2/6 686/2/6 692/2/6
f 687/2/6 688/2/6 693/2/6
f 693/2/6 688/2/6 694/2/6
f 689/2/6 690/2/6 695/2/6
f 690/2/6 654/2/6 696/2/6
f 695/2/6 690/2/6 696/2/6
f 649/2/6 691/2/6 697/2/6
f 696/2/6 654/2/6 702/2/6
f 649/2/6 697/2/6 703/2/6
f 697/2/6 698/2/6 703/2/6
f 703/2/6 698/2/6 704/2/6
f 699/2/6 700/2/6 705/2/6
f 705/2/6 700/2/6 706/2/6
f 701/2/6 702/2/6 707/2/6
f 702/2/6 654/2/6 708/2/6
f 707/2/6 702/2/6 708/2/6
f 709/2/6 710/2/6 711/2/6
f 711/2/6 710/2/6 712/2/6
f 709/2/6 711/2/6 713/2/6
f 712/2/6 710/2/6 714/2/6
f 709/2/6 713/2/6 715/2/6
f 713/2/6 714/2/6 715/2/6
f 714/2/6 710/2/6 716/2/6
f 715/2/6 714/2/6 716/2/6
f 717/1/6 718/1/6 719/1/6
f 719/1/6 718/1/6 720/1/6
