# MagicaVoxel @ Ephtracy

# group
o 

# material
mtllib stol_1.mtl
usemtl palette

# normals
vn -1 0 0
vn 1 0 0
vn 0 0 1
vn 0 0 -1
vn 0 -1 0
vn 0 1 0

# texcoords
vt 0.966797 0.5
vt 0.994141 0.5

# verts
v -2.5 0 1.19209e-007
v -2.5 0 -1.8
v -2.5 1.6 1.19209e-007
v -2.5 1.6 -1.8
v -2.1 1.3 1.8
v -2.1 1.3 1.19209e-007
v -2.1 1.4 1.8
v -2.1 1.4 1.19209e-007
v -1.7 0 1.8
v -1.7 0 1.7
v -1.7 1.3 1.8
v -1.7 1.3 1.7
v 2.3 0 1.19209e-007
v 2.3 0 -1.8
v 2.3 1.4 1.19209e-007
v 2.3 1.4 -1.8
v -2.3 0 1.19209e-007
v -2.3 0 -1.8
v -2.3 1.3 1.19209e-007
v -2.3 1.3 -0.4
v -2.3 1.4 -0.4
v -2.3 1.4 -1.8
v -1.1 0 1.8
v -1.1 0 1.7
v -1.1 1.3 1.8
v -1.1 1.3 1.7
v -0.7 1.3 1.8
v -0.7 1.3 -0.4
v -0.7 1.4 1.8
v -0.7 1.4 1.19209e-007
v -0.7 1.4 -0.4
v 2.5 0 1.19209e-007
v 2.5 0 -1.8
v 2.5 1.6 1.19209e-007
v 2.5 1.6 -1.8
v -2.1 1.3 1.8
v -2.1 1.4 1.8
v -1.7 0 1.8
v -1.7 1.3 1.8
v -1.1 0 1.8
v -1.1 1.3 1.8
v -0.7 1.3 1.8
v -0.7 1.4 1.8
v -2.5 0 1.19209e-007
v -2.5 1.6 1.19209e-007
v -2.3 0 1.19209e-007
v -2.3 1.3 1.19209e-007
v -2.1 1.3 1.19209e-007
v -2.1 1.4 1.19209e-007
v -0.7 1.4 1.19209e-007
v 2.3 0 1.19209e-007
v 2.3 1.4 1.19209e-007
v 2.5 0 1.19209e-007
v 2.5 1.6 1.19209e-007
v -1.7 0 1.7
v -1.7 1.3 1.7
v -1.1 0 1.7
v -1.1 1.3 1.7
v -2.3 1.3 -0.4
v -2.3 1.4 -0.4
v -0.7 1.3 -0.4
v -0.7 1.4 -0.4
v -2.5 0 -1.8
v -2.5 1.6 -1.8
v -2.3 0 -1.8
v -2.3 1.4 -1.8
v 2.3 0 -1.8
v 2.3 1.4 -1.8
v 2.5 0 -1.8
v 2.5 1.6 -1.8
v -1.7 0 1.8
v -1.1 0 1.8
v -1.7 0 1.7
v -1.1 0 1.7
v -2.5 0 1.19209e-007
v -2.3 0 1.19209e-007
v 2.3 0 1.19209e-007
v 2.5 0 1.19209e-007
v -2.5 0 -1.8
v -2.3 0 -1.8
v 2.3 0 -1.8
v 2.5 0 -1.8
v -2.1 1.3 1.8
v -1.7 1.3 1.8
v -1.1 1.3 1.8
v -0.7 1.3 1.8
v -1.7 1.3 1.7
v -1.1 1.3 1.7
v -2.3 1.3 1.19209e-007
v -2.1 1.3 1.19209e-007
v -2.3 1.3 -0.4
v -0.7 1.3 -0.4
v -0.7 1.4 1.19209e-007
v 2.3 1.4 1.19209e-007
v -2.3 1.4 -0.4
v -0.7 1.4 -0.4
v -2.3 1.4 -1.8
v 2.3 1.4 -1.8
v -2.1 1.4 1.8
v -0.7 1.4 1.8
v -2.1 1.4 1.19209e-007
v -0.7 1.4 1.19209e-007
v -2.5 1.6 1.19209e-007
v 2.5 1.6 1.19209e-007
v -2.5 1.6 -1.8
v 2.5 1.6 -1.8

# faces
f 3/1/1 2/1/1 1/1/1
f 4/1/1 2/1/1 3/1/1
f 7/1/1 6/1/1 5/1/1
f 8/1/1 6/1/1 7/1/1
f 11/2/1 10/2/1 9/2/1
f 12/2/1 10/2/1 11/2/1
f 15/1/1 14/1/1 13/1/1
f 16/1/1 14/1/1 15/1/1
f 17/1/2 18/1/2 19/1/2
f 19/1/2 18/1/2 20/1/2
f 20/1/2 18/1/2 21/1/2
f 21/1/2 18/1/2 22/1/2
f 23/2/2 24/2/2 25/2/2
f 25/2/2 24/2/2 26/2/2
f 27/1/2 28/1/2 29/1/2
f 29/1/2 28/1/2 30/1/2
f 30/1/2 28/1/2 31/1/2
f 32/1/2 33/1/2 34/1/2
f 34/1/2 33/1/2 35/1/2
f 39/1/3 37/1/3 36/1/3
f 40/2/3 39/2/3 38/2/3
f 41/1/3 37/1/3 39/1/3
f 41/2/3 39/2/3 40/2/3
f 42/1/3 37/1/3 41/1/3
f 43/1/3 37/1/3 42/1/3
f 46/1/3 45/1/3 44/1/3
f 47/1/3 45/1/3 46/1/3
f 48/1/3 45/1/3 47/1/3
f 49/1/3 45/1/3 48/1/3
f 50/1/3 45/1/3 49/1/3
f 52/1/3 45/1/3 50/1/3
f 53/1/3 52/1/3 51/1/3
f 54/1/3 45/1/3 52/1/3
f 54/1/3 52/1/3 53/1/3
f 55/2/4 56/2/4 57/2/4
f 57/2/4 56/2/4 58/2/4
f 59/1/4 60/1/4 61/1/4
f 61/1/4 60/1/4 62/1/4
f 63/1/4 64/1/4 65/1/4
f 65/1/4 64/1/4 66/1/4
f 66/1/4 64/1/4 68/1/4
f 67/1/4 68/1/4 69/1/4
f 68/1/4 64/1/4 70/1/4
f 69/1/4 68/1/4 70/1/4
f 73/2/5 72/2/5 71/2/5
f 74/2/5 72/2/5 73/2/5
f 79/1/5 76/1/5 75/1/5
f 80/1/5 76/1/5 79/1/5
f 81/1/5 78/1/5 77/1/5
f 82/1/5 78/1/5 81/1/5
f 87/1/5 84/1/5 83/1/5
f 88/1/5 86/1/5 85/1/5
f 90/1/5 87/1/5 83/1/5
f 90/1/5 88/1/5 87/1/5
f 91/1/5 90/1/5 89/1/5
f 92/1/5 86/1/5 88/1/5
f 92/1/5 90/1/5 91/1/5
f 92/1/5 88/1/5 90/1/5
f 96/1/5 94/1/5 93/1/5
f 97/1/5 96/1/5 95/1/5
f 98/1/5 94/1/5 96/1/5
f 98/1/5 96/1/5 97/1/5
f 99/1/6 100/1/6 101/1/6
f 101/1/6 100/1/6 102/1/6
f 103/1/6 104/1/6 105/1/6
f 105/1/6 104/1/6 106/1/6
