# MagicaVoxel @ Ephtracy

# group
o 

# material
mtllib Pedestal_3.mtl
usemtl palette

# normals
vn -1 0 0
vn 1 0 0
vn 0 0 1
vn 0 0 -1
vn 0 -1 0
vn 0 1 0

# texcoords
vt 0.919922 0.5
vt 0.966797 0.5
vt 0.994141 0.5

# verts
v -1.3 0 0.3
v -1.3 0 0.2
v -1.3 0 -0.7
v -1.3 0.1 0.4
v -1.3 0.1 0.3
v -1.3 0.1 0.2
v -1.3 1.7 0.4
v -1.3 1.7 0.3
v -1.3 1.8 0.4
v -1.3 1.8 -0.7
v -0.2 0.9 0.5
v -0.2 0.9 0.4
v -0.2 1 0.6
v -0.2 1 0.5
v -0.2 1 0.4
v -0.2 1.4 0.5
v -0.2 1.4 0.4
v -0.2 1.5 0.6
v -0.2 1.5 0.4
v 0.0999999 0.9 0.5
v 0.0999999 0.9 0.4
v 0.0999999 1 0.6
v 0.0999999 1 0.5
v 0.0999999 1 0.4
v 0.0999999 1.4 0.5
v 0.0999999 1.4 0.4
v 0.0999999 1.5 0.6
v 0.0999999 1.5 0.4
v -0.1 0.9 0.5
v -0.1 0.9 0.4
v -0.1 1 0.6
v -0.1 1 0.5
v -0.1 1 0.4
v -0.1 1.4 0.5
v -0.1 1.4 0.4
v -0.1 1.5 0.6
v -0.1 1.5 0.4
v 0.2 0.9 0.5
v 0.2 0.9 0.4
v 0.2 1 0.6
v 0.2 1 0.5
v 0.2 1 0.4
v 0.2 1.4 0.5
v 0.2 1.4 0.4
v 0.2 1.5 0.6
v 0.2 1.5 0.4
v 1.3 0 0.3
v 1.3 0 0.2
v 1.3 0 -0.7
v 1.3 0.1 0.4
v 1.3 0.1 0.3
v 1.3 0.1 0.2
v 1.3 1.7 0.4
v 1.3 1.7 0.3
v 1.3 1.8 0.4
v 1.3 1.8 -0.7
v -0.2 1 0.6
v -0.2 1.5 0.6
v -0.1 1 0.6
v -0.1 1.5 0.6
v 0.0999999 1 0.6
v 0.0999999 1.5 0.6
v 0.2 1 0.6
v 0.2 1.5 0.6
v -0.2 0.9 0.5
v -0.2 1 0.5
v -0.1 0.9 0.5
v -0.1 1 0.5
v 0.0999999 0.9 0.5
v 0.0999999 1 0.5
v 0.2 0.9 0.5
v 0.2 1 0.5
v -1.3 0.1 0.4
v -1.3 1.7 0.4
v -1.3 1.8 0.4
v -0.2 0.9 0.4
v -0.2 1 0.4
v -0.2 1.4 0.4
v -0.2 1.5 0.4
v -0.1 0.9 0.4
v -0.1 1 0.4
v -0.1 1.4 0.4
v -0.1 1.5 0.4
v 0.0999999 0.9 0.4
v 0.0999999 1 0.4
v 0.0999999 1.4 0.4
v 0.0999999 1.5 0.4
v 0.2 0.9 0.4
v 0.2 1 0.4
v 0.2 1.4 0.4
v 0.2 1.5 0.4
v 1.3 0.1 0.4
v 1.3 1.7 0.4
v 1.3 1.8 0.4
v -1.3 0 0.3
v -1.3 0.1 0.3
v 1.3 0 0.3
v 1.3 0.1 0.3
v -0.2 1 0.5
v -0.2 1.4 0.5
v -0.1 1 0.5
v -0.1 1.4 0.5
v 0.0999999 1 0.5
v 0.0999999 1.4 0.5
v 0.2 1 0.5
v 0.2 1.4 0.5
v -1.3 0 -0.7
v -1.3 1.8 -0.7
v -1.2 0.1 -0.7
v -1.2 1.7 -0.7
v 1.2 0.1 -0.7
v 1.2 1.7 -0.7
v 1.3 0 -0.7
v 1.3 1.8 -0.7
v -1.3 0 0.3
v 1.3 0 0.3
v -1.3 0 0.2
v 1.3 0 0.2
v -1.3 0 -0.7
v 1.3 0 -0.7
v -1.3 0.1 0.4
v 1.3 0.1 0.4
v -1.3 0.1 0.3
v 1.3 0.1 0.3
v -0.2 0.9 0.5
v -0.1 0.9 0.5
v 0.0999999 0.9 0.5
v 0.2 0.9 0.5
v -0.2 0.9 0.4
v -0.1 0.9 0.4
v 0.0999999 0.9 0.4
v 0.2 0.9 0.4
v -0.2 1 0.6
v -0.1 1 0.6
v 0.0999999 1 0.6
v 0.2 1 0.6
v -0.2 1 0.5
v -0.1 1 0.5
v 0.0999999 1 0.5
v 0.2 1 0.5
v -0.2 1.4 0.5
v -0.1 1.4 0.5
v 0.0999999 1.4 0.5
v 0.2 1.4 0.5
v -0.2 1.4 0.4
v -0.1 1.4 0.4
v 0.0999999 1.4 0.4
v 0.2 1.4 0.4
v -0.2 1 0.5
v -0.1 1 0.5
v 0.0999999 1 0.5
v 0.2 1 0.5
v -0.2 1 0.4
v -0.1 1 0.4
v 0.0999999 1 0.4
v 0.2 1 0.4
v -0.2 1.5 0.6
v -0.1 1.5 0.6
v 0.0999999 1.5 0.6
v 0.2 1.5 0.6
v -0.2 1.5 0.4
v -0.1 1.5 0.4
v 0.0999999 1.5 0.4
v 0.2 1.5 0.4
v -1.3 1.8 0.4
v 1.3 1.8 0.4
v -1.3 1.8 -0.7
v 1.3 1.8 -0.7

# faces
f 5/3/1 2/3/1 1/3/1
f 6/1/1 3/1/1 2/1/1
f 6/3/1 2/3/1 5/3/1
f 7/2/1 5/2/1 4/2/1
f 8/1/1 6/1/1 5/1/1
f 8/2/1 5/2/1 7/2/1
f 9/1/1 8/1/1 7/1/1
f 10/1/1 3/1/1 6/1/1
f 10/1/1 8/1/1 9/1/1
f 10/1/1 6/1/1 8/1/1
f 14/3/1 12/3/1 11/3/1
f 15/3/1 12/3/1 14/3/1
f 16/3/1 14/3/1 13/3/1
f 18/3/1 16/3/1 13/3/1
f 18/3/1 17/3/1 16/3/1
f 19/3/1 17/3/1 18/3/1
f 23/3/1 21/3/1 20/3/1
f 24/3/1 21/3/1 23/3/1
f 25/3/1 23/3/1 22/3/1
f 27/3/1 25/3/1 22/3/1
f 27/3/1 26/3/1 25/3/1
f 28/3/1 26/3/1 27/3/1
f 29/3/2 30/3/2 32/3/2
f 32/3/2 30/3/2 33/3/2
f 31/3/2 32/3/2 34/3/2
f 31/3/2 34/3/2 36/3/2
f 34/3/2 35/3/2 36/3/2
f 36/3/2 35/3/2 37/3/2
f 38/3/2 39/3/2 41/3/2
f 41/3/2 39/3/2 42/3/2
f 40/3/2 41/3/2 43/3/2
f 40/3/2 43/3/2 45/3/2
f 43/3/2 44/3/2 45/3/2
f 45/3/2 44/3/2 46/3/2
f 47/3/2 48/3/2 51/3/2
f 48/1/2 49/1/2 52/1/2
f 51/3/2 48/3/2 52/3/2
f 50/2/2 51/2/2 53/2/2
f 51/1/2 52/1/2 54/1/2
f 53/2/2 51/2/2 54/2/2
f 53/1/2 54/1/2 55/1/2
f 52/1/2 49/1/2 56/1/2
f 55/1/2 54/1/2 56/1/2
f 54/1/2 52/1/2 56/1/2
f 59/3/3 58/3/3 57/3/3
f 60/3/3 58/3/3 59/3/3
f 63/3/3 62/3/3 61/3/3
f 64/3/3 62/3/3 63/3/3
f 67/3/3 66/3/3 65/3/3
f 68/3/3 66/3/3 67/3/3
f 71/3/3 70/3/3 69/3/3
f 72/3/3 70/3/3 71/3/3
f 76/2/3 74/2/3 73/2/3
f 77/2/3 74/2/3 76/2/3
f 78/2/3 74/2/3 77/2/3
f 79/2/3 74/2/3 78/2/3
f 80/2/3 76/2/3 73/2/3
f 81/2/3 78/2/3 77/2/3
f 82/2/3 78/2/3 81/2/3
f 83/2/3 74/2/3 79/2/3
f 84/2/3 82/2/3 81/2/3
f 84/2/3 83/2/3 82/2/3
f 84/2/3 80/2/3 73/2/3
f 84/2/3 81/2/3 80/2/3
f 85/2/3 83/2/3 84/2/3
f 86/2/3 83/2/3 85/2/3
f 87/2/3 74/2/3 83/2/3
f 87/2/3 83/2/3 86/2/3
f 88/2/3 84/2/3 73/2/3
f 89/2/3 86/2/3 85/2/3
f 90/2/3 86/2/3 89/2/3
f 91/2/3 74/2/3 87/2/3
f 92/2/3 88/2/3 73/2/3
f 92/2/3 91/2/3 90/2/3
f 92/2/3 90/2/3 89/2/3
f 92/2/3 89/2/3 88/2/3
f 93/1/3 75/1/3 74/1/3
f 93/2/3 91/2/3 92/2/3
f 93/2/3 74/2/3 91/2/3
f 94/1/3 75/1/3 93/1/3
f 97/3/3 96/3/3 95/3/3
f 98/3/3 96/3/3 97/3/3
f 99/3/4 100/3/4 101/3/4
f 101/3/4 100/3/4 102/3/4
f 103/3/4 104/3/4 105/3/4
f 105/3/4 104/3/4 106/3/4
f 107/1/4 108/1/4 109/1/4
f 109/1/4 108/1/4 110/1/4
f 107/1/4 109/1/4 111/1/4
f 109/2/4 110/2/4 111/2/4
f 110/1/4 108/1/4 112/1/4
f 111/2/4 110/2/4 112/2/4
f 107/1/4 111/1/4 113/1/4
f 111/1/4 112/1/4 113/1/4
f 112/1/4 108/1/4 114/1/4
f 113/1/4 112/1/4 114/1/4
f 117/3/5 116/3/5 115/3/5
f 118/3/5 116/3/5 117/3/5
f 119/1/5 118/1/5 117/1/5
f 120/1/5 118/1/5 119/1/5
f 123/2/5 122/2/5 121/2/5
f 124/2/5 122/2/5 123/2/5
f 129/3/5 126/3/5 125/3/5
f 130/3/5 126/3/5 129/3/5
f 131/3/5 128/3/5 127/3/5
f 132/3/5 128/3/5 131/3/5
f 137/3/5 134/3/5 133/3/5
f 138/3/5 134/3/5 137/3/5
f 139/3/5 136/3/5 135/3/5
f 140/3/5 136/3/5 139/3/5
f 145/3/5 142/3/5 141/3/5
f 146/3/5 142/3/5 145/3/5
f 147/3/5 144/3/5 143/3/5
f 148/3/5 144/3/5 147/3/5
f 149/3/6 150/3/6 153/3/6
f 153/3/6 150/3/6 154/3/6
f 151/3/6 152/3/6 155/3/6
f 155/3/6 152/3/6 156/3/6
f 157/3/6 158/3/6 161/3/6
f 161/3/6 158/3/6 162/3/6
f 159/3/6 160/3/6 163/3/6
f 163/3/6 160/3/6 164/3/6
f 165/1/6 166/1/6 167/1/6
f 167/1/6 166/1/6 168/1/6
