# MagicaVoxel @ Ephtracy

# group
o 

# material
mtllib Cooler.mtl
usemtl palette

# normals
vn -1 0 0
vn 1 0 0
vn 0 0 1
vn 0 0 -1
vn 0 -1 0
vn 0 1 0

# texcoords
vt 0.755859 0.5
vt 0.927734 0.5
vt 0.966797 0.5
vt 0.994141 0.5

# verts
v -0.4 0 0.3
v -0.4 0 -0.3
v -0.4 0.9 0.2
v -0.4 0.9 -0.2
v -0.4 1 0.2
v -0.4 1 -0.2
v -0.4 1.3 0.2
v -0.4 1.3 -0.2
v -0.4 1.6 0.3
v -0.4 1.6 -0.3
v -0.3 0 0.4
v -0.3 0 0.3
v -0.3 0 -0.3
v -0.3 0 -0.4
v -0.3 1.2 0.2
v -0.3 1.2 0.1
v -0.3 1.2 0
v -0.3 1.2 -0.1
v -0.3 1.3 0.2
v -0.3 1.3 0.1
v -0.3 1.3 0
v -0.3 1.3 -0.1
v -0.3 1.6 0.4
v -0.3 1.6 0.3
v -0.3 1.6 -0.3
v -0.3 1.6 -0.4
v -0.3 1.7 0.3
v -0.3 1.7 -0.3
v -0.3 1.9 0.2
v -0.3 1.9 -0.2
v -0.3 2.6 0.2
v -0.3 2.6 -0.2
v -0.2 1 0.2
v -0.2 1 -0.2
v -0.2 1.2 0.2
v -0.2 1.2 0.1
v -0.2 1.2 0
v -0.2 1.2 -0.1
v -0.2 1.3 0.1
v -0.2 1.3 0
v -0.2 1.3 -0.1
v -0.2 1.3 -0.2
v -0.2 1.7 0.1
v -0.2 1.7 -0.1
v -0.2 1.8 0.2
v -0.2 1.8 0.1
v -0.2 1.8 -0.1
v -0.2 1.8 -0.2
v -0.2 1.9 0.3
v -0.2 1.9 0.2
v -0.2 1.9 -0.2
v -0.2 1.9 -0.3
v -0.2 2.6 0.3
v -0.2 2.6 0.2
v -0.2 2.6 -0.2
v -0.2 2.6 -0.3
v -0.1 1.7 0.2
v -0.1 1.7 0.1
v -0.1 1.7 -0.1
v -0.1 1.7 -0.2
v -0.1 1.8 0.2
v -0.1 1.8 0.1
v -0.1 1.8 -0.1
v -0.1 1.8 -0.2
v 0.1 1.7 0.2
v 0.1 1.7 0.1
v 0.1 1.7 -0.1
v 0.1 1.7 -0.2
v 0.1 1.8 0.2
v 0.1 1.8 0.1
v 0.1 1.8 -0.1
v 0.1 1.8 -0.2
v 0.2 1.7 0.1
v 0.2 1.7 -0.1
v 0.2 1.8 0.2
v 0.2 1.8 0.1
v 0.2 1.8 -0.1
v 0.2 1.8 -0.2
v 0.2 1.9 0.3
v 0.2 1.9 0.2
v 0.2 1.9 -0.2
v 0.2 1.9 -0.3
v 0.2 2.6 0.3
v 0.2 2.6 0.2
v 0.2 2.6 -0.2
v 0.2 2.6 -0.3
v 0.3 0 0.4
v 0.3 0 0.3
v 0.3 0 -0.3
v 0.3 0 -0.4
v 0.3 1.6 0.4
v 0.3 1.6 0.3
v 0.3 1.6 -0.3
v 0.3 1.6 -0.4
v 0.3 1.7 0.3
v 0.3 1.7 -0.3
v 0.3 1.9 0.2
v 0.3 1.9 -0.2
v 0.3 2.6 0.2
v 0.3 2.6 -0.2
v 0.4 0 0.3
v 0.4 0 -0.3
v 0.4 1.6 0.3
v 0.4 1.6 -0.3
v -0.3 0 0.4
v -0.3 1.6 0.4
v 0.3 0 0.4
v 0.3 1.6 0.4
v -0.4 0 0.3
v -0.4 1.6 0.3
v -0.3 0 0.3
v -0.3 1.6 0.3
v -0.3 1.7 0.3
v -0.2 1.9 0.3
v -0.2 2.6 0.3
v 0.2 1.9 0.3
v 0.2 2.6 0.3
v 0.3 0 0.3
v 0.3 1.6 0.3
v 0.3 1.7 0.3
v 0.4 0 0.3
v 0.4 1.6 0.3
v -0.3 1.9 0.2
v -0.3 2.6 0.2
v -0.2 1.8 0.2
v -0.2 1.9 0.2
v -0.2 2.6 0.2
v -0.1 1.7 0.2
v -0.1 1.8 0.2
v 0.1 1.7 0.2
v 0.1 1.8 0.2
v 0.2 1.8 0.2
v 0.2 1.9 0.2
v 0.2 2.6 0.2
v 0.3 1.9 0.2
v 0.3 2.6 0.2
v -0.2 1.7 0.1
v -0.2 1.8 0.1
v -0.1 1.7 0.1
v -0.1 1.8 0.1
v 0.1 1.7 0.1
v 0.1 1.8 0.1
v 0.2 1.7 0.1
v 0.2 1.8 0.1
v -0.3 1.2 0
v -0.3 1.3 0
v -0.2 1.2 0
v -0.2 1.3 0
v -0.4 1 -0.2
v -0.4 1.3 -0.2
v -0.2 1 -0.2
v -0.2 1.3 -0.2
v -0.4 1 0.2
v -0.4 1.3 0.2
v -0.3 1.2 0.2
v -0.3 1.3 0.2
v -0.2 1 0.2
v -0.2 1.2 0.2
v -0.3 1.2 0.1
v -0.3 1.3 0.1
v -0.2 1.2 0.1
v -0.2 1.3 0.1
v -0.3 1.2 -0.1
v -0.3 1.3 -0.1
v -0.2 1.2 -0.1
v -0.2 1.3 -0.1
v -0.2 1.7 -0.1
v -0.2 1.8 -0.1
v -0.1 1.7 -0.1
v -0.1 1.8 -0.1
v 0.1 1.7 -0.1
v 0.1 1.8 -0.1
v 0.2 1.7 -0.1
v 0.2 1.8 -0.1
v -0.3 1.9 -0.2
v -0.3 2.6 -0.2
v -0.2 1.8 -0.2
v -0.2 1.9 -0.2
v -0.2 2.6 -0.2
v -0.1 1.7 -0.2
v -0.1 1.8 -0.2
v 0.1 1.7 -0.2
v 0.1 1.8 -0.2
v 0.2 1.8 -0.2
v 0.2 1.9 -0.2
v 0.2 2.6 -0.2
v 0.3 1.9 -0.2
v 0.3 2.6 -0.2
v -0.4 0 -0.3
v -0.4 1.6 -0.3
v -0.3 0 -0.3
v -0.3 1.6 -0.3
v -0.3 1.7 -0.3
v -0.2 1.9 -0.3
v -0.2 2.6 -0.3
v 0.2 1.9 -0.3
v 0.2 2.6 -0.3
v 0.3 0 -0.3
v 0.3 1.6 -0.3
v 0.3 1.7 -0.3
v 0.4 0 -0.3
v 0.4 1.6 -0.3
v -0.3 0 -0.4
v -0.3 1.6 -0.4
v 0.3 0 -0.4
v 0.3 1.6 -0.4
v -0.3 0 0.4
v 0.3 0 0.4
v -0.4 0 0.3
v -0.3 0 0.3
v 0.3 0 0.3
v 0.4 0 0.3
v -0.4 0 -0.3
v -0.3 0 -0.3
v 0.3 0 -0.3
v 0.4 0 -0.3
v -0.3 0 -0.4
v 0.3 0 -0.4
v -0.3 1.2 0.2
v -0.2 1.2 0.2
v -0.3 1.2 0.1
v -0.2 1.2 0.1
v -0.3 1.2 0
v -0.2 1.2 0
v -0.3 1.2 -0.1
v -0.2 1.2 -0.1
v -0.4 1.3 0.2
v -0.3 1.3 0.2
v -0.3 1.3 0.1
v -0.2 1.3 0.1
v -0.3 1.3 0
v -0.2 1.3 0
v -0.3 1.3 -0.1
v -0.2 1.3 -0.1
v -0.4 1.3 -0.2
v -0.2 1.3 -0.2
v -0.2 1.8 0.2
v -0.1 1.8 0.2
v 0.1 1.8 0.2
v 0.2 1.8 0.2
v -0.2 1.8 0.1
v -0.1 1.8 0.1
v 0.1 1.8 0.1
v 0.2 1.8 0.1
v -0.2 1.8 -0.1
v -0.1 1.8 -0.1
v 0.1 1.8 -0.1
v 0.2 1.8 -0.1
v -0.2 1.8 -0.2
v -0.1 1.8 -0.2
v 0.1 1.8 -0.2
v 0.2 1.8 -0.2
v -0.2 1.9 0.3
v 0.2 1.9 0.3
v -0.3 1.9 0.2
v -0.2 1.9 0.2
v 0.2 1.9 0.2
v 0.3 1.9 0.2
v -0.3 1.9 -0.2
v -0.2 1.9 -0.2
v 0.2 1.9 -0.2
v 0.3 1.9 -0.2
v -0.2 1.9 -0.3
v 0.2 1.9 -0.3
v -0.4 1 0.2
v -0.2 1 0.2
v -0.4 1 -0.2
v -0.2 1 -0.2
v -0.3 1.6 0.4
v 0.3 1.6 0.4
v -0.4 1.6 0.3
v -0.3 1.6 0.3
v 0.3 1.6 0.3
v 0.4 1.6 0.3
v -0.4 1.6 -0.3
v -0.3 1.6 -0.3
v 0.3 1.6 -0.3
v 0.4 1.6 -0.3
v -0.3 1.6 -0.4
v 0.3 1.6 -0.4
v -0.3 1.7 0.3
v 0.3 1.7 0.3
v -0.1 1.7 0.2
v 0.1 1.7 0.2
v -0.2 1.7 0.1
v -0.1 1.7 0.1
v 0.1 1.7 0.1
v 0.2 1.7 0.1
v -0.2 1.7 -0.1
v -0.1 1.7 -0.1
v 0.1 1.7 -0.1
v 0.2 1.7 -0.1
v -0.1 1.7 -0.2
v 0.1 1.7 -0.2
v -0.3 1.7 -0.3
v 0.3 1.7 -0.3
v -0.2 2.6 0.3
v 0.2 2.6 0.3
v -0.3 2.6 0.2
v -0.2 2.6 0.2
v 0.2 2.6 0.2
v 0.3 2.6 0.2
v -0.3 2.6 -0.2
v -0.2 2.6 -0.2
v 0.2 2.6 -0.2
v 0.3 2.6 -0.2
v -0.2 2.6 -0.3
v 0.2 2.6 -0.3

# faces
f 3/3/1 2/3/1 1/3/1
f 4/3/1 2/3/1 3/3/1
f 5/3/1 3/3/1 1/3/1
f 5/2/1 4/2/1 3/2/1
f 6/3/1 2/3/1 4/3/1
f 6/2/1 4/2/1 5/2/1
f 7/3/1 5/3/1 1/3/1
f 8/3/1 2/3/1 6/3/1
f 9/3/1 7/3/1 1/3/1
f 9/3/1 8/3/1 7/3/1
f 10/3/1 2/3/1 8/3/1
f 10/3/1 8/3/1 9/3/1
f 19/4/1 16/4/1 15/4/1
f 20/4/1 16/4/1 19/4/1
f 21/4/1 18/4/1 17/4/1
f 22/4/1 18/4/1 21/4/1
f 23/3/1 12/3/1 11/3/1
f 24/3/1 12/3/1 23/3/1
f 25/3/1 14/3/1 13/3/1
f 26/3/1 14/3/1 25/3/1
f 27/3/1 25/3/1 24/3/1
f 28/3/1 25/3/1 27/3/1
f 31/1/1 30/1/1 29/1/1
f 32/1/1 30/1/1 31/1/1
f 35/3/1 34/3/1 33/3/1
f 36/3/1 34/3/1 35/3/1
f 37/3/1 34/3/1 36/3/1
f 38/3/1 34/3/1 37/3/1
f 39/3/1 37/3/1 36/3/1
f 40/3/1 37/3/1 39/3/1
f 41/3/1 34/3/1 38/3/1
f 42/3/1 34/3/1 41/3/1
f 46/1/1 44/1/1 43/1/1
f 47/1/1 44/1/1 46/1/1
f 50/1/1 46/1/1 45/1/1
f 50/1/1 48/1/1 47/1/1
f 50/1/1 47/1/1 46/1/1
f 51/1/1 48/1/1 50/1/1
f 53/1/1 50/1/1 49/1/1
f 54/1/1 50/1/1 53/1/1
f 55/1/1 52/1/1 51/1/1
f 56/1/1 52/1/1 55/1/1
f 61/1/1 58/1/1 57/1/1
f 62/1/1 58/1/1 61/1/1
f 63/1/1 60/1/1 59/1/1
f 64/1/1 60/1/1 63/1/1
f 65/1/2 66/1/2 69/1/2
f 69/1/2 66/1/2 70/1/2
f 67/1/2 68/1/2 71/1/2
f 71/1/2 68/1/2 72/1/2
f 73/1/2 74/1/2 76/1/2
f 76/1/2 74/1/2 77/1/2
f 75/1/2 76/1/2 80/1/2
f 77/1/2 78/1/2 80/1/2
f 76/1/2 77/1/2 80/1/2
f 80/1/2 78/1/2 81/1/2
f 79/1/2 80/1/2 83/1/2
f 83/1/2 80/1/2 84/1/2
f 81/1/2 82/1/2 85/1/2
f 85/1/2 82/1/2 86/1/2
f 87/3/2 88/3/2 91/3/2
f 91/3/2 88/3/2 92/3/2
f 89/3/2 90/3/2 93/3/2
f 93/3/2 90/3/2 94/3/2
f 92/3/2 93/3/2 95/3/2
f 95/3/2 93/3/2 96/3/2
f 97/1/2 98/1/2 99/1/2
f 99/1/2 98/1/2 100/1/2
f 101/3/2 102/3/2 103/3/2
f 103/3/2 102/3/2 104/3/2
f 107/3/3 106/3/3 105/3/3
f 108/3/3 106/3/3 107/3/3
f 111/3/3 110/3/3 109/3/3
f 112/3/3 110/3/3 111/3/3
f 116/1/3 115/1/3 114/1/3
f 117/1/3 115/1/3 116/1/3
f 119/3/3 113/3/3 112/3/3
f 120/3/3 113/3/3 119/3/3
f 121/3/3 119/3/3 118/3/3
f 122/3/3 119/3/3 121/3/3
f 126/1/3 124/1/3 123/1/3
f 127/1/3 124/1/3 126/1/3
f 129/1/3 126/1/3 125/1/3
f 130/1/3 129/1/3 128/1/3
f 131/1/3 126/1/3 129/1/3
f 131/1/3 129/1/3 130/1/3
f 132/1/3 126/1/3 131/1/3
f 133/1/3 126/1/3 132/1/3
f 135/1/3 134/1/3 133/1/3
f 136/1/3 134/1/3 135/1/3
f 139/1/3 138/1/3 137/1/3
f 140/1/3 138/1/3 139/1/3
f 143/1/3 142/1/3 141/1/3
f 144/1/3 142/1/3 143/1/3
f 147/4/3 146/4/3 145/4/3
f 148/4/3 146/4/3 147/4/3
f 151/3/3 150/3/3 149/3/3
f 152/3/3 150/3/3 151/3/3
f 153/3/4 154/3/4 155/3/4
f 155/3/4 154/3/4 156/3/4
f 153/3/4 155/3/4 157/3/4
f 157/3/4 155/3/4 158/3/4
f 159/4/4 160/4/4 161/4/4
f 161/4/4 160/4/4 162/4/4
f 163/4/4 164/4/4 165/4/4
f 165/4/4 164/4/4 166/4/4
f 167/1/4 168/1/4 169/1/4
f 169/1/4 168/1/4 170/1/4
f 171/1/4 172/1/4 173/1/4
f 173/1/4 172/1/4 174/1/4
f 175/1/4 176/1/4 178/1/4
f 178/1/4 176/1/4 179/1/4
f 177/1/4 178/1/4 181/1/4
f 180/1/4 181/1/4 182/1/4
f 181/1/4 178/1/4 183/1/4
f 182/1/4 181/1/4 183/1/4
f 183/1/4 178/1/4 184/1/4
f 184/1/4 178/1/4 185/1/4
f 185/1/4 186/1/4 187/1/4
f 187/1/4 186/1/4 188/1/4
f 189/3/4 190/3/4 191/3/4
f 191/3/4 190/3/4 192/3/4
f 194/1/4 195/1/4 196/1/4
f 196/1/4 195/1/4 197/1/4
f 192/3/4 193/3/4 199/3/4
f 199/3/4 193/3/4 200/3/4
f 198/3/4 199/3/4 201/3/4
f 201/3/4 199/3/4 202/3/4
f 203/3/4 204/3/4 205/3/4
f 205/3/4 204/3/4 206/3/4
f 210/3/5 208/3/5 207/3/5
f 211/3/5 208/3/5 210/3/5
f 213/3/5 210/3/5 209/3/5
f 213/3/5 212/3/5 211/3/5
f 213/3/5 211/3/5 210/3/5
f 214/3/5 212/3/5 213/3/5
f 215/3/5 212/3/5 214/3/5
f 216/3/5 212/3/5 215/3/5
f 217/3/5 215/3/5 214/3/5
f 218/3/5 215/3/5 217/3/5
f 221/4/5 220/4/5 219/4/5
f 222/4/5 220/4/5 221/4/5
f 225/4/5 224/4/5 223/4/5
f 226/4/5 224/4/5 225/4/5
f 229/3/5 228/3/5 227/3/5
f 231/3/5 229/3/5 227/3/5
f 231/3/5 230/3/5 229/3/5
f 232/3/5 230/3/5 231/3/5
f 233/3/5 231/3/5 227/3/5
f 235/3/5 233/3/5 227/3/5
f 235/3/5 234/3/5 233/3/5
f 236/3/5 234/3/5 235/3/5
f 241/1/5 238/1/5 237/1/5
f 242/1/5 238/1/5 241/1/5
f 243/1/5 240/1/5 239/1/5
f 244/1/5 240/1/5 243/1/5
f 249/1/5 246/1/5 245/1/5
f 250/1/5 246/1/5 249/1/5
f 251/1/5 248/1/5 247/1/5
f 252/1/5 248/1/5 251/1/5
f 256/1/5 254/1/5 253/1/5
f 257/1/5 254/1/5 256/1/5
f 259/1/5 256/1/5 255/1/5
f 260/1/5 256/1/5 259/1/5
f 261/1/5 258/1/5 257/1/5
f 262/1/5 258/1/5 261/1/5
f 263/1/5 261/1/5 260/1/5
f 264/1/5 261/1/5 263/1/5
f 265/2/6 266/2/6 267/2/6
f 267/2/6 266/2/6 268/2/6
f 269/3/6 270/3/6 272/3/6
f 272/3/6 270/3/6 273/3/6
f 271/3/6 272/3/6 275/3/6
f 275/3/6 272/3/6 276/3/6
f 273/3/6 274/3/6 277/3/6
f 277/3/6 274/3/6 278/3/6
f 276/3/6 277/3/6 279/3/6
f 279/3/6 277/3/6 280/3/6
f 281/3/6 282/3/6 283/3/6
f 283/3/6 282/3/6 284/3/6
f 281/3/6 283/3/6 285/3/6
f 285/3/6 283/3/6 286/3/6
f 284/3/6 282/3/6 287/3/6
f 287/3/6 282/3/6 288/3/6
f 281/3/6 285/3/6 289/3/6
f 288/3/6 282/3/6 292/3/6
f 289/3/6 290/3/6 293/3/6
f 291/3/6 292/3/6 294/3/6
f 289/3/6 293/3/6 295/3/6
f 293/3/6 294/3/6 295/3/6
f 281/3/6 289/3/6 295/3/6
f 294/3/6 292/3/6 296/3/6
f 295/3/6 294/3/6 296/3/6
f 292/3/6 282/3/6 296/3/6
f 297/1/6 298/1/6 300/1/6
f 300/1/6 298/1/6 301/1/6
f 299/1/6 300/1/6 303/1/6
f 301/1/6 302/1/6 303/1/6
f 300/1/6 301/1/6 303/1/6
f 303/1/6 302/1/6 304/1/6
f 304/1/6 302/1/6 305/1/6
f 305/1/6 302/1/6 306/1/6
f 304/1/6 305/1/6 307/1/6
f 307/1/6 305/1/6 308/1/6
