# MagicaVoxel @ Ephtracy

# group
o 

# material
mtllib Chainik.mtl
usemtl palette

# normals
vn -1 0 0
vn 1 0 0
vn 0 0 1
vn 0 0 -1
vn 0 -1 0
vn 0 1 0

# texcoords
vt 0.00195313 0.5
vt 0.0527344 0.5
vt 0.0566406 0.5
vt 0.705078 0.5
vt 0.767578 0.5
vt 0.830078 0.5
vt 0.861328 0.5
vt 0.908203 0.5
vt 0.923828 0.5

# verts
v -0.2 0 0.1
v -0.2 0 -0.2
v -0.2 0.1 0.1
v -0.2 0.1 -0.2
v -0.2 0.2 0.1
v -0.2 0.2 -0.2
v -0.2 0.4 0
v -0.2 0.4 -0.1
v -0.2 0.6 0
v -0.2 0.6 -0.1
v -0.2 0.8 0.1
v -0.2 0.8 -0.2
v -0.1 0 0.2
v -0.1 0 0.1
v -0.1 0 -0.2
v -0.1 0 -0.3
v -0.1 0.1 0.2
v -0.1 0.1 0.1
v -0.1 0.1 -0.2
v -0.1 0.1 -0.3
v -0.1 0.2 0.2
v -0.1 0.2 0.1
v -0.1 0.2 -0.2
v -0.1 0.2 -0.3
v -0.1 0.8 0.2
v -0.1 0.8 0.1
v -0.1 0.8 -0.2
v -0.1 0.8 -0.3
v 0 0.2 0.4
v 0 0.2 0.3
v 0 0.3 0.4
v 0 0.3 0.3
v 0 0.6 0.4
v 0 0.6 0.3
v 0 0.6 0.2
v 0 0.6 -0.3
v 0 0.6 -0.4
v 0 0.7 0.3
v 0 0.7 0.2
v 0 0.7 -0.3
v 0 0.7 -0.4
v 0 0.8 0
v 0 0.8 -0.1
v 0 0.9 0
v 0 0.9 -0.1
v 0.1 0.2 0.4
v 0.1 0.2 0.3
v 0.1 0.3 0.4
v 0.1 0.3 0.3
v 0.1 0.6 0.4
v 0.1 0.6 0.3
v 0.1 0.6 0.2
v 0.1 0.6 -0.3
v 0.1 0.6 -0.4
v 0.1 0.7 0.3
v 0.1 0.7 0.2
v 0.1 0.7 -0.3
v 0.1 0.7 -0.4
v 0.1 0.8 0
v 0.1 0.8 -0.1
v 0.1 0.9 0
v 0.1 0.9 -0.1
v 0.2 0 0.2
v 0.2 0 0.1
v 0.2 0 -0.2
v 0.2 0 -0.3
v 0.2 0.1 0.2
v 0.2 0.1 0.1
v 0.2 0.1 -0.2
v 0.2 0.1 -0.3
v 0.2 0.2 0.2
v 0.2 0.2 0.1
v 0.2 0.2 -0.2
v 0.2 0.2 -0.3
v 0.2 0.8 0.2
v 0.2 0.8 0.1
v 0.2 0.8 -0.2
v 0.2 0.8 -0.3
v 0.3 0 0.1
v 0.3 0 -0.2
v 0.3 0.1 0.1
v 0.3 0.1 -0.2
v 0.3 0.2 0.1
v 0.3 0.2 -0.2
v 0.3 0.8 0.1
v 0.3 0.8 -0.2
v 0 0.2 0.4
v 0 0.3 0.4
v 0 0.6 0.4
v 0.1 0.2 0.4
v 0.1 0.3 0.4
v 0.1 0.6 0.4
v 0 0.6 0.3
v 0 0.7 0.3
v 0.1 0.6 0.3
v 0.1 0.7 0.3
v -0.1 0 0.2
v -0.1 0.1 0.2
v -0.1 0.2 0.2
v -0.1 0.8 0.2
v 0 0.6 0.2
v 0 0.7 0.2
v 0.1 0.6 0.2
v 0.1 0.7 0.2
v 0.2 0 0.2
v 0.2 0.1 0.2
v 0.2 0.2 0.2
v 0.2 0.8 0.2
v -0.2 0 0.1
v -0.2 0.1 0.1
v -0.2 0.2 0.1
v -0.2 0.8 0.1
v -0.1 0 0.1
v -0.1 0.1 0.1
v -0.1 0.2 0.1
v -0.1 0.8 0.1
v 0.2 0 0.1
v 0.2 0.1 0.1
v 0.2 0.2 0.1
v 0.2 0.8 0.1
v 0.3 0 0.1
v 0.3 0.1 0.1
v 0.3 0.2 0.1
v 0.3 0.8 0.1
v 0 0.8 0
v 0 0.9 0
v 0.1 0.8 0
v 0.1 0.9 0
v 0 0.2 0.3
v 0 0.3 0.3
v 0 0.6 0.3
v 0.1 0.2 0.3
v 0.1 0.3 0.3
v 0.1 0.6 0.3
v 0 0.8 -0.1
v 0 0.9 -0.1
v 0.1 0.8 -0.1
v 0.1 0.9 -0.1
v -0.2 0 -0.2
v -0.2 0.1 -0.2
v -0.2 0.2 -0.2
v -0.2 0.8 -0.2
v -0.1 0 -0.2
v -0.1 0.1 -0.2
v -0.1 0.2 -0.2
v -0.1 0.8 -0.2
v 0.2 0 -0.2
v 0.2 0.1 -0.2
v 0.2 0.2 -0.2
v 0.2 0.8 -0.2
v 0.3 0 -0.2
v 0.3 0.1 -0.2
v 0.3 0.2 -0.2
v 0.3 0.8 -0.2
v -0.1 0 -0.3
v -0.1 0.1 -0.3
v -0.1 0.2 -0.3
v -0.1 0.8 -0.3
v 0 0.5 -0.3
v 0 0.6 -0.3
v 0 0.7 -0.3
v 0.1 0.5 -0.3
v 0.1 0.6 -0.3
v 0.1 0.7 -0.3
v 0.2 0 -0.3
v 0.2 0.1 -0.3
v 0.2 0.2 -0.3
v 0.2 0.8 -0.3
v 0 0.6 -0.4
v 0 0.7 -0.4
v 0.1 0.6 -0.4
v 0.1 0.7 -0.4
v -0.1 0 0.2
v 0.2 0 0.2
v -0.2 0 0.1
v -0.1 0 0.1
v 0.2 0 0.1
v 0.3 0 0.1
v -0.2 0 -0.2
v -0.1 0 -0.2
v 0.2 0 -0.2
v 0.3 0 -0.2
v -0.1 0 -0.3
v 0.2 0 -0.3
v 0 0.2 0.4
v 0.1 0.2 0.4
v 0 0.2 0.3
v 0.1 0.2 0.3
v -0.1 0.2 0.2
v 0.2 0.2 0.2
v -0.2 0.2 0.1
v -0.1 0.2 0.1
v 0.2 0.2 0.1
v 0.3 0.2 0.1
v -0.2 0.2 -0.2
v -0.1 0.2 -0.2
v 0.2 0.2 -0.2
v 0.3 0.2 -0.2
v -0.1 0.2 -0.3
v 0.2 0.2 -0.3
v 0 0.6 0.3
v 0.1 0.6 0.3
v 0 0.6 0.2
v 0.1 0.6 0.2
v 0 0.6 -0.3
v 0.1 0.6 -0.3
v 0 0.6 -0.4
v 0.1 0.6 -0.4
v -0.1 0.1 0.2
v 0.2 0.1 0.2
v -0.2 0.1 0.1
v -0.1 0.1 0.1
v 0.2 0.1 0.1
v 0.3 0.1 0.1
v -0.2 0.1 -0.2
v -0.1 0.1 -0.2
v 0.2 0.1 -0.2
v 0.3 0.1 -0.2
v -0.1 0.1 -0.3
v 0.2 0.1 -0.3
v 0 0.6 0.4
v 0.1 0.6 0.4
v 0 0.6 0.3
v 0.1 0.6 0.3
v 0 0.7 0.3
v 0.1 0.7 0.3
v 0 0.7 0.2
v 0.1 0.7 0.2
v 0 0.7 -0.3
v 0.1 0.7 -0.3
v 0 0.7 -0.4
v 0.1 0.7 -0.4
v -0.1 0.8 0.2
v 0.2 0.8 0.2
v -0.2 0.8 0.1
v -0.1 0.8 0.1
v 0.2 0.8 0.1
v 0.3 0.8 0.1
v 0 0.8 0
v 0.1 0.8 0
v 0 0.8 -0.1
v 0.1 0.8 -0.1
v -0.2 0.8 -0.2
v -0.1 0.8 -0.2
v 0.2 0.8 -0.2
v 0.3 0.8 -0.2
v -0.1 0.8 -0.3
v 0.2 0.8 -0.3
v 0 0.9 0
v 0.1 0.9 0
v 0 0.9 -0.1
v 0.1 0.9 -0.1

# faces
f 3/9/1 2/9/1 1/9/1
f 4/9/1 2/9/1 3/9/1
f 7/9/1 6/9/1 5/9/1
f 8/9/1 6/9/1 7/9/1
f 9/9/1 7/9/1 5/9/1
f 9/1/1 8/1/1 7/1/1
f 10/9/1 6/9/1 8/9/1
f 10/1/1 8/1/1 9/1/1
f 11/9/1 9/9/1 5/9/1
f 11/9/1 10/9/1 9/9/1
f 12/9/1 6/9/1 10/9/1
f 12/9/1 10/9/1 11/9/1
f 17/9/1 14/9/1 13/9/1
f 18/9/1 14/9/1 17/9/1
f 19/9/1 16/9/1 15/9/1
f 20/9/1 16/9/1 19/9/1
f 22/3/1 19/3/1 18/3/1
f 23/3/1 19/3/1 22/3/1
f 25/9/1 22/9/1 21/9/1
f 26/9/1 22/9/1 25/9/1
f 27/9/1 24/9/1 23/9/1
f 28/9/1 24/9/1 27/9/1
f 31/7/1 30/7/1 29/7/1
f 32/7/1 30/7/1 31/7/1
f 33/4/1 32/4/1 31/4/1
f 34/4/1 32/4/1 33/4/1
f 38/8/1 35/8/1 34/8/1
f 39/8/1 35/8/1 38/8/1
f 40/5/1 37/5/1 36/5/1
f 41/5/1 37/5/1 40/5/1
f 44/2/1 43/2/1 42/2/1
f 45/2/1 43/2/1 44/2/1
f 46/7/2 47/7/2 48/7/2
f 48/7/2 47/7/2 49/7/2
f 48/4/2 49/4/2 50/4/2
f 50/4/2 49/4/2 51/4/2
f 51/8/2 52/8/2 55/8/2
f 55/8/2 52/8/2 56/8/2
f 53/5/2 54/5/2 57/5/2
f 57/5/2 54/5/2 58/5/2
f 59/2/2 60/2/2 61/2/2
f 61/2/2 60/2/2 62/2/2
f 63/9/2 64/9/2 67/9/2
f 67/9/2 64/9/2 68/9/2
f 65/9/2 66/9/2 69/9/2
f 69/9/2 66/9/2 70/9/2
f 68/3/2 69/3/2 72/3/2
f 72/3/2 69/3/2 73/3/2
f 71/9/2 72/9/2 75/9/2
f 75/9/2 72/9/2 76/9/2
f 73/9/2 74/9/2 77/9/2
f 77/9/2 74/9/2 78/9/2
f 79/9/2 80/9/2 81/9/2
f 81/9/2 80/9/2 82/9/2
f 83/9/2 84/9/2 85/9/2
f 85/9/2 84/9/2 86/9/2
f 90/7/3 88/7/3 87/7/3
f 91/4/3 89/4/3 88/4/3
f 91/7/3 88/7/3 90/7/3
f 92/4/3 89/4/3 91/4/3
f 95/8/3 94/8/3 93/8/3
f 96/8/3 94/8/3 95/8/3
f 101/9/3 100/9/3 99/9/3
f 102/9/3 100/9/3 101/9/3
f 103/9/3 101/9/3 99/9/3
f 104/9/3 100/9/3 102/9/3
f 105/9/3 98/9/3 97/9/3
f 106/9/3 98/9/3 105/9/3
f 107/9/3 104/9/3 103/9/3
f 107/9/3 103/9/3 99/9/3
f 108/9/3 100/9/3 104/9/3
f 108/9/3 104/9/3 107/9/3
f 113/9/3 110/9/3 109/9/3
f 114/9/3 110/9/3 113/9/3
f 115/9/3 112/9/3 111/9/3
f 116/9/3 112/9/3 115/9/3
f 118/3/3 115/3/3 114/3/3
f 119/3/3 115/3/3 118/3/3
f 121/9/3 118/9/3 117/9/3
f 122/9/3 118/9/3 121/9/3
f 123/9/3 120/9/3 119/9/3
f 124/9/3 120/9/3 123/9/3
f 127/2/3 126/2/3 125/2/3
f 128/2/3 126/2/3 127/2/3
f 129/7/4 130/7/4 132/7/4
f 130/4/4 131/4/4 133/4/4
f 132/7/4 130/7/4 133/7/4
f 133/4/4 131/4/4 134/4/4
f 135/2/4 136/2/4 137/2/4
f 137/2/4 136/2/4 138/2/4
f 139/9/4 140/9/4 143/9/4
f 143/9/4 140/9/4 144/9/4
f 141/9/4 142/9/4 145/9/4
f 145/9/4 142/9/4 146/9/4
f 144/3/4 145/3/4 148/3/4
f 148/3/4 145/3/4 149/3/4
f 147/9/4 148/9/4 151/9/4
f 151/9/4 148/9/4 152/9/4
f 149/9/4 150/9/4 153/9/4
f 153/9/4 150/9/4 154/9/4
f 157/9/4 158/9/4 159/9/4
f 159/9/4 158/9/4 160/9/4
f 160/9/4 158/9/4 161/9/4
f 157/9/4 159/9/4 162/9/4
f 159/6/4 160/6/4 162/6/4
f 162/6/4 160/6/4 163/6/4
f 161/9/4 158/9/4 164/9/4
f 155/9/4 156/9/4 165/9/4
f 165/9/4 156/9/4 166/9/4
f 163/9/4 164/9/4 167/9/4
f 162/9/4 163/9/4 167/9/4
f 157/9/4 162/9/4 167/9/4
f 164/9/4 158/9/4 168/9/4
f 167/9/4 164/9/4 168/9/4
f 169/5/4 170/5/4 171/5/4
f 171/5/4 170/5/4 172/5/4
f 176/9/5 174/9/5 173/9/5
f 177/9/5 174/9/5 176/9/5
f 179/9/5 176/9/5 175/9/5
f 179/9/5 178/9/5 177/9/5
f 179/9/5 177/9/5 176/9/5
f 180/9/5 178/9/5 179/9/5
f 181/9/5 178/9/5 180/9/5
f 182/9/5 178/9/5 181/9/5
f 183/9/5 181/9/5 180/9/5
f 184/9/5 181/9/5 183/9/5
f 187/7/5 186/7/5 185/7/5
f 188/7/5 186/7/5 187/7/5
f 192/9/5 190/9/5 189/9/5
f 193/9/5 190/9/5 192/9/5
f 195/9/5 192/9/5 191/9/5
f 196/9/5 192/9/5 195/9/5
f 197/9/5 194/9/5 193/9/5
f 198/9/5 194/9/5 197/9/5
f 199/9/5 197/9/5 196/9/5
f 200/9/5 197/9/5 199/9/5
f 203/8/5 202/8/5 201/8/5
f 204/8/5 202/8/5 203/8/5
f 207/5/5 206/5/5 205/5/5
f 208/5/5 206/5/5 207/5/5
f 209/9/6 210/9/6 212/9/6
f 212/9/6 210/9/6 213/9/6
f 211/9/6 212/9/6 215/9/6
f 215/9/6 212/9/6 216/9/6
f 213/9/6 214/9/6 217/9/6
f 217/9/6 214/9/6 218/9/6
f 216/9/6 217/9/6 219/9/6
f 219/9/6 217/9/6 220/9/6
f 221/4/6 222/4/6 223/4/6
f 223/4/6 222/4/6 224/4/6
f 225/8/6 226/8/6 227/8/6
f 227/8/6 226/8/6 228/8/6
f 229/5/6 230/5/6 231/5/6
f 231/5/6 230/5/6 232/5/6
f 233/9/6 234/9/6 236/9/6
f 236/9/6 234/9/6 237/9/6
f 236/6/6 237/6/6 239/6/6
f 239/6/6 237/6/6 240/6/6
f 236/6/6 239/6/6 241/6/6
f 240/6/6 237/6/6 242/6/6
f 235/9/6 236/9/6 243/9/6
f 241/6/6 242/6/6 244/6/6
f 243/9/6 236/9/6 244/9/6
f 236/6/6 241/6/6 244/6/6
f 237/9/6 238/9/6 245/9/6
f 244/6/6 242/6/6 245/6/6
f 242/6/6 237/6/6 245/6/6
f 245/9/6 238/9/6 246/9/6
f 244/9/6 245/9/6 247/9/6
f 247/9/6 245/9/6 248/9/6
f 249/2/6 250/2/6 251/2/6
f 251/2/6 250/2/6 252/2/6
