# MagicaVoxel @ Ephtracy

# group
o 

# material
mtllib Plant_10.mtl
usemtl palette

# normals
vn -1 0 0
vn 1 0 0
vn 0 0 1
vn 0 0 -1
vn 0 -1 0
vn 0 1 0

# texcoords
vt 0.0644531 0.5
vt 0.615234 0.5
vt 0.955078 0.5
vt 0.958984 0.5

# verts
v -0.2 0 0.2
v -0.2 0 -0.3
v -0.2 0.5 0.2
v -0.2 0.5 -0.3
v -0.1 0.8 0.1
v -0.1 0.8 0
v -0.1 0.8 -0.1
v -0.1 0.8 -0.2
v -0.1 0.9 0.1
v -0.1 0.9 0
v -0.1 0.9 -0.1
v -0.1 0.9 -0.2
v -0.1 1.1 0
v -0.1 1.1 -0.1
v -0.1 1.2 -0.1
v -0.1 1.2 -0.2
v -0.1 1.3 0.1
v -0.1 1.3 0
v -0.1 1.3 -0.1
v -0.1 1.3 -0.2
v -0.1 1.4 0.1
v -0.1 1.4 -0.1
v 0 0.4 0
v 0 0.4 -0.1
v 0 0.8 0
v 0 0.8 -0.1
v 0 0.9 0
v 0 0.9 -0.1
v 0 0.9 -0.2
v 0 0.9 -0.3
v 0 1 0
v 0 1 -0.1
v 0 1 -0.2
v 0 1 -0.3
v 0 1.1 0.1
v 0 1.1 0
v 0 1.1 -0.1
v 0 1.1 -0.2
v 0 1.2 -0.1
v 0 1.2 -0.2
v 0 1.3 0.1
v 0 1.3 0
v 0 1.3 -0.1
v 0 1.3 -0.2
v 0 1.4 -0.1
v 0 1.4 -0.2
v 0.1 1.3 0
v 0.1 1.3 -0.1
v 0.1 1.4 0
v 0.1 1.4 -0.1
v 0.2 0.4 0.1
v 0.2 0.4 -0.2
v 0.2 0.5 0.1
v 0.2 0.5 -0.2
v 0.2 0.8 0
v 0.2 0.8 -0.1
v 0.2 0.9 0
v 0.2 0.9 -0.1
v -0.1 0.4 0.1
v -0.1 0.4 -0.2
v -0.1 0.5 0.1
v -0.1 0.5 -0.2
v 0 0.8 0.1
v 0 0.8 0
v 0 0.9 0.1
v 0 0.9 0
v 0 1.3 0
v 0 1.3 -0.1
v 0 1.4 0
v 0 1.4 -0.1
v 0.1 0.4 0
v 0.1 0.4 -0.1
v 0.1 0.7 0
v 0.1 0.7 -0.1
v 0.1 0.8 0
v 0.1 0.8 -0.1
v 0.1 0.8 -0.2
v 0.1 0.9 -0.1
v 0.1 0.9 -0.2
v 0.1 0.9 -0.3
v 0.1 1 0
v 0.1 1 -0.1
v 0.1 1 -0.2
v 0.1 1 -0.3
v 0.1 1.1 0.1
v 0.1 1.1 0
v 0.1 1.1 -0.1
v 0.1 1.1 -0.2
v 0.1 1.2 0.1
v 0.1 1.2 0
v 0.1 1.3 0.1
v 0.1 1.3 0
v 0.1 1.3 -0.1
v 0.1 1.3 -0.2
v 0.1 1.4 0.1
v 0.1 1.4 0
v 0.2 0.7 0
v 0.2 0.7 -0.1
v 0.2 0.8 0
v 0.2 0.8 -0.1
v 0.2 1.1 0
v 0.2 1.1 -0.1
v 0.2 1.2 0.1
v 0.2 1.2 0
v 0.2 1.3 0.1
v 0.2 1.3 0
v 0.2 1.3 -0.1
v 0.2 1.3 -0.2
v 0.2 1.4 0
v 0.2 1.4 -0.2
v 0.3 0 0.2
v 0.3 0 -0.3
v 0.3 0.5 0.2
v 0.3 0.5 -0.3
v 0.3 0.8 0
v 0.3 0.8 -0.1
v 0.3 0.9 0
v 0.3 0.9 -0.1
v -0.2 0 0.2
v -0.2 0.5 0.2
v 0.3 0 0.2
v 0.3 0.5 0.2
v -0.1 0.8 0.1
v -0.1 0.9 0.1
v -0.1 1.3 0.1
v -0.1 1.4 0.1
v 0 0.8 0.1
v 0 0.9 0.1
v 0 1.1 0.1
v 0 1.3 0.1
v 0.1 1.1 0.1
v 0.1 1.2 0.1
v 0.1 1.3 0.1
v 0.1 1.4 0.1
v 0.2 1.2 0.1
v 0.2 1.3 0.1
v -0.1 1.1 0
v -0.1 1.3 0
v 0 0.4 0
v 0 0.8 0
v 0 0.9 0
v 0 1 0
v 0 1.1 0
v 0 1.3 0
v 0.1 0.4 0
v 0.1 0.7 0
v 0.1 0.8 0
v 0.1 1 0
v 0.1 1.1 0
v 0.1 1.2 0
v 0.1 1.3 0
v 0.1 1.4 0
v 0.2 0.7 0
v 0.2 0.8 0
v 0.2 0.9 0
v 0.2 1.1 0
v 0.2 1.2 0
v 0.2 1.3 0
v 0.2 1.4 0
v 0.3 0.8 0
v 0.3 0.9 0
v -0.1 0.8 -0.1
v -0.1 0.9 -0.1
v 0 0.8 -0.1
v 0 0.9 -0.1
v 0 1.3 -0.1
v 0 1.4 -0.1
v 0.1 1.3 -0.1
v 0.1 1.4 -0.1
v -0.1 0.4 -0.2
v -0.1 0.5 -0.2
v 0 0.9 -0.2
v 0 1 -0.2
v 0.1 0.9 -0.2
v 0.1 1 -0.2
v 0.2 0.4 -0.2
v 0.2 0.5 -0.2
v -0.1 0.4 0.1
v -0.1 0.5 0.1
v 0.2 0.4 0.1
v 0.2 0.5 0.1
v -0.1 0.8 0
v -0.1 0.9 0
v 0 0.8 0
v 0 0.9 0
v 0 1.3 0
v 0 1.4 0
v 0.1 1.3 0
v 0.1 1.4 0
v -0.1 1.1 -0.1
v -0.1 1.2 -0.1
v -0.1 1.3 -0.1
v -0.1 1.4 -0.1
v 0 0.4 -0.1
v 0 0.8 -0.1
v 0 0.9 -0.1
v 0 1 -0.1
v 0 1.1 -0.1
v 0 1.2 -0.1
v 0 1.3 -0.1
v 0 1.4 -0.1
v 0.1 0.4 -0.1
v 0.1 0.7 -0.1
v 0.1 0.8 -0.1
v 0.1 0.9 -0.1
v 0.1 1 -0.1
v 0.1 1.1 -0.1
v 0.1 1.3 -0.1
v 0.2 0.7 -0.1
v 0.2 0.8 -0.1
v 0.2 0.9 -0.1
v 0.2 1.1 -0.1
v 0.2 1.3 -0.1
v 0.3 0.8 -0.1
v 0.3 0.9 -0.1
v -0.1 0.8 -0.2
v -0.1 0.9 -0.2
v -0.1 1.2 -0.2
v -0.1 1.3 -0.2
v 0 0.9 -0.2
v 0 1.1 -0.2
v 0 1.2 -0.2
v 0 1.3 -0.2
v 0 1.4 -0.2
v 0.1 0.8 -0.2
v 0.1 0.9 -0.2
v 0.1 1.1 -0.2
v 0.1 1.3 -0.2
v 0.2 1.3 -0.2
v 0.2 1.4 -0.2
v -0.2 0 -0.3
v -0.2 0.5 -0.3
v 0 0.9 -0.3
v 0 1 -0.3
v 0.1 0.9 -0.3
v 0.1 1 -0.3
v 0.3 0 -0.3
v 0.3 0.5 -0.3
v -0.2 0 0.2
v 0.3 0 0.2
v -0.2 0 -0.3
v 0.3 0 -0.3
v 0.1 0.7 0
v 0.2 0.7 0
v 0.1 0.7 -0.1
v 0.2 0.7 -0.1
v -0.1 0.8 0.1
v 0 0.8 0.1
v -0.1 0.8 0
v 0 0.8 0
v 0.2 0.8 0
v 0.3 0.8 0
v -0.1 0.8 -0.1
v 0 0.8 -0.1
v 0.1 0.8 -0.1
v 0.2 0.8 -0.1
v 0.3 0.8 -0.1
v -0.1 0.8 -0.2
v 0.1 0.8 -0.2
v 0 0.9 -0.2
v 0.1 0.9 -0.2
v 0 0.9 -0.3
v 0.1 0.9 -0.3
v 0 1.1 0.1
v 0.1 1.1 0.1
v -0.1 1.1 0
v 0 1.1 0
v 0.1 1.1 0
v 0.2 1.1 0
v -0.1 1.1 -0.1
v 0 1.1 -0.1
v 0.1 1.1 -0.1
v 0.2 1.1 -0.1
v 0 1.1 -0.2
v 0.1 1.1 -0.2
v 0.1 1.2 0.1
v 0.2 1.2 0.1
v 0.1 1.2 0
v 0.2 1.2 0
v -0.1 1.2 -0.1
v 0 1.2 -0.1
v -0.1 1.2 -0.2
v 0 1.2 -0.2
v -0.1 1.3 0.1
v 0 1.3 0.1
v -0.1 1.3 0
v 0 1.3 0
v 0.1 1.3 -0.1
v 0.2 1.3 -0.1
v 0.1 1.3 -0.2
v 0.2 1.3 -0.2
v -0.1 0.4 0.1
v 0.2 0.4 0.1
v 0 0.4 0
v 0.1 0.4 0
v 0 0.4 -0.1
v 0.1 0.4 -0.1
v -0.1 0.4 -0.2
v 0.2 0.4 -0.2
v -0.2 0.5 0.2
v 0.3 0.5 0.2
v -0.1 0.5 0.1
v 0.2 0.5 0.1
v -0.1 0.5 -0.2
v 0.2 0.5 -0.2
v -0.2 0.5 -0.3
v 0.3 0.5 -0.3
v 0.1 0.8 0
v 0.2 0.8 0
v 0.1 0.8 -0.1
v 0.2 0.8 -0.1
v -0.1 0.9 0.1
v 0 0.9 0.1
v -0.1 0.9 0
v 0 0.9 0
v 0.2 0.9 0
v 0.3 0.9 0
v -0.1 0.9 -0.1
v 0 0.9 -0.1
v 0.1 0.9 -0.1
v 0.2 0.9 -0.1
v 0.3 0.9 -0.1
v -0.1 0.9 -0.2
v 0 0.9 -0.2
v 0.1 0.9 -0.2
v 0 1 -0.2
v 0.1 1 -0.2
v 0 1 -0.3
v 0.1 1 -0.3
v 0.1 1.3 0.1
v 0.2 1.3 0.1
v 0 1.3 0
v 0.1 1.3 0
v 0.2 1.3 0
v -0.1 1.3 -0.1
v 0 1.3 -0.1
v 0.1 1.3 -0.1
v -0.1 1.3 -0.2
v 0 1.3 -0.2
v -0.1 1.4 0.1
v 0.1 1.4 0.1
v 0 1.4 0
v 0.1 1.4 0
v 0.2 1.4 0
v -0.1 1.4 -0.1
v 0 1.4 -0.1
v 0.1 1.4 -0.1
v 0 1.4 -0.2
v 0.2 1.4 -0.2

# faces
f 3/4/1 2/4/1 1/4/1
f 4/4/1 2/4/1 3/4/1
f 9/2/1 6/2/1 5/2/1
f 10/2/1 6/2/1 9/2/1
f 11/2/1 8/2/1 7/2/1
f 12/2/1 8/2/1 11/2/1
f 15/1/1 14/1/1 13/1/1
f 18/1/1 15/1/1 13/1/1
f 18/1/1 16/1/1 15/1/1
f 19/1/1 16/1/1 18/1/1
f 20/1/1 16/1/1 19/1/1
f 21/1/1 18/1/1 17/1/1
f 21/1/1 19/1/1 18/1/1
f 22/1/1 19/1/1 21/1/1
f 25/2/1 24/2/1 23/2/1
f 26/2/1 24/2/1 25/2/1
f 27/2/1 26/2/1 25/2/1
f 28/2/1 26/2/1 27/2/1
f 31/2/1 28/2/1 27/2/1
f 32/2/1 28/2/1 31/2/1
f 33/2/1 30/2/1 29/2/1
f 34/2/1 30/2/1 33/2/1
f 36/1/1 32/1/1 31/1/1
f 37/1/1 32/1/1 36/1/1
f 39/1/1 38/1/1 37/1/1
f 40/1/1 38/1/1 39/1/1
f 41/1/1 36/1/1 35/1/1
f 42/1/1 36/1/1 41/1/1
f 45/1/1 44/1/1 43/1/1
f 46/1/1 44/1/1 45/1/1
f 49/1/1 48/1/1 47/1/1
f 50/1/1 48/1/1 49/1/1
f 53/4/1 52/4/1 51/4/1
f 54/4/1 52/4/1 53/4/1
f 57/2/1 56/2/1 55/2/1
f 58/2/1 56/2/1 57/2/1
f 59/4/2 60/4/2 61/4/2
f 61/4/2 60/4/2 62/4/2
f 63/2/2 64/2/2 65/2/2
f 65/2/2 64/2/2 66/2/2
f 67/1/2 68/1/2 69/1/2
f 69/1/2 68/1/2 70/1/2
f 71/2/2 72/2/2 73/2/2
f 73/2/2 72/2/2 74/2/2
f 75/2/2 76/2/2 78/2/2
f 76/2/2 77/2/2 78/2/2
f 78/2/2 77/2/2 79/2/2
f 75/2/2 78/2/2 81/2/2
f 81/2/2 78/2/2 82/2/2
f 79/2/2 80/2/2 83/2/2
f 83/2/2 80/2/2 84/2/2
f 81/1/2 82/1/2 86/1/2
f 86/1/2 82/1/2 87/1/2
f 85/1/2 86/1/2 89/1/2
f 89/1/2 86/1/2 90/1/2
f 87/1/2 88/1/2 93/1/2
f 93/1/2 88/1/2 94/1/2
f 91/1/2 92/1/2 95/1/2
f 95/1/2 92/1/2 96/1/2
f 97/2/2 98/2/2 99/2/2
f 99/2/2 98/2/2 100/2/2
f 101/1/2 102/1/2 104/1/2
f 103/1/2 104/1/2 105/1/2
f 104/1/2 102/1/2 106/1/2
f 105/1/2 104/1/2 106/1/2
f 106/1/2 102/1/2 107/1/2
f 106/1/2 107/1/2 109/1/2
f 107/1/2 108/1/2 109/1/2
f 109/1/2 108/1/2 110/1/2
f 111/4/2 112/4/2 113/4/2
f 113/4/2 112/4/2 114/4/2
f 115/2/2 116/2/2 117/2/2
f 117/2/2 116/2/2 118/2/2
f 121/4/3 120/4/3 119/4/3
f 122/4/3 120/4/3 121/4/3
f 127/2/3 124/2/3 123/2/3
f 128/2/3 124/2/3 127/2/3
f 130/1/3 126/1/3 125/1/3
f 131/1/3 130/1/3 129/1/3
f 132/1/3 130/1/3 131/1/3
f 133/1/3 126/1/3 130/1/3
f 133/1/3 130/1/3 132/1/3
f 134/1/3 126/1/3 133/1/3
f 135/1/3 133/1/3 132/1/3
f 136/1/3 133/1/3 135/1/3
f 143/1/3 138/1/3 137/1/3
f 144/1/3 138/1/3 143/1/3
f 145/2/3 142/2/3 141/2/3
f 145/2/3 140/2/3 139/2/3
f 145/2/3 141/2/3 140/2/3
f 146/2/3 142/2/3 145/2/3
f 147/2/3 142/2/3 146/2/3
f 148/1/3 143/1/3 142/1/3
f 148/2/3 142/2/3 147/2/3
f 149/1/3 143/1/3 148/1/3
f 153/2/3 147/2/3 146/2/3
f 154/2/3 147/2/3 153/2/3
f 156/1/3 150/1/3 149/1/3
f 157/1/3 150/1/3 156/1/3
f 158/1/3 152/1/3 151/1/3
f 159/1/3 152/1/3 158/1/3
f 160/2/3 155/2/3 154/2/3
f 161/2/3 155/2/3 160/2/3
f 164/2/3 163/2/3 162/2/3
f 165/2/3 163/2/3 164/2/3
f 168/1/3 167/1/3 166/1/3
f 169/1/3 167/1/3 168/1/3
f 174/2/3 173/2/3 172/2/3
f 175/2/3 173/2/3 174/2/3
f 176/4/3 171/4/3 170/4/3
f 177/4/3 171/4/3 176/4/3
f 178/4/4 179/4/4 180/4/4
f 180/4/4 179/4/4 181/4/4
f 182/2/4 183/2/4 184/2/4
f 184/2/4 183/2/4 185/2/4
f 186/1/4 187/1/4 188/1/4
f 188/1/4 187/1/4 189/1/4
f 190/1/4 191/1/4 198/1/4
f 198/1/4 191/1/4 199/1/4
f 192/1/4 193/1/4 200/1/4
f 200/1/4 193/1/4 201/1/4
f 194/2/4 195/2/4 202/2/4
f 202/2/4 195/2/4 203/2/4
f 203/2/4 195/2/4 204/2/4
f 196/2/4 197/2/4 205/2/4
f 197/1/4 198/1/4 206/1/4
f 205/2/4 197/2/4 206/2/4
f 206/1/4 198/1/4 207/1/4
f 203/2/4 204/2/4 209/2/4
f 209/2/4 204/2/4 210/2/4
f 207/1/4 208/1/4 212/1/4
f 212/1/4 208/1/4 213/1/4
f 210/2/4 211/2/4 214/2/4
f 214/2/4 211/2/4 215/2/4
f 216/2/4 217/2/4 220/2/4
f 218/1/4 219/1/4 222/1/4
f 222/1/4 219/1/4 223/1/4
f 216/2/4 220/2/4 225/2/4
f 225/2/4 220/2/4 226/2/4
f 223/1/4 224/1/4 227/1/4
f 221/1/4 222/1/4 227/1/4
f 222/1/4 223/1/4 227/1/4
f 227/1/4 224/1/4 228/1/4
f 228/1/4 224/1/4 229/1/4
f 229/1/4 224/1/4 230/1/4
f 233/2/4 234/2/4 235/2/4
f 235/2/4 234/2/4 236/2/4
f 231/4/4 232/4/4 237/4/4
f 237/4/4 232/4/4 238/4/4
f 241/4/5 240/4/5 239/4/5
f 242/4/5 240/4/5 241/4/5
f 245/2/5 244/2/5 243/2/5
f 246/2/5 244/2/5 245/2/5
f 249/2/5 248/2/5 247/2/5
f 250/2/5 248/2/5 249/2/5
f 256/2/5 252/2/5 251/2/5
f 257/2/5 252/2/5 256/2/5
f 258/2/5 255/2/5 254/2/5
f 258/2/5 254/2/5 253/2/5
f 259/2/5 255/2/5 258/2/5
f 262/2/5 261/2/5 260/2/5
f 263/2/5 261/2/5 262/2/5
f 267/1/5 265/1/5 264/1/5
f 268/1/5 265/1/5 267/1/5
f 270/1/5 267/1/5 266/1/5
f 271/1/5 267/1/5 270/1/5
f 272/1/5 269/1/5 268/1/5
f 273/1/5 269/1/5 272/1/5
f 274/1/5 272/1/5 271/1/5
f 275/1/5 272/1/5 274/1/5
f 278/1/5 277/1/5 276/1/5
f 279/1/5 277/1/5 278/1/5
f 282/1/5 281/1/5 280/1/5
f 283/1/5 281/1/5 282/1/5
f 286/1/5 285/1/5 284/1/5
f 287/1/5 285/1/5 286/1/5
f 290/1/5 289/1/5 288/1/5
f 291/1/5 289/1/5 290/1/5
f 292/3/6 293/3/6 294/3/6
f 294/3/6 293/3/6 295/3/6
f 292/3/6 294/3/6 296/3/6
f 295/3/6 293/3/6 297/3/6
f 292/3/6 296/3/6 298/3/6
f 296/3/6 297/3/6 298/3/6
f 297/3/6 293/3/6 299/3/6
f 298/3/6 297/3/6 299/3/6
f 300/4/6 301/4/6 302/4/6
f 302/4/6 301/4/6 303/4/6
f 300/4/6 302/4/6 304/4/6
f 303/4/6 301/4/6 305/4/6
f 300/4/6 304/4/6 306/4/6
f 304/4/6 305/4/6 306/4/6
f 305/4/6 301/4/6 307/4/6
f 306/4/6 305/4/6 307/4/6
f 308/2/6 309/2/6 310/2/6
f 310/2/6 309/2/6 311/2/6
f 312/2/6 313/2/6 314/2/6
f 314/2/6 313/2/6 315/2/6
f 316/2/6 317/2/6 321/2/6
f 321/2/6 317/2/6 322/2/6
f 319/2/6 320/2/6 323/2/6
f 318/2/6 319/2/6 323/2/6
f 323/2/6 320/2/6 324/2/6
f 324/2/6 320/2/6 325/2/6
f 326/2/6 327/2/6 328/2/6
f 328/2/6 327/2/6 329/2/6
f 330/1/6 331/1/6 333/1/6
f 333/1/6 331/1/6 334/1/6
f 332/1/6 333/1/6 336/1/6
f 336/1/6 333/1/6 337/1/6
f 335/1/6 336/1/6 338/1/6
f 338/1/6 336/1/6 339/1/6
f 340/1/6 341/1/6 342/1/6
f 342/1/6 341/1/6 343/1/6
f 340/1/6 342/1/6 345/1/6
f 345/1/6 342/1/6 346/1/6
f 343/1/6 344/1/6 347/1/6
f 346/1/6 347/1/6 348/1/6
f 347/1/6 344/1/6 349/1/6
f 348/1/6 347/1/6 349/1/6
