# MagicaVoxel @ Ephtracy

# group
o 

# material
mtllib Plant_6.mtl
usemtl palette

# normals
vn -1 0 0
vn 1 0 0
vn 0 0 1
vn 0 0 -1
vn 0 -1 0
vn 0 1 0

# texcoords
vt 0.595703 0.5
vt 0.615234 0.5
vt 0.947266 0.5
vt 0.955078 0.5
vt 0.962891 0.5
vt 0.994141 0.5

# verts
v -0.3 0.9 0
v -0.3 0.9 -0.1
v -0.3 1 0
v -0.3 1 -0.1
v -0.3 1 -0.2
v -0.3 1.1 -0.1
v -0.3 1.1 -0.2
v -0.2 0 0.3
v -0.2 0 -0.3
v -0.2 0.1 0.3
v -0.2 0.1 -0.3
v -0.2 0.2 0.3
v -0.2 0.2 -0.3
v -0.2 0.7 0.3
v -0.2 0.7 -0.3
v -0.2 0.8 0.2
v -0.2 0.8 0.1
v -0.2 0.8 0
v -0.2 0.8 -0.1
v -0.2 0.9 0.3
v -0.2 0.9 0.2
v -0.2 0.9 0.1
v -0.2 0.9 0
v -0.2 0.9 -0.1
v -0.2 0.9 -0.2
v -0.2 1 0.3
v -0.2 1 0.2
v -0.2 1 -0.1
v -0.2 1 -0.2
v -0.1 0.1 0.2
v -0.1 0.1 -0.2
v -0.1 0.2 0.2
v -0.1 0.2 -0.2
v -0.1 0.7 0.2
v -0.1 0.7 0
v -0.1 0.8 0.3
v -0.1 0.8 0.2
v -0.1 0.8 0.1
v -0.1 0.8 0
v -0.1 0.9 0.3
v -0.1 0.9 0.2
v -0.1 0.9 0.1
v -0.1 0.9 0
v 0 0.6 0.1
v 0 0.6 0
v 0 0.7 0.1
v 0 0.7 0
v 0 0.7 -0.1
v 0 0.8 0
v 0 0.8 -0.1
v 0 0.8 -0.2
v 0 0.9 -0.1
v 0 0.9 -0.2
v 0 0.9 -0.3
v 0 1 -0.2
v 0 1 -0.3
v 0.1 0.8 0.2
v 0.1 0.8 0.1
v 0.1 0.9 0.3
v 0.1 0.9 0.2
v 0.1 0.9 0.1
v 0.1 1 0.3
v 0.1 1 0.2
v 0.2 0.9 0.2
v 0.2 0.9 0.1
v 0.2 1 0.3
v 0.2 1 0.2
v 0.2 1 0.1
v 0.2 1.1 0.3
v 0.2 1.1 0.2
v 0.3 0.6 0.2
v 0.3 0.6 0.1
v 0.3 0.6 0
v 0.3 0.6 -0.2
v 0.3 0.7 0.2
v 0.3 0.7 -0.2
v -0.2 0.9 0
v -0.2 0.9 -0.1
v -0.2 1 0
v -0.2 1 -0.1
v -0.2 1 -0.2
v -0.2 1.1 -0.1
v -0.2 1.1 -0.2
v -0.1 0.6 0.2
v -0.1 0.6 0.1
v -0.1 0.6 -0.2
v -0.1 0.7 0.2
v -0.1 0.7 0
v -0.1 0.7 -0.2
v -0.1 0.8 0.2
v -0.1 0.8 0.1
v -0.1 0.8 0
v -0.1 0.8 -0.1
v -0.1 0.9 0.3
v -0.1 0.9 0.2
v -0.1 0.9 0.1
v -0.1 0.9 0
v -0.1 0.9 -0.1
v -0.1 0.9 -0.2
v -0.1 1 0.3
v -0.1 1 0.2
v -0.1 1 -0.1
v -0.1 1 -0.2
v 0 0.7 0.2
v 0 0.7 0.1
v 0 0.8 0.3
v 0 0.8 0.2
v 0 0.8 0.1
v 0 0.8 0
v 0 0.9 0.3
v 0 0.9 0.2
v 0 0.9 0.1
v 0 0.9 0
v 0.1 0.6 0.1
v 0.1 0.6 0
v 0.1 0.7 0.1
v 0.1 0.7 0
v 0.1 0.7 -0.1
v 0.1 0.8 0.1
v 0.1 0.8 -0.1
v 0.2 0.8 0.2
v 0.2 0.8 0.1
v 0.2 0.8 -0.1
v 0.2 0.8 -0.2
v 0.2 0.9 0.3
v 0.2 0.9 0.2
v 0.2 0.9 0.1
v 0.2 0.9 -0.1
v 0.2 0.9 -0.2
v 0.2 0.9 -0.3
v 0.2 1 0.3
v 0.2 1 0.2
v 0.2 1 -0.2
v 0.2 1 -0.3
v 0.3 0.1 0.2
v 0.3 0.1 -0.2
v 0.3 0.2 0.2
v 0.3 0.2 -0.2
v 0.3 0.9 0.2
v 0.3 0.9 0.1
v 0.3 1 0.3
v 0.3 1 0.2
v 0.3 1 0.1
v 0.3 1.1 0.3
v 0.3 1.1 0.2
v 0.4 0 0.3
v 0.4 0 -0.3
v 0.4 0.1 0.3
v 0.4 0.1 -0.3
v 0.4 0.2 0.3
v 0.4 0.2 -0.3
v 0.4 0.7 0.3
v 0.4 0.7 -0.3
v -0.2 0 0.3
v -0.2 0.1 0.3
v -0.2 0.2 0.3
v -0.2 0.7 0.3
v -0.2 0.9 0.3
v -0.2 1 0.3
v -0.1 0.8 0.3
v -0.1 0.9 0.3
v -0.1 1 0.3
v 0 0.8 0.3
v 0 0.9 0.3
v 0.1 0.9 0.3
v 0.1 1 0.3
v 0.2 0.9 0.3
v 0.2 1 0.3
v 0.2 1.1 0.3
v 0.3 1 0.3
v 0.3 1.1 0.3
v 0.4 0 0.3
v 0.4 0.1 0.3
v 0.4 0.2 0.3
v 0.4 0.7 0.3
v -0.2 0.8 0.2
v -0.2 0.9 0.2
v -0.1 0.1 0.2
v -0.1 0.2 0.2
v -0.1 0.7 0.2
v -0.1 0.8 0.2
v -0.1 0.9 0.2
v 0 0.7 0.2
v 0 0.8 0.2
v 0.1 0.8 0.2
v 0.1 0.9 0.2
v 0.2 0.8 0.2
v 0.2 0.9 0.2
v 0.2 1 0.2
v 0.3 0.1 0.2
v 0.3 0.2 0.2
v 0.3 0.9 0.2
v 0.3 1 0.2
v -0.1 0.8 0.1
v -0.1 0.9 0.1
v 0 0.6 0.1
v 0 0.7 0.1
v 0 0.8 0.1
v 0 0.9 0.1
v 0.1 0.6 0.1
v 0.1 0.7 0.1
v 0.1 0.8 0.1
v -0.3 0.9 0
v -0.3 1 0
v -0.2 0.8 0
v -0.2 0.9 0
v -0.2 1 0
v -0.1 0.8 0
v -0.1 0.9 0
v -0.3 1 -0.1
v -0.3 1.1 -0.1
v -0.2 0.9 -0.1
v -0.2 1 -0.1
v -0.2 1.1 -0.1
v -0.1 0.9 -0.1
v -0.1 1 -0.1
v 0 0.8 -0.1
v 0 0.9 -0.1
v 0.1 0.8 -0.1
v 0.2 0.8 -0.1
v 0.2 0.9 -0.1
v -0.1 0.6 -0.2
v -0.1 0.7 -0.2
v 0 0.9 -0.2
v 0 1 -0.2
v 0.1 0.6 -0.2
v 0.2 0.6 -0.2
v 0.2 0.9 -0.2
v 0.2 1 -0.2
v 0.3 0.6 -0.2
v 0.3 0.7 -0.2
v -0.2 0.9 0.2
v -0.2 1 0.2
v -0.1 0.6 0.2
v -0.1 0.7 0.2
v -0.1 0.8 0.2
v -0.1 0.9 0.2
v -0.1 1 0.2
v 0 0.6 0.2
v 0 0.7 0.2
v 0 0.8 0.2
v 0 0.9 0.2
v 0.1 0.9 0.2
v 0.1 1 0.2
v 0.2 0.9 0.2
v 0.2 1 0.2
v 0.2 1.1 0.2
v 0.3 0.6 0.2
v 0.3 0.7 0.2
v 0.3 1 0.2
v 0.3 1.1 0.2
v -0.2 0.8 0.1
v -0.2 0.9 0.1
v -0.1 0.8 0.1
v -0.1 0.9 0.1
v 0.1 0.8 0.1
v 0.1 0.9 0.1
v 0.2 0.8 0.1
v 0.2 0.9 0.1
v 0.2 1 0.1
v 0.3 0.9 0.1
v 0.3 1 0.1
v -0.1 0.7 0
v -0.1 0.8 0
v -0.1 0.9 0
v 0 0.6 0
v 0 0.7 0
v 0 0.8 0
v 0 0.9 0
v 0.1 0.6 0
v 0.1 0.7 0
v -0.3 0.9 -0.1
v -0.3 1 -0.1
v -0.2 0.8 -0.1
v -0.2 0.9 -0.1
v -0.2 1 -0.1
v -0.1 0.8 -0.1
v -0.1 0.9 -0.1
v 0 0.7 -0.1
v 0 0.8 -0.1
v 0.1 0.7 -0.1
v 0.1 0.8 -0.1
v -0.3 1 -0.2
v -0.3 1.1 -0.2
v -0.2 0.9 -0.2
v -0.2 1 -0.2
v -0.2 1.1 -0.2
v -0.1 0.1 -0.2
v -0.1 0.2 -0.2
v -0.1 0.9 -0.2
v -0.1 1 -0.2
v 0 0.8 -0.2
v 0 0.9 -0.2
v 0.2 0.8 -0.2
v 0.2 0.9 -0.2
v 0.3 0.1 -0.2
v 0.3 0.2 -0.2
v -0.2 0 -0.3
v -0.2 0.1 -0.3
v -0.2 0.2 -0.3
v -0.2 0.7 -0.3
v 0 0.9 -0.3
v 0 1 -0.3
v 0.2 0.9 -0.3
v 0.2 1 -0.3
v 0.4 0 -0.3
v 0.4 0.1 -0.3
v 0.4 0.2 -0.3
v 0.4 0.7 -0.3
v -0.2 0 0.3
v 0.4 0 0.3
v -0.2 0 -0.3
v 0.4 0 -0.3
v -0.2 0.2 0.3
v 0.4 0.2 0.3
v -0.1 0.2 0.2
v 0.3 0.2 0.2
v -0.1 0.2 -0.2
v 0.3 0.2 -0.2
v -0.2 0.2 -0.3
v 0.4 0.2 -0.3
v -0.1 0.7 0.2
v 0 0.7 0.2
v 0 0.7 0.1
v -0.1 0.7 0
v 0 0.7 0
v 0.1 0.7 0
v 0 0.7 -0.1
v 0.1 0.7 -0.1
v -0.1 0.8 0.3
v 0 0.8 0.3
v -0.2 0.8 0.2
v -0.1 0.8 0.2
v 0 0.8 0.2
v 0.1 0.8 0.2
v 0.2 0.8 0.2
v -0.2 0.8 0.1
v -0.1 0.8 0.1
v 0.1 0.8 0.1
v 0.2 0.8 0.1
v -0.2 0.8 0
v -0.1 0.8 0
v -0.2 0.8 -0.1
v -0.1 0.8 -0.1
v 0 0.8 -0.1
v 0.1 0.8 -0.1
v 0.2 0.8 -0.1
v 0 0.8 -0.2
v 0.2 0.8 -0.2
v -0.2 0.9 0.3
v -0.1 0.9 0.3
v 0.1 0.9 0.3
v 0.2 0.9 0.3
v -0.2 0.9 0.2
v -0.1 0.9 0.2
v 0.1 0.9 0.2
v 0.2 0.9 0.2
v 0.3 0.9 0.2
v 0.2 0.9 0.1
v 0.3 0.9 0.1
v -0.3 0.9 0
v -0.2 0.9 0
v -0.3 0.9 -0.1
v -0.2 0.9 -0.1
v -0.1 0.9 -0.1
v -0.2 0.9 -0.2
v -0.1 0.9 -0.2
v 0 0.9 -0.2
v 0.2 0.9 -0.2
v 0 0.9 -0.3
v 0.2 0.9 -0.3
v 0.2 1 0.3
v 0.3 1 0.3
v 0.2 1 0.2
v 0.3 1 0.2
v -0.3 1 -0.1
v -0.2 1 -0.1
v -0.3 1 -0.2
v -0.2 1 -0.2
v -0.2 0.1 0.3
v 0.4 0.1 0.3
v -0.1 0.1 0.2
v 0.3 0.1 0.2
v -0.1 0.1 -0.2
v 0.3 0.1 -0.2
v -0.2 0.1 -0.3
v 0.4 0.1 -0.3
v -0.1 0.6 0.2
v 0 0.6 0.2
v 0.3 0.6 0.2
v -0.1 0.6 0.1
v 0 0.6 0.1
v 0.1 0.6 0.1
v 0.2 0.6 0.1
v 0.3 0.6 0.1
v 0 0.6 0
v 0.1 0.6 0
v 0.2 0.6 0
v 0.3 0.6 0
v 0.1 0.6 -0.1
v 0.2 0.6 -0.1
v -0.1 0.6 -0.2
v 0.1 0.6 -0.2
v 0.2 0.6 -0.2
v 0.3 0.6 -0.2
v -0.2 0.7 0.3
v 0.4 0.7 0.3
v -0.1 0.7 0.2
v 0 0.7 0.2
v 0.3 0.7 0.2
v -0.1 0.7 0
v -0.1 0.7 -0.2
v 0.3 0.7 -0.2
v -0.2 0.7 -0.3
v 0.4 0.7 -0.3
v -0.1 0.8 0.2
v 0 0.8 0.2
v -0.1 0.8 0.1
v 0 0.8 0.1
v 0.1 0.8 0.1
v 0 0.8 0
v 0 0.8 -0.1
v 0.1 0.8 -0.1
v -0.1 0.9 0.3
v 0 0.9 0.3
v -0.2 0.9 0.2
v -0.1 0.9 0.2
v 0 0.9 0.2
v 0.1 0.9 0.2
v 0.2 0.9 0.2
v -0.2 0.9 0.1
v -0.1 0.9 0.1
v 0 0.9 0.1
v 0.1 0.9 0.1
v 0.2 0.9 0.1
v -0.2 0.9 0
v -0.1 0.9 0
v 0 0.9 0
v -0.2 0.9 -0.1
v -0.1 0.9 -0.1
v 0 0.9 -0.1
v 0.2 0.9 -0.1
v 0 0.9 -0.2
v 0.2 0.9 -0.2
v -0.2 1 0.3
v -0.1 1 0.3
v 0.1 1 0.3
v 0.2 1 0.3
v -0.2 1 0.2
v -0.1 1 0.2
v 0.1 1 0.2
v 0.2 1 0.2
v 0.3 1 0.2
v 0.2 1 0.1
v 0.3 1 0.1
v -0.3 1 0
v -0.2 1 0
v -0.3 1 -0.1
v -0.2 1 -0.1
v -0.1 1 -0.1
v -0.2 1 -0.2
v -0.1 1 -0.2
v 0 1 -0.2
v 0.2 1 -0.2
v 0 1 -0.3
v 0.2 1 -0.3
v 0.2 1.1 0.3
v 0.3 1.1 0.3
v 0.2 1.1 0.2
v 0.3 1.1 0.2
v -0.3 1.1 -0.1
v -0.2 1.1 -0.1
v -0.3 1.1 -0.2
v -0.2 1.1 -0.2

# faces
f 3/2/1 2/2/1 1/2/1
f 4/2/1 2/2/1 3/2/1
f 6/2/1 5/2/1 4/2/1
f 7/2/1 5/2/1 6/2/1
f 10/5/1 9/5/1 8/5/1
f 11/5/1 9/5/1 10/5/1
f 14/5/1 13/5/1 12/5/1
f 15/5/1 13/5/1 14/5/1
f 21/2/1 17/2/1 16/2/1
f 22/2/1 17/2/1 21/2/1
f 23/2/1 19/2/1 18/2/1
f 24/2/1 19/2/1 23/2/1
f 26/2/1 21/2/1 20/2/1
f 27/2/1 21/2/1 26/2/1
f 28/2/1 25/2/1 24/2/1
f 29/2/1 25/2/1 28/2/1
f 32/6/1 31/6/1 30/6/1
f 33/6/1 31/6/1 32/6/1
f 37/2/1 35/2/1 34/2/1
f 38/2/1 35/2/1 37/2/1
f 39/2/1 35/2/1 38/2/1
f 40/2/1 37/2/1 36/2/1
f 41/2/1 37/2/1 40/2/1
f 42/2/1 39/2/1 38/2/1
f 43/2/1 39/2/1 42/2/1
f 46/1/1 45/1/1 44/1/1
f 47/1/1 45/1/1 46/1/1
f 49/2/1 48/2/1 47/2/1
f 50/2/1 48/2/1 49/2/1
f 52/2/1 51/2/1 50/2/1
f 53/2/1 51/2/1 52/2/1
f 55/2/1 54/2/1 53/2/1
f 56/2/1 54/2/1 55/2/1
f 60/2/1 58/2/1 57/2/1
f 61/2/1 58/2/1 60/2/1
f 62/2/1 60/2/1 59/2/1
f 63/2/1 60/2/1 62/2/1
f 67/2/1 65/2/1 64/2/1
f 68/2/1 65/2/1 67/2/1
f 69/2/1 67/2/1 66/2/1
f 70/2/1 67/2/1 69/2/1
f 75/5/1 72/5/1 71/5/1
f 75/5/1 74/5/1 73/5/1
f 75/5/1 73/5/1 72/5/1
f 76/5/1 74/5/1 75/5/1
f 77/2/2 78/2/2 79/2/2
f 79/2/2 78/2/2 80/2/2
f 80/2/2 81/2/2 82/2/2
f 82/2/2 81/2/2 83/2/2
f 84/5/2 85/5/2 87/5/2
f 85/5/2 86/5/2 87/5/2
f 87/5/2 86/5/2 88/5/2
f 88/5/2 86/5/2 89/5/2
f 90/2/2 91/2/2 95/2/2
f 95/2/2 91/2/2 96/2/2
f 92/2/2 93/2/2 97/2/2
f 97/2/2 93/2/2 98/2/2
f 94/2/2 95/2/2 100/2/2
f 100/2/2 95/2/2 101/2/2
f 98/2/2 99/2/2 102/2/2
f 102/2/2 99/2/2 103/2/2
f 104/2/2 105/2/2 107/2/2
f 107/2/2 105/2/2 108/2/2
f 106/2/2 107/2/2 110/2/2
f 110/2/2 107/2/2 111/2/2
f 108/2/2 109/2/2 112/2/2
f 112/2/2 109/2/2 113/2/2
f 114/1/2 115/1/2 116/1/2
f 116/1/2 115/1/2 117/1/2
f 116/2/2 117/2/2 119/2/2
f 117/2/2 118/2/2 119/2/2
f 119/2/2 118/2/2 120/2/2
f 121/2/2 122/2/2 126/2/2
f 126/2/2 122/2/2 127/2/2
f 123/2/2 124/2/2 128/2/2
f 128/2/2 124/2/2 129/2/2
f 125/2/2 126/2/2 131/2/2
f 131/2/2 126/2/2 132/2/2
f 129/2/2 130/2/2 133/2/2
f 133/2/2 130/2/2 134/2/2
f 135/6/2 136/6/2 137/6/2
f 137/6/2 136/6/2 138/6/2
f 139/2/2 140/2/2 142/2/2
f 142/2/2 140/2/2 143/2/2
f 141/2/2 142/2/2 144/2/2
f 144/2/2 142/2/2 145/2/2
f 146/5/2 147/5/2 148/5/2
f 148/5/2 147/5/2 149/5/2
f 150/5/2 151/5/2 152/5/2
f 152/5/2 151/5/2 153/5/2
f 161/2/3 159/2/3 158/2/3
f 162/2/3 159/2/3 161/2/3
f 163/2/3 161/2/3 160/2/3
f 164/2/3 161/2/3 163/2/3
f 167/2/3 166/2/3 165/2/3
f 168/2/3 166/2/3 167/2/3
f 170/2/3 169/2/3 168/2/3
f 171/2/3 169/2/3 170/2/3
f 172/5/3 155/5/3 154/5/3
f 173/5/3 155/5/3 172/5/3
f 174/5/3 157/5/3 156/5/3
f 175/5/3 157/5/3 174/5/3
f 181/2/3 177/2/3 176/2/3
f 182/2/3 177/2/3 181/2/3
f 183/2/3 181/2/3 180/2/3
f 184/2/3 181/2/3 183/2/3
f 187/2/3 186/2/3 185/2/3
f 188/2/3 186/2/3 187/2/3
f 190/6/3 179/6/3 178/6/3
f 191/6/3 179/6/3 190/6/3
f 192/2/3 189/2/3 188/2/3
f 193/2/3 189/2/3 192/2/3
f 198/2/3 195/2/3 194/2/3
f 199/2/3 195/2/3 198/2/3
f 200/1/3 197/1/3 196/1/3
f 201/2/3 198/2/3 197/2/3
f 201/1/3 197/1/3 200/1/3
f 202/2/3 198/2/3 201/2/3
f 206/2/3 204/2/3 203/2/3
f 207/2/3 204/2/3 206/2/3
f 208/2/3 206/2/3 205/2/3
f 209/2/3 206/2/3 208/2/3
f 213/2/3 211/2/3 210/2/3
f 214/2/3 211/2/3 213/2/3
f 215/2/3 213/2/3 212/2/3
f 216/2/3 213/2/3 215/2/3
f 219/2/3 218/2/3 217/2/3
f 220/2/3 218/2/3 219/2/3
f 221/2/3 218/2/3 220/2/3
f 226/5/3 223/5/3 222/5/3
f 227/5/3 223/5/3 226/5/3
f 228/2/3 225/2/3 224/2/3
f 229/2/3 225/2/3 228/2/3
f 230/5/3 223/5/3 227/5/3
f 231/5/3 223/5/3 230/5/3
f 232/2/4 233/2/4 237/2/4
f 237/2/4 233/2/4 238/2/4
f 234/5/4 235/5/4 239/5/4
f 239/5/4 235/5/4 240/5/4
f 236/2/4 237/2/4 241/2/4
f 241/2/4 237/2/4 242/2/4
f 243/2/4 244/2/4 245/2/4
f 245/2/4 244/2/4 246/2/4
f 239/5/4 240/5/4 248/5/4
f 248/5/4 240/5/4 249/5/4
f 246/2/4 247/2/4 250/2/4
f 250/2/4 247/2/4 251/2/4
f 252/2/4 253/2/4 254/2/4
f 254/2/4 253/2/4 255/2/4
f 256/2/4 257/2/4 258/2/4
f 258/2/4 257/2/4 259/2/4
f 259/2/4 260/2/4 261/2/4
f 261/2/4 260/2/4 262/2/4
f 263/2/4 264/2/4 267/2/4
f 264/2/4 265/2/4 267/2/4
f 267/2/4 265/2/4 268/2/4
f 268/2/4 265/2/4 269/2/4
f 266/1/4 267/1/4 270/1/4
f 270/1/4 267/1/4 271/1/4
f 272/2/4 273/2/4 275/2/4
f 275/2/4 273/2/4 276/2/4
f 274/2/4 275/2/4 277/2/4
f 277/2/4 275/2/4 278/2/4
f 279/2/4 280/2/4 281/2/4
f 281/2/4 280/2/4 282/2/4
f 283/2/4 284/2/4 286/2/4
f 286/2/4 284/2/4 287/2/4
f 285/2/4 286/2/4 290/2/4
f 290/2/4 286/2/4 291/2/4
f 292/2/4 293/2/4 294/2/4
f 294/2/4 293/2/4 295/2/4
f 288/6/4 289/6/4 296/6/4
f 296/6/4 289/6/4 297/6/4
f 302/2/4 303/2/4 304/2/4
f 304/2/4 303/2/4 305/2/4
f 298/5/4 299/5/4 306/5/4
f 306/5/4 299/5/4 307/5/4
f 300/5/4 301/5/4 308/5/4
f 308/5/4 301/5/4 309/5/4
f 312/5/5 311/5/5 310/5/5
f 313/5/5 311/5/5 312/5/5
f 316/5/5 315/5/5 314/5/5
f 317/5/5 315/5/5 316/5/5
f 318/5/5 316/5/5 314/5/5
f 319/5/5 315/5/5 317/5/5
f 320/5/5 318/5/5 314/5/5
f 320/5/5 319/5/5 318/5/5
f 321/5/5 315/5/5 319/5/5
f 321/5/5 319/5/5 320/5/5
f 324/2/5 323/2/5 322/2/5
f 325/2/5 324/2/5 322/2/5
f 326/2/5 324/2/5 325/2/5
f 328/2/5 327/2/5 326/2/5
f 329/2/5 327/2/5 328/2/5
f 333/2/5 331/2/5 330/2/5
f 334/2/5 331/2/5 333/2/5
f 337/2/5 333/2/5 332/2/5
f 338/2/5 333/2/5 337/2/5
f 339/2/5 336/2/5 335/2/5
f 340/2/5 336/2/5 339/2/5
f 343/2/5 342/2/5 341/2/5
f 344/2/5 342/2/5 343/2/5
f 348/2/5 347/2/5 346/2/5
f 348/2/5 346/2/5 345/2/5
f 349/2/5 347/2/5 348/2/5
f 354/2/5 351/2/5 350/2/5
f 355/2/5 351/2/5 354/2/5
f 356/2/5 353/2/5 352/2/5
f 357/2/5 353/2/5 356/2/5
f 359/2/5 358/2/5 357/2/5
f 360/2/5 358/2/5 359/2/5
f 363/2/5 362/2/5 361/2/5
f 364/2/5 362/2/5 363/2/5
f 366/2/5 365/2/5 364/2/5
f 367/2/5 365/2/5 366/2/5
f 370/2/5 369/2/5 368/2/5
f 371/2/5 369/2/5 370/2/5
f 374/2/5 373/2/5 372/2/5
f 375/2/5 373/2/5 374/2/5
f 378/2/5 377/2/5 376/2/5
f 379/2/5 377/2/5 378/2/5
f 380/5/6 381/5/6 382/5/6
f 382/5/6 381/5/6 383/5/6
f 380/5/6 382/5/6 384/5/6
f 383/5/6 381/5/6 385/5/6
f 380/5/6 384/5/6 386/5/6
f 384/5/6 385/5/6 386/5/6
f 385/5/6 381/5/6 387/5/6
f 386/5/6 385/5/6 387/5/6
f 388/3/6 389/3/6 391/3/6
f 389/4/6 390/4/6 392/4/6
f 391/3/6 389/3/6 392/3/6
f 392/4/6 390/4/6 393/4/6
f 393/4/6 390/4/6 394/4/6
f 394/4/6 390/4/6 395/4/6
f 391/4/6 392/4/6 396/4/6
f 393/4/6 394/4/6 397/4/6
f 394/6/6 395/6/6 398/6/6
f 397/4/6 394/4/6 398/4/6
f 398/6/6 395/6/6 399/6/6
f 396/4/6 397/4/6 400/4/6
f 397/4/6 398/4/6 400/4/6
f 398/4/6 399/4/6 400/4/6
f 400/4/6 399/4/6 401/4/6
f 391/4/6 396/4/6 402/4/6
f 396/4/6 400/4/6 402/4/6
f 400/3/6 401/3/6 403/3/6
f 402/4/6 400/4/6 403/4/6
f 401/4/6 399/4/6 404/4/6
f 403/3/6 401/3/6 404/3/6
f 404/4/6 399/4/6 405/4/6
f 406/5/6 407/5/6 408/5/6
f 408/5/6 407/5/6 409/5/6
f 409/5/6 407/5/6 410/5/6
f 406/5/6 408/5/6 411/5/6
f 406/5/6 411/5/6 412/5/6
f 410/5/6 407/5/6 413/5/6
f 406/5/6 412/5/6 414/5/6
f 412/5/6 413/5/6 414/5/6
f 413/5/6 407/5/6 415/5/6
f 414/5/6 413/5/6 415/5/6
f 416/2/6 417/2/6 418/2/6
f 418/2/6 417/2/6 419/2/6
f 419/2/6 420/2/6 421/2/6
f 421/2/6 420/2/6 422/2/6
f 422/2/6 420/2/6 423/2/6
f 424/2/6 425/2/6 427/2/6
f 427/2/6 425/2/6 428/2/6
f 426/2/6 427/2/6 431/2/6
f 431/2/6 427/2/6 432/2/6
f 429/2/6 430/2/6 434/2/6
f 434/2/6 430/2/6 435/2/6
f 432/2/6 433/2/6 437/2/6
f 437/2/6 433/2/6 438/2/6
f 436/2/6 437/2/6 439/2/6
f 439/2/6 437/2/6 440/2/6
f 441/2/6 442/2/6 443/2/6
f 443/2/6 442/2/6 444/2/6
f 445/2/6 446/2/6 449/2/6
f 449/2/6 446/2/6 450/2/6
f 447/2/6 448/2/6 451/2/6
f 451/2/6 448/2/6 452/2/6
f 452/2/6 453/2/6 454/2/6
f 454/2/6 453/2/6 455/2/6
f 456/2/6 457/2/6 458/2/6
f 458/2/6 457/2/6 459/2/6
f 459/2/6 460/2/6 461/2/6
f 461/2/6 460/2/6 462/2/6
f 463/2/6 464/2/6 465/2/6
f 465/2/6 464/2/6 466/2/6
f 467/2/6 468/2/6 469/2/6
f 469/2/6 468/2/6 470/2/6
f 471/2/6 472/2/6 473/2/6
f 473/2/6 472/2/6 474/2/6
