# MagicaVoxel @ Ephtracy

# group
o 

# material
mtllib Plant_9.mtl
usemtl palette

# normals
vn -1 0 0
vn 1 0 0
vn 0 0 1
vn 0 0 -1
vn 0 -1 0
vn 0 1 0

# texcoords
vt 0.595703 0.5
vt 0.615234 0.5
vt 0.955078 0.5
vt 0.958984 0.5
vt 0.962891 0.5
vt 0.966797 0.5
vt 0.994141 0.5

# verts
v -0.3 0.7 0.1
v -0.3 0.7 0
v -0.3 0.8 0.1
v -0.3 0.8 0
v -0.3 0.8 -0.1
v -0.3 0.9 0
v -0.3 0.9 -0.1
v -0.2 0 0.2
v -0.2 0 -0.3
v -0.2 0.5 0.2
v -0.2 0.5 -0.3
v -0.2 0.8 0.1
v -0.2 0.8 0
v -0.2 0.9 0.1
v -0.2 0.9 0
v -0.1 0.7 0
v -0.1 0.7 -0.1
v -0.1 0.8 0
v -0.1 0.8 -0.1
v -0.1 1.1 0
v -0.1 1.1 -0.1
v -0.1 1.2 0.1
v -0.1 1.2 0
v -0.1 1.2 -0.1
v -0.1 1.3 0.2
v -0.1 1.3 0.1
v -0.1 1.3 0
v -0.1 1.4 0.2
v -0.1 1.4 0.1
v 0 0.4 0
v 0 0.4 -0.1
v 0 0.5 0
v 0 0.5 -0.1
v 0 0.7 0.1
v 0 0.7 0
v 0 0.7 -0.1
v 0 0.8 0.1
v 0 0.8 0
v 0 0.8 -0.1
v 0 1 0
v 0 1 -0.1
v 0 1.1 0.1
v 0 1.1 0
v 0 1.1 -0.1
v 0 1.2 0.2
v 0 1.2 0.1
v 0 1.2 0
v 0 1.2 -0.1
v 0 1.2 -0.2
v 0 1.3 0.2
v 0 1.3 0.1
v 0 1.3 -0.1
v 0 1.3 -0.2
v 0.1 0.8 0.2
v 0.1 0.8 0.1
v 0.1 0.8 0
v 0.1 0.9 0.2
v 0.1 0.9 0
v 0.1 1.2 0
v 0.1 1.2 -0.1
v 0.1 1.3 0
v 0.1 1.3 -0.1
v 0.1 1.3 -0.2
v 0.1 1.4 -0.1
v 0.1 1.4 -0.2
v 0.2 0.4 0.1
v 0.2 0.4 -0.2
v 0.2 0.5 0.1
v 0.2 0.5 -0.2
v 0.2 0.7 0.2
v 0.2 0.7 0.1
v 0.2 0.8 0.2
v 0.2 0.8 0.1
v -0.2 0.7 0.1
v -0.2 0.7 0
v -0.2 0.8 0.1
v -0.2 0.8 0
v -0.1 0.4 0.1
v -0.1 0.4 -0.2
v -0.1 0.5 0.1
v -0.1 0.5 -0.2
v -0.1 0.8 0.1
v -0.1 0.8 0
v -0.1 0.8 -0.1
v -0.1 0.9 0.1
v -0.1 0.9 -0.1
v 0 1.2 0.1
v 0 1.2 0
v 0 1.3 0.2
v 0 1.3 0.1
v 0 1.3 0
v 0 1.4 0.2
v 0 1.4 0.1
v 0.1 0.4 0
v 0.1 0.4 -0.1
v 0.1 0.5 0
v 0.1 0.5 -0.1
v 0.1 0.7 0.1
v 0.1 0.7 0
v 0.1 0.8 0.1
v 0.1 0.8 0
v 0.1 0.9 0
v 0.1 1 0
v 0.1 1 -0.1
v 0.1 1.1 0
v 0.1 1.1 -0.1
v 0.1 1.2 0.2
v 0.1 1.2 0.1
v 0.1 1.2 0
v 0.1 1.2 -0.1
v 0.1 1.2 -0.2
v 0.1 1.3 0.2
v 0.1 1.3 0.1
v 0.1 1.3 -0.1
v 0.1 1.3 -0.2
v 0.2 0.8 0.2
v 0.2 0.8 0.1
v 0.2 0.9 0.2
v 0.2 0.9 0.1
v 0.2 1.1 0.1
v 0.2 1.1 0
v 0.2 1.2 0.1
v 0.2 1.2 0
v 0.2 1.2 -0.1
v 0.2 1.3 0
v 0.2 1.3 -0.1
v 0.2 1.3 -0.2
v 0.2 1.4 -0.1
v 0.2 1.4 -0.2
v 0.3 0 0.2
v 0.3 0 -0.3
v 0.3 0.5 0.2
v 0.3 0.5 -0.3
v 0.3 0.7 0.2
v 0.3 0.7 0.1
v 0.3 0.8 0.2
v 0.3 0.8 0.1
v 0.3 0.8 0
v 0.3 0.9 0.1
v 0.3 0.9 0
v -0.2 0 0.2
v -0.2 0.5 0.2
v -0.1 1.3 0.2
v -0.1 1.4 0.2
v 0 1.2 0.2
v 0 1.3 0.2
v 0 1.4 0.2
v 0.1 0.8 0.2
v 0.1 0.9 0.2
v 0.1 1.2 0.2
v 0.1 1.3 0.2
v 0.2 0.7 0.2
v 0.2 0.8 0.2
v 0.2 0.9 0.2
v 0.3 0 0.2
v 0.3 0.5 0.2
v 0.3 0.7 0.2
v 0.3 0.8 0.2
v -0.3 0.7 0.1
v -0.3 0.8 0.1
v -0.2 0.7 0.1
v -0.2 0.8 0.1
v -0.2 0.9 0.1
v -0.1 0.8 0.1
v -0.1 0.9 0.1
v -0.1 1.2 0.1
v -0.1 1.3 0.1
v 0 0.7 0.1
v 0 0.8 0.1
v 0 1.1 0.1
v 0 1.2 0.1
v 0 1.3 0.1
v 0.1 0.7 0.1
v 0.1 0.8 0.1
v 0.1 1.2 0.1
v 0.2 0.8 0.1
v 0.2 0.9 0.1
v 0.2 1.1 0.1
v 0.2 1.2 0.1
v 0.3 0.8 0.1
v 0.3 0.9 0.1
v -0.3 0.8 0
v -0.3 0.9 0
v -0.2 0.8 0
v -0.2 0.9 0
v -0.1 0.7 0
v -0.1 0.8 0
v -0.1 1.1 0
v -0.1 1.2 0
v 0 0.4 0
v 0 0.5 0
v 0 0.7 0
v 0 0.8 0
v 0 1 0
v 0 1.1 0
v 0 1.2 0
v 0.1 0.4 0
v 0.1 0.5 0
v 0.1 0.7 0
v 0.1 0.8 0
v 0.1 0.9 0
v 0.1 1 0
v 0.1 1.1 0
v 0.1 1.2 0
v 0.1 1.3 0
v 0.2 1.2 0
v 0.2 1.3 0
v 0 1.2 -0.1
v 0 1.3 -0.1
v 0.1 1.2 -0.1
v 0.1 1.3 -0.1
v 0.1 1.4 -0.1
v 0.2 1.3 -0.1
v 0.2 1.4 -0.1
v -0.1 0.4 -0.2
v -0.1 0.5 -0.2
v 0.2 0.4 -0.2
v 0.2 0.5 -0.2
v -0.1 0.4 0.1
v -0.1 0.5 0.1
v -0.1 1.3 0.1
v -0.1 1.4 0.1
v 0 1.2 0.1
v 0 1.3 0.1
v 0 1.4 0.1
v 0.1 1.2 0.1
v 0.1 1.3 0.1
v 0.2 0.4 0.1
v 0.2 0.5 0.1
v 0.2 0.7 0.1
v 0.2 0.8 0.1
v 0.3 0.7 0.1
v 0.3 0.8 0.1
v -0.3 0.7 0
v -0.3 0.8 0
v -0.2 0.7 0
v -0.2 0.8 0
v -0.1 1.2 0
v -0.1 1.3 0
v 0 1.2 0
v 0 1.3 0
v 0.1 0.8 0
v 0.1 0.9 0
v 0.1 1.1 0
v 0.1 1.2 0
v 0.2 1.1 0
v 0.2 1.2 0
v 0.3 0.8 0
v 0.3 0.9 0
v -0.3 0.8 -0.1
v -0.3 0.9 -0.1
v -0.1 0.7 -0.1
v -0.1 0.8 -0.1
v -0.1 0.9 -0.1
v -0.1 1.1 -0.1
v -0.1 1.2 -0.1
v 0 0.4 -0.1
v 0 0.5 -0.1
v 0 0.7 -0.1
v 0 0.8 -0.1
v 0 1 -0.1
v 0 1.1 -0.1
v 0 1.2 -0.1
v 0.1 0.4 -0.1
v 0.1 0.5 -0.1
v 0.1 1 -0.1
v 0.1 1.1 -0.1
v 0.1 1.2 -0.1
v 0.1 1.3 -0.1
v 0.2 1.2 -0.1
v 0.2 1.3 -0.1
v 0 1.2 -0.2
v 0 1.3 -0.2
v 0.1 1.2 -0.2
v 0.1 1.3 -0.2
v 0.1 1.4 -0.2
v 0.2 1.3 -0.2
v 0.2 1.4 -0.2
v -0.2 0 -0.3
v -0.2 0.5 -0.3
v 0.3 0 -0.3
v 0.3 0.5 -0.3
v -0.2 0 0.2
v 0.3 0 0.2
v -0.2 0 -0.3
v 0.3 0 -0.3
v 0.2 0.7 0.2
v 0.3 0.7 0.2
v -0.3 0.7 0.1
v -0.2 0.7 0.1
v 0 0.7 0.1
v 0.1 0.7 0.1
v 0.2 0.7 0.1
v 0.3 0.7 0.1
v -0.3 0.7 0
v -0.2 0.7 0
v -0.1 0.7 0
v 0 0.7 0
v 0.1 0.7 0
v -0.1 0.7 -0.1
v 0 0.7 -0.1
v 0.1 0.8 0.2
v 0.2 0.8 0.2
v -0.2 0.8 0.1
v -0.1 0.8 0.1
v 0.1 0.8 0.1
v 0.2 0.8 0.1
v 0.3 0.8 0.1
v -0.3 0.8 0
v -0.2 0.8 0
v -0.1 0.8 0
v 0.1 0.8 0
v 0.3 0.8 0
v -0.3 0.8 -0.1
v -0.1 0.8 -0.1
v 0 1.1 0.1
v 0.2 1.1 0.1
v -0.1 1.1 0
v 0 1.1 0
v 0.1 1.1 0
v 0.2 1.1 0
v -0.1 1.1 -0.1
v 0 1.1 -0.1
v 0 1.2 0.2
v 0.1 1.2 0.2
v -0.1 1.2 0.1
v 0 1.2 0.1
v 0.1 1.2 0.1
v -0.1 1.2 0
v 0 1.2 0
v 0.1 1.2 0
v 0.2 1.2 0
v 0 1.2 -0.1
v 0.1 1.2 -0.1
v 0.2 1.2 -0.1
v 0 1.2 -0.2
v 0.1 1.2 -0.2
v -0.1 1.3 0.2
v 0 1.3 0.2
v -0.1 1.3 0.1
v 0 1.3 0.1
v 0.1 1.3 -0.1
v 0.2 1.3 -0.1
v 0.1 1.3 -0.2
v 0.2 1.3 -0.2
v -0.1 0.4 0.1
v 0.2 0.4 0.1
v 0 0.4 0
v 0.1 0.4 0
v 0 0.4 -0.1
v 0.1 0.4 -0.1
v -0.1 0.4 -0.2
v 0.2 0.4 -0.2
v -0.2 0.5 0.2
v 0.3 0.5 0.2
v -0.1 0.5 0.1
v 0.2 0.5 0.1
v -0.1 0.5 -0.2
v 0.2 0.5 -0.2
v -0.2 0.5 -0.3
v 0.3 0.5 -0.3
v 0.2 0.8 0.2
v 0.3 0.8 0.2
v -0.3 0.8 0.1
v -0.2 0.8 0.1
v 0 0.8 0.1
v 0.1 0.8 0.1
v 0.2 0.8 0.1
v 0.3 0.8 0.1
v -0.3 0.8 0
v -0.2 0.8 0
v -0.1 0.8 0
v 0 0.8 0
v 0.1 0.8 0
v -0.1 0.8 -0.1
v 0 0.8 -0.1
v 0.1 0.9 0.2
v 0.2 0.9 0.2
v -0.2 0.9 0.1
v -0.1 0.9 0.1
v 0.2 0.9 0.1
v 0.3 0.9 0.1
v -0.3 0.9 0
v -0.2 0.9 0
v 0.1 0.9 0
v 0.3 0.9 0
v -0.3 0.9 -0.1
v -0.1 0.9 -0.1
v 0 1.2 0.1
v 0.1 1.2 0.1
v 0.2 1.2 0.1
v -0.1 1.2 0
v 0 1.2 0
v 0.1 1.2 0
v 0.2 1.2 0
v -0.1 1.2 -0.1
v 0 1.2 -0.1
v 0.1 1.2 -0.1
v 0 1.3 0.2
v 0.1 1.3 0.2
v -0.1 1.3 0.1
v 0 1.3 0.1
v 0.1 1.3 0.1
v -0.1 1.3 0
v 0 1.3 0
v 0.1 1.3 0
v 0.2 1.3 0
v 0 1.3 -0.1
v 0.1 1.3 -0.1
v 0.2 1.3 -0.1
v 0 1.3 -0.2
v 0.1 1.3 -0.2
v -0.1 1.4 0.2
v 0 1.4 0.2
v -0.1 1.4 0.1
v 0 1.4 0.1
v 0.1 1.4 -0.1
v 0.2 1.4 -0.1
v 0.1 1.4 -0.2
v 0.2 1.4 -0.2

# faces
f 3/2/1 2/2/1 1/2/1
f 4/2/1 2/2/1 3/2/1
f 6/2/1 5/2/1 4/2/1
f 7/2/1 5/2/1 6/2/1
f 10/7/1 9/7/1 8/7/1
f 11/7/1 9/7/1 10/7/1
f 14/2/1 13/2/1 12/2/1
f 15/2/1 13/2/1 14/2/1
f 18/2/1 17/2/1 16/2/1
f 19/2/1 17/2/1 18/2/1
f 23/5/1 21/5/1 20/5/1
f 24/5/1 21/5/1 23/5/1
f 26/5/1 23/5/1 22/5/1
f 27/5/1 23/5/1 26/5/1
f 28/5/1 26/5/1 25/5/1
f 29/5/1 26/5/1 28/5/1
f 32/1/1 31/1/1 30/1/1
f 33/1/1 31/1/1 32/1/1
f 35/2/1 33/2/1 32/2/1
f 36/2/1 33/2/1 35/2/1
f 37/2/1 35/2/1 34/2/1
f 38/2/1 35/2/1 37/2/1
f 40/2/1 39/2/1 38/2/1
f 41/2/1 39/2/1 40/2/1
f 43/6/1 41/6/1 40/6/1
f 44/6/1 41/6/1 43/6/1
f 46/5/1 43/5/1 42/5/1
f 47/5/1 43/5/1 46/5/1
f 50/5/1 46/5/1 45/5/1
f 51/5/1 46/5/1 50/5/1
f 52/4/1 49/4/1 48/4/1
f 53/4/1 49/4/1 52/4/1
f 57/2/1 55/2/1 54/2/1
f 57/2/1 56/2/1 55/2/1
f 58/2/1 56/2/1 57/2/1
f 61/4/1 60/4/1 59/4/1
f 62/4/1 60/4/1 61/4/1
f 64/4/1 63/4/1 62/4/1
f 65/4/1 63/4/1 64/4/1
f 68/7/1 67/7/1 66/7/1
f 69/7/1 67/7/1 68/7/1
f 72/2/1 71/2/1 70/2/1
f 73/2/1 71/2/1 72/2/1
f 74/2/2 75/2/2 76/2/2
f 76/2/2 75/2/2 77/2/2
f 78/7/2 79/7/2 80/7/2
f 80/7/2 79/7/2 81/7/2
f 82/2/2 83/2/2 85/2/2
f 83/2/2 84/2/2 85/2/2
f 85/2/2 84/2/2 86/2/2
f 87/5/2 88/5/2 90/5/2
f 90/5/2 88/5/2 91/5/2
f 89/5/2 90/5/2 92/5/2
f 92/5/2 90/5/2 93/5/2
f 94/1/2 95/1/2 96/1/2
f 96/1/2 95/1/2 97/1/2
f 96/2/2 97/2/2 99/2/2
f 98/2/2 99/2/2 100/2/2
f 99/2/2 97/2/2 101/2/2
f 100/2/2 99/2/2 101/2/2
f 101/2/2 97/2/2 102/2/2
f 102/2/2 97/2/2 103/2/2
f 103/2/2 97/2/2 104/2/2
f 103/6/2 104/6/2 105/6/2
f 105/6/2 104/6/2 106/6/2
f 105/4/2 106/4/2 109/4/2
f 109/4/2 106/4/2 110/4/2
f 107/5/2 108/5/2 112/5/2
f 112/5/2 108/5/2 113/5/2
f 110/4/2 111/4/2 114/4/2
f 114/4/2 111/4/2 115/4/2
f 116/2/2 117/2/2 118/2/2
f 118/2/2 117/2/2 119/2/2
f 120/5/2 121/5/2 122/5/2
f 122/5/2 121/5/2 123/5/2
f 123/4/2 124/4/2 125/4/2
f 125/4/2 124/4/2 126/4/2
f 126/4/2 127/4/2 128/4/2
f 128/4/2 127/4/2 129/4/2
f 130/7/2 131/7/2 132/7/2
f 132/7/2 131/7/2 133/7/2
f 134/2/2 135/2/2 136/2/2
f 136/2/2 135/2/2 137/2/2
f 137/2/2 138/2/2 139/2/2
f 139/2/2 138/2/2 140/2/2
f 146/5/3 144/5/3 143/5/3
f 147/5/3 144/5/3 146/5/3
f 150/5/3 146/5/3 145/5/3
f 151/5/3 146/5/3 150/5/3
f 153/2/3 149/2/3 148/2/3
f 154/2/3 149/2/3 153/2/3
f 155/7/3 142/7/3 141/7/3
f 156/7/3 142/7/3 155/7/3
f 157/2/3 153/2/3 152/2/3
f 158/2/3 153/2/3 157/2/3
f 161/2/3 160/2/3 159/2/3
f 162/2/3 160/2/3 161/2/3
f 164/2/3 163/2/3 162/2/3
f 165/2/3 163/2/3 164/2/3
f 171/5/3 167/5/3 166/5/3
f 172/5/3 167/5/3 171/5/3
f 173/2/3 169/2/3 168/2/3
f 174/2/3 169/2/3 173/2/3
f 175/5/3 171/5/3 170/5/3
f 178/5/3 175/5/3 170/5/3
f 179/5/3 175/5/3 178/5/3
f 180/2/3 177/2/3 176/2/3
f 181/2/3 177/2/3 180/2/3
f 184/2/3 183/2/3 182/2/3
f 185/2/3 183/2/3 184/2/3
f 192/2/3 187/2/3 186/2/3
f 193/2/3 187/2/3 192/2/3
f 195/5/3 189/5/3 188/5/3
f 196/5/3 189/5/3 195/5/3
f 197/1/3 191/1/3 190/1/3
f 198/2/3 192/2/3 191/2/3
f 198/1/3 191/1/3 197/1/3
f 199/2/3 192/2/3 198/2/3
f 200/2/3 194/2/3 193/2/3
f 201/2/3 194/2/3 200/2/3
f 202/6/3 195/6/3 194/6/3
f 202/2/3 194/2/3 201/2/3
f 203/6/3 195/6/3 202/6/3
f 206/4/3 205/4/3 204/4/3
f 207/4/3 205/4/3 206/4/3
f 210/4/3 209/4/3 208/4/3
f 211/4/3 209/4/3 210/4/3
f 213/4/3 212/4/3 211/4/3
f 214/4/3 212/4/3 213/4/3
f 217/7/3 216/7/3 215/7/3
f 218/7/3 216/7/3 217/7/3
f 221/5/4 222/5/4 224/5/4
f 224/5/4 222/5/4 225/5/4
f 223/5/4 224/5/4 226/5/4
f 226/5/4 224/5/4 227/5/4
f 219/7/4 220/7/4 228/7/4
f 228/7/4 220/7/4 229/7/4
f 230/2/4 231/2/4 232/2/4
f 232/2/4 231/2/4 233/2/4
f 234/2/4 235/2/4 236/2/4
f 236/2/4 235/2/4 237/2/4
f 238/5/4 239/5/4 240/5/4
f 240/5/4 239/5/4 241/5/4
f 244/5/4 245/5/4 246/5/4
f 246/5/4 245/5/4 247/5/4
f 242/2/4 243/2/4 248/2/4
f 248/2/4 243/2/4 249/2/4
f 250/2/4 251/2/4 253/2/4
f 253/2/4 251/2/4 254/2/4
f 252/2/4 253/2/4 259/2/4
f 259/2/4 253/2/4 260/2/4
f 255/5/4 256/5/4 262/5/4
f 262/5/4 256/5/4 263/5/4
f 257/1/4 258/1/4 264/1/4
f 260/2/4 261/2/4 265/2/4
f 264/1/4 258/1/4 265/1/4
f 258/2/4 259/2/4 265/2/4
f 259/2/4 260/2/4 265/2/4
f 261/6/4 262/6/4 266/6/4
f 265/2/4 261/2/4 266/2/4
f 262/4/4 263/4/4 267/4/4
f 266/6/4 262/6/4 267/6/4
f 267/4/4 263/4/4 268/4/4
f 268/4/4 269/4/4 270/4/4
f 270/4/4 269/4/4 271/4/4
f 272/4/4 273/4/4 274/4/4
f 274/4/4 273/4/4 275/4/4
f 275/4/4 276/4/4 277/4/4
f 277/4/4 276/4/4 278/4/4
f 279/7/4 280/7/4 281/7/4
f 281/7/4 280/7/4 282/7/4
f 285/7/5 284/7/5 283/7/5
f 286/7/5 284/7/5 285/7/5
f 293/2/5 288/2/5 287/2/5
f 294/2/5 288/2/5 293/2/5
f 295/2/5 290/2/5 289/2/5
f 296/2/5 290/2/5 295/2/5
f 298/2/5 292/2/5 291/2/5
f 299/2/5 292/2/5 298/2/5
f 300/2/5 298/2/5 297/2/5
f 301/2/5 298/2/5 300/2/5
f 306/2/5 303/2/5 302/2/5
f 307/2/5 303/2/5 306/2/5
f 310/2/5 305/2/5 304/2/5
f 311/2/5 305/2/5 310/2/5
f 312/2/5 308/2/5 307/2/5
f 312/2/5 307/2/5 306/2/5
f 313/2/5 308/2/5 312/2/5
f 314/2/5 311/2/5 310/2/5
f 314/2/5 310/2/5 309/2/5
f 315/2/5 311/2/5 314/2/5
f 319/5/5 317/5/5 316/5/5
f 320/5/5 317/5/5 319/5/5
f 321/5/5 317/5/5 320/5/5
f 322/5/5 319/5/5 318/5/5
f 323/5/5 319/5/5 322/5/5
f 327/5/5 325/5/5 324/5/5
f 328/5/5 325/5/5 327/5/5
f 329/5/5 327/5/5 326/5/5
f 330/5/5 327/5/5 329/5/5
f 334/4/5 332/4/5 331/4/5
f 335/4/5 332/4/5 334/4/5
f 336/4/5 334/4/5 333/4/5
f 337/4/5 334/4/5 336/4/5
f 340/5/5 339/5/5 338/5/5
f 341/5/5 339/5/5 340/5/5
f 344/4/5 343/4/5 342/4/5
f 345/4/5 343/4/5 344/4/5
f 346/3/6 347/3/6 348/3/6
f 348/3/6 347/3/6 349/3/6
f 346/3/6 348/3/6 350/3/6
f 349/3/6 347/3/6 351/3/6
f 346/3/6 350/3/6 352/3/6
f 350/3/6 351/3/6 352/3/6
f 351/3/6 347/3/6 353/3/6
f 352/3/6 351/3/6 353/3/6
f 354/7/6 355/7/6 356/7/6
f 356/7/6 355/7/6 357/7/6
f 354/7/6 356/7/6 358/7/6
f 357/7/6 355/7/6 359/7/6
f 354/7/6 358/7/6 360/7/6
f 358/7/6 359/7/6 360/7/6
f 359/7/6 355/7/6 361/7/6
f 360/7/6 359/7/6 361/7/6
f 362/2/6 363/2/6 368/2/6
f 368/2/6 363/2/6 369/2/6
f 364/2/6 365/2/6 370/2/6
f 370/2/6 365/2/6 371/2/6
f 366/2/6 367/2/6 373/2/6
f 373/2/6 367/2/6 374/2/6
f 372/2/6 373/2/6 375/2/6
f 375/2/6 373/2/6 376/2/6
f 377/2/6 378/2/6 381/2/6
f 379/2/6 380/2/6 384/2/6
f 381/2/6 382/2/6 385/2/6
f 377/2/6 381/2/6 385/2/6
f 385/2/6 382/2/6 386/2/6
f 383/2/6 384/2/6 387/2/6
f 384/2/6 380/2/6 388/2/6
f 387/2/6 384/2/6 388/2/6
f 389/5/6 390/5/6 393/5/6
f 390/5/6 391/5/6 393/5/6
f 393/5/6 391/5/6 394/5/6
f 394/5/6 391/5/6 395/5/6
f 392/5/6 393/5/6 396/5/6
f 393/4/6 394/4/6 397/4/6
f 396/5/6 393/5/6 397/5/6
f 397/4/6 394/4/6 398/4/6
f 399/5/6 400/5/6 402/5/6
f 402/5/6 400/5/6 403/5/6
f 401/5/6 402/5/6 404/5/6
f 404/5/6 402/5/6 405/5/6
f 406/4/6 407/4/6 409/4/6
f 409/4/6 407/4/6 410/4/6
f 408/4/6 409/4/6 411/4/6
f 411/4/6 409/4/6 412/4/6
f 413/5/6 414/5/6 415/5/6
f 415/5/6 414/5/6 416/5/6
f 417/4/6 418/4/6 419/4/6
f 419/4/6 418/4/6 420/4/6
