# MagicaVoxel @ Ephtracy

# group
o 

# material
mtllib OfficeTable.mtl
usemtl palette

# normals
vn -1 0 0
vn 1 0 0
vn 0 0 1
vn 0 0 -1
vn 0 -1 0
vn 0 1 0

# texcoords
vt 0.306641 0.5
vt 0.330078 0.5
vt 0.333984 0.5

# verts
v -0.9 0.9 0.6
v -0.9 0.9 -0.6
v -0.9 1 0.6
v -0.9 1 -0.6
v -0.8 0 0.4
v -0.8 0 -0.5
v -0.8 0.9 0.4
v -0.8 0.9 -0.5
v 0.7 0 0.4
v 0.7 0 -0.5
v 0.7 0.3 -0.3
v 0.7 0.3 -0.4
v 0.7 0.8 -0.3
v 0.7 0.8 -0.4
v 0.7 0.9 0.4
v 0.7 0.9 -0.5
v -0.7 0 0.4
v -0.7 0 -0.5
v -0.7 0.3 -0.3
v -0.7 0.3 -0.4
v -0.7 0.8 -0.3
v -0.7 0.8 -0.4
v -0.7 0.9 0.4
v -0.7 0.9 -0.5
v 0.8 0 0.4
v 0.8 0 -0.5
v 0.8 0.9 0.4
v 0.8 0.9 -0.5
v 0.9 0.9 0.6
v 0.9 0.9 -0.6
v 0.9 1 0.6
v 0.9 1 -0.6
v -0.9 0.9 0.6
v -0.9 1 0.6
v 0.9 0.9 0.6
v 0.9 1 0.6
v -0.8 0 0.4
v -0.8 0.9 0.4
v -0.7 0 0.4
v -0.7 0.9 0.4
v 0.7 0 0.4
v 0.7 0.9 0.4
v 0.8 0 0.4
v 0.8 0.9 0.4
v -0.7 0.3 -0.3
v -0.7 0.8 -0.3
v 0.7 0.3 -0.3
v 0.7 0.8 -0.3
v -0.7 0.3 -0.4
v -0.7 0.8 -0.4
v 0.7 0.3 -0.4
v 0.7 0.8 -0.4
v -0.8 0 -0.5
v -0.8 0.9 -0.5
v -0.7 0 -0.5
v -0.7 0.9 -0.5
v 0.7 0 -0.5
v 0.7 0.9 -0.5
v 0.8 0 -0.5
v 0.8 0.9 -0.5
v -0.9 0.9 -0.6
v -0.9 1 -0.6
v 0.9 0.9 -0.6
v 0.9 1 -0.6
v -0.8 0 0.4
v -0.7 0 0.4
v 0.7 0 0.4
v 0.8 0 0.4
v -0.8 0 -0.5
v -0.7 0 -0.5
v 0.7 0 -0.5
v 0.8 0 -0.5
v -0.7 0.3 -0.3
v 0.7 0.3 -0.3
v -0.7 0.3 -0.4
v 0.7 0.3 -0.4
v -0.9 0.9 0.6
v 0.9 0.9 0.6
v -0.8 0.9 0.4
v -0.7 0.9 0.4
v 0.7 0.9 0.4
v 0.8 0.9 0.4
v -0.8 0.9 -0.5
v -0.7 0.9 -0.5
v 0.7 0.9 -0.5
v 0.8 0.9 -0.5
v -0.9 0.9 -0.6
v 0.9 0.9 -0.6
v -0.7 0.8 -0.3
v 0.7 0.8 -0.3
v -0.7 0.8 -0.4
v 0.7 0.8 -0.4
v -0.9 1 0.6
v 0.9 1 0.6
v -0.9 1 -0.6
v 0.9 1 -0.6

# faces
f 3/1/1 2/1/1 1/1/1
f 4/1/1 2/1/1 3/1/1
f 7/2/1 6/2/1 5/2/1
f 8/2/1 6/2/1 7/2/1
f 11/2/1 10/2/1 9/2/1
f 12/2/1 10/2/1 11/2/1
f 13/2/1 11/2/1 9/2/1
f 14/2/1 10/2/1 12/2/1
f 15/2/1 13/2/1 9/2/1
f 15/2/1 14/2/1 13/2/1
f 16/2/1 10/2/1 14/2/1
f 16/2/1 14/2/1 15/2/1
f 17/2/2 18/2/2 19/2/2
f 19/2/2 18/2/2 20/2/2
f 17/2/2 19/2/2 21/2/2
f 20/2/2 18/2/2 22/2/2
f 17/2/2 21/2/2 23/2/2
f 21/2/2 22/2/2 23/2/2
f 22/2/2 18/2/2 24/2/2
f 23/2/2 22/2/2 24/2/2
f 25/2/2 26/2/2 27/2/2
f 27/2/2 26/2/2 28/2/2
f 29/1/2 30/1/2 31/1/2
f 31/1/2 30/1/2 32/1/2
f 35/1/3 34/1/3 33/1/3
f 36/1/3 34/1/3 35/1/3
f 39/2/3 38/2/3 37/2/3
f 40/2/3 38/2/3 39/2/3
f 43/2/3 42/2/3 41/2/3
f 44/2/3 42/2/3 43/2/3
f 47/3/3 46/3/3 45/3/3
f 48/3/3 46/3/3 47/3/3
f 49/3/4 50/3/4 51/3/4
f 51/3/4 50/3/4 52/3/4
f 53/2/4 54/2/4 55/2/4
f 55/2/4 54/2/4 56/2/4
f 57/2/4 58/2/4 59/2/4
f 59/2/4 58/2/4 60/2/4
f 61/1/4 62/1/4 63/1/4
f 63/1/4 62/1/4 64/1/4
f 69/2/5 66/2/5 65/2/5
f 70/2/5 66/2/5 69/2/5
f 71/2/5 68/2/5 67/2/5
f 72/2/5 68/2/5 71/2/5
f 75/3/5 74/3/5 73/3/5
f 76/3/5 74/3/5 75/3/5
f 79/1/5 78/1/5 77/1/5
f 80/1/5 78/1/5 79/1/5
f 81/1/5 78/1/5 80/1/5
f 82/1/5 78/1/5 81/1/5
f 83/1/5 79/1/5 77/1/5
f 84/1/5 81/1/5 80/1/5
f 85/1/5 81/1/5 84/1/5
f 86/1/5 78/1/5 82/1/5
f 87/1/5 85/1/5 84/1/5
f 87/1/5 86/1/5 85/1/5
f 87/1/5 83/1/5 77/1/5
f 87/1/5 84/1/5 83/1/5
f 88/1/5 78/1/5 86/1/5
f 88/1/5 86/1/5 87/1/5
f 89/3/6 90/3/6 91/3/6
f 91/3/6 90/3/6 92/3/6
f 93/1/6 94/1/6 95/1/6
f 95/1/6 94/1/6 96/1/6
