# MagicaVoxel @ Ephtracy

# group
o 

# material
mtllib Monitor_1.mtl
usemtl palette

# normals
vn -1 0 0
vn 1 0 0
vn 0 0 1
vn 0 0 -1
vn 0 -1 0
vn 0 1 0

# texcoords
vt 0.0488281 0.5
vt 0.0878906 0.5
vt 0.927734 0.5
vt 0.994141 0.5

# verts
v -1.4 0.7 0.1
v -1.4 0.7 0
v -1.4 0.7 -0.1
v -1.4 0.8 0
v -1.4 0.8 -0.1
v -1.4 0.9 0.1
v -1.4 0.9 0
v -1.4 2.3 0.1
v -1.4 2.3 0
v -1.4 2.3 -0.1
v -0.4 0 0.5
v -0.4 0 -0.2
v -0.4 0.1 0.5
v -0.4 0.1 0
v -0.4 0.1 -0.2
v -0.4 0.1 -0.3
v -0.4 0.2 0
v -0.4 0.2 -0.2
v -0.4 0.2 -0.3
v -0.4 0.2 -0.4
v -0.4 0.3 -0.2
v -0.4 0.3 -0.3
v -0.4 0.7 -0.2
v -0.4 0.7 -0.3
v -0.4 0.8 -0.1
v -0.4 0.8 -0.2
v -0.4 0.8 -0.3
v -0.4 0.8 -0.4
v -0.4 0.9 -0.2
v -0.4 0.9 -0.3
v -0.4 1 -0.1
v -0.4 1 -0.2
v 0.3 0 0.5
v 0.3 0 -0.2
v 0.3 0.1 0.5
v 0.3 0.1 0
v 0.3 0.1 -0.2
v 0.3 0.1 -0.3
v 0.3 0.2 0
v 0.3 0.2 -0.2
v 0.3 0.2 -0.3
v 0.3 0.2 -0.4
v 0.3 0.3 -0.2
v 0.3 0.3 -0.3
v 0.3 0.7 -0.2
v 0.3 0.7 -0.3
v 0.3 0.8 -0.1
v 0.3 0.8 -0.2
v 0.3 0.8 -0.3
v 0.3 0.8 -0.4
v 0.3 0.9 -0.2
v 0.3 0.9 -0.3
v 0.3 1 -0.1
v 0.3 1 -0.2
v 1.4 0.7 0.1
v 1.4 0.7 0
v 1.4 0.7 -0.1
v 1.4 0.8 0
v 1.4 0.8 -0.1
v 1.4 0.9 0.1
v 1.4 0.9 0
v 1.4 2.3 0.1
v 1.4 2.3 0
v 1.4 2.3 -0.1
v -0.4 0 0.5
v -0.4 0.1 0.5
v 0.3 0 0.5
v 0.3 0.1 0.5
v -1.4 0.7 0.1
v -1.4 0.9 0.1
v -1.4 2.3 0.1
v -1.2 0.8 0.1
v -1.2 0.9 0.1
v -1.1 0.8 0.1
v -1.1 0.9 0.1
v 1.4 0.7 0.1
v 1.4 0.9 0.1
v 1.4 2.3 0.1
v -0.4 0.1 0
v -0.4 0.2 0
v -0.3 0.1 0
v -0.3 0.2 0
v 0.2 0.1 0
v 0.2 0.2 0
v 0.3 0.1 0
v 0.3 0.2 0
v -0.4 0.2 -0.2
v -0.4 0.3 -0.2
v -0.4 0.7 -0.2
v -0.4 0.8 -0.2
v -0.3 0.2 -0.2
v -0.3 0.3 -0.2
v -0.3 0.7 -0.2
v -0.3 0.8 -0.2
v 0.2 0.2 -0.2
v 0.2 0.3 -0.2
v 0.2 0.7 -0.2
v 0.2 0.8 -0.2
v 0.3 0.2 -0.2
v 0.3 0.3 -0.2
v 0.3 0.7 -0.2
v 0.3 0.8 -0.2
v -0.4 0.3 -0.3
v -0.4 0.7 -0.3
v -0.3 0.3 -0.3
v -0.3 0.7 -0.3
v 0.2 0.3 -0.3
v 0.2 0.7 -0.3
v 0.3 0.3 -0.3
v 0.3 0.7 -0.3
v -1.4 0.7 -0.1
v -1.4 0.8 -0.1
v -1.4 2.3 -0.1
v -0.4 0.8 -0.1
v -0.4 1 -0.1
v -0.3 0.8 -0.1
v -0.3 1 -0.1
v 0.2 0.8 -0.1
v 0.2 1 -0.1
v 0.3 0.8 -0.1
v 0.3 1 -0.1
v 1.4 0.7 -0.1
v 1.4 0.8 -0.1
v 1.4 2.3 -0.1
v -0.4 0 -0.2
v -0.4 0.1 -0.2
v -0.4 0.9 -0.2
v -0.4 1 -0.2
v -0.3 0 -0.2
v -0.3 0.1 -0.2
v -0.3 0.9 -0.2
v -0.3 1 -0.2
v 0.2 0 -0.2
v 0.2 0.1 -0.2
v 0.2 0.9 -0.2
v 0.2 1 -0.2
v 0.3 0 -0.2
v 0.3 0.1 -0.2
v 0.3 0.9 -0.2
v 0.3 1 -0.2
v -0.4 0.1 -0.3
v -0.4 0.2 -0.3
v -0.4 0.8 -0.3
v -0.4 0.9 -0.3
v -0.3 0.1 -0.3
v -0.3 0.2 -0.3
v -0.3 0.8 -0.3
v -0.3 0.9 -0.3
v 0.2 0.1 -0.3
v 0.2 0.2 -0.3
v 0.2 0.8 -0.3
v 0.2 0.9 -0.3
v 0.3 0.1 -0.3
v 0.3 0.2 -0.3
v 0.3 0.8 -0.3
v 0.3 0.9 -0.3
v -0.4 0.2 -0.4
v -0.4 0.8 -0.4
v -0.3 0.2 -0.4
v -0.3 0.8 -0.4
v 0.2 0.2 -0.4
v 0.2 0.8 -0.4
v 0.3 0.2 -0.4
v 0.3 0.8 -0.4
v -0.4 0 0.5
v 0.3 0 0.5
v -0.3 0 0.4
v 0.2 0 0.4
v -0.4 0 -0.2
v -0.3 0 -0.2
v 0.2 0 -0.2
v 0.3 0 -0.2
v -0.4 0.1 -0.2
v -0.3 0.1 -0.2
v 0.2 0.1 -0.2
v 0.3 0.1 -0.2
v -0.4 0.1 -0.3
v -0.3 0.1 -0.3
v 0.2 0.1 -0.3
v 0.3 0.1 -0.3
v -0.4 0.2 -0.3
v -0.3 0.2 -0.3
v 0.2 0.2 -0.3
v 0.3 0.2 -0.3
v -0.4 0.2 -0.4
v -0.3 0.2 -0.4
v 0.2 0.2 -0.4
v 0.3 0.2 -0.4
v -1.4 0.7 0.1
v 1.4 0.7 0.1
v -1.4 0.7 0
v 1.4 0.7 0
v -1.4 0.7 -0.1
v 1.4 0.7 -0.1
v -0.4 0.7 -0.2
v -0.3 0.7 -0.2
v 0.2 0.7 -0.2
v 0.3 0.7 -0.2
v -0.4 0.7 -0.3
v -0.3 0.7 -0.3
v 0.2 0.7 -0.3
v 0.3 0.7 -0.3
v -0.4 0.8 -0.1
v -0.3 0.8 -0.1
v 0.2 0.8 -0.1
v 0.3 0.8 -0.1
v -0.4 0.8 -0.2
v -0.3 0.8 -0.2
v 0.2 0.8 -0.2
v 0.3 0.8 -0.2
v -0.4 0.1 0.5
v 0.3 0.1 0.5
v -0.3 0.1 0.4
v 0.2 0.1 0.4
v -0.4 0.1 0
v -0.3 0.1 0
v 0.2 0.1 0
v 0.3 0.1 0
v -0.4 0.2 0
v -0.3 0.2 0
v 0.2 0.2 0
v 0.3 0.2 0
v -0.4 0.2 -0.2
v -0.3 0.2 -0.2
v 0.2 0.2 -0.2
v 0.3 0.2 -0.2
v -0.4 0.3 -0.2
v -0.3 0.3 -0.2
v 0.2 0.3 -0.2
v 0.3 0.3 -0.2
v -0.4 0.3 -0.3
v -0.3 0.3 -0.3
v 0.2 0.3 -0.3
v 0.3 0.3 -0.3
v -0.4 0.8 -0.3
v -0.3 0.8 -0.3
v 0.2 0.8 -0.3
v 0.3 0.8 -0.3
v -0.4 0.8 -0.4
v -0.3 0.8 -0.4
v 0.2 0.8 -0.4
v 0.3 0.8 -0.4
v -0.4 0.9 -0.2
v -0.3 0.9 -0.2
v 0.2 0.9 -0.2
v 0.3 0.9 -0.2
v -0.4 0.9 -0.3
v -0.3 0.9 -0.3
v 0.2 0.9 -0.3
v 0.3 0.9 -0.3
v -0.4 1 -0.1
v -0.3 1 -0.1
v 0.2 1 -0.1
v 0.3 1 -0.1
v -0.4 1 -0.2
v -0.3 1 -0.2
v 0.2 1 -0.2
v 0.3 1 -0.2
v -1.4 2.3 0.1
v 1.4 2.3 0.1
v -1.4 2.3 0
v 1.4 2.3 0
v -1.4 2.3 -0.1
v 1.4 2.3 -0.1

# faces
f 4/1/1 2/1/1 1/1/1
f 4/4/1 3/4/1 2/4/1
f 5/4/1 3/4/1 4/4/1
f 6/1/1 4/1/1 1/1/1
f 6/1/1 5/1/1 4/1/1
f 7/1/1 5/1/1 6/1/1
f 8/3/1 7/3/1 6/3/1
f 9/1/1 5/1/1 7/1/1
f 9/3/1 7/3/1 8/3/1
f 10/1/1 5/1/1 9/1/1
f 13/3/1 12/3/1 11/3/1
f 14/3/1 12/3/1 13/3/1
f 15/3/1 12/3/1 14/3/1
f 17/3/1 16/3/1 15/3/1
f 17/3/1 15/3/1 14/3/1
f 18/3/1 16/3/1 17/3/1
f 19/3/1 16/3/1 18/3/1
f 21/3/1 20/3/1 19/3/1
f 21/3/1 19/3/1 18/3/1
f 22/3/1 20/3/1 21/3/1
f 24/3/1 20/3/1 22/3/1
f 26/3/1 24/3/1 23/3/1
f 27/3/1 20/3/1 24/3/1
f 27/3/1 24/3/1 26/3/1
f 28/3/1 20/3/1 27/3/1
f 29/3/1 26/3/1 25/3/1
f 29/3/1 27/3/1 26/3/1
f 30/3/1 27/3/1 29/3/1
f 31/3/1 29/3/1 25/3/1
f 32/3/1 29/3/1 31/3/1
f 33/3/2 34/3/2 35/3/2
f 35/3/2 34/3/2 36/3/2
f 36/3/2 34/3/2 37/3/2
f 37/3/2 38/3/2 39/3/2
f 36/3/2 37/3/2 39/3/2
f 39/3/2 38/3/2 40/3/2
f 40/3/2 38/3/2 41/3/2
f 41/3/2 42/3/2 43/3/2
f 40/3/2 41/3/2 43/3/2
f 43/3/2 42/3/2 44/3/2
f 44/3/2 42/3/2 46/3/2
f 45/3/2 46/3/2 48/3/2
f 46/3/2 42/3/2 49/3/2
f 48/3/2 46/3/2 49/3/2
f 49/3/2 42/3/2 50/3/2
f 47/3/2 48/3/2 51/3/2
f 48/3/2 49/3/2 51/3/2
f 51/3/2 49/3/2 52/3/2
f 47/3/2 51/3/2 53/3/2
f 53/3/2 51/3/2 54/3/2
f 55/1/2 56/1/2 58/1/2
f 56/4/2 57/4/2 58/4/2
f 58/4/2 57/4/2 59/4/2
f 55/1/2 58/1/2 60/1/2
f 58/1/2 59/1/2 60/1/2
f 60/1/2 59/1/2 61/1/2
f 60/3/2 61/3/2 62/3/2
f 61/1/2 59/1/2 63/1/2
f 62/3/2 61/3/2 63/3/2
f 63/1/2 59/1/2 64/1/2
f 67/3/3 66/3/3 65/3/3
f 68/3/3 66/3/3 67/3/3
f 72/1/3 70/1/3 69/1/3
f 73/3/3 71/3/3 70/3/3
f 73/1/3 70/1/3 72/1/3
f 74/1/3 72/1/3 69/1/3
f 74/3/3 73/3/3 72/3/3
f 75/3/3 71/3/3 73/3/3
f 75/3/3 73/3/3 74/3/3
f 76/1/3 74/1/3 69/1/3
f 76/1/3 75/1/3 74/1/3
f 77/3/3 71/3/3 75/3/3
f 77/1/3 75/1/3 76/1/3
f 78/3/3 71/3/3 77/3/3
f 81/3/3 80/3/3 79/3/3
f 82/3/3 80/3/3 81/3/3
f 83/2/3 82/2/3 81/2/3
f 84/2/3 82/2/3 83/2/3
f 85/3/3 84/3/3 83/3/3
f 86/3/3 84/3/3 85/3/3
f 91/3/3 88/3/3 87/3/3
f 92/3/3 88/3/3 91/3/3
f 93/3/3 90/3/3 89/3/3
f 94/3/3 90/3/3 93/3/3
f 95/2/3 92/2/3 91/2/3
f 96/2/3 92/2/3 95/2/3
f 97/2/3 94/2/3 93/2/3
f 98/2/3 94/2/3 97/2/3
f 99/3/3 96/3/3 95/3/3
f 100/3/3 96/3/3 99/3/3
f 101/3/3 98/3/3 97/3/3
f 102/3/3 98/3/3 101/3/3
f 105/3/3 104/3/3 103/3/3
f 106/3/3 104/3/3 105/3/3
f 107/2/3 106/2/3 105/2/3
f 108/2/3 106/2/3 107/2/3
f 109/3/3 108/3/3 107/3/3
f 110/3/3 108/3/3 109/3/3
f 111/4/4 112/4/4 114/4/4
f 112/1/4 113/1/4 114/1/4
f 114/1/4 113/1/4 115/1/4
f 111/4/4 114/4/4 116/4/4
f 115/1/4 113/1/4 117/1/4
f 111/4/4 116/4/4 118/4/4
f 117/1/4 113/1/4 119/1/4
f 111/4/4 118/4/4 120/4/4
f 119/1/4 113/1/4 121/1/4
f 111/4/4 120/4/4 122/4/4
f 120/1/4 121/1/4 123/1/4
f 122/4/4 120/4/4 123/4/4
f 121/1/4 113/1/4 124/1/4
f 123/1/4 121/1/4 124/1/4
f 125/3/4 126/3/4 129/3/4
f 129/3/4 126/3/4 130/3/4
f 127/3/4 128/3/4 131/3/4
f 131/3/4 128/3/4 132/3/4
f 129/2/4 130/2/4 133/2/4
f 133/2/4 130/2/4 134/2/4
f 131/2/4 132/2/4 135/2/4
f 135/2/4 132/2/4 136/2/4
f 133/3/4 134/3/4 137/3/4
f 137/3/4 134/3/4 138/3/4
f 135/3/4 136/3/4 139/3/4
f 139/3/4 136/3/4 140/3/4
f 141/3/4 142/3/4 145/3/4
f 145/3/4 142/3/4 146/3/4
f 143/3/4 144/3/4 147/3/4
f 147/3/4 144/3/4 148/3/4
f 145/2/4 146/2/4 149/2/4
f 149/2/4 146/2/4 150/2/4
f 147/2/4 148/2/4 151/2/4
f 151/2/4 148/2/4 152/2/4
f 149/3/4 150/3/4 153/3/4
f 153/3/4 150/3/4 154/3/4
f 151/3/4 152/3/4 155/3/4
f 155/3/4 152/3/4 156/3/4
f 157/3/4 158/3/4 159/3/4
f 159/3/4 158/3/4 160/3/4
f 159/2/4 160/2/4 161/2/4
f 161/2/4 160/2/4 162/2/4
f 161/3/4 162/3/4 163/3/4
f 163/3/4 162/3/4 164/3/4
f 167/3/5 166/3/5 165/3/5
f 168/3/5 166/3/5 167/3/5
f 169/3/5 167/3/5 165/3/5
f 170/2/5 168/2/5 167/2/5
f 170/3/5 167/3/5 169/3/5
f 171/3/5 166/3/5 168/3/5
f 171/2/5 168/2/5 170/2/5
f 172/3/5 166/3/5 171/3/5
f 177/3/5 174/3/5 173/3/5
f 178/2/5 175/2/5 174/2/5
f 178/3/5 174/3/5 177/3/5
f 179/3/5 176/3/5 175/3/5
f 179/2/5 175/2/5 178/2/5
f 180/3/5 176/3/5 179/3/5
f 185/3/5 182/3/5 181/3/5
f 186/2/5 183/2/5 182/2/5
f 186/3/5 182/3/5 185/3/5
f 187/3/5 184/3/5 183/3/5
f 187/2/5 183/2/5 186/2/5
f 188/3/5 184/3/5 187/3/5
f 191/1/5 190/1/5 189/1/5
f 192/1/5 190/1/5 191/1/5
f 193/4/5 192/4/5 191/4/5
f 194/4/5 192/4/5 193/4/5
f 199/3/5 196/3/5 195/3/5
f 200/2/5 197/2/5 196/2/5
f 200/3/5 196/3/5 199/3/5
f 201/3/5 198/3/5 197/3/5
f 201/2/5 197/2/5 200/2/5
f 202/3/5 198/3/5 201/3/5
f 207/3/5 204/3/5 203/3/5
f 208/2/5 205/2/5 204/2/5
f 208/3/5 204/3/5 207/3/5
f 209/3/5 206/3/5 205/3/5
f 209/2/5 205/2/5 208/2/5
f 210/3/5 206/3/5 209/3/5
f 211/3/6 212/3/6 213/3/6
f 213/3/6 212/3/6 214/3/6
f 211/3/6 213/3/6 215/3/6
f 213/2/6 214/2/6 216/2/6
f 215/3/6 213/3/6 216/3/6
f 214/3/6 212/3/6 217/3/6
f 216/2/6 214/2/6 217/2/6
f 217/3/6 212/3/6 218/3/6
f 219/3/6 220/3/6 223/3/6
f 220/2/6 221/2/6 224/2/6
f 223/3/6 220/3/6 224/3/6
f 221/3/6 222/3/6 225/3/6
f 224/2/6 221/2/6 225/2/6
f 225/3/6 222/3/6 226/3/6
f 227/3/6 228/3/6 231/3/6
f 228/2/6 229/2/6 232/2/6
f 231/3/6 228/3/6 232/3/6
f 229/3/6 230/3/6 233/3/6
f 232/2/6 229/2/6 233/2/6
f 233/3/6 230/3/6 234/3/6
f 235/3/6 236/3/6 239/3/6
f 236/2/6 237/2/6 240/2/6
f 239/3/6 236/3/6 240/3/6
f 237/3/6 238/3/6 241/3/6
f 240/2/6 237/2/6 241/2/6
f 241/3/6 238/3/6 242/3/6
f 243/3/6 244/3/6 247/3/6
f 244/2/6 245/2/6 248/2/6
f 247/3/6 244/3/6 248/3/6
f 245/3/6 246/3/6 249/3/6
f 248/2/6 245/2/6 249/2/6
f 249/3/6 246/3/6 250/3/6
f 251/3/6 252/3/6 255/3/6
f 252/2/6 253/2/6 256/2/6
f 255/3/6 252/3/6 256/3/6
f 253/3/6 254/3/6 257/3/6
f 256/2/6 253/2/6 257/2/6
f 257/3/6 254/3/6 258/3/6
f 259/3/6 260/3/6 261/3/6
f 261/3/6 260/3/6 262/3/6
f 261/1/6 262/1/6 263/1/6
f 263/1/6 262/1/6 264/1/6
