# MagicaVoxel @ Ephtracy

# group
o 

# material
mtllib papka_1.mtl
usemtl palette

# normals
vn -1 0 0
vn 1 0 0
vn 0 0 1
vn 0 0 -1
vn 0 -1 0
vn 0 1 0

# texcoords
vt 0.919922 0.5
vt 0.958984 0.5
vt 0.994141 0.5

# verts
v -0.8 0 0
v -0.8 0 -0.1
v -0.8 0.1 0.1
v -0.8 0.1 0
v -0.8 0.1 -0.1
v -0.8 0.1 -0.2
v -0.8 0.2 0.1
v -0.8 0.2 0
v -0.8 0.2 -0.1
v -0.8 0.2 -0.2
v -0.8 1.3 0.1
v -0.8 1.3 0
v -0.8 1.3 -0.1
v -0.8 1.3 -0.2
v -0.7 0.2 0
v -0.7 0.2 -0.1
v -0.7 1.2 0
v -0.7 1.2 -0.1
v 0.7 0.2 0
v 0.7 0.2 -0.1
v 0.7 1.2 0
v 0.7 1.2 -0.1
v 0.8 0 0
v 0.8 0 -0.1
v 0.8 0.1 0.1
v 0.8 0.1 0
v 0.8 0.1 -0.1
v 0.8 0.1 -0.2
v 0.8 0.2 0.1
v 0.8 0.2 0
v 0.8 0.2 -0.1
v 0.8 0.2 -0.2
v 0.8 1.3 0.1
v 0.8 1.3 0
v 0.8 1.3 -0.1
v 0.8 1.3 -0.2
v -0.8 0.1 0.1
v -0.8 0.2 0.1
v -0.8 1.3 0.1
v 0.8 0.1 0.1
v 0.8 0.2 0.1
v 0.8 1.3 0.1
v -0.8 0 0
v -0.8 0.1 0
v 0.8 0 0
v 0.8 0.1 0
v -0.8 0.1 -0.1
v -0.8 0.2 -0.1
v -0.8 1.3 -0.1
v -0.7 0.2 -0.1
v -0.7 1.2 -0.1
v 0.7 0.2 -0.1
v 0.7 1.2 -0.1
v 0.8 0.1 -0.1
v 0.8 0.2 -0.1
v 0.8 1.3 -0.1
v -0.8 0.1 0
v -0.8 0.2 0
v -0.8 1.3 0
v -0.7 0.2 0
v -0.7 1.2 0
v 0.7 0.2 0
v 0.7 1.2 0
v 0.8 0.1 0
v 0.8 0.2 0
v 0.8 1.3 0
v -0.8 0 -0.1
v -0.8 0.1 -0.1
v 0.8 0 -0.1
v 0.8 0.1 -0.1
v -0.8 0.1 -0.2
v -0.8 0.2 -0.2
v -0.8 1.3 -0.2
v 0.8 0.1 -0.2
v 0.8 0.2 -0.2
v 0.8 1.3 -0.2
v -0.8 0 0
v 0.8 0 0
v -0.8 0 -0.1
v 0.8 0 -0.1
v -0.8 0.1 0.1
v 0.8 0.1 0.1
v -0.8 0.1 0
v 0.8 0.1 0
v -0.8 0.1 -0.1
v 0.8 0.1 -0.1
v -0.8 0.1 -0.2
v 0.8 0.1 -0.2
v -0.7 0.2 0
v 0.7 0.2 0
v -0.7 0.2 -0.1
v 0.7 0.2 -0.1
v -0.8 0.1 0
v 0.8 0.1 0
v -0.8 0.1 -0.1
v 0.8 0.1 -0.1
v -0.7 1.2 0
v 0.7 1.2 0
v -0.7 1.2 -0.1
v 0.7 1.2 -0.1
v -0.8 1.3 0.1
v 0.8 1.3 0.1
v -0.8 1.3 0
v 0.8 1.3 0
v -0.8 1.3 -0.1
v 0.8 1.3 -0.1
v -0.8 1.3 -0.2
v 0.8 1.3 -0.2

# faces
f 4/3/1 2/3/1 1/3/1
f 5/3/1 2/3/1 4/3/1
f 7/3/1 4/3/1 3/3/1
f 8/3/1 4/3/1 7/3/1
f 9/3/1 6/3/1 5/3/1
f 10/3/1 6/3/1 9/3/1
f 11/2/1 8/2/1 7/2/1
f 12/2/1 8/2/1 11/2/1
f 13/2/1 10/2/1 9/2/1
f 14/2/1 10/2/1 13/2/1
f 17/1/1 16/1/1 15/1/1
f 18/1/1 16/1/1 17/1/1
f 19/1/2 20/1/2 21/1/2
f 21/1/2 20/1/2 22/1/2
f 23/3/2 24/3/2 26/3/2
f 26/3/2 24/3/2 27/3/2
f 25/3/2 26/3/2 29/3/2
f 29/3/2 26/3/2 30/3/2
f 27/3/2 28/3/2 31/3/2
f 31/3/2 28/3/2 32/3/2
f 29/2/2 30/2/2 33/2/2
f 33/2/2 30/2/2 34/2/2
f 31/2/2 32/2/2 35/2/2
f 35/2/2 32/2/2 36/2/2
f 40/3/3 38/3/3 37/3/3
f 41/2/3 39/2/3 38/2/3
f 41/3/3 38/3/3 40/3/3
f 42/2/3 39/2/3 41/2/3
f 45/3/3 44/3/3 43/3/3
f 46/3/3 44/3/3 45/3/3
f 50/3/3 48/3/3 47/3/3
f 50/2/3 49/2/3 48/2/3
f 51/2/3 49/2/3 50/2/3
f 52/3/3 50/3/3 47/3/3
f 53/2/3 49/2/3 51/2/3
f 54/3/3 52/3/3 47/3/3
f 55/2/3 53/2/3 52/2/3
f 55/3/3 52/3/3 54/3/3
f 56/2/3 49/2/3 53/2/3
f 56/2/3 53/2/3 55/2/3
f 57/3/4 58/3/4 60/3/4
f 58/2/4 59/2/4 60/2/4
f 60/2/4 59/2/4 61/2/4
f 57/3/4 60/3/4 62/3/4
f 61/2/4 59/2/4 63/2/4
f 57/3/4 62/3/4 64/3/4
f 62/2/4 63/2/4 65/2/4
f 64/3/4 62/3/4 65/3/4
f 63/2/4 59/2/4 66/2/4
f 65/2/4 63/2/4 66/2/4
f 67/3/4 68/3/4 69/3/4
f 69/3/4 68/3/4 70/3/4
f 71/3/4 72/3/4 74/3/4
f 72/2/4 73/2/4 75/2/4
f 74/3/4 72/3/4 75/3/4
f 75/2/4 73/2/4 76/2/4
f 79/3/5 78/3/5 77/3/5
f 80/3/5 78/3/5 79/3/5
f 83/3/5 82/3/5 81/3/5
f 84/3/5 82/3/5 83/3/5
f 87/3/5 86/3/5 85/3/5
f 88/3/5 86/3/5 87/3/5
f 91/1/5 90/1/5 89/1/5
f 92/1/5 90/1/5 91/1/5
f 93/3/6 94/3/6 95/3/6
f 95/3/6 94/3/6 96/3/6
f 97/1/6 98/1/6 99/1/6
f 99/1/6 98/1/6 100/1/6
f 101/2/6 102/2/6 103/2/6
f 103/2/6 102/2/6 104/2/6
f 105/2/6 106/2/6 107/2/6
f 107/2/6 106/2/6 108/2/6
