# MagicaVoxel @ Ephtracy

# group
o 

# material
mtllib Pen.mtl
usemtl palette

# normals
vn -1 0 0
vn 1 0 0
vn 0 0 1
vn 0 0 -1
vn 0 -1 0
vn 0 1 0

# texcoords
vt 0.931641 0.5
vt 0.966797 0.5
vt 0.986328 0.5
vt 0.990234 0.5

# verts
v -0.1 0 0
v -0.1 0 -0.1
v -0.1 0.5 0
v -0.1 0.5 -0.1
v -0.1 0.6 0
v -0.1 0.6 -0.1
v -0.1 1.1 0
v -0.1 1.1 -0.1
v -0.1 1.6 0
v -0.1 1.6 -0.1
v -0.1 1.8 0
v -0.1 1.8 -0.1
v -0.1 1.9 0
v -0.1 1.9 -0.1
v 0 0 0
v 0 0 -0.1
v 0 0.1 0
v 0 0.1 -0.1
v 0 0.4 0
v 0 0.4 -0.1
v 0 0.5 0
v 0 0.5 -0.1
v 0 0.6 0
v 0 0.6 -0.1
v 0 1.1 0
v 0 1.1 -0.1
v 0 1.6 0
v 0 1.6 -0.1
v 0 1.8 0
v 0 1.8 -0.1
v 0 1.9 0
v 0 1.9 -0.1
v 0.1 0.1 0
v 0.1 0.1 -0.1
v 0.1 0.4 0
v 0.1 0.4 -0.1
v -0.1 0 0
v -0.1 0.5 0
v -0.1 0.6 0
v -0.1 1.1 0
v -0.1 1.6 0
v -0.1 1.8 0
v -0.1 1.9 0
v 0 0 0
v 0 0.1 0
v 0 0.4 0
v 0 0.5 0
v 0 0.6 0
v 0 1.1 0
v 0 1.6 0
v 0 1.8 0
v 0 1.9 0
v 0.1 0.1 0
v 0.1 0.4 0
v -0.1 0 -0.1
v -0.1 0.5 -0.1
v -0.1 0.6 -0.1
v -0.1 1.1 -0.1
v -0.1 1.6 -0.1
v -0.1 1.8 -0.1
v -0.1 1.9 -0.1
v 0 0 -0.1
v 0 0.1 -0.1
v 0 0.4 -0.1
v 0 0.5 -0.1
v 0 0.6 -0.1
v 0 1.1 -0.1
v 0 1.6 -0.1
v 0 1.8 -0.1
v 0 1.9 -0.1
v 0.1 0.1 -0.1
v 0.1 0.4 -0.1
v -0.1 0 0
v 0 0 0
v -0.1 0 -0.1
v 0 0 -0.1
v 0 0.1 0
v 0.1 0.1 0
v 0 0.1 -0.1
v 0.1 0.1 -0.1
v 0 0.4 0
v 0.1 0.4 0
v 0 0.4 -0.1
v 0.1 0.4 -0.1
v -0.1 1.9 0
v 0 1.9 0
v -0.1 1.9 -0.1
v 0 1.9 -0.1

# faces
f 3/2/1 2/2/1 1/2/1
f 4/2/1 2/2/1 3/2/1
f 5/4/1 4/4/1 3/4/1
f 6/4/1 4/4/1 5/4/1
f 7/2/1 6/2/1 5/2/1
f 8/2/1 6/2/1 7/2/1
f 9/3/1 8/3/1 7/3/1
f 10/3/1 8/3/1 9/3/1
f 11/2/1 10/2/1 9/2/1
f 12/2/1 10/2/1 11/2/1
f 13/1/1 12/1/1 11/1/1
f 14/1/1 12/1/1 13/1/1
f 15/2/2 16/2/2 17/2/2
f 17/2/2 16/2/2 18/2/2
f 19/2/2 20/2/2 21/2/2
f 21/2/2 20/2/2 22/2/2
f 21/4/2 22/4/2 23/4/2
f 23/4/2 22/4/2 24/4/2
f 23/2/2 24/2/2 25/2/2
f 25/2/2 24/2/2 26/2/2
f 25/3/2 26/3/2 27/3/2
f 27/3/2 26/3/2 28/3/2
f 27/2/2 28/2/2 29/2/2
f 29/2/2 28/2/2 30/2/2
f 29/1/2 30/1/2 31/1/2
f 31/1/2 30/1/2 32/1/2
f 33/4/2 34/4/2 35/4/2
f 35/4/2 34/4/2 36/4/2
f 44/2/3 38/2/3 37/2/3
f 45/2/3 38/2/3 44/2/3
f 46/2/3 38/2/3 45/2/3
f 47/4/3 39/4/3 38/4/3
f 47/2/3 38/2/3 46/2/3
f 48/2/3 40/2/3 39/2/3
f 48/4/3 39/4/3 47/4/3
f 49/3/3 41/3/3 40/3/3
f 49/2/3 40/2/3 48/2/3
f 50/2/3 42/2/3 41/2/3
f 50/3/3 41/3/3 49/3/3
f 51/1/3 43/1/3 42/1/3
f 51/2/3 42/2/3 50/2/3
f 52/1/3 43/1/3 51/1/3
f 53/4/3 46/4/3 45/4/3
f 54/4/3 46/4/3 53/4/3
f 55/2/4 56/2/4 62/2/4
f 62/2/4 56/2/4 63/2/4
f 63/2/4 56/2/4 64/2/4
f 56/4/4 57/4/4 65/4/4
f 64/2/4 56/2/4 65/2/4
f 57/2/4 58/2/4 66/2/4
f 65/4/4 57/4/4 66/4/4
f 58/3/4 59/3/4 67/3/4
f 66/2/4 58/2/4 67/2/4
f 59/2/4 60/2/4 68/2/4
f 67/3/4 59/3/4 68/3/4
f 60/1/4 61/1/4 69/1/4
f 68/2/4 60/2/4 69/2/4
f 69/1/4 61/1/4 70/1/4
f 63/4/4 64/4/4 71/4/4
f 71/4/4 64/4/4 72/4/4
f 75/2/5 74/2/5 73/2/5
f 76/2/5 74/2/5 75/2/5
f 79/4/5 78/4/5 77/4/5
f 80/4/5 78/4/5 79/4/5
f 81/4/6 82/4/6 83/4/6
f 83/4/6 82/4/6 84/4/6
f 85/1/6 86/1/6 87/1/6
f 87/1/6 86/1/6 88/1/6
